<svg width="32" height="32" viewBox="0 0 32 32" fill="none" xmlns="http://www.w3.org/2000/svg">
<path d="M12 10.0628C12 7.41281 14.2468 4.7941 15.8237 3.28244C16.6803 2.46144 17.9864 2.46144 18.8429 3.28244C20.4199 4.7941 22.6667 7.41281 22.6667 10.0628C22.6667 12.661 20.6471 15.3334 17.3333 15.3334C14.0196 15.3334 12 12.661 12 10.0628Z" stroke="#133953"/>
<path d="M5.33337 18.6667H8.52647C8.91867 18.6667 9.30548 18.7551 9.65627 18.9248L12.3789 20.2422C12.7297 20.4119 13.1165 20.5002 13.5087 20.5002H14.8988C16.2434 20.5002 17.3334 21.555 17.3334 22.856C17.3334 22.9086 17.2974 22.9548 17.2451 22.9692L13.8572 23.906C13.2495 24.074 12.5987 24.0155 12.0334 23.7419L9.12285 22.3338" stroke="#133953" stroke-linecap="round" stroke-linejoin="round"/>
<path d="M17.3334 22L23.4571 20.1185C24.5427 19.7802 25.7162 20.1813 26.3962 21.123C26.8879 21.8038 26.6876 22.7789 25.9714 23.1922L15.9506 28.974C15.3132 29.3417 14.5612 29.4314 13.8603 29.2234L5.33337 26.6932" stroke="#133953" stroke-linecap="round" stroke-linejoin="round"/>
</svg>
