<svg width="16" height="17" viewBox="0 0 16 17" fill="none" xmlns="http://www.w3.org/2000/svg">
<path d="M12.6604 13.1668H12.6667H12.6604ZM12.6604 13.1668C12.2452 13.5785 11.4929 13.476 10.9653 13.476C10.3177 13.476 10.0058 13.6026 9.54364 14.0648C9.15011 14.4584 8.62251 15.1668 8.00004 15.1668C7.37757 15.1668 6.84997 14.4584 6.45642 14.0648C5.99423 13.6026 5.68237 13.476 5.03475 13.476C4.50716 13.476 3.75483 13.5785 3.3397 13.1668C2.92125 12.7519 3.02423 11.9964 3.02423 11.4654C3.02423 10.7944 2.87748 10.4859 2.39963 10.008C1.6888 9.29723 1.33339 8.94176 1.33337 8.50016C1.33338 8.0585 1.68879 7.7031 2.39961 6.99228C2.82617 6.56571 3.02423 6.14302 3.02423 5.53487C3.02423 5.00726 2.9217 4.25492 3.33337 3.83979C3.74833 3.42135 4.50377 3.52434 5.03476 3.52434C5.64289 3.52434 6.06559 3.3263 6.49214 2.89974C7.20297 2.18891 7.55837 1.8335 8.00004 1.8335C8.44171 1.8335 8.79711 2.18891 9.50791 2.89974C9.93437 3.32621 10.357 3.52434 10.9653 3.52434C11.4929 3.52434 12.2453 3.42181 12.6604 3.8335C13.0788 4.24845 12.9758 5.00389 12.9758 5.53487C12.9758 6.20588 13.1226 6.51441 13.6004 6.99228C14.3113 7.7031 14.6667 8.0585 14.6667 8.50016C14.6667 8.94176 14.3113 9.29723 13.6004 10.008C13.1226 10.4859 12.9758 10.7944 12.9758 11.4654C12.9758 11.9964 13.0788 12.7519 12.6604 13.1668Z" fill="#2673A6"/>
<path d="M6 9.09543C6 9.09543 6.8 9.52996 7.2 10.1668C7.2 10.1668 8.4 7.66683 10 6.8335" stroke="#F8F8F8" stroke-linecap="round" stroke-linejoin="round"/>
</svg>
