<svg width="32" height="34" viewBox="0 0 32 34" fill="none" xmlns="http://www.w3.org/2000/svg">
<path d="M23.1997 8.78391C23.7718 8.21185 24.4887 7.87302 25.2325 7.76741M25.2325 7.76741C26.313 7.61398 27.4499 7.95282 28.281 8.78391C29.6842 10.1871 29.6842 12.4621 28.281 13.8652C27.1505 14.9958 25.4539 15.2154 24.1034 14.5241C23.5514 14.2416 22.8442 14.2207 22.4058 14.6592L13.6594 23.4056C13.2209 23.844 13.2418 24.5512 13.5243 25.1032C14.2157 26.4537 13.9961 28.1502 12.8655 29.2808C11.4623 30.684 9.18733 30.684 7.78416 29.2808C6.95306 28.4497 6.61422 27.3128 6.76765 26.2322M25.2325 7.76741C25.3859 6.68691 25.0471 5.54998 24.2159 4.71887C22.8129 3.31571 20.5378 3.31571 19.1347 4.71887C18.0041 5.84943 17.7845 7.54598 18.4758 8.89646C18.7583 9.44845 18.7793 10.1556 18.3407 10.5941L9.59437 19.3405C9.15589 19.779 8.44869 19.7581 7.89671 19.4756C6.54623 18.7842 4.84968 19.0038 3.71912 20.1345C2.31596 21.5376 2.31596 23.8126 3.71912 25.2157C4.55021 26.0469 5.68717 26.3857 6.76765 26.2322M6.76765 26.2322C7.51138 26.1266 8.22836 25.7878 8.80042 25.2157" stroke="#1C567D" stroke-width="1.5" stroke-linecap="round" stroke-linejoin="round"/>
</svg>
