<svg width="32" height="34" viewBox="0 0 32 34" fill="none" xmlns="http://www.w3.org/2000/svg">
<path d="M26.3703 30.3262V25.5933C26.3703 23.8981 26.8142 23.0169 27.6868 21.5436C28.7329 19.7776 29.3333 17.7165 29.3333 15.5153C29.3333 8.97138 24.027 3.6665 17.4814 3.6665C10.9358 3.6665 5.62952 8.97138 5.62952 15.5153C5.62952 16.2882 5.62952 16.6748 5.59725 16.8914C5.52019 17.4094 5.27845 17.855 5.04072 18.3162L2.66659 22.9208L4.53245 23.8534C5.07325 24.1237 5.34352 24.2589 5.53192 24.5084C5.72032 24.7577 5.77325 25.0393 5.87939 25.6024L5.88979 25.6573C6.13272 26.9473 6.40085 28.3713 7.15605 29.2697C7.42272 29.5869 7.75285 29.8446 8.12539 30.0264C8.74032 30.3262 9.49632 30.3262 11.0083 30.3262C11.7079 30.3262 12.4095 30.3424 13.109 30.3254C14.767 30.285 15.9999 28.891 15.9999 27.2724" stroke="#1C567D" stroke-width="1.5" stroke-linecap="round" stroke-linejoin="round"/>
<path d="M12.8159 15.0418C13.3843 15.0418 13.9027 14.8268 14.2954 14.4729M12.8159 15.0418C12.8159 16.5697 13.7011 18.0209 15.4051 18.0209C17.1091 18.0209 17.9942 19.472 17.9942 20.9998M12.8159 15.0418C9.95019 15.0418 9.95019 10.5734 12.8159 10.5734C13.0763 10.5734 13.3262 10.6185 13.5583 10.7015C13.4183 7.37076 18.2201 6.4665 19.3076 9.58674M19.3076 9.58674C18.5155 10.1213 17.9942 11.0308 17.9942 12.0629M19.3076 9.58674C21.7767 7.92029 25.0681 10.9106 23.5023 13.5769C26.1302 13.9709 25.8493 18.0209 23.1726 18.0209C22.422 18.0209 21.7584 17.6457 21.3568 17.0716" stroke="#1C567D" stroke-width="1.5" stroke-linecap="round" stroke-linejoin="round"/>
</svg>
