<svg width="32" height="34" viewBox="0 0 32 34" fill="none" xmlns="http://www.w3.org/2000/svg">
<path d="M26.3703 30.3262V25.5933C26.3703 23.8981 26.8142 23.0169 27.6868 21.5436C28.7329 19.7776 29.3333 17.7165 29.3333 15.5153C29.3333 8.97138 24.027 3.6665 17.4814 3.6665C10.9358 3.6665 5.62952 8.97138 5.62952 15.5153C5.62952 16.2882 5.62952 16.6748 5.59725 16.8914C5.52019 17.4094 5.27845 17.855 5.04072 18.3162L2.66659 22.9208L4.53245 23.8534C5.07325 24.1237 5.34352 24.2589 5.53192 24.5084C5.72032 24.7577 5.77325 25.0393 5.87939 25.6024L5.88979 25.6573C6.13272 26.9473 6.40085 28.3713 7.15605 29.2697C7.42272 29.5869 7.75285 29.8446 8.12539 30.0264C8.74032 30.3262 9.49632 30.3262 11.0083 30.3262C11.7079 30.3262 12.4095 30.3424 13.109 30.3254C14.767 30.285 15.9999 28.891 15.9999 27.2724" stroke="#1C567D" stroke-width="1.5" stroke-linecap="round" stroke-linejoin="round"/>
<path d="M11.6378 15.8504C12.3354 15.8504 12.9716 15.5923 13.4535 15.1677M11.6378 15.8504C11.6378 17.6838 12.7242 19.4253 14.8154 19.4253C16.9067 19.4253 17.9929 21.1666 17.9929 23M11.6378 15.8504C8.12074 15.8504 8.12074 10.4883 11.6378 10.4883C11.9574 10.4883 12.264 10.5424 12.5489 10.642C12.3771 6.6451 18.2701 5.56 19.6049 9.30429M19.6049 9.30429C18.6328 9.94576 19.5 8.2615 19.5 9.5M19.6049 9.30429C22.6351 7.30454 26.6746 10.893 24.7529 14.0924C27.9781 14.5652 27.6333 19.4253 24.3483 19.4253C23.4271 19.4253 22.6127 18.975 22.1198 18.2861" stroke="#1C567D" stroke-width="1.5" stroke-linecap="round" stroke-linejoin="round"/>
<path d="M21.4876 12.3314C20.5937 11.7831 19.8135 12.004 19.3449 12.356C19.1527 12.5003 19.0566 12.5725 19.0001 12.5725C18.9435 12.5725 18.8475 12.5003 18.6553 12.356C18.1866 12.004 17.4064 11.7831 16.5126 12.3314C15.3394 13.051 15.074 15.4249 17.7799 17.4278C18.2953 17.8093 18.553 18 19.0001 18C19.4471 18 19.7048 17.8093 20.2202 17.4278C22.9262 15.4249 22.6607 13.051 21.4876 12.3314Z" stroke="#1C567D" stroke-linecap="round"/>
<path d="M19 14V16M18 15H20" stroke="#1C567D" stroke-width="0.5" stroke-linecap="round"/>
</svg>
