<svg width="40" height="40" viewBox="0 0 40 40" fill="none" xmlns="http://www.w3.org/2000/svg">
<path d="M18.3334 13.3333H21.6667C26.3807 13.3333 28.7377 13.3333 30.2022 14.7978C31.6667 16.2622 31.6667 18.6193 31.6667 23.3333C31.6667 28.0473 31.6667 30.4043 30.2022 31.8688C28.7377 33.3333 26.3807 33.3333 21.6667 33.3333H20C20 33.3333 19.1667 36.6666 13.3334 36.6666C13.3334 36.6666 15 34.9855 15 33.3045C12.411 33.2265 10.8667 32.9376 9.79784 31.8688C8.33337 30.4043 8.33337 28.0473 8.33337 23.3333C8.33337 18.6193 8.33337 16.2622 9.79784 14.7978C11.2623 13.3333 13.6193 13.3333 18.3334 13.3333Z" fill="#3A95D2" stroke="#3A95D2" stroke-width="1.5" stroke-linejoin="round"/>
<path d="M31.6666 19.1667H32.5C34.0576 19.1667 34.8365 19.1667 35.4166 19.5017C35.7966 19.721 36.1123 20.0367 36.3316 20.4167C36.6666 20.9969 36.6666 21.7757 36.6666 23.3334C36.6666 24.891 36.6666 25.6699 36.3316 26.25C36.1123 26.63 35.7966 26.9457 35.4166 27.165C34.8365 27.5 34.0576 27.5 32.5 27.5H31.6666" stroke="#3A95D2" stroke-width="1.5" stroke-linejoin="round"/>
<path d="M8.33337 19.1667H7.50004C5.94234 19.1667 5.16351 19.1667 4.58337 19.5017C4.20332 19.721 3.88772 20.0367 3.66831 20.4167C3.33337 20.9969 3.33337 21.7757 3.33337 23.3334C3.33337 24.891 3.33337 25.6699 3.66831 26.25C3.88772 26.63 4.20332 26.9457 4.58337 27.165C5.16351 27.5 5.94234 27.5 7.50004 27.5H8.33337" stroke="#3A95D2" stroke-width="1.5" stroke-linejoin="round"/>
<path d="M22.5 5.83331C22.5 7.21403 21.3807 8.33331 20 8.33331C18.6193 8.33331 17.5 7.21403 17.5 5.83331C17.5 4.4526 18.6193 3.33331 20 3.33331C21.3807 3.33331 22.5 4.4526 22.5 5.83331Z" stroke="#3A95D2" stroke-width="1.5"/>
<path d="M20 8.33331V13.3333" stroke="#3A95D2" stroke-width="1.5" stroke-linecap="round" stroke-linejoin="round"/>
<path d="M15 20V21.6667M25 20V21.6667" stroke="white" stroke-width="1.5" stroke-linecap="round" stroke-linejoin="round"/>
<path d="M16.6666 27.5C16.6666 27.5 17.7778 28.3333 20 28.3333C22.2221 28.3333 23.3333 27.5 23.3333 27.5" stroke="white" stroke-width="1.5" stroke-linecap="round"/>
</svg>
