<svg width="46" height="45" viewBox="0 0 46 45" fill="none" xmlns="http://www.w3.org/2000/svg">
<rect x="0.5" width="45" height="45" rx="22.5" fill="#3A95D2"/>
<path d="M21.6667 17.6667H24.3333C28.1045 17.6667 29.9901 17.6667 31.1617 18.8382C32.3333 20.0098 32.3333 21.8955 32.3333 25.6667C32.3333 29.4379 32.3333 31.3235 31.1617 32.4951C29.9901 33.6667 28.1045 33.6667 24.3333 33.6667H23C23 33.6667 22.3333 36.3333 17.6667 36.3333C17.6667 36.3333 19 34.9884 19 33.6436C16.9287 33.5812 15.6933 33.3501 14.8382 32.4951C13.6667 31.3235 13.6667 29.4379 13.6667 25.6667C13.6667 21.8955 13.6667 20.0098 14.8382 18.8382C16.0098 17.6667 17.8954 17.6667 21.6667 17.6667Z" stroke="#F8F8F8" stroke-width="1.5" stroke-linejoin="round"/>
<path d="M32.3333 22.3333H33C34.2461 22.3333 34.8692 22.3333 35.3333 22.6013C35.6373 22.7768 35.8899 23.0293 36.0653 23.3333C36.3333 23.7975 36.3333 24.4205 36.3333 25.6667C36.3333 26.9128 36.3333 27.5359 36.0653 28C35.8899 28.304 35.6373 28.5565 35.3333 28.732C34.8692 29 34.2461 29 33 29H32.3333" stroke="#F8F8F8" stroke-width="1.5" stroke-linejoin="round"/>
<path d="M13.6667 22.3333H13C11.7538 22.3333 11.1308 22.3333 10.6667 22.6013C10.3626 22.7768 10.1102 23.0293 9.93462 23.3333C9.66667 23.7975 9.66667 24.4205 9.66667 25.6667C9.66667 26.9128 9.66667 27.5359 9.93462 28C10.1102 28.304 10.3626 28.5565 10.6667 28.732C11.1308 29 11.7538 29 13 29H13.6667" stroke="#F8F8F8" stroke-width="1.5" stroke-linejoin="round"/>
<path d="M25 11.6667C25 12.7712 24.1045 13.6667 23 13.6667C21.8955 13.6667 21 12.7712 21 11.6667C21 10.5621 21.8955 9.66666 23 9.66666C24.1045 9.66666 25 10.5621 25 11.6667Z" stroke="#F8F8F8" stroke-width="1.5"/>
<path d="M23 13.6667V17.6667" stroke="#F8F8F8" stroke-width="1.5" stroke-linecap="round" stroke-linejoin="round"/>
<path d="M19 23V24.3333M27 23V24.3333" stroke="#F8F8F8" stroke-width="1.5" stroke-linecap="round" stroke-linejoin="round"/>
<path d="M20.3333 29C20.3333 29 21.2223 29.6667 23 29.6667C24.7777 29.6667 25.6667 29 25.6667 29" stroke="#F8F8F8" stroke-width="1.5" stroke-linecap="round"/>
</svg>
