<svg width="32" height="32" viewBox="0 0 32 32" fill="none" xmlns="http://www.w3.org/2000/svg">
<path d="M23.3333 28C20.756 28 18.6666 25.9107 18.6666 23.3333V4H28V23.3333C28 25.9107 25.9106 28 23.3333 28Z" stroke="#2673A6" stroke-width="1.5"/>
<path d="M29.3334 4H17.3334" stroke="#2673A6" stroke-width="1.5" stroke-linecap="round"/>
<path d="M22.6666 9.33331H18.6666" stroke="#2673A6" stroke-width="1.5" stroke-linecap="round"/>
<path d="M13.3333 22.5C13.3333 26.5501 10.6666 28 7.99996 28C5.33329 28 2.66663 26.5501 2.66663 22.5C2.66663 18.4498 7.99996 13.3333 7.99996 13.3333C7.99996 13.3333 13.3333 18.4498 13.3333 22.5Z" stroke="#2673A6" stroke-width="1.5" stroke-linejoin="round"/>
<path d="M18.6666 16C20.1106 14.8448 21.7298 13.1712 23.6946 14.3501C25.3352 15.3345 26.7122 14.2992 28 13.3333" stroke="#2673A6" stroke-width="1.5" stroke-linecap="round"/>
</svg>
