<svg width="32" height="32" viewBox="0 0 32 32" fill="none" xmlns="http://www.w3.org/2000/svg">
<path d="M21.3333 2.66669V6.66669M8 2.66669V6.66669" stroke="#2673A6" stroke-width="1.5" stroke-linecap="round" stroke-linejoin="round"/>
<path d="M26.6667 17.3334V15.3334C26.6667 10.305 26.6667 7.79089 25.1046 6.22878C23.5426 4.66669 21.0283 4.66669 16.0001 4.66669H13.3334C8.30509 4.66669 5.79095 4.66669 4.22884 6.22878C2.66675 7.79089 2.66675 10.305 2.66675 15.3334V18.6667C2.66675 23.695 2.66675 26.2092 4.22884 27.7712C5.79095 29.3334 8.30509 29.3334 13.3334 29.3334H15.3334" stroke="#2673A6" stroke-width="1.5" stroke-linecap="round" stroke-linejoin="round"/>
<path d="M18.6666 26C18.6666 26 20.4646 26.6756 21.3333 29.3333C21.3333 29.3333 25.5686 22.6666 29.3333 21.3333" stroke="#2673A6" stroke-width="1.5" stroke-linecap="round" stroke-linejoin="round"/>
<path d="M3.33325 11.3333H25.9999" stroke="#2673A6" stroke-width="1.5" stroke-linecap="round" stroke-linejoin="round"/>
</svg>
