<svg width="32" height="32" viewBox="0 0 32 32" fill="none" xmlns="http://www.w3.org/2000/svg">
<path d="M26.6667 29.3333V25.3333C26.6667 21.5621 26.6667 19.6765 25.4951 18.5049C24.3235 17.3333 22.4379 17.3333 18.6667 17.3333L16 20L13.3334 17.3333C9.56213 17.3333 7.67652 17.3333 6.50495 18.5049C5.33337 19.6765 5.33337 21.5621 5.33337 25.3333V29.3333" stroke="#2673A6" stroke-width="1.5" stroke-linecap="round" stroke-linejoin="round"/>
<path d="M21.3334 17.3333V24.6666" stroke="#2673A6" stroke-width="1.5" stroke-linecap="round" stroke-linejoin="round"/>
<path d="M11.3333 17.3333V22.6666M11.3333 22.6666C12.8061 22.6666 14 23.8605 14 25.3333V26.6666M11.3333 22.6666C9.86053 22.6666 8.66663 23.8605 8.66663 25.3333V26.6666" stroke="#2673A6" stroke-width="1.5" stroke-linecap="round" stroke-linejoin="round"/>
<path d="M20.6667 8.66669V7.33335C20.6667 4.75602 18.5774 2.66669 16 2.66669C13.4227 2.66669 11.3334 4.75602 11.3334 7.33335V8.66669C11.3334 11.244 13.4227 13.3334 16 13.3334C18.5774 13.3334 20.6667 11.244 20.6667 8.66669Z" stroke="#2673A6" stroke-width="1.5" stroke-linecap="round" stroke-linejoin="round"/>
<path d="M22.3334 25.6667C22.3334 26.219 21.8856 26.6667 21.3334 26.6667C20.7811 26.6667 20.3334 26.219 20.3334 25.6667C20.3334 25.1144 20.7811 24.6667 21.3334 24.6667C21.8856 24.6667 22.3334 25.1144 22.3334 25.6667Z" stroke="#2673A6" stroke-width="1.5"/>
</svg>
