<svg width="32" height="32" viewBox="0 0 32 32" fill="none" xmlns="http://www.w3.org/2000/svg">
<path d="M12.9698 2.66669C8.62151 2.66669 6.44736 2.66669 4.93751 3.73047C4.50491 4.03526 4.12085 4.39671 3.79701 4.80387C2.66675 6.22491 2.66675 8.27117 2.66675 12.3637V15.7576C2.66675 19.7086 2.66675 21.6839 3.292 23.2616C4.29716 25.7982 6.42293 27.7988 9.11789 28.7448C10.7943 29.3334 12.8932 29.3334 17.091 29.3334C19.4898 29.3334 20.6891 29.3334 21.647 28.9971C23.187 28.4566 24.4017 27.3132 24.9761 25.8639C25.3334 24.9623 25.3334 23.8335 25.3334 21.5758V20.6667" stroke="#2673A6" stroke-width="1.5" stroke-linecap="round" stroke-linejoin="round"/>
<path d="M20 9.99998C20 9.99998 20.6667 9.99998 21.3333 11.3333C21.3333 11.3333 23.4509 7.99998 25.3333 7.33331" stroke="#2673A6" stroke-width="1.5" stroke-linecap="round" stroke-linejoin="round"/>
<path d="M29.3333 9.33335C29.3333 13.0152 26.3485 16 22.6667 16C18.9848 16 16 13.0152 16 9.33335C16 5.65146 18.9848 2.66669 22.6667 2.66669C26.3485 2.66669 29.3333 5.65146 29.3333 9.33335Z" stroke="#2673A6" stroke-width="1.5" stroke-linecap="round"/>
<path d="M2.66675 16C2.66675 18.4545 4.65659 20.4444 7.11119 20.4444C7.99891 20.4444 9.04547 20.2889 9.90857 20.5201C10.6754 20.7256 11.2744 21.3247 11.4799 22.0915C11.7112 22.9547 11.5556 24.0012 11.5556 24.8889C11.5556 27.3435 13.5455 29.3333 16.0001 29.3333" stroke="#2673A6" stroke-width="1.5" stroke-linecap="round" stroke-linejoin="round"/>
</svg>
