<svg width="32" height="32" viewBox="0 0 32 32" fill="none" xmlns="http://www.w3.org/2000/svg">
<path d="M18.6666 6.66669C18 7.33335 16.6622 7.21639 14.6666 5.56845M14.6666 5.56845C14.9618 5.32471 15.2685 5.04778 15.5853 4.73378C18.6596 1.68749 22.8464 2.28391 24.808 4.73378C25.6426 5.77619 27.2789 7.77503 26.4284 12.6667M14.6666 5.56845C14.3714 5.32471 14.0648 5.04778 13.748 4.73378C10.6737 1.68749 6.48688 2.28391 4.52528 4.73378C3.17041 6.42589 -0.296678 10.6381 8.18949 25.6528C8.54084 26.2744 9.24076 26.6667 9.99464 26.6667C11.1973 26.6667 12.1372 25.7068 12.1763 24.5866C12.237 22.8487 12.573 20.9138 13.5112 20" stroke="#133953" stroke-linecap="round" stroke-linejoin="round"/>
<path d="M21.3334 22.6667L22.2454 23.5787C22.442 23.7753 22.5403 23.8736 22.6594 23.8671C22.7783 23.8604 22.8652 23.7519 23.039 23.5347L25.3328 20.6667M17.3334 20.6057V21.1204C17.3334 22.7229 17.3334 23.5241 17.5312 24.2575C17.7755 25.1631 18.2388 25.9981 18.8822 26.6929C19.403 27.2555 20.0904 27.6935 21.4651 28.5695C22.0806 28.9616 22.3883 29.1577 22.7154 29.2489C23.1194 29.3615 23.5474 29.3615 23.9514 29.2489C24.2784 29.1577 24.5862 28.9616 25.2016 28.5695C26.5763 27.6935 27.2638 27.2555 27.7846 26.6929C28.4279 25.9981 28.8912 25.1631 29.1355 24.2575C29.3334 23.5241 29.3334 22.7229 29.3334 21.1204V20.6057C29.3334 19.6079 29.3334 19.1089 29.1443 18.6876C29.0276 18.4277 28.8606 18.1924 28.6523 17.9947C28.3146 17.674 27.836 17.4988 26.8787 17.1484L24.9134 16.4291C24.132 16.1431 23.7414 16 23.3334 16C22.9254 16 22.5347 16.1431 21.7534 16.4291L19.788 17.1484C18.8307 17.4988 18.3522 17.674 18.0144 17.9947C17.8062 18.1924 17.6391 18.4277 17.5224 18.6876C17.3334 19.1089 17.3334 19.6079 17.3334 20.6057Z" stroke="#133953" stroke-linecap="round" stroke-linejoin="round"/>
</svg>
