<svg width="32" height="32" viewBox="0 0 32 32" fill="none" xmlns="http://www.w3.org/2000/svg">
<mask id="path-1-inside-1_4257_4143" fill="white">
<path d="M16.3199 3.9043H17.4719L18.0906 3.9683L18.6026 4.05363L19.2426 4.2243L19.7546 4.4163L20.1812 4.6083L20.6506 4.88563L21.0132 5.14163L21.2479 5.33363L21.4612 5.52563L21.8452 5.90963L22.0372 6.1443L22.2719 6.4643L22.5066 6.82696L22.8266 7.44563L23.0399 7.95763L23.2532 8.61896L23.4026 9.25896L23.5092 9.89896L23.5946 10.7523L23.6159 11.115V12.0323L23.5732 12.7576L23.4879 13.611L23.3812 14.3576L23.2319 15.1683L23.1252 15.6376L23.1466 15.7443L23.3812 15.979L23.5306 16.1496L23.7439 16.427L24.0212 16.875L24.1919 17.195L24.3839 17.6856L24.5119 18.1123L24.5972 18.5816L24.6399 18.9443V19.6056L24.5759 20.0963L24.4479 20.6296L24.2986 21.0776L24.0639 21.5896L23.8292 21.9736L23.6372 22.2296L23.3812 22.5283L23.1679 22.763L22.9972 22.9123L22.6986 23.147L22.3786 23.3603L21.9946 23.5736L21.4612 23.787L21.0132 23.915L20.5652 24.0003L20.1599 24.043H19.7546L19.3279 24.0003L18.7946 23.8936L18.3679 23.7656L17.9199 23.5736L17.5999 23.403L17.2799 23.1896L17.0239 22.9976L16.8106 22.8056L16.7252 22.7416V22.699L16.6399 22.6563L16.4052 22.4003L16.1492 22.059L15.9359 21.739L15.7012 21.291L15.5946 21.0136H15.3599L14.9546 20.971L14.5492 20.8856L14.2079 20.779L13.8879 20.651L13.4826 20.4163L13.3759 20.331L13.3119 20.3096L13.2692 20.843L13.1839 21.7176L13.0986 22.059L12.9919 22.315L12.8426 22.571L12.6719 22.7843L12.5439 22.9336L12.2879 23.1256L11.9892 23.2963L11.6479 23.4243L11.2852 23.4883L10.6239 23.5096H10.1119L9.27991 23.595L8.66124 23.723L8.14924 23.8723L7.74391 24.0216L7.21058 24.2776L6.84791 24.5123L6.59191 24.7043L6.20791 25.0883L5.99458 25.4083L5.88791 25.6643L5.82391 25.9416L5.80258 27.7976L5.75991 27.9683L5.67458 28.0963L5.48258 28.2243L5.39724 28.2456H5.22658L5.01324 28.139L4.88524 27.9683L4.84258 27.819V27.1576L4.86391 25.8776L4.92791 25.515L5.07724 25.1096L5.26924 24.7683L5.43991 24.5336L5.69591 24.235L5.97324 23.979L6.33591 23.7016L6.71991 23.467L7.21058 23.211L7.78658 22.9763L8.44791 22.7843L9.21591 22.635L9.55724 22.5923L10.3039 22.5496L11.2639 22.5283L11.5839 22.4216L11.8399 22.2723L11.9892 22.123L12.0959 21.9736L12.2026 21.675L12.2452 21.4616L12.3732 20.075L12.4159 19.5203L12.3519 19.4136L12.0959 19.115L11.8399 18.7736L11.5839 18.3896L11.3919 18.0696L11.0932 17.515L10.7946 16.875L10.4959 16.0856L10.2826 15.3816L10.1332 14.763L10.0266 14.2296L9.96258 14.4216L9.81324 15.083L9.70658 15.723L9.64258 16.2776L9.59991 16.9176L9.53591 17.1096L9.42924 17.2376L9.25858 17.323L9.06658 17.3443L8.87458 17.2803L8.74658 17.1736L8.66124 17.0243L8.63991 16.9176L8.66124 16.4696L8.78924 15.3816L8.91724 14.6563L9.06658 14.0376L9.21591 13.5683L9.34391 13.227L9.49324 12.8856L9.72791 12.4803L9.87724 12.267L10.1546 11.9256L10.3039 11.7763L10.6666 11.499L11.1146 11.2643L11.6266 11.0936L12.5866 10.8376L13.9092 10.4536L14.8052 10.1763L15.1679 10.0483L15.5092 9.87763L15.7652 9.7283L16.0426 9.51496L16.2559 9.30163L16.4052 9.0883L16.5759 8.74696L16.6399 8.46963L16.6612 8.1923L16.7466 7.97896L16.9172 7.85096L17.0452 7.8083H17.2159L17.4292 7.89363L17.5359 8.02163L17.5999 8.1923V8.5763L17.5359 8.91763L17.4079 9.2803L17.1732 9.68563L16.9386 9.96296L16.6399 10.2616L16.3412 10.4963L15.9359 10.7523L15.5306 10.9443L14.7626 11.2003L13.7599 11.499L12.5652 11.8403L11.8399 12.0323L11.4986 12.1603L11.2212 12.3096L10.9226 12.5443L10.8372 12.6296L10.8159 12.7363L10.8372 12.8003L10.8799 13.2483L11.0079 14.0376L11.1572 14.7203L11.3706 15.467L11.5839 16.0643L11.7546 16.491L11.9892 17.003L12.3092 17.6216L12.6079 18.091L12.9066 18.4963L13.1412 18.7736L13.2906 18.9443L13.6106 19.2643L13.9732 19.5416L14.2932 19.7336L14.6132 19.883L14.9546 19.9896L15.3386 20.0536L15.2959 19.7976L15.2746 19.5416V18.9443L15.3172 18.5176L15.3386 18.4323L15.2106 18.3896L15.0612 18.3043L14.9759 18.1336V17.963L15.0399 17.835L15.1679 17.7283L15.2532 17.707H15.4239L15.5092 17.7283L15.6799 17.3016L15.8506 16.9603L16.0212 16.6616L16.2559 16.3203L16.4906 16.043L16.7252 15.787L17.0026 15.531L17.3439 15.275L17.7706 15.019L18.2186 14.8056L18.7306 14.635L19.1146 14.5496L19.5626 14.4856L20.2452 14.4643L20.3092 14.2083L20.4159 13.547L20.4799 12.907V11.7123L20.4372 11.243L20.3092 10.5603L20.1599 10.0483L20.0319 9.70696L19.8399 9.2803L19.6479 8.9603L19.3919 8.59763L19.1999 8.3843L19.0506 8.21363L18.7732 7.95763L18.3679 7.65896L17.8772 7.38163L17.7492 7.2963L17.6426 7.1683L17.5999 7.08296L17.5786 6.9123L17.6212 6.74163L17.7066 6.61363L17.8559 6.50696L18.0906 6.4643L18.3039 6.5283L18.7092 6.74163L19.1572 7.0403L19.4986 7.31763L19.6266 7.4243L19.8826 7.6803L20.0319 7.85096L20.2879 8.17096L20.5439 8.5763L20.7999 9.04563L20.9706 9.45096L21.1626 10.027L21.2906 10.5603L21.3972 11.2216L21.4399 11.6483L21.4612 12.0536V12.5016L21.4186 13.227L21.3332 13.9096L21.2266 14.5283L21.2052 14.6563L21.3972 14.699L21.9306 14.9123L22.2506 15.083H22.2932L22.4852 14.2936L22.6346 13.483L22.7199 12.8003L22.7626 12.2456V11.0083L22.6986 10.3256L22.5919 9.68563L22.4639 9.13096L22.2079 8.36296L21.9946 7.8723L21.7386 7.40296L21.5039 7.0403L21.2266 6.67763L20.9706 6.4003L20.7146 6.1443L20.4159 5.90963L20.2026 5.7603L19.7546 5.5043L19.3279 5.3123L18.8159 5.14163L18.2612 5.01363L17.6212 4.9283L17.3439 4.90696H16.2772L15.3386 4.9923L14.6986 5.09896L14.0586 5.2483L13.4399 5.4403L12.7359 5.71763L12.3092 5.90963L11.8399 6.1443L11.3279 6.44296L10.9226 6.69896L10.5172 6.99763L10.1759 7.31763L10.0052 7.50963L9.79191 7.82963L9.64258 8.14963L9.40791 8.85363L9.21591 9.4723L9.02391 10.027L8.78924 10.6243L8.44791 11.3283L8.08524 11.9256L7.72258 12.459L7.50924 12.7363L7.35991 12.9283L7.08258 13.2483L6.95458 13.3976L6.71991 13.5896L6.44258 13.8243L6.22924 14.0376L6.07991 14.251L5.90924 14.5496L5.78124 14.827L5.65324 15.275L5.56791 15.8296V16.4696L5.65324 17.067L5.80258 17.6003L5.99458 18.0696L6.16524 18.411L6.37858 18.795L6.59191 19.115L6.86924 19.499L7.14658 19.8403L7.33858 20.075L7.57324 20.331L7.72258 20.5016L7.97858 20.779L8.14924 20.9496V20.9923H8.19191L8.34124 21.163L8.61858 21.4403L8.74658 21.6323L8.76791 21.6963V21.931L8.66124 22.1016L8.55458 22.2083L8.40524 22.2723H8.19191L8.04258 22.2083L7.82924 22.0163L7.48791 21.675L7.33858 21.5043L7.03991 21.1843L6.82658 20.9496L6.67724 20.779L6.48524 20.5656L6.25058 20.267L5.95191 19.883L5.61058 19.371L5.41858 19.051L5.20524 18.667L4.97058 18.1336L4.77858 17.5576L4.67191 17.0456L4.60791 16.491V15.8723L4.67191 15.3176L4.79991 14.763L4.97058 14.2936L5.22658 13.803L5.48258 13.4403L5.71724 13.1843L5.99458 12.9283L6.27191 12.715L6.44258 12.5443L6.67724 12.2456L6.95458 11.883L7.25324 11.435L7.53058 10.987L7.82924 10.411L8.10658 9.7283L8.29858 9.17363L8.46924 8.66163L8.66124 8.04296L8.85324 7.57363L9.00258 7.27496L9.25858 6.9123L9.45058 6.69896L9.59991 6.5283L9.85591 6.29363L10.1546 6.05896L10.4746 5.8243L10.9012 5.54696L11.2852 5.33363L11.7759 5.07763L12.3092 4.84296L12.8639 4.62963L13.6532 4.37363L14.3146 4.20296L15.0612 4.05363L15.6372 3.9683L16.3199 3.9043Z"/>
</mask>
<path d="M16.3199 3.9043H17.4719L18.0906 3.9683L18.6026 4.05363L19.2426 4.2243L19.7546 4.4163L20.1812 4.6083L20.6506 4.88563L21.0132 5.14163L21.2479 5.33363L21.4612 5.52563L21.8452 5.90963L22.0372 6.1443L22.2719 6.4643L22.5066 6.82696L22.8266 7.44563L23.0399 7.95763L23.2532 8.61896L23.4026 9.25896L23.5092 9.89896L23.5946 10.7523L23.6159 11.115V12.0323L23.5732 12.7576L23.4879 13.611L23.3812 14.3576L23.2319 15.1683L23.1252 15.6376L23.1466 15.7443L23.3812 15.979L23.5306 16.1496L23.7439 16.427L24.0212 16.875L24.1919 17.195L24.3839 17.6856L24.5119 18.1123L24.5972 18.5816L24.6399 18.9443V19.6056L24.5759 20.0963L24.4479 20.6296L24.2986 21.0776L24.0639 21.5896L23.8292 21.9736L23.6372 22.2296L23.3812 22.5283L23.1679 22.763L22.9972 22.9123L22.6986 23.147L22.3786 23.3603L21.9946 23.5736L21.4612 23.787L21.0132 23.915L20.5652 24.0003L20.1599 24.043H19.7546L19.3279 24.0003L18.7946 23.8936L18.3679 23.7656L17.9199 23.5736L17.5999 23.403L17.2799 23.1896L17.0239 22.9976L16.8106 22.8056L16.7252 22.7416V22.699L16.6399 22.6563L16.4052 22.4003L16.1492 22.059L15.9359 21.739L15.7012 21.291L15.5946 21.0136H15.3599L14.9546 20.971L14.5492 20.8856L14.2079 20.779L13.8879 20.651L13.4826 20.4163L13.3759 20.331L13.3119 20.3096L13.2692 20.843L13.1839 21.7176L13.0986 22.059L12.9919 22.315L12.8426 22.571L12.6719 22.7843L12.5439 22.9336L12.2879 23.1256L11.9892 23.2963L11.6479 23.4243L11.2852 23.4883L10.6239 23.5096H10.1119L9.27991 23.595L8.66124 23.723L8.14924 23.8723L7.74391 24.0216L7.21058 24.2776L6.84791 24.5123L6.59191 24.7043L6.20791 25.0883L5.99458 25.4083L5.88791 25.6643L5.82391 25.9416L5.80258 27.7976L5.75991 27.9683L5.67458 28.0963L5.48258 28.2243L5.39724 28.2456H5.22658L5.01324 28.139L4.88524 27.9683L4.84258 27.819V27.1576L4.86391 25.8776L4.92791 25.515L5.07724 25.1096L5.26924 24.7683L5.43991 24.5336L5.69591 24.235L5.97324 23.979L6.33591 23.7016L6.71991 23.467L7.21058 23.211L7.78658 22.9763L8.44791 22.7843L9.21591 22.635L9.55724 22.5923L10.3039 22.5496L11.2639 22.5283L11.5839 22.4216L11.8399 22.2723L11.9892 22.123L12.0959 21.9736L12.2026 21.675L12.2452 21.4616L12.3732 20.075L12.4159 19.5203L12.3519 19.4136L12.0959 19.115L11.8399 18.7736L11.5839 18.3896L11.3919 18.0696L11.0932 17.515L10.7946 16.875L10.4959 16.0856L10.2826 15.3816L10.1332 14.763L10.0266 14.2296L9.96258 14.4216L9.81324 15.083L9.70658 15.723L9.64258 16.2776L9.59991 16.9176L9.53591 17.1096L9.42924 17.2376L9.25858 17.323L9.06658 17.3443L8.87458 17.2803L8.74658 17.1736L8.66124 17.0243L8.63991 16.9176L8.66124 16.4696L8.78924 15.3816L8.91724 14.6563L9.06658 14.0376L9.21591 13.5683L9.34391 13.227L9.49324 12.8856L9.72791 12.4803L9.87724 12.267L10.1546 11.9256L10.3039 11.7763L10.6666 11.499L11.1146 11.2643L11.6266 11.0936L12.5866 10.8376L13.9092 10.4536L14.8052 10.1763L15.1679 10.0483L15.5092 9.87763L15.7652 9.7283L16.0426 9.51496L16.2559 9.30163L16.4052 9.0883L16.5759 8.74696L16.6399 8.46963L16.6612 8.1923L16.7466 7.97896L16.9172 7.85096L17.0452 7.8083H17.2159L17.4292 7.89363L17.5359 8.02163L17.5999 8.1923V8.5763L17.5359 8.91763L17.4079 9.2803L17.1732 9.68563L16.9386 9.96296L16.6399 10.2616L16.3412 10.4963L15.9359 10.7523L15.5306 10.9443L14.7626 11.2003L13.7599 11.499L12.5652 11.8403L11.8399 12.0323L11.4986 12.1603L11.2212 12.3096L10.9226 12.5443L10.8372 12.6296L10.8159 12.7363L10.8372 12.8003L10.8799 13.2483L11.0079 14.0376L11.1572 14.7203L11.3706 15.467L11.5839 16.0643L11.7546 16.491L11.9892 17.003L12.3092 17.6216L12.6079 18.091L12.9066 18.4963L13.1412 18.7736L13.2906 18.9443L13.6106 19.2643L13.9732 19.5416L14.2932 19.7336L14.6132 19.883L14.9546 19.9896L15.3386 20.0536L15.2959 19.7976L15.2746 19.5416V18.9443L15.3172 18.5176L15.3386 18.4323L15.2106 18.3896L15.0612 18.3043L14.9759 18.1336V17.963L15.0399 17.835L15.1679 17.7283L15.2532 17.707H15.4239L15.5092 17.7283L15.6799 17.3016L15.8506 16.9603L16.0212 16.6616L16.2559 16.3203L16.4906 16.043L16.7252 15.787L17.0026 15.531L17.3439 15.275L17.7706 15.019L18.2186 14.8056L18.7306 14.635L19.1146 14.5496L19.5626 14.4856L20.2452 14.4643L20.3092 14.2083L20.4159 13.547L20.4799 12.907V11.7123L20.4372 11.243L20.3092 10.5603L20.1599 10.0483L20.0319 9.70696L19.8399 9.2803L19.6479 8.9603L19.3919 8.59763L19.1999 8.3843L19.0506 8.21363L18.7732 7.95763L18.3679 7.65896L17.8772 7.38163L17.7492 7.2963L17.6426 7.1683L17.5999 7.08296L17.5786 6.9123L17.6212 6.74163L17.7066 6.61363L17.8559 6.50696L18.0906 6.4643L18.3039 6.5283L18.7092 6.74163L19.1572 7.0403L19.4986 7.31763L19.6266 7.4243L19.8826 7.6803L20.0319 7.85096L20.2879 8.17096L20.5439 8.5763L20.7999 9.04563L20.9706 9.45096L21.1626 10.027L21.2906 10.5603L21.3972 11.2216L21.4399 11.6483L21.4612 12.0536V12.5016L21.4186 13.227L21.3332 13.9096L21.2266 14.5283L21.2052 14.6563L21.3972 14.699L21.9306 14.9123L22.2506 15.083H22.2932L22.4852 14.2936L22.6346 13.483L22.7199 12.8003L22.7626 12.2456V11.0083L22.6986 10.3256L22.5919 9.68563L22.4639 9.13096L22.2079 8.36296L21.9946 7.8723L21.7386 7.40296L21.5039 7.0403L21.2266 6.67763L20.9706 6.4003L20.7146 6.1443L20.4159 5.90963L20.2026 5.7603L19.7546 5.5043L19.3279 5.3123L18.8159 5.14163L18.2612 5.01363L17.6212 4.9283L17.3439 4.90696H16.2772L15.3386 4.9923L14.6986 5.09896L14.0586 5.2483L13.4399 5.4403L12.7359 5.71763L12.3092 5.90963L11.8399 6.1443L11.3279 6.44296L10.9226 6.69896L10.5172 6.99763L10.1759 7.31763L10.0052 7.50963L9.79191 7.82963L9.64258 8.14963L9.40791 8.85363L9.21591 9.4723L9.02391 10.027L8.78924 10.6243L8.44791 11.3283L8.08524 11.9256L7.72258 12.459L7.50924 12.7363L7.35991 12.9283L7.08258 13.2483L6.95458 13.3976L6.71991 13.5896L6.44258 13.8243L6.22924 14.0376L6.07991 14.251L5.90924 14.5496L5.78124 14.827L5.65324 15.275L5.56791 15.8296V16.4696L5.65324 17.067L5.80258 17.6003L5.99458 18.0696L6.16524 18.411L6.37858 18.795L6.59191 19.115L6.86924 19.499L7.14658 19.8403L7.33858 20.075L7.57324 20.331L7.72258 20.5016L7.97858 20.779L8.14924 20.9496V20.9923H8.19191L8.34124 21.163L8.61858 21.4403L8.74658 21.6323L8.76791 21.6963V21.931L8.66124 22.1016L8.55458 22.2083L8.40524 22.2723H8.19191L8.04258 22.2083L7.82924 22.0163L7.48791 21.675L7.33858 21.5043L7.03991 21.1843L6.82658 20.9496L6.67724 20.779L6.48524 20.5656L6.25058 20.267L5.95191 19.883L5.61058 19.371L5.41858 19.051L5.20524 18.667L4.97058 18.1336L4.77858 17.5576L4.67191 17.0456L4.60791 16.491V15.8723L4.67191 15.3176L4.79991 14.763L4.97058 14.2936L5.22658 13.803L5.48258 13.4403L5.71724 13.1843L5.99458 12.9283L6.27191 12.715L6.44258 12.5443L6.67724 12.2456L6.95458 11.883L7.25324 11.435L7.53058 10.987L7.82924 10.411L8.10658 9.7283L8.29858 9.17363L8.46924 8.66163L8.66124 8.04296L8.85324 7.57363L9.00258 7.27496L9.25858 6.9123L9.45058 6.69896L9.59991 6.5283L9.85591 6.29363L10.1546 6.05896L10.4746 5.8243L10.9012 5.54696L11.2852 5.33363L11.7759 5.07763L12.3092 4.84296L12.8639 4.62963L13.6532 4.37363L14.3146 4.20296L15.0612 4.05363L15.6372 3.9683L16.3199 3.9043Z" stroke="#1C567D" stroke-width="3" mask="url(#path-1-inside-1_4257_4143)"/>
<path d="M24.4054 21.6748L24.4908 21.7175L24.8321 21.9735L25.3868 22.4001L25.7708 22.6988L26.1121 22.9548L26.4108 23.1895L26.6881 23.4028L27.0294 23.6588L27.2214 23.8508L27.4134 24.1495L27.4988 24.3628L27.5414 24.5761V24.8961L27.4561 25.2588L27.2854 25.5788L26.9654 25.8988L26.7308 26.0268L26.5174 26.1121L26.3468 26.1548H25.8988L25.5574 26.0481L25.3014 25.8988L25.0454 25.6641L24.8961 25.5148L24.7468 25.3441L24.4908 25.0668L24.3414 24.8961L24.2348 24.7895V24.7468H24.1921L24.0428 24.5761L23.8721 24.4055L23.7228 24.2348L23.4668 23.9575L23.3174 23.7868L23.1254 23.5948L22.9761 23.4241L22.9121 23.3388V23.2961L23.1041 23.1468L23.2748 22.9761L23.4454 22.8268L23.5948 22.6988L23.7014 22.7841L23.8508 22.9548L24.0428 23.1468L24.1921 23.3175L24.5121 23.6588L24.6614 23.8295L24.9174 24.1068L25.2588 24.4695L25.4508 24.6828L25.6854 24.9388L25.8774 25.1308L26.0268 25.1948H26.2188L26.3681 25.1308L26.4748 25.0241L26.5601 24.8961V24.6188L26.4748 24.4695L26.2828 24.2988L25.9414 24.0428L25.3441 23.5735L24.5334 22.9548L23.9788 22.5281L23.8508 22.4215L23.9148 22.3148L24.1921 21.9735L24.4054 21.6748Z" fill="#1C567D"/>
<path d="M19.9894 16.1279H20.1601L20.3307 16.1919L20.4587 16.2986L20.5441 16.4906V16.6613L20.4161 17.0026L20.2027 17.4506L19.9254 17.9413L19.6694 18.3679L19.4561 18.6666L19.2427 18.9439L19.0507 19.1786L18.8587 19.3919L18.5387 19.7333L18.3041 19.9253L18.0267 20.1599L17.7067 20.3733L17.5147 20.4586H17.3227L17.1094 20.3519L17.0027 20.2239L16.9387 20.0319L16.9814 19.7759L17.0881 19.6266L17.4081 19.4133L17.6214 19.2426L17.9201 18.9866L18.2187 18.6879L18.4107 18.4533L18.6667 18.1333L18.8801 17.8133L19.0507 17.5359L19.2641 17.1519L19.4561 16.7893L19.6481 16.3626L19.7974 16.1919L19.9894 16.1279Z" fill="#1C567D"/>
<path d="M13.5039 17.5996H13.6532L13.8026 17.6636L13.9092 17.7916L13.9306 17.8769V18.0263L13.8666 18.1756L13.7599 18.2609L13.6319 18.3036L13.4399 18.2823L13.3119 18.1969L13.2266 18.0049V17.8769L13.3332 17.7063L13.4399 17.6209L13.5039 17.5996Z" fill="#1C567D"/>
<path d="M14.5706 16.3838L14.7626 16.4051L14.8906 16.4905L14.976 16.6611V16.8105L14.8906 16.9811L14.8053 17.0451L14.6773 17.0878L14.4853 17.0665L14.3573 16.9811L14.272 16.8105V16.6611L14.3573 16.4905L14.5066 16.4051L14.5706 16.3838Z" fill="#1C567D"/>
<path d="M10.4533 24.8535H10.6666L10.7946 24.9388L10.8799 25.0455L10.9013 25.1095V25.3015L10.8159 25.4295L10.7093 25.5148L10.6239 25.5575L10.4319 25.5362L10.3039 25.4508L10.2186 25.3228L10.1973 25.1522L10.2826 24.9602L10.4533 24.8535Z" fill="#1C567D"/>
<path d="M13.7386 14.7197L13.9306 14.7411L14.1013 14.8904L14.1439 14.9971V15.1677L14.0373 15.3384L13.8666 15.4237H13.7173L13.5466 15.3384L13.4613 15.2104L13.4399 15.1464V14.9971L13.5253 14.8264L13.6746 14.7411L13.7386 14.7197Z" fill="#1C567D"/>
<path d="M7.50936 26.1758L7.70136 26.1971L7.82936 26.2824L7.91469 26.4531V26.6238L7.82936 26.7518L7.72269 26.8371L7.61603 26.8798L7.42403 26.8584L7.27469 26.7518L7.21069 26.6238V26.4531L7.29603 26.2824L7.50936 26.1758Z" fill="#1C567D"/>
<path d="M9.66405 26.1758L9.85605 26.1971L9.98405 26.2824L10.0694 26.4104V26.6238L9.98405 26.7731L9.87739 26.8584L9.79205 26.8798H9.64272L9.51472 26.8158L9.40805 26.6878L9.38672 26.6238V26.4318L9.45072 26.3038L9.55739 26.2184L9.66405 26.1758Z" fill="#1C567D"/>
<path d="M8.61855 24.8535H8.81055L8.93855 24.9175L9.04522 25.0668L9.06655 25.2375L9.00255 25.4082L8.87455 25.5148L8.68255 25.5575L8.46922 25.4722L8.38388 25.3442L8.36255 25.2802V25.1095L8.44788 24.9602L8.61855 24.8535Z" fill="#1C567D"/>
<path d="M12.7572 16.1494H12.9919L13.1199 16.2347L13.2052 16.4054V16.5974L13.1199 16.7254L13.0132 16.8107L12.9492 16.8321H12.7572L12.6506 16.7681L12.5439 16.6401L12.5012 16.5334L12.5226 16.3841L12.5866 16.2561L12.6932 16.1707L12.7572 16.1494Z" fill="#1C567D"/>
<path d="M8.57601 27.541L8.74668 27.5623L8.85334 27.6263L8.93868 27.733L8.96001 27.797V27.989L8.87468 28.1383L8.74668 28.2237L8.53334 28.245L8.36268 28.1383L8.27734 27.9677V27.797L8.34134 27.669L8.44801 27.5837L8.57601 27.541Z" fill="#1C567D"/>
<path d="M11.392 26.1758L11.584 26.2184L11.6907 26.3038L11.7547 26.4104L11.776 26.5598L11.712 26.7091L11.6267 26.8158L11.456 26.8798L11.2854 26.8584L11.1574 26.7731L11.072 26.6024V26.4318L11.136 26.3038L11.2427 26.2184L11.392 26.1758Z" fill="#1C567D"/>
</svg>
