<svg width="81" height="75" viewBox="0 0 81 75" fill="none" xmlns="http://www.w3.org/2000/svg">
<rect x="16.6586" y="12.3728" width="48.2033" height="48.4712" rx="24.1017" fill="#D5E9F6"/>
<path d="M26.7009 41.6575C26.7009 41.6575 29.7136 41.6575 33.7306 48.7262C33.7306 48.7262 44.8957 30.2122 54.8195 26.5103" stroke="#2673A6" stroke-width="4" stroke-linecap="round" stroke-linejoin="round"/>
<path d="M7.72079 58.7051L10.3981 64.2674L16.5261 64.7319L10.9946 67.4241L10.5327 73.5861L7.85535 68.0239L1.72737 67.5594L7.25885 64.8672L7.72079 58.7051Z" fill="#2673A6"/>
<path d="M65.9475 1.0917L66.6732 7.22799L72.3149 9.67793L66.2126 10.4076L63.7762 16.0808L63.0505 9.94448L57.4087 7.49453L63.5111 6.76482L65.9475 1.0917Z" fill="#2673A6"/>
<path d="M16.6585 12.373C16.6585 14.4644 14.9724 16.1598 12.8926 16.1598C10.8128 16.1598 9.12671 14.4644 9.12671 12.373C9.12671 10.2816 10.8128 8.58618 12.8926 8.58618C14.9724 8.58618 16.6585 10.2816 16.6585 12.373ZM9.87989 12.373C9.87989 14.0461 11.2287 15.4024 12.8926 15.4024C14.5565 15.4024 15.9053 14.0461 15.9053 12.373C15.9053 10.6999 14.5565 9.34354 12.8926 9.34354C11.2287 9.34354 9.87989 10.6999 9.87989 12.373Z" fill="#2673A6"/>
<path d="M80.6785 22.976C80.6785 25.0674 78.9925 26.7628 76.9126 26.7628C74.8328 26.7628 73.1467 25.0674 73.1467 22.976C73.1467 20.8846 74.8328 19.1892 76.9126 19.1892C78.9925 19.1892 80.6785 20.8846 80.6785 22.976ZM73.8999 22.976C73.8999 24.6491 75.2487 26.0055 76.9126 26.0055C78.5765 26.0055 79.9253 24.6491 79.9253 22.976C79.9253 21.3029 78.5765 19.9466 76.9126 19.9466C75.2487 19.9466 73.8999 21.3029 73.8999 22.976Z" fill="#2673A6"/>
<path d="M41.5134 12.6166C41.5134 12.0637 41.065 11.6134 40.5125 11.6352C36.3168 11.8002 32.2202 13.0005 28.5867 15.137C24.9495 17.2758 21.8977 20.2812 19.6967 23.8822C19.4106 24.3504 19.5817 24.9569 20.0592 25.2271C20.54 25.4992 21.1486 25.3271 21.4384 24.8568C23.4647 21.5686 26.2623 18.8232 29.5918 16.8654C32.9203 14.9082 36.6703 13.8029 40.5126 13.639C41.0649 13.6154 41.5134 13.1695 41.5134 12.6166Z" fill="#2673A6"/>
<path d="M22.5816 52.5441C22.1772 52.9155 22.1474 53.5454 22.5319 53.9373C26.5407 58.0228 31.7933 60.6449 37.453 61.3859C38.0016 61.4578 38.4893 61.0495 38.539 60.4985C38.5885 59.9482 38.1825 59.464 37.6349 59.3905C32.4731 58.6977 27.6824 56.3077 24.0111 52.5938C23.6221 52.2003 22.9892 52.1698 22.5816 52.5441Z" fill="#2673A6"/>
<path d="M58.0923 19.9325C58.5148 19.5755 59.1489 19.6292 59.4868 20.0672C61.6476 22.8678 63.2123 26.09 64.079 29.5333C65.0276 33.3018 65.1153 37.2374 64.3356 41.0449C63.5559 44.8524 61.929 48.4329 59.577 51.5181C57.4286 54.336 54.7262 56.6738 51.642 58.3881C51.1578 58.6572 50.5533 58.4558 50.3056 57.9602C50.0595 57.4678 50.2588 56.8709 50.7392 56.602C53.5585 55.0242 56.0295 52.8804 57.9968 50.2999C60.1659 47.4547 61.6663 44.1525 62.3854 40.6411C63.1044 37.1296 63.0235 33.5 62.1488 30.0245C61.355 26.8707 59.9261 23.9181 57.9545 21.3477C57.6204 20.9121 57.673 20.2869 58.0923 19.9325Z" fill="#2673A6"/>
<path d="M67.5289 70.0906C68.0325 69.8664 68.2583 69.2748 68.0333 68.7694L64.3659 60.5322C64.1409 60.0267 63.5502 59.7987 63.0466 60.0229C62.543 60.2472 62.3172 60.8387 62.5422 61.3442L65.8021 68.6661L58.5073 71.9139C58.0037 72.1381 57.7779 72.7296 58.0029 73.2351C58.228 73.7406 58.8187 73.9686 59.3223 73.7444L67.5289 70.0906ZM66.7647 70.1095L66.7648 70.1096L67.4781 68.2411L67.478 68.2411L66.7647 70.1095Z" fill="#2673A6"/>
</svg>
