<svg width="20" height="20" viewBox="0 0 20 20" fill="none" xmlns="http://www.w3.org/2000/svg">
<path d="M18.3334 9.99984C18.3334 14.6022 14.6024 18.3332 10 18.3332C5.39765 18.3332 1.66669 14.6022 1.66669 9.99984C1.66669 5.39746 5.39765 1.6665 10 1.6665C14.6024 1.6665 18.3334 5.39746 18.3334 9.99984Z" stroke="#2673A6" stroke-width="1.5"/>
<path d="M12.2585 8.38408C12.1759 7.74853 11.4462 6.72168 10.134 6.72166C8.60935 6.72163 7.96782 7.56605 7.83764 7.98826C7.63456 8.553 7.67518 9.71408 9.46227 9.84067C11.6962 9.999 12.5911 10.2627 12.4773 11.6298C12.3634 12.9969 11.1181 13.2923 10.134 13.2606C9.14985 13.229 7.53972 12.7769 7.47723 11.5609M9.97785 5.83154V6.72468M9.97785 13.2524V14.1648" stroke="#2673A6" stroke-width="1.5" stroke-linecap="round"/>
</svg>
