<svg width="42" height="42" viewBox="0 0 42 42" fill="none" xmlns="http://www.w3.org/2000/svg">
<rect width="42" height="42" rx="21" fill="#3A95D2"/>
<path d="M23.0737 12.8854C23.8189 12.0781 24.1915 11.6744 24.5874 11.4389C25.5427 10.8708 26.7191 10.8531 27.6904 11.3923C28.0929 11.6158 28.4769 12.0081 29.245 12.7928C30.0131 13.5774 30.3972 13.9697 30.6159 14.3809C31.1438 15.3731 31.1265 16.5748 30.5703 17.5507C30.3398 17.9552 29.9446 18.3358 29.1543 19.097L19.7506 28.1543C18.2529 29.5969 17.504 30.3182 16.5681 30.6837C15.6321 31.0493 14.6032 31.0224 12.5454 30.9686L12.2654 30.9613C11.6389 30.9449 11.3257 30.9367 11.1436 30.73C10.9615 30.5234 10.9864 30.2043 11.0361 29.5662L11.0631 29.2197C11.203 27.4235 11.273 26.5255 11.6237 25.7182C11.9744 24.9109 12.5794 24.2555 13.7894 22.9445L23.0737 12.8854Z" stroke="#F8F8F8" stroke-width="1.5" stroke-linejoin="round"/>
<path d="M22 13L29 20" stroke="#F8F8F8" stroke-width="1.5" stroke-linejoin="round"/>
<path d="M23 31H31" stroke="#F8F8F8" stroke-width="1.5" stroke-linecap="round" stroke-linejoin="round"/>
</svg>
