<svg width="34" height="35" viewBox="0 0 34 35" fill="none" xmlns="http://www.w3.org/2000/svg">
<path d="M29.4444 33.1323V27.4528C29.4444 25.4185 29.9772 24.3611 31.0243 22.5931C32.2795 20.4739 33 18.0006 33 15.3592C33 7.50648 26.6325 1.14062 18.7778 1.14062C10.923 1.14062 4.55552 7.50648 4.55552 15.3592C4.55552 16.2867 4.55552 16.7505 4.5168 17.0105C4.42432 17.6321 4.13424 18.1669 3.84896 18.7203L0.999999 24.2457L3.23904 25.3649C3.888 25.6893 4.21232 25.8515 4.4384 26.1509C4.66448 26.4501 4.728 26.788 4.85536 27.4637L4.86784 27.5296C5.15936 29.0776 5.48112 30.7864 6.38736 31.8645C6.70736 32.2451 7.10352 32.5544 7.55056 32.7725C8.28848 33.1323 9.19568 33.1323 11.0101 33.1323C11.8496 33.1323 12.6915 33.1517 13.5309 33.1313C15.4 33.1324 15.4 33.1324 16 32.5324" stroke="#1C567D" stroke-width="1.5" stroke-linecap="round" stroke-linejoin="round"/>
<path d="M15.592 17.543H16.888L17.704 17.687L18.328 17.879L19 18.215L19.528 18.599L20.008 19.031L20.488 19.607L20.872 20.279L21.16 20.951L21.448 21.911L21.88 23.831L22.2161 24.983L22.696 26.279L23.368 27.671L23.944 28.679L24.5201 29.639L25.192 30.791L25.72 31.895L25.816 32.183V32.567L25.6241 32.951L25.3361 33.191L25.0961 33.287H24.5681L24.184 33.047L23.944 32.711L23.5601 31.943L23.08 31.031L22.0721 29.351L21.688 28.679L21.304 27.911L20.872 26.999L20.44 25.847L20.008 24.503L19.672 23.063L19.384 21.863L19.096 21.095L18.808 20.615L18.376 20.135L17.704 19.751L17.08 19.559L16.792 19.511H15.64L14.584 19.703L13.432 20.087L12.952 20.279H12.568L12.136 20.087L11.848 19.703L11.8 19.559V19.127L12.04 18.647L12.52 18.359L13.528 17.975L14.44 17.735L15.592 17.543Z" fill="#1C567D"/>
<path d="M25.1921 12.7012H26.4401L27.1601 12.8932L27.8321 13.2292L28.3121 13.6132L28.7441 14.0932L29.1281 14.8612L29.3201 15.5332L29.3681 15.8692V16.6372L29.2241 17.6932L28.9841 18.6052L28.6001 19.4692L28.1681 20.1892L27.7841 20.6692L27.3521 21.1972L26.9681 21.5332L26.4881 21.9172L25.7681 22.3492L25.1441 22.5892L24.7601 22.6852H24.2801L23.6561 22.4932L23.1761 22.1572L22.8401 21.7252L22.6481 21.2452L22.6001 21.0532V20.2372L22.7441 19.8052L22.9361 19.5652L23.3201 19.3732H23.8481L24.1841 19.5172L24.4721 19.9012L24.5201 20.0452L24.5681 20.6692L24.8081 20.6212L25.3841 20.2852L25.7201 19.9972H25.8161V19.9012L26.0561 19.7092L26.1041 19.6132H26.2001L26.2961 19.4212L26.6801 18.8932L27.0161 18.2212L27.2561 17.4532L27.3521 16.9732L27.4001 16.4932V16.0132L27.3041 15.5332L27.0161 15.0532L26.5841 14.7652L26.2961 14.6692H25.3841L24.9041 14.8612L24.6161 15.1972L24.4241 15.8212L24.4721 16.2532L24.5681 16.5892L24.5201 16.9732L24.2321 17.4052L23.8481 17.6452L23.4161 17.6932L22.9361 17.4532L22.6481 17.0212L22.5041 16.5892L22.4561 16.3492V15.5332L22.6481 14.7172L23.0321 13.9972L23.5121 13.4692L23.9921 13.1332L24.6161 12.8452L25.1921 12.7012Z" fill="#1C567D"/>
<path d="M14.824 22.6494H15.352L16.264 22.7454L17.128 22.9374L17.704 23.1774L18.232 23.4654L18.6641 23.8014L19.048 24.1854L19.5761 24.9054L20.0561 25.7694L20.4401 26.5374L20.9681 27.8334L21.3041 28.6974L21.9761 30.7614L22.5041 32.6334L22.6481 33.2574L22.6001 33.5934L22.4081 33.9294L22.0721 34.2174L21.6401 34.3134L21.2561 34.2174L20.9201 33.9774L20.68 33.4974L20.0561 31.2414L19.4801 29.4654L18.9521 28.0734L18.472 26.9694L17.944 26.0094L17.512 25.3854L17.08 25.0494L16.504 24.8094L15.832 24.6654L14.92 24.6174L14.008 24.7134L13.288 24.9534L12.808 25.1454L12.328 25.0014L11.944 24.6654L11.8 24.2814L11.848 23.8494L11.992 23.5614L12.376 23.2254L13.048 22.9374L13.864 22.7454L14.824 22.6494Z" fill="#1C567D"/>
</svg>
