<svg width="28" height="28" viewBox="0 0 28 28" fill="none" xmlns="http://www.w3.org/2000/svg">
<path d="M24 24.0005L11.2063 24.5003C7.02356 24.5003 4.93217 24.5003 3.63273 23.1762C2.33331 21.8521 2.33331 19.721 2.33331 15.4587C2.33331 11.1964 2.33331 9.06523 3.63273 7.74111C4.93217 6.41699 7.02356 6.41699 11.2063 6.41699H15.6429C19.8256 6.41699 21.9171 6.41699 23.2165 7.74111C24.2162 8.75988 23.9468 21.4232 24 24.0005Z" fill="#3A95D2" stroke="#3A95D2" stroke-width="2" stroke-linecap="round" stroke-linejoin="round"/>
<path d="M21.9917 21.992L20.4167 20.942V18.317M15.1667 20.417C15.1667 23.3165 17.5172 25.667 20.4167 25.667C23.3162 25.667 25.6667 23.3165 25.6667 20.417C25.6667 17.5175 23.3162 15.167 20.4167 15.167C17.5172 15.167 15.1667 17.5175 15.1667 20.417Z" stroke="#D5E9F6" stroke-width="1.5" stroke-linecap="round" stroke-linejoin="round"/>
<path d="M18.6667 6.41634L18.5508 6.05577C17.9732 4.25905 17.6845 3.36069 16.9971 2.84684C16.3096 2.33301 15.3965 2.33301 13.5702 2.33301H13.2632C11.4369 2.33301 10.5238 2.33301 9.83632 2.84684C9.14886 3.36069 8.86011 4.25905 8.28258 6.05577L8.16669 6.41634" stroke="#3A95D2" stroke-width="2" stroke-linecap="round" stroke-linejoin="round"/>
</svg>
