<svg width="32" height="32" viewBox="0 0 32 32" fill="none" xmlns="http://www.w3.org/2000/svg">
<path d="M2.66675 10.6667C2.66675 10.6667 8.63628 4 16.0001 4C23.3638 4 29.3334 10.6667 29.3334 10.6667" stroke="#1C567D" stroke-width="1.5" stroke-linecap="round"/>
<path d="M28.7254 17.393C29.1307 17.9614 29.3334 18.2457 29.3334 18.6663C29.3334 19.087 29.1307 19.3713 28.7254 19.9397C26.9039 22.4938 22.2523 27.9997 16.0001 27.9997C9.74779 27.9997 5.09621 22.4938 3.2748 19.9397C2.86943 19.3713 2.66675 19.087 2.66675 18.6663C2.66675 18.2457 2.86943 17.9614 3.2748 17.393C5.09621 14.8389 9.74779 9.33301 16.0001 9.33301C22.2523 9.33301 26.9039 14.8389 28.7254 17.393Z" stroke="#1C567D" stroke-width="1.5"/>
<path d="M20 18.667C20 16.4578 18.2092 14.667 16 14.667C13.7908 14.667 12 16.4578 12 18.667C12 20.8762 13.7908 22.667 16 22.667C18.2092 22.667 20 20.8762 20 18.667Z" stroke="#1C567D" stroke-width="1.5"/>
</svg>
