<svg width="260" height="260" viewBox="0 0 260 260" fill="none" xmlns="http://www.w3.org/2000/svg">
<path d="M129.746 41.5137L133.936 41.6406L138.633 42.1484L141.553 42.6562L144.473 43.418L147.139 44.3066L150.312 45.7031L153.105 47.2266L155.518 48.877L157.295 50.2734L159.072 51.7969L161.357 54.082L162.5 55.4785L164.023 57.5098L165.547 59.9219L167.07 62.8418L168.213 65.3809L169.609 69.1895L171.133 73.6328L171.895 76.4258L172.148 78.2031V79.7266L171.768 81.7578L171.006 83.7891L169.99 85.8203L168.213 88.2324L166.689 89.8828L165.547 91.0254L163.77 92.4219L161.611 93.9453L159.199 95.4688L158.691 95.5957L159.199 96.1035L161.738 97.5L163.896 99.1504L164.912 100.039L166.689 102.07L167.578 103.34L168.721 105.244L169.736 107.148L169.863 107.275L172.021 107.656L173.291 108.164L174.814 109.053L176.084 110.195L177.354 111.719L178.242 113.242L179.004 115.146L179.639 117.305L180.02 119.844L180.146 121.367V126.953L179.639 135.332L179.131 140.537L178.369 147.139L177.607 152.09L176.719 156.406L176.211 158.184L175.576 159.834L174.688 161.104L173.799 161.992L172.783 162.627L171.387 163.008H170.117L168.848 162.627L167.578 161.865L166.562 160.723L165.547 158.691L165.293 158.311L164.912 159.326L162.881 167.451L161.738 171.768L160.088 177.354L158.945 181.035L157.549 184.59L156.406 187.129L154.629 190.557L152.979 193.223L151.201 195.762L149.805 197.539L148.408 199.062L147.52 200.078L145.869 201.729L144.854 202.617L142.949 204.141L141.045 205.41L139.014 206.553L136.855 207.568L134.57 208.33L131.777 208.838H128.477L126.064 208.457L123.525 207.695L121.24 206.68L119.336 205.664L117.812 204.648L115.781 203.125L114.385 201.855L113.369 200.967L111.973 199.57L111.084 198.555L109.688 196.904L107.91 194.492L106.26 191.953L104.99 189.668L103.467 186.748L101.943 183.32L100.674 179.766L98.8965 173.926L97.2461 167.959L95.4688 160.85L94.834 158.438L94.5801 158.311L94.3262 159.072L93.5645 160.469L92.6758 161.611L91.5332 162.373L90.2637 162.881L89.7559 163.008H88.6133L86.9629 162.5L85.8203 161.611L84.8047 160.469L83.916 158.691L83.0273 155.391L82.0117 149.678L81.25 144.092L80.6152 138.125L80.1074 131.523L79.8535 126.191V121.621L80.1074 118.828L80.7422 115.908L81.6309 113.496L82.7734 111.465L84.1699 109.941L85.4395 108.799L87.4707 107.783L88.7402 107.402L90.1367 107.275L91.6602 104.482L92.5488 103.086L93.8184 101.436L95.3418 99.7852L97.1191 98.2617L99.0234 96.9922L101.182 95.8496L100.801 95.4688L98.3887 93.9453L96.2305 92.4219L94.9609 91.4062L93.4375 90.0098L92.2949 88.8672L90.8984 87.0898L89.7559 85.3125L88.7402 83.2812L88.1055 81.25L87.8516 79.7266V78.3301L88.2324 75.791L89.502 71.6016L91.1523 66.9043L92.4219 63.8574L93.8184 60.9375L95.2148 58.6523L96.7383 56.4941L98.3887 54.4629L99.5312 53.1934L101.562 51.1621L102.959 50.0195L104.609 48.75L106.768 47.3535L109.434 45.8301L112.227 44.5605L115.02 43.5449L118.447 42.6562L122.256 42.0215L126.064 41.6406L129.746 41.5137Z" fill="#FCFCFC"/>
<path d="M121.113 55.0977H139.268L148.662 55.4785L151.836 55.7324L153.232 55.9863L154.756 56.6211L156.152 57.6367L157.295 58.9062L158.691 61.0645L159.834 63.0957L161.104 66.1426L161.865 68.9355L161.992 69.6973V71.7285L161.484 73.6328L160.342 75.4102L159.072 76.6797L156.914 78.2031L154.248 79.5996L150.82 80.9961L146.758 82.2656L143.076 83.1543L138.887 83.916L134.316 84.4238L131.016 84.5508H128.477L124.287 84.2969L119.59 83.6621L116.289 83.0273L112.354 82.0117L107.783 80.4883L105.244 79.3457L103.086 78.2031L101.309 76.9336L99.7852 75.5371L98.7695 74.1406L98.1348 72.4902L97.8809 70.459L98.5156 67.2852L99.4043 64.7461L100.801 61.8262L101.943 60.0488L102.959 58.6523L103.975 57.5098L105.244 56.6211L106.895 55.9863L109.434 55.6055L114.004 55.3516L121.113 55.0977Z" fill="#1C1C26"/>
<path d="M110.703 114.893H149.424L150.693 115.527L151.582 116.543L152.09 117.812V143.33L151.709 144.346L150.566 145.615L149.424 146.123L148.789 146.25H111.084L109.688 145.742L108.672 144.854L108.037 143.838L107.91 143.457V117.559L108.545 116.289L109.18 115.654L110.195 115.02L110.703 114.893Z" fill="#1C1C26"/>
<path d="M117.305 121.621H119.463L119.59 128.857L127.842 128.984V121.621H130.254V139.014L130.127 139.141H127.969L127.842 139.014L127.715 131.016H119.463V139.141H117.178V121.748L117.305 121.621Z" fill="#1FEDF9"/>
<path d="M143.457 63.4766H145.488L146.631 63.8574L148.027 64.873L148.789 65.8887L149.297 67.0312L149.424 67.793V69.1895L148.916 70.8398L148.027 71.9824L147.139 72.7441L145.615 73.3789L143.838 73.5059L142.441 73.125L141.172 72.3633L140.156 71.2207L139.648 70.2051L139.395 69.1895V67.666L139.902 66.1426L140.664 65.127L141.807 64.1113L142.949 63.6035L143.457 63.4766Z" fill="#1FEDF9"/>
<path d="M114.639 63.4766H116.543L117.686 63.8574L118.828 64.6191L119.717 65.5078L120.352 66.7773L120.605 67.666V69.1895L120.098 70.7129L119.082 72.1094L118.066 72.8711L116.797 73.3789H114.258L112.48 72.4902L111.592 71.6016L110.957 70.5859L110.576 69.3164V67.5391L110.957 66.2695L111.973 64.873L113.115 63.9844L114.004 63.6035L114.639 63.4766Z" fill="#1FEDF9"/>
<path d="M134.189 121.621H136.348V139.141H134.062V121.748L134.189 121.621Z" fill="#1FEDF9"/>
<path d="M140.029 121.621H142.568L142.314 132.031L142.188 134.062H140.41L140.283 133.936L140.029 125.176V121.621Z" fill="#1FEDF9"/>
<path d="M140.664 136.221H141.807L142.568 136.729L142.822 137.363L142.695 138.633L141.934 139.395H140.664L139.902 138.76L139.648 138.125L139.775 137.109L140.283 136.475L140.664 136.221Z" fill="#1FEDF9"/>
</svg>
