<svg width="58" height="53" viewBox="0 0 58 53" fill="none" xmlns="http://www.w3.org/2000/svg">
<path d="M34.9994 0.0358887H46.3498L46.6912 0.162967L46.7789 0.334375L46.8228 11.0208H57.4716L57.7316 11.1508L57.8162 11.2779L57.86 11.9192V22.6913L57.7723 22.9869L57.5593 23.1139L57.0864 23.1583L46.8541 23.1996L46.8134 33.6733L46.7257 33.8861L46.5096 34.0988L46.425 34.1432L41.727 34.1845H33.3676L33.0544 34.2289L32.6253 34.6131L31.6857 35.5529L31.2535 35.81L30.9967 35.8957H30.5739L30.1855 35.7243L29.8002 35.4287L29.3712 34.8731L28.7667 33.8033L28.253 32.8635L27.7801 32.0094L27.6078 31.838L27.3479 32.5207L26.662 34.6574L26.1013 36.4956L25.6284 37.9082L25.287 39.0194L24.8141 40.5562L24.5698 41.1975L24.2566 41.5847L23.9997 41.7531L23.8713 41.7974H23.5268L23.2136 41.626L22.9568 41.3305L22.7845 40.9463L22.3962 39.1495L21.9671 37.1842L21.278 33.7649L20.8489 31.7967L20.1849 28.3744L19.8404 26.8376L19.7527 26.7519L19.4395 27.7774L19.095 28.8886L18.4091 31.2529L17.9362 32.8369L17.5071 34.3175L17.291 35.0445L16.9464 35.7716L16.6019 36.1114L16.2167 36.3272L15.8283 36.3685L15.3992 36.2414L15.014 35.9459L14.6695 35.5204L14.2811 34.7933L13.8082 33.8092L12.9813 32.2222L12.6368 31.7109L12.4645 31.6666L12.0761 32.3079L11.7348 32.899L11.4153 33.3334L11.1021 33.6762L10.6292 33.9718L10.0685 34.1432H0.528385L0.268427 33.9718L0.140015 33.7619V33.4309L0.312276 33.1354L0.440689 33.0497L10.0685 32.964L10.3817 32.7512L10.7701 32.237L11.2869 31.2972L11.6001 30.913L11.9853 30.5702L12.3298 30.4431H12.8028L13.116 30.5702L13.4605 30.8273L13.805 31.2115L14.2341 31.9385L15.6529 34.7579L15.9661 35.1864L16.1384 34.8436L16.6959 32.9197L17.3411 30.8273L17.9925 28.4069L18.4216 26.9972L18.8069 25.6703L19.023 25.1147L19.4082 24.6862L19.6682 24.5591H20.0972L20.3541 24.7305L20.5702 24.9876L20.7424 25.3275L20.9147 25.8831L21.3876 28.2769L21.9451 30.8864L22.3335 32.8517L22.8472 35.216L23.4924 38.4195L23.8056 39.7021L23.8933 39.7464L23.9778 39.2322L24.4946 37.6068L24.9675 36.1557L25.4843 34.4889L25.998 32.8635L26.3112 31.9237L26.5273 31.4095L26.7622 31.0667L27.0754 30.8096L27.3886 30.6795H27.8615L28.206 30.8096L28.5944 31.1051L28.9546 31.6252L29.5152 32.6507L30.0289 33.5905L30.5895 34.4771L30.7618 34.6899L30.8902 34.7313L30.9748 34.5628L32.049 33.493L32.522 33.1975L32.9103 33.0261L33.1672 32.9817H45.6765V22.7918L45.7203 22.3633L45.9771 22.0678L46.0648 22.0234H54.7311L56.7074 21.9821L56.7513 12.1941H46.2183L45.8331 12.064L45.6608 11.8512V1.14709H35.773V11.5764L35.6884 11.8719L35.4723 12.0877L35.0871 12.1734L24.7264 12.2147L24.6857 16.5325L24.5698 16.7925L24.3129 16.9639L24.0968 17.0053L23.7836 16.9196L23.5707 16.6625L23.5268 16.5354V13.5417L23.5707 11.3636L23.6991 11.1508L23.7836 11.0651L23.9559 11.0208L34.5734 10.9794L34.6173 0.677192L34.6611 0.293001L34.7896 0.248671L34.8303 0.121593L34.9994 0.0358887Z" fill="#3A96D2"/>
<path d="M15.4431 17.0911H16.9903L17.8077 17.1768L18.9666 17.3896L20.0409 17.6851L20.9022 18.0279L21.9326 18.5421L22.7501 19.0534L23.4391 19.5676L23.8243 19.8632L23.9966 19.9489L24.598 19.479L25.287 18.9648L26.3174 18.3737L27.3886 17.8595L28.5944 17.4723L29.8002 17.2152L30.3139 17.1295L30.8745 17.0881H32.4656L33.5399 17.2152L34.658 17.431L35.5162 17.6851L36.3775 18.0279L37.411 18.5451L38.2692 19.1007L39.0021 19.6563L39.475 20.0405L40.3771 20.9271L40.85 21.5182L41.4075 22.2895L41.9243 23.1761L42.2688 23.8617L42.6133 24.7483L42.8702 25.6053L43.0863 26.5865L43.2147 27.4731L43.2554 28.1558L43.2147 29.6541L42.9986 30.851L42.8263 31.3623L42.6133 31.578L42.5256 31.6194H42.1811L41.8679 31.448L41.7395 31.2766L41.6957 31.0224L41.9556 29.6955L42.0402 28.6286V28.2474L41.9556 27.3076L41.6111 25.6408L41.2666 24.6567L40.922 23.8883L40.2768 22.8185L39.6755 22.0058L39.0397 21.3142L38.526 20.8L37.9247 20.3301L37.3641 19.9459L36.5059 19.4317L35.6884 19.0475L34.7488 18.7076L33.8468 18.4919L32.713 18.3294L32.3246 18.288H31.0718L30.4705 18.3294L29.2678 18.5451L28.1058 18.885L27.2038 19.2721L26.2642 19.7834L25.619 20.2119L25.0709 20.6818L24.598 21.066L24.2534 21.3615L24.1689 21.4058H23.7805L23.5237 21.2344L23.0038 20.7675L22.4024 20.2976L21.8449 19.9134L20.9429 19.3992L20.1254 19.015L19.5272 18.8022L18.6189 18.5451L17.3661 18.3294L16.7648 18.288H15.6059L14.5473 18.4151L13.3415 18.6722L12.311 19.015L11.4936 19.3992L10.6354 19.9134L10.0748 20.2976L9.60184 20.6818L9.17276 21.066L8.44299 21.793L7.8761 22.52L7.40316 23.247L6.97408 24.0154L6.71725 24.5651L6.37273 25.5108L6.20047 26.1018L6.02821 26.9559L5.94364 27.6829V29.3911L6.07206 30.2777L6.28816 31.2175L6.60137 32.1041L6.85819 32.7454L6.90204 33.0025H5.81523L5.59912 32.9168L5.21075 31.847L4.89755 30.6944L4.72529 29.5832L4.68457 29.069V27.9903L4.76913 27.1037L4.98524 25.9925L5.29845 24.9256L5.64297 24.039L6.15662 22.9692L6.50114 22.4136L6.84566 21.9023L7.23403 21.3881L7.74769 20.7971L8.56514 19.9548L9.03808 19.5706L9.76784 19.015L10.5414 18.5451L11.5312 18.0309L12.69 17.6053L14.0681 17.2625L14.9263 17.1325L15.4431 17.0911Z" fill="#EE574A"/>
<path d="M40.4179 34.1875H41.6707L41.6268 34.4032L41.37 34.8288L40.9378 35.4199L40.5431 35.8986L40.1548 36.3271L39.6818 36.8384L38.6076 37.9082H38.523L38.4353 38.0796L35.2187 41.2832L34.9055 41.5403L34.5923 41.8831L25.76 50.687L25.5 50.9028L25.1868 51.2426L24.7139 51.7125L24.3694 52.008L24.1564 52.1351L23.8432 52.1795L23.53 52.008L23.0132 51.5382L15.6561 44.1912V44.1055H15.5715V44.0198H15.487L15.3147 43.8484V43.7745H15.227V43.6888L15.0548 43.6031L14.4534 43.0121L14.1966 42.7165L13.8521 42.421L13.2507 41.8299L12.9939 41.5344L12.7339 41.3187L12.0418 40.6005L11.7286 40.2577L11.2963 39.8735L10.9831 39.5307L10.6386 39.2352L10.4695 39.0638V38.9781L10.2972 38.8924V38.8067L10.1625 38.721L8.44306 37.0098L8.18311 36.6256L8.22695 36.2414L8.39922 35.9843L8.52763 35.8986H9.00056L9.38893 36.1942L9.90258 36.7498L23.9121 50.687L24.0812 50.6456L39.1713 35.6415L39.5566 35.1716L39.9011 34.7874L40.1579 34.4446L40.4179 34.1875Z" fill="#EE574A"/>
</svg>
