<svg width="70" height="77" viewBox="0 0 70 77" fill="none" xmlns="http://www.w3.org/2000/svg">
<path d="M42.2758 0H56.041L56.455 0.153537L56.5614 0.360633L56.6146 13.272H69.529L69.8443 13.4291L69.9468 13.5826L70 14.3575V27.3724L69.8936 27.7294L69.6354 27.883L69.0618 27.9365L56.6526 27.9865L56.6032 40.6408L56.4968 40.8979L56.2347 41.155L56.1322 41.2085L50.4346 41.2585H40.2968L39.917 41.3121L39.3966 41.7762L38.2571 42.9117L37.7329 43.2223L37.4215 43.3259H36.9087L36.4377 43.1188L35.9705 42.7617L35.4501 42.0905L34.717 40.7979L34.0941 39.6624L33.5205 38.6305L33.3116 38.4234L32.9964 39.2482L32.1645 41.8298L31.4846 44.0507L30.9111 45.7575L30.497 47.1L29.9235 48.9568L29.6272 49.7316L29.2474 50.1993L28.9359 50.4029L28.7802 50.4564H28.3624L27.9825 50.2493L27.6711 49.8923L27.4622 49.4281L26.9912 47.2571L26.4708 44.8827L25.6351 40.7515L25.1148 38.3734L24.3095 34.2387L23.8917 32.3819L23.7853 32.2784L23.4055 33.5174L22.9877 34.86L22.1558 37.7164L21.5823 39.6303L21.0619 41.4192L20.7998 42.2976L20.382 43.1759L19.9642 43.5865L19.497 43.8472L19.026 43.8972L18.5056 43.7437L18.0384 43.3866L17.6206 42.8724L17.1496 41.994L16.576 40.805L15.5733 38.8876L15.1555 38.2699L14.9466 38.2163L14.4756 38.9912L14.0615 39.7053L13.6741 40.2302L13.2943 40.6444L12.7207 41.0014L12.0408 41.2085H0.470997L0.155733 41.0014L0 40.7479V40.348L0.20891 39.9909L0.364643 39.8874L12.0408 39.7838L12.4206 39.5267L12.8916 38.9055L13.5184 37.77L13.8982 37.3058L14.3654 36.8916L14.7832 36.7381H15.3568L15.7366 36.8916L16.1544 37.2023L16.5723 37.6665L17.0926 38.5448L18.8133 41.9512L19.1931 42.4689L19.402 42.0547L20.0781 39.7303L20.8606 37.2023L21.6507 34.2779L22.171 32.5748L22.6382 30.9715L22.9003 30.3003L23.3675 29.7825L23.6828 29.629H24.2032L24.5146 29.8361L24.7767 30.1467L24.9856 30.5574L25.1945 31.2286L25.7681 34.1208L26.4442 37.2737L26.9152 39.6482L27.5381 42.5046L28.3206 46.3752L28.7004 47.9248L28.8068 47.9784L28.9093 47.3571L29.5361 45.3933L30.1096 43.6401L30.7363 41.6263L31.3593 39.6624L31.7391 38.527L32.0012 37.9057L32.2861 37.4915L32.6659 37.1809L33.0457 37.0238H33.6193L34.0371 37.1809L34.5081 37.5379L34.9449 38.1663L35.6248 39.4053L36.2478 40.5408L36.9277 41.612L37.1366 41.8691L37.2923 41.9191L37.3949 41.7155L38.6977 40.423L39.2713 40.0659L39.7423 39.8588L40.0537 39.8053H55.2244V27.4938L55.2776 26.976L55.589 26.619L55.6954 26.5654H66.2054L68.6022 26.5154L68.6554 14.6895H55.8815L55.4143 14.5324L55.2054 14.2753V1.34255H43.214V13.9433L43.1114 14.3003L42.8493 14.561L42.3821 14.6645L29.8171 14.7145L29.7678 19.9312L29.6272 20.2454L29.3158 20.4525L29.0537 20.5025L28.6738 20.3989L28.4155 20.0883L28.3624 19.9348V16.3177L28.4155 13.6862L28.5713 13.4291L28.6738 13.3256L28.8827 13.272L41.7592 13.222L41.8124 0.774824L41.8655 0.310644L42.0213 0.257085L42.0707 0.103548L42.2758 0Z" fill="#3A96D2"/>
<path d="M18.5588 20.6061H20.4352L21.4266 20.7097L22.832 20.9667L24.1348 21.3238L25.1794 21.738L26.4291 22.3593L27.4204 22.977L28.2561 23.5983L28.7233 23.9553L28.9322 24.0589L29.6615 23.4912L30.4971 22.8699L31.7468 22.1558L33.0458 21.5345L34.5082 21.0667L35.9705 20.7561L36.5935 20.6525L37.2734 20.6025H39.2029L40.5058 20.7561L41.8618 21.0167L42.9025 21.3238L43.9471 21.738L45.2006 22.3629L46.2413 23.0341L47.1301 23.7054L47.7037 24.1696L48.7976 25.2408L49.3712 25.9549L50.0473 26.8868L50.674 27.958L51.0918 28.7864L51.5096 29.8576L51.8211 30.8931L52.0832 32.0785L52.2389 33.1497L52.2883 33.9745L52.2389 35.7848L51.9768 37.2309L51.7679 37.8486L51.5096 38.1093L51.4033 38.1593H50.9855L50.6056 37.9522L50.4499 37.7451L50.3967 37.438L50.712 35.8348L50.8145 34.5458V34.0852L50.712 32.9497L50.2942 30.9359L49.8763 29.7469L49.4585 28.8185L48.6761 27.526L47.9468 26.544L47.1757 25.7085L46.5528 25.0872L45.8235 24.5195L45.1436 24.0553L44.1028 23.434L43.1115 22.9699L41.9719 22.5592L40.878 22.2986L39.503 22.1022L39.032 22.0522H37.5127L36.7834 22.1022L35.3248 22.3629L33.9156 22.7735L32.8217 23.2412L31.6822 23.8589L30.8997 24.3767L30.235 24.9444L29.6615 25.4086L29.2436 25.7657L29.1411 25.8192H28.6701L28.3586 25.6121L27.7281 25.048L26.9988 24.4802L26.3227 24.0161L25.2288 23.3948L24.2374 22.9306L23.5119 22.6735L22.4104 22.3629L20.891 22.1022L20.1618 22.0522H18.7564L17.4725 22.2057L16.0101 22.5164L14.7605 22.9306L13.7691 23.3948L12.7284 24.0161L12.0485 24.4802L11.4749 24.9444L10.9545 25.4086L10.0695 26.287L9.38201 27.1653L8.80845 28.0437L8.28808 28.9721L7.97661 29.6362L7.55879 30.7788L7.34988 31.4929L7.14097 32.5248L7.03842 33.4032V35.467L7.19415 36.5382L7.45624 37.6737L7.83607 38.7449L8.14754 39.5197L8.20071 39.8303H6.88268L6.6206 39.7268L6.1496 38.4342L5.76976 37.0417L5.56085 35.6991L5.51147 35.0778V33.7746L5.61403 32.7034L5.87612 31.3608L6.25595 30.0718L6.67377 29.0006L7.2967 27.7081L7.71452 27.0368L8.13234 26.4191L8.60334 25.7978L9.22627 25.0837L10.2176 24.066L10.7912 23.6019L11.6762 22.9306L12.6144 22.3629L13.8147 21.7416L15.2201 21.2274L16.8914 20.8132L17.9321 20.6561L18.5588 20.6061Z" fill="#EE574A"/>
<path d="M48.8469 41.2622H50.3662L50.3131 41.5229L50.0016 42.037L49.4774 42.7512L48.9988 43.3296L48.5278 43.8473L47.9543 44.4651L46.6514 45.7576H46.5489L46.4425 45.9647L42.5416 49.8353L42.1618 50.1459L41.7819 50.5601L31.0706 61.197L30.7553 61.4576L30.3755 61.8683L29.8019 62.436L29.3841 62.793L29.1258 62.9466L28.746 63.0001L28.3661 62.793L27.7394 62.2253L18.817 53.3488V53.2452H18.7145V53.1417H18.6119L18.403 52.9346V52.8453H18.2967V52.7417L18.0878 52.6382L17.3585 51.9241L17.047 51.567L16.6292 51.21L15.8999 50.4958L15.5884 50.1388L15.2732 49.8781L14.4337 49.0104L14.0539 48.5963L13.5297 48.1321L13.1499 47.7179L12.7321 47.3608L12.527 47.1537V47.0502L12.318 46.9466V46.8431L12.1547 46.7395L10.0694 44.6721L9.75415 44.208L9.80733 43.7438L10.0162 43.4331L10.172 43.3296H10.7455L11.2165 43.6867L11.8395 44.3579L28.8295 61.197L29.0346 61.147L47.3351 43.019L47.8023 42.4512L48.2202 41.987L48.5316 41.5729L48.8469 41.2622Z" fill="#EE574A"/>
<path d="M10.3396 72.5365V74.9514H9.94709V72.5519C9.94709 71.5318 9.48564 70.9879 8.73872 70.9879C7.90812 70.9879 7.39253 71.7016 7.39253 72.8238V74.9514H7V69H7.39253V71.661C7.61526 71.0402 8.06932 70.5898 8.80025 70.5898C9.6856 70.5898 10.3396 71.1762 10.3396 72.5365Z" fill="#3397D3"/>
<path d="M10.7451 72.8588C10.7451 71.5834 11.4754 70.6826 12.5454 70.6826C13.5913 70.6826 14.3075 71.4308 14.3456 72.713C14.3456 72.764 14.3382 72.8323 14.3382 72.8914H11.1524V72.9683C11.1678 73.9712 11.7141 74.7027 12.5841 74.7027C13.2221 74.7027 13.7377 74.2856 13.8915 73.6143H14.2921C14.1229 74.4812 13.4689 75.0909 12.6143 75.0909C11.5068 75.0946 10.7451 74.2105 10.7451 72.8588ZM13.9223 72.5272C13.8608 71.5834 13.3144 71.0647 12.5527 71.0647C11.8372 71.0647 11.2453 71.6516 11.1838 72.5272H13.9223Z" fill="#3397D3"/>
<path d="M18.4979 74.6443V75.0436H18.2672C17.8057 75.0436 17.6132 74.8227 17.6285 74.3126V74.1594C17.3904 74.6953 16.921 75.0946 16.1285 75.0946C15.2973 75.0946 14.751 74.627 14.751 73.8641C14.751 73.0569 15.2893 72.5807 16.2891 72.5807H17.6132V72.2042C17.6132 71.4898 17.1979 71.0647 16.4669 71.0647C15.8049 71.0647 15.3896 71.4135 15.2893 71.9402H14.8974C14.9971 71.1582 15.5896 70.6826 16.4823 70.6826C17.4593 70.6826 18.0057 71.2363 18.0057 72.2208V74.2296C18.0057 74.5612 18.1214 74.6461 18.3521 74.6461L18.4979 74.6443ZM17.6132 72.9523H16.2596C15.5367 72.9523 15.1521 73.2667 15.1521 73.8364C15.1521 74.3723 15.5373 74.7206 16.1605 74.7206C17.0834 74.7206 17.6144 74.1256 17.6144 73.3005L17.6132 72.9523Z" fill="#3397D3"/>
<path d="M19.021 69H19.4135V75.0375H19.021V69Z" fill="#3397D3"/>
<path d="M22 70.7332V71.1497H21.7151C20.7996 71.1497 20.5916 71.9834 20.5916 72.8589V75.0437H20.1991V70.7332H20.5356L20.5972 71.5945C20.759 71.1183 21.0666 70.7332 21.7902 70.7332H22Z" fill="#3397D3"/>
<path d="M24.544 75V69.4H25.24V71.832H28.136V69.4H28.832V75H28.136V72.472H25.24V75H24.544ZM31.703 75.048C30.479 75.048 29.679 74.208 29.679 72.96C29.679 71.72 30.463 70.872 31.615 70.872C32.767 70.872 33.519 71.6 33.551 72.808C33.551 72.896 33.543 72.992 33.535 73.088H30.367V73.144C30.391 73.92 30.879 74.464 31.655 74.464C32.231 74.464 32.679 74.16 32.815 73.632H33.479C33.319 74.448 32.647 75.048 31.703 75.048ZM30.407 72.544H32.847C32.783 71.84 32.303 71.448 31.623 71.448C31.023 71.448 30.471 71.88 30.407 72.544ZM37.9076 74.4H38.1156V75H37.7556C37.2116 75 37.0276 74.768 37.0196 74.368C36.7636 74.736 36.3556 75.048 35.6516 75.048C34.7556 75.048 34.1476 74.6 34.1476 73.856C34.1476 73.04 34.7156 72.584 35.7876 72.584H36.9876V72.304C36.9876 71.776 36.6116 71.456 35.9716 71.456C35.3956 71.456 35.0116 71.728 34.9316 72.144H34.2756C34.3716 71.344 35.0196 70.872 36.0036 70.872C37.0436 70.872 37.6436 71.392 37.6436 72.344V74.128C37.6436 74.344 37.7236 74.4 37.9076 74.4ZM36.9876 73.336V73.136H35.7236C35.1396 73.136 34.8116 73.352 34.8116 73.816C34.8116 74.216 35.1556 74.488 35.6996 74.488C36.5156 74.488 36.9876 74.016 36.9876 73.336ZM38.6199 75V69.4H39.2759V75H38.6199ZM40.4786 73.936V71.52H39.7426V70.92H40.4786V69.776H41.1346V70.92H42.1906V71.52H41.1346V73.928C41.1346 74.272 41.2546 74.4 41.6066 74.4H42.2546V75H41.5426C40.7586 75 40.4786 74.656 40.4786 73.936ZM44.823 70.872C45.735 70.872 46.479 71.376 46.479 72.728V75H45.823V72.768C45.823 71.92 45.415 71.472 44.711 71.472C43.951 71.472 43.479 72.04 43.479 72.96V75H42.823V69.4H43.479V71.592C43.719 71.208 44.135 70.872 44.823 70.872ZM49.1003 75.048C47.9083 75.048 47.1243 74.24 47.1243 72.968C47.1243 71.72 47.9323 70.872 49.1163 70.872C50.1163 70.872 50.7483 71.432 50.9163 72.328H50.2283C50.1083 71.784 49.7083 71.456 49.1083 71.456C48.3243 71.456 47.7963 72.08 47.7963 72.968C47.7963 73.856 48.3243 74.464 49.1083 74.464C49.6923 74.464 50.0923 74.128 50.2203 73.608H50.9163C50.7563 74.488 50.0923 75.048 49.1003 75.048ZM55.2435 74.4H55.4515V75H55.0915C54.5475 75 54.3635 74.768 54.3555 74.368C54.0995 74.736 53.6915 75.048 52.9875 75.048C52.0915 75.048 51.4835 74.6 51.4835 73.856C51.4835 73.04 52.0515 72.584 53.1235 72.584H54.3235V72.304C54.3235 71.776 53.9475 71.456 53.3075 71.456C52.7315 71.456 52.3475 71.728 52.2675 72.144H51.6115C51.7075 71.344 52.3555 70.872 53.3395 70.872C54.3795 70.872 54.9795 71.392 54.9795 72.344V74.128C54.9795 74.344 55.0595 74.4 55.2435 74.4ZM54.3235 73.336V73.136H53.0595C52.4755 73.136 52.1475 73.352 52.1475 73.816C52.1475 74.216 52.4915 74.488 53.0355 74.488C53.8515 74.488 54.3235 74.016 54.3235 73.336ZM57.8438 70.92H58.0278V71.56H57.6998C56.8438 71.56 56.6118 72.272 56.6118 72.92V75H55.9558V70.92H56.5238L56.6118 71.536C56.8038 71.224 57.1158 70.92 57.8438 70.92ZM60.2421 75.048C59.0181 75.048 58.2181 74.208 58.2181 72.96C58.2181 71.72 59.0021 70.872 60.1541 70.872C61.3061 70.872 62.0581 71.6 62.0901 72.808C62.0901 72.896 62.0821 72.992 62.0741 73.088H58.9061V73.144C58.9301 73.92 59.4181 74.464 60.1941 74.464C60.7701 74.464 61.2181 74.16 61.3541 73.632H62.0181C61.8581 74.448 61.1861 75.048 60.2421 75.048ZM58.9461 72.544H61.3861C61.3221 71.84 60.8421 71.448 60.1621 71.448C59.5621 71.448 59.0101 71.88 58.9461 72.544Z" fill="#EE574A"/>
</svg>
