<svg width="54" height="54" viewBox="0 0 54 54" fill="none" xmlns="http://www.w3.org/2000/svg">
<circle cx="27" cy="27" r="23" fill="#133953"/>
<path d="M23.25 19.5C23.25 19.5 30.75 25.0238 30.75 27C30.75 28.9762 23.25 34.5 23.25 34.5" stroke="white" stroke-width="1.5" stroke-linecap="round" stroke-linejoin="round"/>
<path d="M27 1C23.5856 0.999998 20.2047 1.67251 17.0502 2.97913C13.8958 4.28575 11.0296 6.20089 8.61523 8.61521C6.20091 11.0295 4.28576 13.8958 2.97914 17.0502C1.67251 20.2047 1 23.5856 1 27C0.999998 30.4144 1.67251 33.7953 2.97913 36.9498C4.28575 40.1042 6.20089 42.9704 8.61522 45.3848C11.0295 47.7991 13.8958 49.7142 17.0502 51.0209C20.2047 52.3275 23.5856 53 27 53C30.4144 53 33.7953 52.3275 36.9498 51.0209C40.1042 49.7142 42.9704 47.7991 45.3848 45.3848C47.7991 42.9705 49.7142 40.1042 51.0209 36.9498C52.3275 33.7953 53 30.4144 53 27C53 23.5856 52.3275 20.2047 51.0209 17.0502C49.7142 13.8958 47.7991 11.0295 45.3848 8.61523C42.9705 6.2009 40.1042 4.28576 36.9498 2.97913C33.7953 1.67251 30.4144 1 27 1L27 1Z" stroke="#133953" stroke-width="2" stroke-linecap="round"/>
</svg>
