<svg width="51" height="54" viewBox="0 0 51 54" fill="none" xmlns="http://www.w3.org/2000/svg">
<circle cx="24" cy="27" r="23" fill="#133953"/>
<path d="M20.25 19.5C20.25 19.5 27.75 25.0238 27.75 27C27.75 28.9762 20.25 34.5 20.25 34.5" stroke="white" stroke-width="1.5" stroke-linecap="round" stroke-linejoin="round"/>
<path d="M2.96556 42.2824C5.58038 45.8814 9.07489 48.7493 13.1149 50.6117C17.1548 52.4742 21.6051 53.2689 26.0399 52.9199C30.4748 52.5708 34.746 51.0897 38.4448 48.6182C42.1437 46.1467 45.1466 42.7675 47.1662 38.8038C49.1858 34.84 50.1546 30.4244 49.98 25.9792C49.8053 21.5341 48.493 17.2081 46.1686 13.415C43.8443 9.62199 40.5855 6.48878 36.7042 4.3151C32.8228 2.14143 28.4486 1 24 1" stroke="#133953" stroke-width="2" stroke-linecap="round"/>
</svg>
