<svg width="32" height="34" viewBox="0 0 32 34" fill="none" xmlns="http://www.w3.org/2000/svg">
<path d="M13.3142 9C13.5238 7.12527 12.0061 5 8.76188 5C5.39564 5 2.66675 8.28324 2.66675 12.3333C2.66675 16.3835 4.71859 19.6667 8.08483 19.6667C10.24 19.6667 11.3808 17.9945 11.1411 16.5452" stroke="#1C567D" stroke-width="1.5" stroke-linecap="round"/>
<path d="M9.33325 11.6665C11.3333 11.666 13.9998 12.3274 13.9998 16.5198C13.9998 22.0665 11.3325 24.1465 13.3339 28.9998M22.6666 11.6665C20.6665 11.666 18.0001 12.3274 18.0001 16.5198C18.0001 22.0665 20.6674 24.1465 18.6659 28.9998" stroke="#1C567D" stroke-width="1.5" stroke-linecap="round"/>
<path d="M8.8138 9C9.08541 9.76191 9.54717 11.5905 9.22123 12.8095C9.08543 13.3175 8.65105 14.3333 8 14.3333" stroke="#1C567D" stroke-linecap="round"/>
<path d="M18.6858 9C18.4762 7.12527 19.994 5 23.2382 5C26.6044 5 29.3333 8.28324 29.3333 12.3333C29.3333 16.3835 27.2814 19.6667 23.9152 19.6667C21.6541 19.6667 20.5096 17.8261 20.9044 16.3333" stroke="#1C567D" stroke-width="1.4" stroke-linecap="round"/>
<path d="M23.1864 9C22.9146 9.76191 22.4529 11.5905 22.7789 12.8095C22.9146 13.3175 23.349 14.3333 24.0001 14.3333" stroke="#1C567D" stroke-linecap="round"/>
</svg>
