<svg width="32" height="34" viewBox="0 0 32 34" fill="none" xmlns="http://www.w3.org/2000/svg">
<path d="M10.637 15.6665C11.1851 15.9416 11.6201 16.4152 11.9654 16.9937M11.9654 16.9937C13.2939 19.2198 13.2937 22.9998 13.2937 22.9998C13.2937 27.6665 10.9148 28.9998 7.98024 28.9998C6.65187 28.9998 2.66675 28.3332 2.66675 22.3332C2.66675 13.6665 7.31605 7.6665 11.3012 7.6665C14.4893 7.6665 13.2957 14.3332 11.9654 16.9937Z" stroke="#1C567D" stroke-width="1.5" stroke-linecap="round" stroke-linejoin="round"/>
<path d="M21.3622 15.6665C20.8139 15.9416 20.3789 16.4152 20.0335 16.9937M20.0335 16.9937C18.7049 19.2198 18.705 22.9998 18.705 22.9998C18.705 27.6665 21.0843 28.9998 24.0193 28.9998C25.3478 28.9998 29.3334 28.3332 29.3334 22.3332C29.3334 13.6665 24.6835 7.6665 20.6979 7.6665C17.5094 7.6665 18.7069 14.3332 20.0335 16.9937Z" stroke="#1C567D" stroke-width="1.5" stroke-linecap="round" stroke-linejoin="round"/>
<path d="M18.6666 10.3333L15.9999 8.55556M15.9999 8.55556L13.3333 10.3333M15.9999 8.55556V5" stroke="#1C567D" stroke-width="1.5" stroke-linecap="round"/>
</svg>
