<svg width="25" height="25" viewBox="0 0 25 25" fill="none" xmlns="http://www.w3.org/2000/svg">
<path d="M2.5 5.5L9.413 9.425C11.939 10.858 13.061 10.858 15.587 9.425L22.5 5.5" stroke="#2673A6" stroke-width="1.5" stroke-linecap="round" stroke-linejoin="round"/>
<path d="M10.9999 20.0001C10.5329 19.9939 10.0659 19.9849 9.59894 19.9731C6.44994 19.8941 4.87594 19.8551 3.74494 18.7181C2.61394 17.5821 2.58094 16.0481 2.51494 12.9811C2.49388 11.9969 2.49388 11.0123 2.51494 10.0281C2.58094 6.96108 2.61394 5.42808 3.74494 4.29108C4.87594 3.15508 6.44994 3.11608 9.59894 3.03708C11.5326 2.98829 13.4673 2.98829 15.4009 3.03708C18.5499 3.11608 20.1239 3.15508 21.2549 4.29108C22.3859 5.42708 22.4189 6.96108 22.4849 10.0281C22.4939 10.4831 22.4989 10.6961 22.4999 11.0001" stroke="#2673A6" stroke-width="1.5" stroke-linecap="round" stroke-linejoin="round"/>
<path d="M19.5 17.5C19.5 17.8978 19.342 18.2794 19.0607 18.5607C18.7794 18.842 18.3978 19 18 19C17.6022 19 17.2206 18.842 16.9393 18.5607C16.658 18.2794 16.5 17.8978 16.5 17.5C16.5 17.1022 16.658 16.7206 16.9393 16.4393C17.2206 16.158 17.6022 16 18 16C18.3978 16 18.7794 16.158 19.0607 16.4393C19.342 16.7206 19.5 17.1022 19.5 17.5ZM19.5 17.5V18C19.5 18.3978 19.658 18.7794 19.9393 19.0607C20.2206 19.342 20.6022 19.5 21 19.5C21.3978 19.5 21.7794 19.342 22.0607 19.0607C22.342 18.7794 22.5 18.3978 22.5 18V17.5C22.5 16.61 22.2361 15.74 21.7416 14.9999C21.2471 14.2599 20.5443 13.6831 19.7221 13.3425C18.8998 13.0019 17.995 12.9128 17.1221 13.0865C16.2492 13.2601 15.4474 13.6887 14.818 14.318C14.1887 14.9474 13.7601 15.7492 13.5865 16.6221C13.4128 17.495 13.5019 18.3998 13.8425 19.2221C14.1831 20.0443 14.7599 20.7471 15.4999 21.2416C16.24 21.7361 17.11 22 18 22" stroke="#2673A6" stroke-width="1.5" stroke-linecap="round" stroke-linejoin="round"/>
</svg>
