<svg width="32" height="32" viewBox="0 0 32 32" fill="none" xmlns="http://www.w3.org/2000/svg">
<path d="M16.6666 2.66666C10.4074 2.66666 5.33331 7.49044 5.33331 13.4409C5.33331 16.8433 6.74998 19.4889 9.58331 21.852C11.5804 23.5176 13.9998 26.2841 15.4524 28.5268C16.149 29.6021 17.1342 29.6021 17.8809 28.5268C19.407 26.3288 21.7529 23.5176 23.75 21.852C26.5833 19.4889 28 16.8433 28 13.4409C28 7.49044 22.9258 2.66666 16.6666 2.66666Z" stroke="#1C567D" stroke-width="2" stroke-linejoin="round"/>
<path d="M14 9.33334V13.3333M14 13.3333V17.3333M14 13.3333H19.3333M19.3333 9.33334V13.3333M19.3333 13.3333V17.3333" stroke="#1C567D" stroke-width="2" stroke-linecap="round"/>
</svg>
