<svg width="40" height="40" viewBox="0 0 40 40" fill="none" xmlns="http://www.w3.org/2000/svg">
<rect width="40" height="40" rx="20" fill="#ACD2EC"/>
<path d="M18.9167 14.5833H25.4167M18.9167 12.4166V16.75C18.9167 18.5449 20.3717 20 22.1667 20C23.9616 20 25.4167 18.5449 25.4167 16.75V12.4166C25.4167 10.6217 23.9616 9.16663 22.1667 9.16663C20.3717 9.16663 18.9167 10.6217 18.9167 12.4166Z" stroke="#3A95D2" stroke-width="1.5" stroke-linecap="round" stroke-linejoin="round"/>
<path d="M11.3333 22.1666H13.9277C14.2464 22.1666 14.5607 22.2385 14.8457 22.3764L17.0578 23.4467C17.3429 23.5846 17.6571 23.6563 17.9758 23.6563H19.1053C20.1977 23.6563 21.0833 24.5133 21.0833 25.5705C21.0833 25.6131 21.0541 25.6507 21.0116 25.6624L18.259 26.4236C17.7652 26.5601 17.2364 26.5125 16.7771 26.2902L14.4123 25.1461" stroke="#3A95D2" stroke-width="1.5" stroke-linecap="round" stroke-linejoin="round"/>
<path d="M21.0833 24.875L26.0589 23.3463C26.9409 23.0715 27.8944 23.3974 28.4469 24.1625C28.8464 24.7157 28.6837 25.5079 28.1017 25.8437L19.9598 30.5414C19.442 30.8402 18.831 30.9131 18.2615 30.7441L11.3333 28.6883" stroke="#3A95D2" stroke-width="1.5" stroke-linecap="round" stroke-linejoin="round"/>
</svg>
