<svg width="32" height="32" viewBox="0 0 32 32" fill="none" xmlns="http://www.w3.org/2000/svg">
<path d="M26.3703 29.3267V24.5938C26.3703 22.8986 26.8142 22.0174 27.6868 20.5441C28.7329 18.7781 29.3333 16.717 29.3333 14.5158C29.3333 7.97187 24.027 2.66699 17.4814 2.66699C10.9358 2.66699 5.62952 7.97187 5.62952 14.5158C5.62952 15.2887 5.62952 15.6753 5.59725 15.8919C5.52019 16.4099 5.27845 16.8555 5.04072 17.3167L2.66659 21.9213L4.53245 22.8539C5.07325 23.1242 5.34352 23.2594 5.53192 23.5089C5.72032 23.7582 5.77325 24.0398 5.87939 24.6029L5.88979 24.6578C6.13272 25.9478 6.40085 27.3718 7.15605 28.2702C7.42272 28.5874 7.75285 28.8451 8.12539 29.0269C8.74032 29.3267 9.49632 29.3267 11.0083 29.3267C11.7079 29.3267 12.4095 29.3429 13.109 29.3259C14.767 29.2855 15.9999 27.8915 15.9999 26.2729" stroke="#1C567D" stroke-width="1.5" stroke-linecap="round" stroke-linejoin="round"/>
<path d="M11.6378 14.8504C12.3354 14.8504 12.9716 14.5923 13.4535 14.1677M11.6378 14.8504C11.6378 16.6838 12.7242 18.4253 14.8154 18.4253C16.9067 18.4253 17.9929 20.1666 17.9929 22M11.6378 14.8504C8.12074 14.8504 8.12074 9.48827 11.6378 9.48827C11.9574 9.48827 12.264 9.54245 12.5489 9.64198C12.3771 5.6451 18.2701 4.56 19.6049 8.30429M19.6049 8.30429C18.6328 8.94576 19.5 7.2615 19.5 8.5M19.6049 8.30429C22.6351 6.30454 26.6746 9.89296 24.7529 13.0924C27.9781 13.5652 27.6333 18.4253 24.3483 18.4253C23.4271 18.4253 22.6127 17.975 22.1198 17.2861" stroke="#1C567D" stroke-width="1.5" stroke-linecap="round" stroke-linejoin="round"/>
<path d="M21.4876 11.3314C20.5937 10.7831 19.8135 11.004 19.3449 11.356C19.1527 11.5003 19.0566 11.5725 19.0001 11.5725C18.9435 11.5725 18.8475 11.5003 18.6553 11.356C18.1866 11.004 17.4064 10.7831 16.5126 11.3314C15.3394 12.051 15.074 14.4249 17.7799 16.4278C18.2953 16.8093 18.553 17 19.0001 17C19.4471 17 19.7048 16.8093 20.2202 16.4278C22.9262 14.4249 22.6607 12.051 21.4876 11.3314Z" stroke="#1C567D" stroke-linecap="round"/>
<path d="M19 13V15M18 14H20" stroke="#1C567D" stroke-width="0.5" stroke-linecap="round"/>
</svg>
