<svg width="32" height="32" viewBox="0 0 32 32" fill="none" xmlns="http://www.w3.org/2000/svg">
<path d="M5.62971 29.3267V24.5938C5.62971 22.8986 5.18577 22.0174 4.31317 20.5441C3.26715 18.7781 2.66675 16.717 2.66675 14.5158C2.66675 7.97187 7.973 2.66699 14.5186 2.66699C21.0642 2.66699 26.3705 7.97187 26.3705 14.5158C26.3705 15.2887 26.3705 15.6753 26.4027 15.8919C26.4798 16.4099 26.7215 16.8555 26.9593 17.3167L29.3334 21.9213L27.4675 22.8539C26.9267 23.1242 26.6565 23.2594 26.4681 23.5089C26.2797 23.7582 26.2267 24.0398 26.1206 24.6029L26.1102 24.6578C25.8673 25.9478 25.5991 27.3718 24.8439 28.2702C24.5773 28.5874 24.2471 28.8451 23.8746 29.0269C23.2597 29.3267 22.5037 29.3267 20.9917 29.3267C20.2921 29.3267 19.5905 29.3429 18.891 29.3259C17.233 29.2855 16.0001 27.8915 16.0001 26.2729" stroke="#1C567D" stroke-width="1.5" stroke-linecap="round" stroke-linejoin="round"/>
<path d="M19.1841 14.0423C18.6157 14.0423 18.0973 13.8273 17.7046 13.4734M19.1841 14.0423C19.1841 15.5702 18.2989 17.0214 16.5949 17.0214C14.8909 17.0214 14.0058 18.4725 14.0058 20.0003M19.1841 14.0423C22.0498 14.0423 22.0498 9.57388 19.1841 9.57388C18.9237 9.57388 18.6738 9.61903 18.4417 9.70198C18.5817 6.37124 13.7799 5.46699 12.6924 8.58723M12.6924 8.58723C13.4845 9.12179 14.0058 10.0313 14.0058 11.0634M12.6924 8.58723C10.2233 6.92078 6.93185 9.91112 8.49773 12.5774C5.86976 12.9714 6.15073 17.0214 8.82741 17.0214C9.578 17.0214 10.2416 16.6462 10.6432 16.0721" stroke="#1C567D" stroke-width="1.5" stroke-linecap="round" stroke-linejoin="round"/>
</svg>
