<svg width="251" height="250" viewBox="0 0 251 250" fill="none" xmlns="http://www.w3.org/2000/svg">
<path d="M136.08 189.375H84.005V229.54H136.08V189.375Z" fill="#EBEBEB"/>
<path d="M123.035 229.26C122.965 229.26 122.905 220.305 122.905 209.26C122.905 198.215 122.965 189.26 123.035 189.26C123.105 189.26 123.165 198.215 123.165 209.26C123.165 220.305 123.105 229.26 123.035 229.26Z" fill="#E0E0E0"/>
<path d="M131.665 220.4H127.675V224.915H131.665V220.4Z" fill="#FAFAFA"/>
<path d="M105.81 189.48H99.895V198.05H105.81V189.48Z" fill="#E0E0E0"/>
<path d="M105.81 220.85H99.895V229.42H105.81V220.85Z" fill="#E0E0E0"/>
<path d="M230.575 179.305H164.91V229.95H230.575V179.305Z" fill="#EBEBEB"/>
<path d="M214.12 229.59C214.05 229.59 213.99 218.305 213.99 204.38C213.99 190.455 214.05 179.17 214.12 179.17C214.19 179.17 214.25 190.455 214.25 204.38C214.25 218.305 214.195 229.59 214.12 229.59Z" fill="#E0E0E0"/>
<path d="M225.005 218.42H219.97V224.11H225.005V218.42Z" fill="#FAFAFA"/>
<path d="M192.4 179.435H184.94V190.24H192.4V179.435Z" fill="#E0E0E0"/>
<path d="M192.4 218.99H184.94V229.795H192.4V218.99Z" fill="#E0E0E0"/>
<path d="M41.23 180.795C43.89 179.425 47.02 179.245 49.97 179.735C51.555 179.995 53.205 180.47 54.285 181.66C55.365 182.85 55.565 184.945 54.33 185.97C53.59 186.58 52.565 186.67 51.605 186.66C49.295 186.63 46.735 186.225 44.89 187.615C43.835 188.41 43.135 189.725 41.89 190.115C40.645 190.505 39.27 189.77 38.62 188.66C38.0187 187.502 37.8862 186.158 38.25 184.905C38.3972 184.037 38.7427 183.214 39.2595 182.502C39.7764 181.789 40.4507 181.205 41.23 180.795Z" fill="#EBEBEB"/>
<path d="M35.14 169.04C36.765 171.36 39.925 170.595 41.39 169.175C42.855 167.755 43.475 165.705 44.035 163.75C45.325 159.275 46.62 154.58 45.665 150.025C45.435 148.644 44.8277 147.353 43.91 146.295C43.4454 145.775 42.8531 145.386 42.1918 145.166C41.5306 144.946 40.8233 144.903 40.14 145.04C38.545 145.46 37.555 147.04 36.84 148.505C34.7319 152.885 33.6284 157.68 33.61 162.54C33.61 164.805 33.865 167.175 35.14 169.04Z" fill="#EBEBEB"/>
<path d="M30.68 172.37C32.445 170.275 32.78 167.225 31.995 164.6C31.21 161.975 29.435 159.745 27.39 157.92C24.9848 155.781 22.186 154.13 19.15 153.06C17.9733 152.585 16.7076 152.37 15.44 152.43C14.8076 152.466 14.1937 152.656 13.6516 152.984C13.1096 153.312 12.6558 153.767 12.33 154.31C11.46 155.965 12.295 157.97 13.195 159.61C14.7799 162.496 16.5888 165.252 18.605 167.855C20.23 169.945 22.105 172.01 24.56 172.955C27.015 173.9 29.605 173.79 30.915 172.075" fill="#EBEBEB"/>
<path d="M35.03 204.05C35.1168 203.706 35.1671 203.354 35.18 203C35.255 202.23 35.345 201.265 35.46 200.12C35.6033 198.703 35.8186 197.295 36.105 195.9C36.4807 194.195 36.994 192.522 37.64 190.9C38.2735 189.288 39.1302 187.773 40.185 186.4C41.0473 185.283 42.1449 184.37 43.4 183.725C44.2535 183.304 45.1681 183.021 46.11 182.885C46.4645 182.871 46.8166 182.819 47.16 182.73C46.8061 182.691 46.4489 182.691 46.095 182.73C45.1169 182.804 44.16 183.053 43.27 183.465C41.9447 184.09 40.7825 185.014 39.875 186.165C38.7711 187.557 37.8813 189.105 37.235 190.76C36.5898 192.402 36.0879 194.097 35.735 195.825C35.463 197.238 35.2743 198.665 35.17 200.1C35.08 201.325 35.045 202.315 35.03 203C34.9931 203.349 34.9931 203.701 35.03 204.05Z" fill="#E0E0E0"/>
<path d="M35.23 201.84C35.2597 201.675 35.2697 201.507 35.26 201.34C35.26 200.97 35.26 200.505 35.26 199.94C35.26 198.725 35.26 196.965 35.32 194.795C35.43 190.455 35.82 185.795 36.525 179.2C37.21 173.005 38.125 165.8 39.095 161.115C39.3 160.05 39.51 159.09 39.71 158.25C39.91 157.41 40.055 156.68 40.21 156.095C40.365 155.51 40.45 155.095 40.54 154.735C40.5889 154.572 40.6175 154.405 40.625 154.235C40.5497 154.381 40.4926 154.535 40.455 154.695C40.345 155.05 40.21 155.49 40.045 156.035C39.88 156.58 39.68 157.34 39.47 158.175C39.26 159.01 39.02 159.97 38.795 161.035C37.5939 166.576 36.6909 172.177 36.09 177.815C35.37 184.415 35.045 190.425 35.015 194.775C35.015 196.95 35.015 198.715 35.09 199.93C35.125 200.495 35.155 200.96 35.175 201.325C35.1725 201.498 35.191 201.671 35.23 201.84Z" fill="#E0E0E0"/>
<path d="M35.26 190.25C35.2981 189.762 35.2981 189.273 35.26 188.785C35.205 187.845 35.075 186.49 34.81 184.825C34.483 182.878 34.0456 180.952 33.5 179.055C32.8694 176.72 32.0621 174.437 31.085 172.225C29.4121 168.149 27.0113 164.411 24 161.195C23.4775 160.643 22.9197 160.125 22.33 159.645C22.075 159.425 21.83 159.21 21.62 159.04L21 158.595C20.6109 158.298 20.1978 158.034 19.765 157.805C19.695 157.9 21.51 158.97 23.8 161.405C26.7129 164.651 29.0498 168.372 30.71 172.405C31.6703 174.603 32.4804 176.863 33.135 179.17C33.6848 181.049 34.1404 182.955 34.5 184.88C34.8 186.525 35 187.88 35.08 188.8C35.1014 189.287 35.1616 189.772 35.26 190.25Z" fill="#E0E0E0"/>
<path d="M23.28 208.93L24.44 224.845H44.885L46.045 208.93H23.28Z" fill="#EBEBEB"/>
<path d="M48.48 202.66H21.305V208.93H48.48V202.66Z" fill="#EBEBEB"/>
<path d="M21.305 224.235V225.97H22.585H48.035V224.235H21.305Z" fill="#E0E0E0"/>
<path d="M23.835 228.84L22.585 225.78H47.06L45.6 228.84H23.835Z" fill="#E0E0E0"/>
<path d="M45.665 214.13C45.6395 214.184 45.6076 214.234 45.57 214.28C45.49 214.385 45.385 214.52 45.265 214.685L44.075 216.185L44.02 216.255L43.97 216.185L41.045 212.14H41.21L38.33 216.215L38.24 216.345L38.14 216.225L34.725 212.16H34.92L34.735 212.4L31.68 216.225L31.575 216.355L31.485 216.22L28.6 212.145H28.77L25.22 216.185L25.16 216.26L25.11 216.175L24 214.335C23.88 214.135 23.79 213.97 23.715 213.835C23.6773 213.779 23.647 213.719 23.625 213.655C23.6718 213.703 23.7121 213.757 23.745 213.815L24.06 214.29L25.225 216.125H25.115L28.615 212.035L28.7 211.93L28.78 212.04L31.69 216.1H31.5L34.545 212.265C34.61 212.185 34.675 212.105 34.73 212.03L34.83 211.905L34.93 212.025L38.335 216.1H38.145L41.055 212.045L41.14 211.925L41.22 212.045C42.375 213.69 43.355 215.085 44.085 216.135H43.98L45.22 214.635C45.355 214.48 45.465 214.355 45.55 214.25C45.5853 214.207 45.6238 214.167 45.665 214.13Z" fill="#F5F5F5"/>
<path d="M46.33 208.825C46.33 208.895 41.205 208.955 34.89 208.955C28.575 208.955 23.45 208.895 23.45 208.825C23.45 208.755 28.57 208.7 34.89 208.7C41.21 208.7 46.33 208.755 46.33 208.825Z" fill="#F5F5F5"/>
<path d="M189.711 28.4005L185.521 28.4232L185.634 49.2729L189.824 49.2502L189.711 28.4005Z" fill="#E0E0E0"/>
<path d="M160.072 28.4561L149.222 28.5148L149.284 40.0246L160.134 39.9659L160.072 28.4561Z" fill="#EBEBEB"/>
<path d="M170.871 28.3976L160.021 28.4563L160.084 39.9661L170.934 39.9074L170.871 28.3976Z" fill="#F5F5F5"/>
<path d="M149.235 31.7C156.448 31.76 163.665 31.7267 170.885 31.6C170.915 31.6 170.945 31.5879 170.966 31.5663C170.988 31.5447 171 31.5155 171 31.485C171 31.4545 170.988 31.4252 170.966 31.4037C170.945 31.3821 170.915 31.37 170.885 31.37C163.675 31.33 156.445 31.37 149.235 31.505C149.213 31.51 149.193 31.5224 149.179 31.5401C149.165 31.5578 149.157 31.5798 149.157 31.6025C149.157 31.6252 149.165 31.6471 149.179 31.6649C149.193 31.6826 149.213 31.695 149.235 31.7Z" fill="#E0E0E0"/>
<path d="M162.173 39.7746L142.458 39.8812L142.509 49.2611L162.224 49.1544L162.173 39.7746Z" fill="#EBEBEB"/>
<path d="M181.792 39.6684L162.078 39.775L162.128 49.1549L181.843 49.0482L181.792 39.6684Z" fill="#F5F5F5"/>
<path d="M142.47 42.5C155.565 42.645 168.705 42.5 181.805 42.305C181.835 42.305 181.865 42.2929 181.886 42.2713C181.908 42.2497 181.92 42.2205 181.92 42.19C181.92 42.1595 181.908 42.1303 181.886 42.1087C181.865 42.0871 181.835 42.075 181.805 42.075C168.71 42.005 155.565 42.01 142.47 42.3C142.443 42.3 142.418 42.3105 142.399 42.3293C142.381 42.348 142.37 42.3735 142.37 42.4C142.37 42.4265 142.381 42.452 142.399 42.4707C142.418 42.4895 142.443 42.5 142.47 42.5Z" fill="#E0E0E0"/>
<path d="M211.475 49.27H135.095V52.63H211.475V49.27Z" fill="#E0E0E0"/>
<path d="M150.7 50.8849H147.6V62.3499H150.7V50.8849Z" fill="#E0E0E0"/>
<path d="M196.985 50.8849H193.885V62.3499H196.985V50.8849Z" fill="#E0E0E0"/>
<path d="M193.799 20.6234L189.609 20.6461L189.764 49.3206L193.954 49.298L193.799 20.6234Z" fill="#EBEBEB"/>
<path d="M200.343 25.963L193.833 25.9982L193.959 49.2379L200.468 49.2027L200.343 25.963Z" fill="#F5F5F5"/>
<path d="M200.3 30.45C198.136 30.6028 195.964 30.6028 193.8 30.45C195.964 30.3038 198.136 30.3038 200.3 30.45Z" fill="#E0E0E0"/>
<path d="M200.3 29.5C199.219 29.6094 198.131 29.6461 197.045 29.61C195.959 29.6459 194.871 29.6092 193.79 29.5C195.954 29.3471 198.126 29.3471 200.29 29.5H200.3Z" fill="#E0E0E0"/>
<path d="M200.3 45.7149C198.136 45.8678 195.964 45.8678 193.8 45.7149C195.964 45.5687 198.136 45.5687 200.3 45.7149Z" fill="#E0E0E0"/>
<path d="M200.3 44.7399C198.136 44.8862 195.964 44.8862 193.8 44.7399C195.964 44.5871 198.136 44.5871 200.3 44.7399Z" fill="#E0E0E0"/>
<path d="M197.15 42.61C197.09 42.61 197.04 40.265 197.04 37.375C197.04 34.485 197.09 32.1349 197.15 32.1349C197.21 32.1349 197.265 34.48 197.265 37.375C197.265 40.27 197.215 42.61 197.15 42.61Z" fill="#E0E0E0"/>
<path d="M207.46 31.68H200.375V49.22H207.46V31.68Z" fill="#EBEBEB"/>
<path d="M191.64 26.735C192.306 26.735 192.845 26.1955 192.845 25.53C192.845 24.8644 192.306 24.325 191.64 24.325C190.974 24.325 190.435 24.8644 190.435 25.53C190.435 26.1955 190.974 26.735 191.64 26.735Z" fill="#E0E0E0"/>
<path d="M192.015 28.845H191.27V45.905H192.015V28.845Z" fill="#E0E0E0"/>
<path d="M232.83 229.675C232.83 229.75 184.77 229.805 125.505 229.805C66.24 229.805 18.17 229.75 18.17 229.675C18.17 229.6 66.22 229.545 125.505 229.545C184.79 229.545 232.83 229.605 232.83 229.675Z" fill="#263238"/>
<path d="M75.105 46.175C77.4629 49.0606 78.7397 52.6786 78.715 56.405C78.69 58.515 78.3 60.84 79.53 62.555C80.46 63.855 82.16 64.51 82.915 65.92C83.825 67.615 83.05 69.76 83.61 71.6C84.4 74.21 87.46 75.305 89.275 77.34C90.0487 78.2399 90.59 79.3157 90.8515 80.4733C91.113 81.6309 91.0867 82.8349 90.775 83.98C90.4444 85.1203 89.8463 86.1652 89.0306 87.0279C88.2149 87.8906 87.205 88.5461 86.085 88.94C84.8891 89.4114 83.5551 89.3899 82.375 88.88C81.15 88.27 80.375 87.015 79.775 85.79C78.57 83.38 67.985 70.355 67.385 67.725" fill="#263238"/>
<path d="M67.405 43.105C63.075 42.405 58.905 45.28 57.09 49.27C55.275 53.26 55.215 57.77 55.09 62.17C54.965 66.57 54.645 71.13 52.41 74.9C50.99 77.295 48.79 79.4 48.445 82.155C48.135 84.625 49.415 87.115 48.99 89.57C48.62 91.71 46.99 93.57 47.055 95.735C47.135 98.345 49.82 100.31 52.425 100.38C55.03 100.45 57.47 99.085 59.515 97.465C62.8468 94.8196 65.513 91.4308 67.3 87.57" fill="#263238"/>
<path d="M60.28 53.425C60.144 52.3358 60.2282 51.2304 60.5276 50.1743C60.827 49.1183 61.3354 48.1332 62.0228 47.2774C62.7102 46.4216 63.5626 45.7127 64.5292 45.1927C65.4959 44.6726 66.5571 44.352 67.65 44.25C72.015 43.83 75.9 47.085 76.555 51.425C77.13 55.23 77.62 59.07 77.605 60.465C77.55 64.67 75.105 66.305 74.105 66.8C73.7453 66.9291 73.3734 67.0212 72.995 67.075V67.105L73.925 71.935C74.35 75.1 72.585 77.935 69.425 78.38C66.265 78.825 63.78 76.41 63.295 73.245L60.28 53.425Z" fill="#FFBE9D"/>
<path d="M75.695 53.265C75.625 53.365 75.07 53.07 74.36 53.175C73.65 53.28 73.175 53.71 73.085 53.635C72.995 53.56 73.085 53.435 73.305 53.235C73.5784 52.9686 73.9279 52.7939 74.305 52.735C74.675 52.6779 75.0535 52.741 75.385 52.915C75.635 53.075 75.73 53.225 75.695 53.265Z" fill="#263238"/>
<path d="M69.365 54.8049C69.295 54.9049 68.74 54.6049 68.025 54.7099C67.31 54.8149 66.845 55.2499 66.755 55.1749C66.665 55.0999 66.755 54.97 66.975 54.775C67.2484 54.5086 67.5979 54.3339 67.975 54.275C68.3455 54.2222 68.7232 54.2869 69.055 54.4599C69.3 54.6149 69.4 54.7599 69.365 54.8049Z" fill="#263238"/>
<path d="M71.96 58.62C72.3176 58.448 72.6957 58.322 73.085 58.245C73.265 58.2 73.43 58.14 73.445 58.01C73.4288 57.8273 73.3593 57.6534 73.245 57.51L72.5 56.18C71.465 54.32 70.69 52.78 70.765 52.735C70.84 52.69 71.765 54.175 72.765 56.035C73.02 56.495 73.265 56.935 73.485 57.35C73.6303 57.5533 73.7009 57.8006 73.685 58.05C73.6685 58.1182 73.6365 58.1817 73.5913 58.2355C73.5462 58.2893 73.4893 58.3319 73.425 58.36C73.3275 58.4027 73.225 58.4329 73.12 58.45C72.7424 58.557 72.3524 58.6142 71.96 58.62Z" fill="#263238"/>
<path d="M72.955 67.08C72.955 67.08 70.24 67.705 66.5 66.14C66.5 66.14 68.115 69.615 73.21 68.38L72.955 67.08Z" fill="#EB996E"/>
<path d="M69 52.94C68.96 53.145 68.235 53.155 67.415 53.38C66.595 53.605 65.95 53.925 65.815 53.77C65.755 53.695 65.845 53.495 66.09 53.27C66.4199 52.9878 66.8097 52.7845 67.2299 52.6753C67.65 52.5662 68.0895 52.5541 68.515 52.64C68.845 52.715 69 52.845 69 52.94Z" fill="#263238"/>
<path d="M75.11 51.69C75.01 51.87 74.495 51.775 73.905 51.85C73.315 51.925 72.83 52.12 72.69 51.965C72.63 51.89 72.69 51.72 72.88 51.535C73.1422 51.3025 73.4713 51.159 73.82 51.125C74.1644 51.0835 74.5133 51.148 74.82 51.31C75.06 51.445 75.155 51.6 75.11 51.69Z" fill="#263238"/>
<path d="M67.82 55.725C67.831 55.8023 67.8572 55.8768 67.8972 55.9439C67.9372 56.011 67.9902 56.0696 68.053 56.1161C68.1158 56.1626 68.1872 56.1962 68.2631 56.2149C68.3389 56.2336 68.4178 56.237 68.495 56.225C68.5701 56.2163 68.6427 56.1928 68.7086 56.1559C68.7745 56.1189 68.8324 56.0692 68.879 56.0096C68.9255 55.9501 68.9597 55.8818 68.9796 55.8089C68.9996 55.736 69.0048 55.6599 68.995 55.585C68.9715 55.4293 68.8873 55.2892 68.7608 55.1955C68.6343 55.1018 68.4758 55.062 68.32 55.085C68.2447 55.0929 68.1717 55.116 68.1054 55.1528C68.0392 55.1895 67.981 55.2393 67.9343 55.299C67.8877 55.3587 67.8535 55.4272 67.8339 55.5003C67.8142 55.5735 67.8095 55.6499 67.82 55.725Z" fill="#263238"/>
<path d="M74.125 54.36C74.1485 54.5157 74.2327 54.6557 74.3592 54.7494C74.4857 54.8431 74.6442 54.8829 74.8 54.86C74.8751 54.8513 74.9477 54.8278 75.0136 54.7909C75.0795 54.7539 75.1374 54.7042 75.184 54.6446C75.2305 54.5851 75.2647 54.5169 75.2846 54.444C75.3045 54.371 75.3098 54.2949 75.3 54.22C75.2765 54.0643 75.1923 53.9242 75.0658 53.8305C74.9393 53.7368 74.7808 53.697 74.625 53.72C74.5496 53.728 74.4767 53.751 74.4104 53.7878C74.3442 53.8246 74.286 53.8743 74.2393 53.934C74.1927 53.9937 74.1585 54.0622 74.1389 54.1354C74.1192 54.2085 74.1145 54.2849 74.125 54.36Z" fill="#263238"/>
<path d="M73.08 60C72.8837 59.9389 72.6723 59.9484 72.4823 60.027C72.2923 60.1055 72.1359 60.2481 72.04 60.43C71.9485 60.5969 71.9113 60.7883 71.9337 60.9775C71.9561 61.1666 72.037 61.344 72.165 61.485C72.3013 61.6188 72.4807 61.6999 72.6712 61.7136C72.8618 61.7273 73.051 61.6729 73.205 61.56C73.3979 61.3843 73.5145 61.1403 73.53 60.88C73.564 60.6412 73.5069 60.3985 73.37 60.2C73.2998 60.1029 73.1995 60.0317 73.0847 59.9973C72.9699 59.963 72.847 59.9674 72.735 60.0099" fill="#EB996E"/>
<path d="M76 48C75.6075 46.4158 74.6282 45.0398 73.26 44.15C72.1401 43.341 70.8098 42.8739 69.43 42.805C68.0416 42.7452 66.6861 43.2378 65.66 44.175C64.9319 44.8967 64.5155 45.8749 64.5 46.9L64.58 46.2C64.3699 46.7696 64.3699 47.3954 64.58 47.965C64.695 48.27 64.835 48.58 64.955 48.885C65.3129 49.7664 65.9769 50.489 66.825 50.92C67.2091 51.126 67.6392 51.2309 68.075 51.225C68.2932 51.2206 68.5077 51.1687 68.7038 51.0728C68.8998 50.9769 69.0726 50.8395 69.21 50.67C69.5204 50.128 69.6168 49.4894 69.48 48.88C69.8081 49.4822 70.2763 49.9967 70.845 50.38C71.1354 50.5656 71.4808 50.6455 71.8232 50.6063C72.1656 50.5672 72.484 50.4113 72.725 50.165C73.135 49.665 72.975 48.875 72.725 48.255C73.1118 48.8398 73.6537 49.3055 74.29 49.6C74.4574 49.696 74.643 49.7563 74.8349 49.777C75.0268 49.7976 75.221 49.7782 75.405 49.72C75.5521 49.647 75.6808 49.5416 75.7813 49.4117C75.8817 49.2818 75.9514 49.1307 75.985 48.97C76.0592 48.6514 76.0643 48.3207 76 48Z" fill="#263238"/>
<path d="M72.385 49.33C72.34 49.33 72.35 48.735 72.155 47.83C71.9301 46.6274 71.3255 45.5286 70.43 44.695C69.9379 44.2474 69.3441 43.9265 68.7 43.76C68.1725 43.6305 67.6233 43.6169 67.09 43.72C66.5985 43.8349 66.129 44.0291 65.7 44.295C65.7 44.295 65.785 44.17 66.005 44.01C66.3208 43.7891 66.6753 43.6297 67.05 43.54C67.6108 43.4087 68.1943 43.4087 68.755 43.54C69.4459 43.7125 70.0822 44.0564 70.605 44.54C71.5426 45.408 72.1549 46.5708 72.34 47.835C72.3995 48.2087 72.4296 48.5865 72.43 48.965C72.4362 49.0883 72.421 49.2118 72.385 49.33Z" fill="#455A64"/>
<path d="M118.435 107.625L99.21 100C99.21 100 89.365 87.085 89.57 86.835L82.655 94.405L92.705 108L116 113.46L120 112.35C119.12 108.105 118.435 107.625 118.435 107.625Z" fill="#FFBE9D"/>
<path d="M76.535 70.78L73.915 69.78L62.605 71.215V73.215L62.28 73.255C59.842 73.7733 57.5036 74.6817 55.355 75.945C53.3424 77.1736 51.7432 78.9761 50.7631 81.1207C49.783 83.2654 49.4667 85.6542 49.855 87.98C50.315 90.84 51.205 94.315 52.925 96.325C56.21 100.17 59.21 95.42 59.21 95.42C59.21 95.42 61.27 100.12 61.15 102.345C61.05 104.21 60.23 108.09 59.965 109.3C59.9541 109.348 59.9532 109.398 59.9623 109.447C59.9714 109.496 59.9903 109.542 60.0179 109.583C60.0455 109.625 60.0812 109.66 60.1228 109.687C60.1645 109.714 60.2111 109.732 60.26 109.74L84.12 114.155L84.235 108.32L83.475 84.32L82.4 75C82.4 75 82.435 70.55 76.535 70.78Z" fill="#3A95D2"/>
<path d="M82.035 73.45L91.135 86.595L83.81 95.515L82.035 73.45Z" fill="#3A95D2"/>
<path d="M84 101.11C83.9673 100.828 83.9556 100.544 83.965 100.26C83.965 99.67 83.965 98.895 83.935 97.95C83.8907 95.4136 83.7088 92.8816 83.39 90.365C83.015 87.415 82.44 84.78 82.005 82.865L81.475 80.615C81.3981 80.3428 81.3413 80.0654 81.305 79.785C81.4187 80.0448 81.5091 80.3141 81.575 80.59C81.73 81.09 81.94 81.875 82.18 82.825C82.8256 85.2919 83.3165 87.7968 83.65 90.325C83.9714 92.8521 84.1284 95.3975 84.12 97.945C84.12 98.945 84.095 99.715 84.065 100.26C84.0676 100.545 84.0458 100.829 84 101.11Z" fill="#263238"/>
<path d="M61.6 81.125C61.6 81.165 60.91 81.16 59.805 81.215C58.3632 81.2932 56.9292 81.4787 55.515 81.77C54.1012 82.0667 52.7108 82.4661 51.355 82.965C50.315 83.35 49.69 83.635 49.67 83.595C49.7982 83.4945 49.9395 83.4121 50.09 83.35C50.365 83.2 50.775 83.01 51.29 82.795C53.988 81.6808 56.8714 81.0838 59.79 81.035C60.35 81.035 60.79 81.035 61.115 81.065C61.2788 81.0597 61.4424 81.0799 61.6 81.125Z" fill="#FAFAFA"/>
<path d="M82.675 87.14C82.3093 87.2728 81.9277 87.3569 81.54 87.39C79.6911 87.6599 77.818 87.7236 75.955 87.58C75.5659 87.5733 75.1794 87.5161 74.805 87.41C75.1909 87.3757 75.5791 87.3757 75.965 87.41C76.675 87.41 77.66 87.41 78.745 87.41C79.83 87.41 80.81 87.3 81.52 87.235C81.9013 87.1683 82.2879 87.1365 82.675 87.14Z" fill="#FAFAFA"/>
<path d="M86.85 81.195C86.2989 81.8318 85.6385 82.3651 84.9 82.77C84.2028 83.2413 83.4249 83.5802 82.605 83.77C82.575 83.7 83.605 83.27 84.765 82.53C85.925 81.79 86.8 81.135 86.85 81.195Z" fill="#FAFAFA"/>
<path d="M83.175 75.1C81.5975 76.519 79.5875 77.3646 77.47 77.5C77.47 77.42 78.845 77.21 80.425 76.535C82.005 75.86 83.125 75.035 83.175 75.1Z" fill="#FAFAFA"/>
<path d="M83.67 97.32C83.5229 97.4188 83.3653 97.501 83.2 97.565C82.885 97.715 82.43 97.9 81.85 98.115C80.3431 98.6565 78.7876 99.0516 77.205 99.295C75.6225 99.5393 74.0198 99.628 72.42 99.56C71.805 99.535 71.31 99.49 70.97 99.445C70.792 99.4332 70.6159 99.4013 70.445 99.35C70.445 99.305 71.205 99.35 72.445 99.38C75.624 99.4096 78.7868 98.9233 81.81 97.94C82.95 97.565 83.655 97.28 83.67 97.32Z" fill="#FAFAFA"/>
<path d="M83.855 104.095C83.855 104.095 83.785 104.145 83.64 104.22L83 104.5C82.45 104.76 81.635 105.1 80.615 105.5C79.595 105.9 78.36 106.285 76.97 106.665C73.9481 107.479 70.8464 107.96 67.72 108.1C66.28 108.155 64.985 108.15 63.895 108.1C62.805 108.05 61.93 107.97 61.325 107.885L60.63 107.79C60.5482 107.784 60.4674 107.767 60.39 107.74C60.4712 107.727 60.5539 107.727 60.635 107.74L61.335 107.785C61.94 107.835 62.835 107.885 63.9 107.915C64.965 107.945 66.28 107.915 67.71 107.865C69.14 107.815 70.71 107.635 72.345 107.365C73.98 107.095 75.52 106.77 76.91 106.42C78.3 106.07 79.53 105.675 80.55 105.31C81.57 104.945 82.4 104.64 82.96 104.41L83.61 104.155C83.6894 104.126 83.7715 104.106 83.855 104.095Z" fill="#FAFAFA"/>
<path d="M40 210.39L37.295 222.605L32.36 231.65C32.2761 231.804 32.2247 231.974 32.2091 232.15C32.1935 232.325 32.214 232.501 32.2693 232.668C32.3246 232.835 32.4136 232.988 32.5306 233.12C32.6477 233.251 32.7905 233.356 32.95 233.43C33.1352 233.515 33.3381 233.554 33.5417 233.545C33.7453 233.535 33.9436 233.477 34.12 233.375C36.41 232.055 44.815 227.14 44.96 226.235C45.135 225.19 48.67 213.54 48.67 213.54L40 210.39Z" fill="#3A95D2"/>
<g opacity="0.6">
<path d="M32.95 233.43L45.165 225.43L45.035 225.93C44.9281 226.376 44.6658 226.77 44.295 227.04C43.295 227.755 40.51 229.675 34.16 233.385C33.9777 233.492 33.7718 233.552 33.5607 233.56C33.3495 233.567 33.1397 233.523 32.95 233.43Z" fill="white"/>
</g>
<g opacity="0.6">
<path d="M43.63 220.885C43.4536 220.959 43.3106 221.095 43.2284 221.267C43.1463 221.44 43.1308 221.637 43.185 221.82C43.2518 221.998 43.3843 222.144 43.5554 222.228C43.7265 222.312 43.9232 222.327 44.105 222.27C44.2939 222.192 44.4468 222.046 44.5337 221.861C44.6207 221.676 44.6354 221.465 44.575 221.27C44.4865 221.093 44.3335 220.957 44.1476 220.889C43.9617 220.821 43.7568 220.827 43.575 220.905" fill="white"/>
</g>
<path d="M37.03 228.8C36.8283 228.35 36.5452 227.942 36.195 227.595C35.7917 227.314 35.3387 227.112 34.86 227C34.86 226.965 35.035 226.91 35.33 226.94C35.7139 226.989 36.0752 227.149 36.37 227.4C36.6671 227.641 36.8863 227.965 37 228.33C37.085 228.615 37.06 228.8 37.03 228.8Z" fill="#263238"/>
<path d="M35.765 230.215C35.695 230.255 35.4 229.765 34.815 229.43C34.4418 229.257 34.0577 229.108 33.665 228.985C33.8809 228.914 34.1105 228.896 34.3348 228.932C34.5591 228.967 34.7717 229.056 34.955 229.19C35.62 229.575 35.835 230.2 35.765 230.215Z" fill="#263238"/>
<path d="M39.15 227.11C38.7248 226.638 38.2634 226.2 37.77 225.8C37.2264 225.468 36.658 225.179 36.07 224.935C36.7462 224.921 37.4054 225.148 37.93 225.575C38.5084 225.923 38.9416 226.468 39.15 227.11Z" fill="#263238"/>
<path d="M40.285 223.465C40.235 223.53 39.63 223.085 38.785 222.84C37.94 222.595 37.175 222.635 37.17 222.55C37.7265 222.406 38.3116 222.415 38.8635 222.576C39.4153 222.737 39.9134 223.044 40.305 223.465H40.285Z" fill="#263238"/>
<path d="M41.17 219.9C40.6823 219.598 40.1558 219.365 39.605 219.205C39.0376 219.128 38.4624 219.128 37.895 219.205C37.895 219.175 38.05 219.055 38.37 218.96C38.7907 218.846 39.2322 218.831 39.6593 218.918C40.0864 219.005 40.4874 219.191 40.83 219.46C41.085 219.7 41.19 219.88 41.17 219.9Z" fill="#263238"/>
<path d="M39.79 218.53C39.7904 218.371 39.8245 218.215 39.89 218.07C40.0317 217.657 40.2563 217.278 40.55 216.955C40.7422 216.699 41.0125 216.513 41.32 216.425C41.4247 216.408 41.5321 216.423 41.6284 216.467C41.7247 216.512 41.8054 216.584 41.86 216.675C41.9519 216.861 41.9715 217.075 41.915 217.275C41.7868 217.676 41.5232 218.02 41.1693 218.248C40.8153 218.476 40.3932 218.574 39.975 218.525C39.5626 218.466 39.1769 218.287 38.8664 218.009C38.5558 217.732 38.3344 217.368 38.23 216.965C38.206 216.863 38.2038 216.756 38.2236 216.653C38.2435 216.549 38.2848 216.451 38.345 216.365C38.4141 216.284 38.5071 216.228 38.6104 216.204C38.7138 216.179 38.8222 216.189 38.92 216.23C39.2026 216.371 39.4438 216.583 39.62 216.845C39.885 217.192 40.0864 217.583 40.215 218C40.2759 218.149 40.3049 218.309 40.3 218.47C40.0984 217.931 39.817 217.425 39.465 216.97C39.3011 216.756 39.0886 216.585 38.845 216.47C38.7914 216.447 38.7318 216.442 38.675 216.455C38.6182 216.469 38.5673 216.5 38.53 216.545C38.4951 216.604 38.4726 216.669 38.464 216.737C38.4554 216.805 38.4608 216.874 38.48 216.94C38.5843 217.279 38.7823 217.582 39.0512 217.814C39.3201 218.046 39.649 218.197 40 218.25C40.3537 218.291 40.7108 218.211 41.0132 218.023C41.3155 217.835 41.5453 217.55 41.665 217.215C41.7135 217.079 41.7135 216.931 41.665 216.795C41.6367 216.744 41.5929 216.703 41.54 216.678C41.4871 216.652 41.4276 216.645 41.37 216.655C41.1094 216.727 40.8772 216.877 40.705 217.085C40.3214 217.512 40.0122 218.001 39.79 218.53Z" fill="#263238"/>
<g opacity="0.3">
<path d="M39.67 211.715L39.085 214.515L47.93 215.985L48.67 213.54L39.985 210.39L39.67 211.715Z" fill="black"/>
</g>
<path d="M79.5 214.91L78.77 224.67C78.77 224.67 88.45 228.67 88.49 230.51L69.49 229.775L69.99 214.515L79.5 214.91Z" fill="#3A95D2"/>
<g opacity="0.6">
<path d="M72.945 223.62C72.7606 223.669 72.6007 223.785 72.4957 223.944C72.3906 224.104 72.3477 224.296 72.375 224.485C72.4171 224.671 72.5284 224.834 72.6863 224.941C72.8442 225.047 73.0368 225.09 73.225 225.06C73.4211 225.008 73.591 224.885 73.7018 224.715C73.8126 224.545 73.8565 224.34 73.825 224.14C73.7618 223.95 73.6277 223.792 73.4506 223.699C73.2735 223.606 73.0673 223.585 72.875 223.64" fill="white"/>
</g>
<g opacity="0.6">
<path d="M69.5 229.775L69.61 228.235L87.785 229.5C87.785 229.5 88.62 229.9 88.5 230.5L69.5 229.775Z" fill="white"/>
</g>
<path d="M79.09 224.585C79.09 224.68 78.62 224.705 78.155 224.985C77.69 225.265 77.43 225.645 77.345 225.605C77.26 225.565 77.42 225.035 77.99 224.705C78.56 224.375 79.115 224.5 79.09 224.585Z" fill="#263238"/>
<path d="M81.05 225.5C81.05 225.595 80.66 225.735 80.33 226.115C80 226.495 79.895 226.905 79.8 226.9C79.705 226.895 79.67 226.365 80.09 225.9C80.51 225.435 81.05 225.4 81.05 225.5Z" fill="#263238"/>
<path d="M82.09 227.915C82.005 227.915 81.895 227.46 82.15 226.965C82.405 226.47 82.85 226.28 82.885 226.36C82.92 226.44 82.645 226.7 82.44 227.11C82.235 227.52 82.18 227.91 82.09 227.915Z" fill="#263238"/>
<path d="M79 222.345C78.96 222.425 78.54 222.28 78 222.295C77.46 222.31 77.06 222.46 77 222.38C76.94 222.3 77.36 221.985 78 221.975C78.64 221.965 79.06 222.275 79 222.345Z" fill="#263238"/>
<g opacity="0.3">
<path d="M79.365 216.845L79.235 218.585L69.91 218.135L69.975 216.125L79.365 216.845Z" fill="black"/>
</g>
<path d="M79.125 220.37C78.8108 220.446 78.4817 220.432 78.175 220.33C77.8284 220.258 77.4923 220.142 77.175 219.985C76.9899 219.894 76.8112 219.79 76.64 219.675C76.5356 219.611 76.4413 219.532 76.36 219.44C76.3049 219.368 76.275 219.28 76.275 219.19C76.275 219.1 76.3049 219.012 76.36 218.94C76.4086 218.877 76.4716 218.826 76.5438 218.792C76.616 218.758 76.6953 218.742 76.775 218.745C76.8954 218.75 77.0147 218.77 77.13 218.805C77.3301 218.863 77.5243 218.94 77.71 219.035C78.0257 219.189 78.3145 219.394 78.565 219.64C78.99 220.065 79.125 220.42 79.095 220.435C79.065 220.45 78.85 220.165 78.415 219.81C78.1596 219.61 77.8809 219.442 77.585 219.31C77.4086 219.237 77.2283 219.173 77.045 219.12C76.845 219.06 76.675 219.055 76.62 219.12C76.565 219.185 76.62 219.17 76.62 219.23C76.68 219.296 76.749 219.353 76.825 219.4C76.9854 219.512 77.1524 219.613 77.325 219.705C77.6133 219.864 77.9164 219.995 78.23 220.095C78.5345 220.165 78.8336 220.257 79.125 220.37Z" fill="#263238"/>
<path d="M79 220.5C78.8339 220.22 78.7587 219.895 78.785 219.57C78.787 219.218 78.8443 218.869 78.955 218.535C79.0268 218.339 79.1154 218.15 79.22 217.97C79.2762 217.846 79.3631 217.739 79.4726 217.659C79.582 217.578 79.7102 217.527 79.845 217.51C79.9304 217.516 80.0124 217.545 80.0815 217.596C80.1506 217.646 80.2038 217.715 80.235 217.795C80.2784 217.907 80.3054 218.025 80.315 218.145C80.3479 218.357 80.3479 218.573 80.315 218.785C80.2481 219.138 80.0953 219.47 79.87 219.75C79.48 220.25 79.09 220.325 79.08 220.295C79.07 220.265 79.38 220.08 79.685 219.615C79.86 219.35 79.9744 219.049 80.02 218.735C80.0453 218.553 80.0453 218.367 80.02 218.185C79.995 217.985 79.925 217.815 79.85 217.835C79.775 217.855 79.59 217.975 79.505 218.135C79.4074 218.295 79.3221 218.462 79.25 218.635C79.1343 218.937 79.0602 219.253 79.03 219.575C78.965 220.135 79.05 220.5 79 220.5Z" fill="#263238"/>
<path d="M59.86 109.65C59.86 109.65 56.86 109.785 54.86 120.045C52.86 130.305 37.615 213.44 37.615 213.44L48.67 213.54L69.5 134.5L68.115 216L79.345 216.86C79.345 216.86 87.77 126.715 87.845 121.47C87.945 114.93 84.19 108.315 84.19 108.315L59.86 109.65Z" fill="#263238"/>
<path d="M75.055 108.775C75.125 108.775 73.975 114.65 72.49 121.865C71.005 129.08 69.745 134.92 69.675 134.905C69.605 134.89 70.75 129.03 72.235 121.815C73.72 114.6 75 108.76 75.055 108.775Z" fill="#455A64"/>
<path d="M76.775 110.24C76.775 110.21 77.075 110.12 77.42 110.425C77.518 110.514 77.5956 110.623 77.6474 110.745C77.6991 110.866 77.7239 110.998 77.72 111.13C77.7075 111.297 77.6477 111.457 77.5477 111.592C77.4477 111.726 77.3115 111.83 77.155 111.89C77.0023 111.959 76.8333 111.984 76.6671 111.962C76.5009 111.94 76.3443 111.872 76.215 111.765C76.1183 111.674 76.042 111.564 75.9911 111.442C75.9403 111.319 75.916 111.187 75.92 111.055C75.92 110.595 76.23 110.435 76.235 110.465C76.1507 110.649 76.1064 110.848 76.105 111.05C76.1117 111.151 76.1386 111.251 76.1841 111.342C76.2296 111.433 76.2928 111.514 76.37 111.58C76.4687 111.648 76.5828 111.69 76.702 111.702C76.8212 111.715 76.9415 111.697 77.0521 111.651C77.1626 111.604 77.2597 111.531 77.3344 111.437C77.4092 111.344 77.4593 111.233 77.48 111.115C77.4874 111.014 77.4743 110.912 77.4417 110.816C77.4091 110.72 77.3575 110.631 77.29 110.555C77.045 110.27 76.77 110.28 76.775 110.24Z" fill="#455A64"/>
<path d="M76.3 114.3C76.3 114.27 76.61 114.3 76.8 114.715C76.8483 114.833 76.8702 114.961 76.8642 115.089C76.8581 115.217 76.8243 115.342 76.765 115.455C76.679 115.59 76.5579 115.699 76.4148 115.77C76.2716 115.841 76.1118 115.872 75.9524 115.859C75.793 115.846 75.6402 115.79 75.5103 115.697C75.3804 115.604 75.2783 115.477 75.215 115.33C75.1751 115.209 75.162 115.082 75.1766 114.956C75.1913 114.829 75.2334 114.708 75.3 114.6C75.535 114.225 75.855 114.235 75.845 114.265C75.835 114.295 75.605 114.365 75.46 114.685C75.3867 114.864 75.3867 115.066 75.46 115.245C75.5122 115.344 75.5887 115.429 75.6822 115.49C75.7758 115.552 75.8835 115.589 75.9952 115.598C76.107 115.607 76.2192 115.588 76.3215 115.542C76.4237 115.496 76.5126 115.425 76.58 115.335C76.6742 115.164 76.6975 114.963 76.645 114.775C76.5 114.435 76.275 114.335 76.3 114.3Z" fill="#455A64"/>
<path d="M65.705 110.34C65.6845 110.512 65.6407 110.68 65.575 110.84C65.4188 111.298 65.2231 111.741 64.99 112.165C64.2271 113.579 63.1253 114.782 61.7832 115.666C60.4411 116.55 58.9007 117.088 57.3 117.23C56.8193 117.272 56.3358 117.272 55.855 117.23C55.6856 117.225 55.5176 117.198 55.355 117.15C55.355 117.1 56.11 117.185 57.305 117.035C58.8625 116.846 60.3549 116.298 61.6649 115.435C62.9749 114.572 64.0669 113.417 64.855 112.06C65.44 111.05 65.66 110.325 65.705 110.34Z" fill="#455A64"/>
<path d="M87.215 117.635C87.215 117.635 87.085 117.575 86.88 117.435C86.5936 117.229 86.3259 116.998 86.08 116.745C85.2577 115.913 84.6161 114.919 84.1954 113.828C83.7747 112.736 83.5839 111.569 83.635 110.4C83.6465 110.048 83.6917 109.698 83.77 109.355C83.825 109.11 83.86 108.98 83.88 108.985C83.9 108.99 83.82 109.53 83.82 110.405C83.8208 112.702 84.6743 114.917 86.215 116.62C86.8 117.265 87.24 117.595 87.215 117.635Z" fill="#455A64"/>
<path d="M126 117.925C126.165 117.525 126.12 117.685 123.47 115.925C123.47 115.925 127.27 118.425 126.875 117.235C126.533 116.784 126.115 116.397 125.64 116.09C126.64 116.68 127.22 116.745 127.395 116.505C127.695 116.09 125.52 114.505 124.485 113.79C125.431 114.467 126.424 115.077 127.455 115.615C128.07 115.805 127.775 115.085 127.36 114.56C126.945 114.035 123.725 110.935 122.86 110.01C122.778 109.94 122.712 109.852 122.666 109.754C122.621 109.655 122.597 109.548 122.597 109.44C122.597 109.332 122.621 109.225 122.666 109.126C122.712 109.028 122.778 108.94 122.86 108.87C124.41 107.87 125.09 106.275 125.07 105.75C125.053 105.632 124.999 105.522 124.915 105.437C124.832 105.351 124.723 105.294 124.605 105.274C124.488 105.254 124.367 105.272 124.26 105.325C124.153 105.378 124.065 105.464 124.01 105.57C123.619 106.056 123.163 106.487 122.655 106.85C122.261 107.157 121.818 107.395 121.345 107.555C120.795 107.735 118.09 107.585 117.51 107.29L115.665 113.545C115.665 113.545 122.36 116.675 123.63 117.285C125.19 118.025 125.885 118.23 126 117.925Z" fill="#FFBE9D"/>
<path d="M122.265 115C122.21 115.075 123.08 115.71 124.205 116.425C125.33 117.14 126.275 117.655 126.32 117.58C126.365 117.505 125.495 116.865 124.375 116.155C123.255 115.445 122.315 114.905 122.265 115Z" fill="#EB996E"/>
<path d="M122.895 113.775C122.845 113.85 123.735 114.58 124.895 115.41C126.055 116.24 127.015 116.855 127.065 116.785C127.115 116.715 126.23 115.98 125.065 115.15C123.9 114.32 122.95 113.705 122.895 113.775Z" fill="#EB996E"/>
<path d="M123.56 112.535C123.51 112.605 124.34 113.315 125.415 114.115C126.49 114.915 127.415 115.505 127.455 115.435C127.495 115.365 126.68 114.655 125.605 113.855C124.53 113.055 123.615 112.465 123.56 112.535Z" fill="#EB996E"/>
<path d="M55.465 89.88L60.375 90.15C60.7228 91.5207 61.1878 92.859 61.765 94.15C65.72 87.29 68.765 78.095 69.545 74.4C69.435 74.0366 69.3 73.6266 69.14 73.17C69.0202 72.4796 69.0406 71.7723 69.2 71.09C69.335 70.27 69.565 69.16 69.63 68.65C69.845 67.09 70.095 66.84 70.63 67.02C71.37 67.26 70.325 71.405 70.93 71.495C71.26 71.54 71.655 70.12 71.775 68.955C71.895 67.79 72.415 64.21 72.8 63.955C73.365 63.605 73.855 64.16 73.715 65.32C73.575 66.48 73.39 69.995 74.005 70.04C74.62 70.085 75.12 64.145 75.12 64.145C75.12 64.145 75.025 62.855 75.735 62.885C77.02 62.94 76.02 69.205 75.91 69.8C75.83 70.21 76.5 70.3 76.56 69.84C76.62 69.38 76.93 63.895 78.235 63.94C79.235 63.975 77.46 69.1 78.025 70.29C78.59 71.48 78.98 66.255 79.94 66.325C80.295 66.355 80.56 66.425 79.905 69.38C79.2657 71.7297 78.4996 74.0431 77.61 76.31C76.11 84.51 69.415 110.74 58.955 105.94C53.105 103.255 50.37 89.94 50.37 89.94L55.465 89.88Z" fill="#FFBE9D"/>
<path d="M77.62 76.355C77.6286 76.2931 77.6454 76.2325 77.67 76.175C77.715 76.045 77.77 75.875 77.845 75.675C78.01 75.2 78.235 74.54 78.53 73.675C78.825 72.81 79.18 71.76 79.53 70.52C79.71 69.905 79.86 69.235 79.995 68.52C80.065 68.16 80.13 67.79 80.175 67.41C80.1875 67.2219 80.1875 67.0331 80.175 66.845C80.175 66.65 80.13 66.49 79.975 66.485C79.82 66.48 79.71 66.575 79.6 66.74C79.5004 66.9166 79.4184 67.1024 79.355 67.295C79.215 67.69 79.105 68.11 78.995 68.535C78.885 68.96 78.785 69.405 78.655 69.855C78.5983 70.1015 78.4966 70.3354 78.355 70.545C78.3194 70.5861 78.2724 70.6156 78.22 70.63C78.187 70.6373 78.1528 70.637 78.1199 70.6292C78.087 70.6214 78.0563 70.6063 78.03 70.585C77.9725 70.5323 77.9251 70.4696 77.89 70.4C77.8372 70.2772 77.8018 70.1476 77.785 70.015C77.7622 69.0065 77.863 67.999 78.085 67.015C78.17 66.515 78.26 66.015 78.325 65.515C78.355 65.26 78.385 65.015 78.39 64.745C78.395 64.475 78.355 64.19 78.25 64.145C78.145 64.1 77.89 64.24 77.75 64.45C77.6118 64.6718 77.5026 64.9104 77.425 65.16C77.2545 65.6823 77.1258 66.2173 77.04 66.76C76.945 67.31 76.87 67.87 76.805 68.44C76.78 68.725 76.75 69.01 76.725 69.3L76.685 69.735C76.6903 69.8279 76.6752 69.9208 76.6406 70.0073C76.6061 70.0937 76.5529 70.1714 76.485 70.235C76.3994 70.2976 76.2961 70.3313 76.19 70.3313C76.0839 70.3313 75.9806 70.2976 75.895 70.235C75.8465 70.203 75.8054 70.161 75.7744 70.1119C75.7433 70.0627 75.7231 70.0075 75.715 69.95C75.7074 69.8969 75.7074 69.8431 75.715 69.79V69.685L75.85 68.81C75.935 68.22 76.005 67.63 76.06 67.03C76.115 66.43 76.16 65.825 76.17 65.22C76.1993 64.621 76.1386 64.021 75.99 63.44C75.9555 63.2926 75.8661 63.1638 75.74 63.08C75.6797 63.0606 75.6148 63.0608 75.5546 63.0806C75.4945 63.1004 75.4421 63.1386 75.405 63.19C75.2431 63.486 75.1767 63.8248 75.215 64.16C75.105 65.335 74.98 66.49 74.81 67.625C74.725 68.19 74.63 68.755 74.49 69.31C74.45 69.445 74.41 69.585 74.36 69.725C74.3125 69.8947 74.2128 70.0451 74.075 70.155C74.0141 70.1849 73.9448 70.1933 73.8785 70.1788C73.8122 70.1642 73.7528 70.1277 73.71 70.075C73.649 70.0109 73.6028 69.934 73.575 69.85C73.5211 69.7113 73.4825 69.5671 73.46 69.42C73.3428 68.3319 73.3328 67.235 73.43 66.145C73.5039 65.6369 73.5323 65.1232 73.515 64.61C73.4988 64.391 73.3985 64.1867 73.235 64.04C73.1966 64.0161 73.1538 64.0003 73.1091 63.9934C73.0644 63.9865 73.0188 63.9888 72.975 64C72.9282 64.0158 72.883 64.0359 72.84 64.06C72.795 64.1 72.8 64.06 72.77 64.145C72.5892 64.5947 72.4568 65.0623 72.375 65.54C72.275 66.04 72.19 66.495 72.115 66.965C72.04 67.435 71.97 67.895 71.91 68.355C71.85 68.815 71.82 69.265 71.73 69.715C71.6523 70.1546 71.5352 70.5864 71.38 71.005C71.3388 71.1115 71.2904 71.2151 71.235 71.315C71.165 71.41 71.125 71.53 70.935 71.59C70.8864 71.5989 70.8362 71.5932 70.7908 71.5737C70.7454 71.5541 70.7069 71.5215 70.68 71.48C70.645 71.4223 70.6181 71.36 70.6 71.295C70.5775 71.1863 70.5642 71.0759 70.56 70.965C70.56 70.11 70.675 69.33 70.72 68.575C70.7526 68.2141 70.7526 67.8509 70.72 67.49C70.72 67.33 70.645 67.14 70.555 67.105C70.492 67.0741 70.4227 67.058 70.3525 67.058C70.2823 67.058 70.213 67.0741 70.15 67.105C69.9401 67.3304 69.8101 67.6185 69.78 67.925C69.705 68.23 69.675 68.54 69.62 68.835C69.41 70.015 69.19 71.035 69.085 71.865C69.0357 72.23 69.0357 72.6 69.085 72.965C69.155 73.265 69.26 73.535 69.315 73.745C69.37 73.955 69.425 74.105 69.46 74.245C69.4786 74.2986 69.492 74.3538 69.5 74.41C69.47 74.3616 69.4465 74.3095 69.43 74.255L69.26 73.755C69.19 73.54 69.085 73.3 69 72.97C68.9465 72.5952 68.9465 72.2148 69 71.84C69.095 70.995 69.295 69.985 69.5 68.8C69.555 68.505 69.585 68.195 69.65 67.875C69.6858 67.706 69.7309 67.5391 69.785 67.375C69.835 67.1931 69.9441 67.0331 70.095 66.92C70.1859 66.8718 70.2872 66.8467 70.39 66.8467C70.4928 66.8467 70.5941 66.8718 70.685 66.92C70.7828 66.9816 70.8631 67.0673 70.9182 67.1689C70.9734 67.2704 71.0015 67.3844 71 67.5C71.035 67.8759 71.035 68.2541 71 68.63C70.965 69.39 70.845 70.185 70.865 70.995C70.8687 71.0908 70.8804 71.1862 70.9 71.28C70.9 71.375 70.97 71.415 70.96 71.395C70.95 71.375 71.055 71.315 71.095 71.235C71.1443 71.1463 71.1877 71.0544 71.225 70.96C71.3731 70.5547 71.4819 70.1361 71.55 69.71C71.635 69.275 71.665 68.825 71.725 68.36C71.785 67.895 71.845 67.435 71.92 66.96C71.995 66.485 72.08 66.01 72.175 65.525C72.2563 65.0185 72.3973 64.5234 72.595 64.05C72.635 63.9706 72.6954 63.9033 72.77 63.855C72.8364 63.8186 72.9069 63.79 72.98 63.77C73.0639 63.746 73.1519 63.7403 73.2381 63.7533C73.3244 63.7662 73.4069 63.7975 73.48 63.845C73.596 63.9371 73.6919 64.0521 73.7615 64.1829C73.8312 64.3136 73.8732 64.4573 73.885 64.605C73.9225 64.8771 73.9225 65.153 73.885 65.425C73.86 65.68 73.835 65.925 73.82 66.205C73.7226 67.27 73.7326 68.342 73.85 69.405C73.8714 69.5313 73.9049 69.6552 73.95 69.775C73.965 69.8234 73.9906 69.8678 74.025 69.905C74.025 69.905 74.025 69.905 74.05 69.905C74.05 70.02 74.05 69.905 74.05 69.95C74.05 69.995 74.05 69.95 74.05 69.91C74.1124 69.8265 74.1613 69.7337 74.195 69.635C74.2417 69.5117 74.2817 69.3817 74.315 69.245C74.45 68.715 74.54 68.155 74.625 67.595C74.795 66.47 74.92 65.315 75.025 64.145V64.17C74.9805 63.7579 75.07 63.3424 75.28 62.985C75.3602 62.8829 75.4702 62.8082 75.5948 62.7715C75.7193 62.7348 75.8522 62.7377 75.975 62.78C76.0799 62.8382 76.172 62.9169 76.2458 63.0113C76.3197 63.1058 76.3738 63.2142 76.405 63.33C76.5651 63.9448 76.6309 64.5804 76.6 65.215C76.6 65.835 76.545 66.445 76.49 67.05C76.435 67.655 76.36 68.25 76.275 68.84C76.23 69.14 76.185 69.43 76.14 69.725C76.1 69.91 76.11 69.915 76.14 69.97C76.1747 69.9934 76.2156 70.006 76.2575 70.006C76.2994 70.006 76.3403 69.9934 76.375 69.97C76.435 69.925 76.445 69.84 76.46 69.675L76.495 69.24L76.585 68.375C76.645 67.805 76.725 67.235 76.82 66.68C76.9125 66.1225 77.0462 65.5727 77.22 65.035C77.3108 64.7632 77.4333 64.5031 77.585 64.26C77.6676 64.129 77.7766 64.0166 77.905 63.93C77.9763 63.8784 78.0589 63.8447 78.1459 63.8316C78.2329 63.8186 78.3217 63.8266 78.405 63.855C78.4816 63.9022 78.5463 63.9665 78.594 64.0428C78.6416 64.1192 78.6711 64.2054 78.68 64.295C78.7006 64.4357 78.709 64.5779 78.705 64.72C78.705 64.995 78.67 65.26 78.64 65.525C78.57 66.025 78.475 66.555 78.385 67.06C78.1702 68.0098 78.0662 68.9813 78.075 69.955C78.0891 70.0596 78.116 70.162 78.155 70.26C78.1731 70.2955 78.1949 70.329 78.22 70.36C78.22 70.36 78.22 70.36 78.22 70.325C78.3323 70.1443 78.415 69.9468 78.465 69.74C78.595 69.305 78.7 68.865 78.815 68.435C78.9181 68.0072 79.0433 67.5849 79.19 67.17C79.2593 66.9645 79.3497 66.7668 79.46 66.58C79.5196 66.4782 79.5976 66.3884 79.69 66.315C79.7403 66.2714 79.8003 66.2405 79.865 66.225C79.9296 66.2149 79.9954 66.2149 80.06 66.225C80.1282 66.2318 80.1934 66.2567 80.2488 66.2972C80.3042 66.3376 80.3477 66.3921 80.375 66.455C80.4168 66.5601 80.4388 66.6719 80.44 66.785C80.4439 66.9873 80.4322 67.1895 80.405 67.39C80.36 67.78 80.285 68.15 80.215 68.515C80.07 69.23 79.91 69.91 79.715 70.515C79.34 71.755 78.965 72.805 78.66 73.66C78.355 74.515 78.095 75.16 77.92 75.62C77.835 75.83 77.765 75.995 77.715 76.12C77.6926 76.2018 77.6607 76.2807 77.62 76.355Z" fill="#EB996E"/>
<path d="M50.325 90.445C51.275 93.8 53.135 98.975 55.13 104.445C55.1929 104.621 55.3067 104.775 55.4569 104.886C55.6072 104.998 55.7872 105.062 55.9741 105.071C56.161 105.08 56.3464 105.034 56.5067 104.937C56.6671 104.841 56.7953 104.699 56.875 104.53L61.765 94.1849C61.765 94.1849 60.585 85.6849 60.685 85.9899C60.785 86.2949 50.595 87.0899 50.595 87.0899L50.325 90.445Z" fill="#3A95D2"/>
<path d="M61.345 88.78C61.345 88.82 60.735 89 59.77 89.37C58.5088 89.8487 57.2938 90.4411 56.14 91.14C54.9877 91.8421 53.9001 92.6453 52.89 93.54C52.115 94.225 51.67 94.695 51.64 94.665C51.61 94.635 51.725 94.525 51.915 94.3C52.1828 93.9873 52.4665 93.6886 52.765 93.405C53.7506 92.456 54.837 91.6176 56.005 90.905C57.1733 90.201 58.4137 89.6244 59.705 89.185C60.0953 89.0505 60.4925 88.937 60.895 88.845C61.0406 88.7994 61.1925 88.7775 61.345 88.78Z" fill="#FAFAFA"/>
<path d="M63.285 91.36C62.9673 91.0396 62.6917 90.6801 62.465 90.29C61.8811 89.3796 61.3791 88.4191 60.965 87.42C60.5506 86.4178 60.2276 85.3803 60 84.32C59.8835 83.8863 59.8246 83.4391 59.825 82.99C59.9741 83.4092 60.0928 83.8387 60.18 84.275C60.4479 85.3103 60.7819 86.3274 61.18 87.32C61.596 88.3073 62.0736 89.2676 62.61 90.195C62.8597 90.5685 63.0852 90.9576 63.285 91.36Z" fill="#263238"/>
<path d="M66.545 45.55C65.6967 46.9481 65.1709 48.5177 65.0057 50.1447C64.8405 51.7716 65.0401 53.4149 65.59 54.955C66.09 56.33 66.89 57.685 66.745 59.145C66.6 60.605 65.46 62.05 65.86 63.49C66.1 64.345 66.83 64.99 67.115 65.82C67.44 66.82 67.115 67.875 66.94 68.9C66.54 71.52 67.38 74.155 67.585 76.795C67.79 79.435 67.085 82.53 64.725 83.68C64.01 84.03 63.075 84.13 62.48 83.595C61.72 82.92 61.93 81.7 62.14 80.7C64.21 70.7 57.815 60.94 59.275 50.82C59.51 49.2 60.415 46.45 61.58 45.32C62.745 44.19 65.98 44.32 67.08 45.52" fill="#263238"/>
<path d="M56.695 74.56C56.695 74.56 57 74.2 57.45 73.49C58.0815 72.4873 58.5238 71.3772 58.755 70.215C58.9059 69.4144 58.9579 68.5983 58.91 67.785C58.8225 66.8393 58.7875 65.8895 58.805 64.94C58.8348 64.42 58.9306 63.9059 59.09 63.41C59.2727 62.8992 59.5038 62.4069 59.78 61.94C60.34 60.995 61.045 60.115 61.695 59.175C62.3625 58.2866 62.8267 57.2625 63.055 56.175C63.1659 55.1507 63.1067 54.1151 62.88 53.11C62.6908 52.1759 62.6169 51.2221 62.66 50.27C62.7195 49.4383 62.8876 48.618 63.16 47.83C63.542 46.6865 64.1432 45.6284 64.93 44.715C65.139 44.4667 65.3663 44.2344 65.61 44.02C65.6873 43.9377 65.7746 43.8654 65.87 43.805C65.87 43.805 65.535 44.13 65.005 44.805C63.7427 46.3719 63.0046 48.2958 62.895 50.305C62.8615 51.2415 62.9438 52.1786 63.14 53.095C63.3785 54.1271 63.4427 55.1917 63.33 56.245C63.093 57.3628 62.6152 58.4156 61.93 59.33C61.275 60.285 60.57 61.16 60.02 62.08C59.7495 62.5296 59.525 63.0053 59.35 63.5C59.1918 63.9756 59.096 64.4697 59.065 64.97C59.0429 65.9091 59.0696 66.8487 59.145 67.785C59.1847 68.6147 59.1209 69.4461 58.955 70.26C58.7045 71.4381 58.2291 72.5568 57.555 73.555C57.3725 73.8248 57.172 74.0821 56.955 74.325C56.8772 74.4126 56.79 74.4914 56.695 74.56Z" fill="#455A64"/>
<path d="M51.955 75.305C51.9953 75.1884 52.0472 75.0761 52.11 74.97C52.235 74.735 52.395 74.425 52.61 74.035C53.03 73.22 53.655 72.035 54.27 70.535C55.0223 68.783 55.4395 66.9056 55.5 65C55.5003 64.4509 55.4585 63.9026 55.375 63.36C55.29 62.8 55.16 62.235 55.075 61.645C54.971 61.0347 54.9846 60.4102 55.115 59.805C55.2841 59.1836 55.6318 58.6256 56.115 58.2C57.055 57.345 58.19 56.785 58.78 55.78C59.2912 54.7834 59.5924 53.6926 59.665 52.575C59.7708 51.5504 60.0026 50.5428 60.355 49.575C61.1476 47.4972 62.5597 45.7133 64.4 44.465C64.6934 44.2675 64.999 44.0888 65.315 43.93C65.4217 43.8661 65.5359 43.8157 65.655 43.78C65.655 43.78 65.205 44.02 64.46 44.55C63.41 45.2993 62.5009 46.2286 61.775 47.295C61.2716 48.0259 60.8617 48.8171 60.555 49.65C60.2181 50.6201 59.9998 51.6274 59.905 52.65C59.755 53.715 59.635 54.905 58.995 55.96C58.355 57.015 57.185 57.615 56.29 58.46C55.8339 58.8558 55.5051 59.3777 55.345 59.96C55.2235 60.5325 55.2116 61.123 55.31 61.7C55.39 62.275 55.515 62.845 55.6 63.41C55.6865 63.9657 55.7267 64.5276 55.72 65.09C55.6521 67.0305 55.2125 68.94 54.425 70.715C53.9135 71.9145 53.3326 73.0831 52.685 74.215L52.155 75C52.0993 75.1084 52.0323 75.2107 51.955 75.305Z" fill="#455A64"/>
<path d="M217.385 216.59C217.408 216.517 217.438 216.447 217.475 216.38C217.545 216.23 217.64 216.03 217.755 215.775C218.103 214.994 218.382 214.184 218.59 213.355C219.14 211.205 219.335 207.92 218.52 204.02C218.077 201.893 217.498 199.797 216.785 197.745C216.055 195.52 215.2 193.16 214.505 190.605C213.72 187.94 213.341 185.173 213.38 182.395C213.485 179.49 214.345 176.595 215.29 173.705C216.235 170.815 217.21 168 217.5 165.15C217.822 162.417 217.273 159.652 215.93 157.25C214.68 154.945 213.105 152.97 211.93 150.93C210.83 149.034 210.019 146.985 209.525 144.85C208.815 141.759 208.763 138.553 209.37 135.44C209.591 134.301 209.926 133.187 210.37 132.115C210.357 132.19 210.336 132.264 210.31 132.335L210.11 132.97C209.94 133.53 209.715 134.37 209.5 135.47C208.941 138.569 209.024 141.75 209.745 144.815C210.247 146.924 211.061 148.946 212.16 150.815C213.335 152.815 214.915 154.815 216.195 157.13C217.571 159.581 218.136 162.404 217.81 165.195C217.515 168.085 216.535 170.93 215.59 173.815C214.645 176.7 213.795 179.565 213.69 182.42C213.645 185.17 214.016 187.911 214.79 190.55C215.475 193.09 216.315 195.45 217.04 197.685C217.746 199.748 218.314 201.856 218.74 203.995C219.535 207.925 219.31 211.245 218.74 213.4C218.517 214.231 218.217 215.039 217.845 215.815L217.535 216.41C217.492 216.476 217.442 216.536 217.385 216.59Z" fill="#263238"/>
<path d="M213.53 152.945C213.53 152.945 211.14 145.29 215.43 140.81C215.463 140.774 215.506 140.748 215.553 140.735C215.6 140.721 215.65 140.721 215.697 140.735C215.745 140.748 215.787 140.775 215.82 140.811C215.853 140.847 215.876 140.892 215.885 140.94C216.115 142.205 216.4 146.055 213.53 152.945Z" fill="#3A95D2"/>
<path d="M214.965 143.36C214.957 143.834 214.904 144.306 214.805 144.77C214.645 145.745 214.46 146.885 214.26 148.145C214.06 149.405 213.875 150.55 213.72 151.52C213.676 151.993 213.593 152.461 213.47 152.92C213.423 152.447 213.433 151.97 213.5 151.5C213.58 150.625 213.735 149.425 213.95 148.105C214.165 146.785 214.4 145.605 214.585 144.74C214.658 144.267 214.785 143.804 214.965 143.36Z" fill="#263238"/>
<path d="M216.34 171C216.34 171 217.805 163.115 223.695 161.165C223.741 161.149 223.791 161.146 223.839 161.156C223.887 161.167 223.932 161.191 223.967 161.225C224.002 161.259 224.027 161.303 224.039 161.35C224.051 161.398 224.05 161.448 224.035 161.495C223.645 162.71 222.1 166.245 216.34 171Z" fill="#3A95D2"/>
<path d="M222.09 163.19C221.862 163.606 221.594 164 221.29 164.365L219.225 167.09L217.175 169.825C216.917 170.222 216.624 170.595 216.3 170.94C216.483 170.5 216.718 170.084 217 169.7C217.5 168.965 218.18 167.975 219 166.91C219.82 165.845 220.565 164.91 221.13 164.23C221.411 163.849 221.733 163.5 222.09 163.19Z" fill="#263238"/>
<path d="M214.75 190.765C214.75 190.765 213.86 182.795 218.93 179.22C218.969 179.189 219.016 179.171 219.065 179.166C219.115 179.161 219.165 179.171 219.209 179.193C219.253 179.216 219.29 179.251 219.315 179.294C219.34 179.336 219.352 179.385 219.35 179.435C219.335 180.72 218.88 184.55 214.75 190.765Z" fill="#3A95D2"/>
<path d="M218 181.63C217.907 182.096 217.765 182.55 217.575 182.985L216.395 186.195C215.955 187.395 215.56 188.48 215.225 189.405C215.097 189.86 214.929 190.304 214.725 190.73C214.771 190.256 214.875 189.789 215.035 189.34C215.28 188.5 215.66 187.34 216.125 186.09C216.59 184.84 217.045 183.715 217.39 182.91C217.549 182.464 217.754 182.035 218 181.63Z" fill="#263238"/>
<path d="M219.185 210.655C219.185 210.655 218.585 202.655 223.775 199.265C223.816 199.237 223.863 199.221 223.912 199.219C223.962 199.216 224.011 199.228 224.054 199.251C224.097 199.275 224.132 199.311 224.156 199.354C224.181 199.397 224.192 199.446 224.19 199.495C224.13 200.78 223.54 204.595 219.185 210.655Z" fill="#3A95D2"/>
<path d="M222.745 201.645C222.633 202.107 222.474 202.556 222.27 202.985C221.9 203.895 221.46 204.985 220.975 206.15C220.49 207.315 220.065 208.4 219.695 209.315C219.547 209.766 219.358 210.203 219.13 210.62C219.196 210.147 219.319 209.684 219.495 209.24C219.77 208.41 220.19 207.27 220.7 206.035C221.21 204.8 221.7 203.69 222.075 202.9C222.253 202.459 222.478 202.038 222.745 201.645Z" fill="#263238"/>
<path d="M210.09 146.22C210.09 146.22 203 142.5 202.845 136.305C202.845 136.256 202.857 136.209 202.882 136.167C202.906 136.125 202.942 136.09 202.984 136.067C203.027 136.043 203.075 136.031 203.123 136.033C203.172 136.034 203.219 136.049 203.26 136.075C204.315 136.805 207.245 139.325 210.09 146.22Z" fill="#3A95D2"/>
<path d="M204.32 138.435C204.653 138.775 204.949 139.149 205.205 139.55C205.785 140.345 206.46 141.285 207.205 142.32L209.205 145.08C209.51 145.443 209.781 145.833 210.015 146.245C209.649 145.941 209.322 145.593 209.04 145.21C208.475 144.54 207.735 143.58 206.955 142.495C206.175 141.41 205.49 140.405 205.02 139.67C204.744 139.284 204.51 138.87 204.32 138.435Z" fill="#263238"/>
<path d="M217.725 162.655C217.725 162.655 210.405 159.38 209.89 153.195C209.886 153.146 209.895 153.098 209.917 153.054C209.939 153.01 209.972 152.974 210.014 152.948C210.055 152.922 210.103 152.908 210.151 152.907C210.2 152.907 210.248 152.92 210.29 152.945C211.385 153.61 214.46 155.94 217.725 162.655Z" fill="#3A95D2"/>
<path d="M211.5 155.235C211.853 155.552 212.171 155.906 212.45 156.29L214.62 158.935L216.795 161.57C217.121 161.915 217.415 162.288 217.675 162.685C217.291 162.402 216.942 162.075 216.635 161.71C216.035 161.07 215.235 160.16 214.39 159.125C213.545 158.09 212.805 157.125 212.285 156.42C211.98 156.055 211.717 155.658 211.5 155.235Z" fill="#263238"/>
<path d="M213.5 181C213.5 181 208.5 174.75 210.835 169C210.853 168.955 210.884 168.916 210.923 168.887C210.963 168.858 211.009 168.84 211.058 168.836C211.106 168.832 211.155 168.842 211.199 168.863C211.242 168.885 211.279 168.919 211.305 168.96C212 170.045 213.665 173.525 213.5 181Z" fill="#3A95D2"/>
<path d="M211.34 171.54C211.511 171.984 211.635 172.445 211.71 172.915C211.92 173.875 212.165 175.005 212.435 176.255C212.705 177.505 212.96 178.63 213.17 179.59C213.304 180.046 213.396 180.513 213.445 180.985C213.226 180.56 213.058 180.11 212.945 179.645C212.7 178.8 212.4 177.645 212.12 176.315C211.84 174.985 211.62 173.815 211.48 172.955C211.382 172.49 211.335 172.015 211.34 171.54Z" fill="#263238"/>
<path d="M218.5 202.555C218.5 202.555 211.235 199.16 210.825 192.97C210.82 192.921 210.829 192.871 210.851 192.827C210.873 192.782 210.907 192.745 210.95 192.719C210.992 192.693 211.04 192.679 211.09 192.679C211.14 192.679 211.188 192.694 211.23 192.72C212.305 193.405 215.34 195.79 218.5 202.555Z" fill="#3A95D2"/>
<path d="M212.385 195.03C212.729 195.358 213.04 195.718 213.315 196.105L215.44 198.78L217.57 201.455C217.89 201.805 218.178 202.183 218.43 202.585C218.058 202.293 217.722 201.957 217.43 201.585C216.835 200.935 216.055 200.01 215.225 198.96C214.395 197.91 213.675 196.935 213.165 196.22C212.86 195.855 212.598 195.456 212.385 195.03Z" fill="#263238"/>
<path d="M232.955 171.035C232.955 171.035 232.955 171.095 232.955 171.21C232.955 171.325 232.955 171.515 232.955 171.71C232.955 172.21 232.905 172.845 232.87 173.655C232.78 175.365 232.645 177.75 232.49 180.6C231.99 183.5 230.49 186.715 228.49 189.84C227.035 192.14 225.49 194.23 224.19 196.175C223.003 197.882 221.938 199.67 221 201.525C220.379 202.779 219.877 204.088 219.5 205.435C219.375 205.91 219.275 206.285 219.22 206.54C219.196 206.673 219.161 206.803 219.115 206.93C219.117 206.795 219.134 206.661 219.165 206.53C219.2 206.27 219.275 205.89 219.39 205.405C219.726 204.034 220.204 202.702 220.815 201.43C221.744 199.56 222.809 197.76 224 196.045C225.31 194.085 226.825 191.99 228.275 189.705C230.25 186.595 231.72 183.43 232.275 180.575C232.475 177.73 232.64 175.35 232.775 173.64C232.84 172.83 232.895 172.185 232.935 171.7C232.935 171.5 232.97 171.33 232.985 171.2C232.968 171.146 232.958 171.091 232.955 171.035Z" fill="#263238"/>
<path d="M228.63 189.265C228.63 189.265 231.705 181.865 227.84 177.01C227.81 176.971 227.77 176.941 227.724 176.924C227.678 176.906 227.628 176.902 227.58 176.912C227.532 176.921 227.487 176.943 227.451 176.977C227.415 177.01 227.388 177.053 227.375 177.1C227.03 178.34 226.395 182.145 228.63 189.265Z" fill="#3A95D2"/>
<path d="M228.07 179.595C228.203 180.051 228.285 180.521 228.315 180.995C228.425 181.865 228.545 183.07 228.64 184.405C228.735 185.74 228.78 186.95 228.78 187.83C228.81 188.305 228.782 188.782 228.695 189.25C228.609 188.783 228.567 188.31 228.57 187.835C228.505 186.835 228.425 185.7 228.34 184.425C228.255 183.15 228.175 181.995 228.105 181.015C228.047 180.544 228.035 180.068 228.07 179.595Z" fill="#263238"/>
<g opacity="0.3">
<path d="M228.63 189.265C228.63 189.265 231.705 181.865 227.84 177.01C227.81 176.971 227.77 176.941 227.724 176.924C227.678 176.906 227.628 176.902 227.58 176.912C227.532 176.921 227.487 176.943 227.451 176.977C227.415 177.01 227.388 177.053 227.375 177.1C227.03 178.34 226.395 182.145 228.63 189.265Z" fill="black"/>
</g>
<path d="M219.105 207.11C219.105 207.11 221.57 199.48 217.32 194.96C217.287 194.924 217.245 194.898 217.198 194.884C217.151 194.871 217.101 194.87 217.054 194.883C217.007 194.896 216.965 194.922 216.931 194.957C216.898 194.993 216.875 195.037 216.865 195.085C216.625 196.345 216.3 200.195 219.105 207.11Z" fill="#3A95D2"/>
<path d="M217.76 197.5C217.933 197.944 218.054 198.408 218.12 198.88C218.3 199.735 218.515 200.93 218.72 202.25C218.925 203.57 219.065 204.775 219.14 205.65C219.205 206.122 219.213 206.601 219.165 207.075C219.046 206.616 218.966 206.148 218.925 205.675C218.78 204.7 218.61 203.56 218.425 202.295C218.24 201.03 218.06 199.89 217.925 198.915C217.824 198.45 217.768 197.976 217.76 197.5Z" fill="#263238"/>
<g opacity="0.3">
<path d="M219.105 207.11C219.105 207.11 221.57 199.48 217.32 194.96C217.287 194.924 217.245 194.898 217.198 194.884C217.151 194.871 217.101 194.87 217.054 194.883C217.007 194.896 216.965 194.922 216.931 194.957C216.898 194.993 216.875 195.037 216.865 195.085C216.625 196.345 216.3 200.195 219.105 207.11Z" fill="black"/>
</g>
<path d="M232.55 180.22C232.55 180.22 239.115 175.62 238.455 169.45C238.45 169.401 238.432 169.355 238.402 169.317C238.372 169.278 238.332 169.248 238.287 169.231C238.241 169.213 238.192 169.208 238.144 169.217C238.096 169.226 238.051 169.248 238.015 169.28C237.06 170.14 234.5 173 232.55 180.22Z" fill="#3A95D2"/>
<g opacity="0.3">
<path d="M232.55 180.22C232.55 180.22 239.115 175.62 238.455 169.45C238.45 169.401 238.432 169.355 238.402 169.317C238.372 169.278 238.332 169.248 238.287 169.231C238.241 169.213 238.192 169.208 238.144 169.217C238.096 169.226 238.051 169.248 238.015 169.28C237.06 170.14 234.5 173 232.55 180.22Z" fill="black"/>
</g>
<path d="M237.265 171.755C237.135 172.213 236.952 172.654 236.72 173.07C236.345 173.86 235.8 174.94 235.165 176.12C234.53 177.3 233.92 178.345 233.45 179.085C233.219 179.5 232.938 179.887 232.615 180.235C232.791 179.795 233.008 179.373 233.265 178.975C233.735 178.11 234.29 177.1 234.9 175.975L236.53 172.975C236.735 172.545 236.981 172.137 237.265 171.755Z" fill="#263238"/>
<path d="M221.755 199.545C221.755 199.545 229.675 198.31 231.795 192.48C231.812 192.434 231.817 192.385 231.808 192.337C231.799 192.29 231.777 192.245 231.744 192.209C231.712 192.173 231.67 192.146 231.623 192.132C231.577 192.119 231.527 192.118 231.48 192.13C230.245 192.5 226.665 193.925 221.755 199.545Z" fill="#3A95D2"/>
<g opacity="0.3">
<path d="M221.755 199.545C221.755 199.545 229.675 198.31 231.795 192.48C231.812 192.434 231.817 192.385 231.808 192.337C231.799 192.29 231.777 192.245 231.744 192.209C231.712 192.173 231.67 192.146 231.623 192.132C231.577 192.119 231.527 192.118 231.48 192.13C230.245 192.5 226.665 193.925 221.755 199.545Z" fill="black"/>
</g>
<path d="M229.715 194.025C229.394 194.375 229.035 194.689 228.645 194.96C227.96 195.51 226.995 196.24 225.91 197.02C224.825 197.8 223.81 198.465 223.06 198.925C222.669 199.198 222.246 199.421 221.8 199.59C222.155 199.274 222.538 198.991 222.945 198.745L225.735 196.775L228.52 194.775C228.891 194.483 229.291 194.232 229.715 194.025Z" fill="#263238"/>
<path d="M214.195 214.125L211.885 229.675H226.285L224.42 214.125H214.195Z" fill="#455A64"/>
<path d="M225 218.94C225 219.025 222.4 219.09 219.195 219.09C215.99 219.09 213.385 219.025 213.385 218.94C215.318 218.792 217.257 218.742 219.195 218.79C221.131 218.742 223.069 218.792 225 218.94Z" fill="#263238"/>
<path d="M225.28 220.18C225.28 220.265 222.595 220.33 219.28 220.33C215.965 220.33 213.28 220.265 213.28 220.18C213.28 220.095 215.965 220.03 219.28 220.03C222.595 220.03 225.28 220.095 225.28 220.18Z" fill="#263238"/>
<path d="M169.285 63.27C169.285 63.27 169.15 63.27 168.89 63.27C168.51 63.2475 168.13 63.2475 167.75 63.27C166.281 63.356 164.839 63.6943 163.485 64.27C161.339 65.1694 159.472 66.6243 158.075 68.485C157.214 69.6468 156.573 70.9569 156.185 72.35C155.31 75.6686 155.783 79.1986 157.5 82.17C157.968 82.9927 158.539 83.7522 159.2 84.43C159.866 85.1481 160.643 85.7557 161.5 86.23C162.38 86.725 163.376 86.9754 164.385 86.955C165.425 86.9425 166.423 86.5391 167.18 85.825C167.546 85.4417 167.833 84.9901 168.024 84.4959C168.215 84.0017 168.307 83.4748 168.295 82.945C168.287 81.8444 167.938 80.7733 167.295 79.88C166 78.055 163.9 76.83 161.665 76.17C159.347 75.5191 156.9 75.4846 154.565 76.07C153.373 76.3801 152.224 76.8369 151.145 77.43C150.055 78.0449 149.066 78.8222 148.21 79.735C148.005 79.97 147.77 80.185 147.585 80.445L147.02 81.205C146.676 81.7405 146.369 82.2985 146.1 82.875C145.565 84.0456 145.2 85.2864 145.015 86.56C144.652 89.1044 144.998 91.6996 146.015 94.06C146.987 96.3664 148.68 98.296 150.84 99.56C151.887 100.158 153.057 100.512 154.26 100.595C155.44 100.661 156.613 100.379 157.635 99.785C158.649 99.2246 159.45 98.3461 159.915 97.285C160.353 96.2392 160.384 95.067 160 94C159.605 92.9705 158.959 92.0561 158.12 91.34C157.307 90.6371 156.369 90.0927 155.355 89.735C153.378 89.1116 151.262 89.0751 149.265 89.63C147.396 90.1364 145.679 91.0926 144.265 92.415C142.977 93.6492 141.995 95.1682 141.4 96.85C140.358 99.7682 140.406 102.964 141.535 105.85C142.415 108.004 143.832 109.898 145.65 111.35C146.795 112.269 148.071 113.012 149.435 113.555C149.905 113.73 150.27 113.86 150.52 113.93L150.89 114.05C150.89 114.05 150.76 114.025 150.51 113.955C150.141 113.856 149.777 113.738 149.42 113.6C148.038 113.081 146.746 112.349 145.59 111.43C143.741 109.979 142.296 108.076 141.395 105.905C140.247 102.992 140.188 99.7626 141.23 96.81C141.827 95.1027 142.819 93.5607 144.125 92.31C145.559 90.9611 147.302 89.9827 149.2 89.46C151.239 88.891 153.4 88.9258 155.42 89.56C156.464 89.9239 157.429 90.4821 158.265 91.205C159.137 91.9446 159.807 92.8922 160.215 93.96C160.626 95.0748 160.608 96.3026 160.165 97.405C159.672 98.5079 158.835 99.4217 157.78 100.01C156.721 100.627 155.504 100.923 154.28 100.86C153.047 100.774 151.85 100.408 150.78 99.79C148.57 98.5083 146.835 96.5453 145.835 94.195C144.796 91.7913 144.44 89.1479 144.805 86.555C144.996 85.2556 145.37 83.9897 145.915 82.795C146.19 82.2062 146.504 81.6366 146.855 81.09L147.435 80.315C147.62 80.05 147.86 79.815 148.07 79.585C148.946 78.6548 149.957 77.8625 151.07 77.235C152.174 76.6306 153.35 76.167 154.57 75.855C156.95 75.2587 159.444 75.2949 161.805 75.96C164.085 76.64 166.22 77.885 167.565 79.775C168.241 80.7056 168.608 81.8248 168.615 82.975C168.639 84.107 168.213 85.2023 167.43 86.02C166.63 86.7709 165.577 87.1939 164.48 87.205C163.43 87.2288 162.393 86.9679 161.48 86.45C160.602 85.9657 159.809 85.3427 159.13 84.605C158.461 83.912 157.881 83.1376 157.405 82.3C155.657 79.2734 155.182 75.6765 156.085 72.3C156.485 70.8907 157.141 69.5671 158.02 68.395C159.443 66.5202 161.342 65.0612 163.52 64.17C164.885 63.6054 166.339 63.2871 167.815 63.23C168.198 63.2047 168.582 63.2047 168.965 63.23L169.285 63.27Z" fill="#263238"/>
<path d="M185.98 113.3H115.875V167.37H185.98V113.3Z" fill="#3A95D2"/>
<path d="M115.875 113.3L128.825 125.38H197.74L185.98 113.3H115.875Z" fill="#3A95D2"/>
<path d="M115.875 113.3L186 113.175H186.055L186.095 113.21L197.735 125.165L197.855 125.29L198.07 125.51H197.76L128.845 125.455H128.815L115.875 113.3L128.875 125.3H128.82L197.735 125.25L197.645 125.47L197.52 125.345L185.885 113.39L185.975 113.43L115.875 113.3Z" fill="#263238"/>
<path d="M136.935 138.235C136.555 138.249 136.196 138.411 135.935 138.687C135.673 138.963 135.531 139.33 135.538 139.71C135.545 140.09 135.7 140.452 135.972 140.719C136.243 140.985 136.607 141.134 136.987 141.134C137.367 141.134 137.732 140.985 138.003 140.719C138.275 140.452 138.43 140.09 138.437 139.71C138.444 139.33 138.302 138.963 138.04 138.687C137.779 138.411 137.42 138.249 137.04 138.235" fill="#263238"/>
<path d="M153.5 138.235C153.122 138.249 152.764 138.412 152.504 138.687C152.245 138.962 152.103 139.328 152.11 139.706C152.117 140.085 152.273 140.445 152.543 140.71C152.813 140.975 153.177 141.124 153.555 141.124C153.933 141.124 154.297 140.975 154.567 140.71C154.837 140.445 154.993 140.085 155 139.706C155.007 139.328 154.865 138.962 154.606 138.687C154.346 138.412 153.988 138.249 153.61 138.235" fill="#263238"/>
<path d="M153.595 151.175C153.306 150.07 152.836 149.021 152.205 148.07C151.503 147.053 150.601 146.188 149.555 145.53C148.293 144.692 146.82 144.226 145.306 144.185C143.792 144.143 142.296 144.528 140.99 145.295C139.911 145.897 138.964 146.71 138.205 147.685C137.521 148.601 136.996 149.625 136.65 150.715C136.654 150.634 136.667 150.553 136.69 150.475C136.738 150.25 136.8 150.028 136.875 149.81C137.149 149.007 137.549 148.252 138.06 147.575C138.814 146.554 139.773 145.703 140.875 145.075C142.215 144.275 143.755 143.873 145.315 143.915C146.875 143.958 148.391 144.443 149.685 145.315C150.749 145.999 151.659 146.898 152.355 147.955C152.83 148.66 153.189 149.437 153.42 150.255C153.482 150.477 153.53 150.702 153.565 150.93C153.582 151.011 153.592 151.093 153.595 151.175Z" fill="#263238"/>
<path opacity="0.5" d="M116.035 113.895L128.435 129.615H185.98V125.38H128.825L116.035 113.895Z" fill="black"/>
<path d="M172.155 167.25C172.085 167.25 172.025 157.845 172.025 146.25C172.025 134.655 172.085 125.25 172.155 125.25C172.225 125.25 172.29 134.65 172.29 146.25C172.29 157.85 172.23 167.25 172.155 167.25Z" fill="#263238"/>
<path d="M183.165 154.99H176.985V161.975H183.165V154.99Z" fill="#F5F5F5"/>
<path d="M115.875 113.3L101.485 125.38H115.875V113.3Z" fill="#3A95D2"/>
<g opacity="0.4">
<path d="M115.875 113.3L101.485 125.38H115.875V113.3Z" fill="black"/>
</g>
<path d="M188.05 167.37H107.445V229.54H188.05V167.37Z" fill="#3A95D2"/>
<path opacity="0.3" d="M188.05 167.37H107.445V229.54H188.05V167.37Z" fill="black"/>
<path d="M167.855 229.1C167.785 229.1 167.725 215.245 167.725 198.155C167.725 181.065 167.785 167.205 167.855 167.205C167.925 167.205 167.985 181.06 167.985 198.155C167.985 215.25 167.925 229.1 167.855 229.1Z" fill="#263238"/>
<path d="M181.215 215.39H175.035V222.375H181.215V215.39Z" fill="#F5F5F5"/>
<path d="M141.19 167.535H132.035V180.8H141.19V167.535Z" fill="#263238"/>
<path d="M141.19 216.09H132.035V229.355H141.19V216.09Z" fill="#263238"/>
<path d="M187.35 167.37H187.14H186.535L184.21 167.395L175.645 167.435L147.4 167.5L119.145 167.465L110.585 167.425L108.26 167.4L110.585 167.375L119.145 167.335L147.4 167.295L175.645 167.335L184.21 167.375L186.535 167.4H187.14L187.35 167.37Z" fill="#263238"/>
<path d="M49.21 59.735L40.43 57.575H40.495C38.2279 59.017 35.6064 59.8044 32.92 59.85C31.3296 59.8572 29.747 59.6263 28.225 59.165C25.5491 58.3058 23.175 56.6985 21.3835 54.533C19.5919 52.3676 18.4578 49.7345 18.115 46.945C17.8458 44.8353 18.044 42.6922 18.6955 40.6677C19.347 38.6431 20.4359 36.7867 21.885 35.23C22.6467 34.3933 23.5005 33.6452 24.43 33C24.9 32.705 25.37 32.4 25.86 32.145L26.605 31.785L26.975 31.605L27.365 31.465C29.3727 30.6867 31.5264 30.3574 33.675 30.5C36.5545 30.687 39.3141 31.7221 41.6062 33.475C43.8983 35.2279 45.6203 37.62 46.555 40.35C47.0743 41.8771 47.3477 43.4771 47.365 45.09C47.3775 47.7705 46.649 50.4024 45.26 52.695V52.615C47.7 57.02 48.93 59.245 49.205 59.735C48.92 59.235 47.645 57.05 45.12 52.69V52.65V52.61C46.4591 50.3396 47.1508 47.7457 47.12 45.11C47.0968 43.5229 46.8199 41.9497 46.3 40.45C45.3754 37.7759 43.6825 35.4339 41.4333 33.7174C39.184 32.0009 36.4783 30.9861 33.655 30.8C31.5487 30.6627 29.4379 30.9869 27.47 31.75L27.09 31.885L26.725 32.065L25.995 32.415C25.495 32.67 25.055 32.965 24.59 33.255C23.6784 33.8829 22.8399 34.6108 22.09 35.425C20.6674 36.9532 19.5981 38.7754 18.9579 40.7627C18.3176 42.75 18.122 44.8537 18.385 46.925C18.8485 50.7196 20.7954 54.1764 23.8 56.54C25.1433 57.6044 26.6677 58.4174 28.3 58.94C29.7947 59.4021 31.3505 59.6363 32.915 59.635C35.5692 59.6066 38.1642 58.8471 40.415 57.44H40.445H40.5L49.21 59.735Z" fill="#263238"/>
<path d="M31.5 38.65L31.945 46C31.9627 46.2899 32.0859 46.5633 32.2913 46.7687C32.4967 46.974 32.7701 47.0972 33.06 47.115C33.365 47.1322 33.6651 47.032 33.8985 46.8348C34.1319 46.6377 34.281 46.3586 34.315 46.055L35.13 38.69C35.1442 38.5582 35.1302 38.4249 35.089 38.299C35.0477 38.173 34.9802 38.0573 34.8908 37.9594C34.8015 37.8615 34.6923 37.7838 34.5706 37.7313C34.449 37.6788 34.3175 37.6528 34.185 37.655H32.4C32.2747 37.6587 32.1515 37.6877 32.0378 37.7403C31.924 37.7928 31.822 37.8678 31.738 37.9607C31.6539 38.0536 31.5895 38.1626 31.5486 38.281C31.5077 38.3995 31.4912 38.525 31.5 38.65Z" fill="#3A95D2"/>
<path d="M35 51.22C34.8881 51.5557 34.6792 51.8508 34.3997 52.0679C34.1201 52.2849 33.7825 52.4143 33.4295 52.4395C33.0765 52.4648 32.724 52.3848 32.4164 52.2098C32.1088 52.0347 31.86 51.7724 31.7015 51.456C31.5429 51.1396 31.4817 50.7833 31.5256 50.4321C31.5695 50.0809 31.7165 49.7507 31.948 49.483C32.1796 49.2153 32.4852 49.0223 32.8264 48.9283C33.1676 48.8344 33.529 48.8436 33.865 48.955C34.0883 49.029 34.2949 49.1464 34.4729 49.3003C34.6508 49.4543 34.7967 49.6418 34.9021 49.8521C35.0075 50.0625 35.0704 50.2916 35.0872 50.5263C35.104 50.761 35.0744 50.9967 35 51.22Z" fill="#3A95D2"/>
</svg>
