<svg width="205" height="205" viewBox="0 0 205 205" fill="none" xmlns="http://www.w3.org/2000/svg">
<circle cx="102.5" cy="102.5" r="86.5" fill="#DBEAFE"/>
<path d="M97.5687 63.1009C93.7114 63.3059 89.8225 64.0775 86.0133 65.4639C66.0395 72.7337 55.251 94.3662 61.461 114.694C63.8434 122.493 67.2711 130.47 62.3006 138.086C59.9873 141.631 59.4777 146.057 60.9255 150.035C62.9169 155.507 68.8966 158.602 74.4779 156.57L153.412 127.841C158.993 125.809 161.585 119.594 159.593 114.123C158.145 110.145 154.91 107.082 150.859 105.853C150.674 105.797 150.491 105.738 150.311 105.677" fill="#ACD2EC"/>
<path d="M97.5687 63.1009C93.7114 63.3059 89.8225 64.0775 86.0133 65.4639C66.0395 72.7337 55.251 94.3662 61.461 114.694C63.8434 122.493 67.2711 130.47 62.3006 138.086C59.9873 141.631 59.4777 146.057 60.9255 150.035C62.9169 155.507 68.8966 158.602 74.4779 156.57L153.412 127.841C158.993 125.809 161.585 119.594 159.593 114.123C158.145 110.145 154.91 107.082 150.859 105.853C150.674 105.797 150.491 105.738 150.311 105.677" stroke="#82BCE3" stroke-width="6" stroke-linecap="round" stroke-linejoin="round"/>
<path d="M74.0502 58.1787C75.703 62.7198 81.4724 67.1167 86.0134 65.4639C90.5543 63.8112 92.1476 56.7344 90.4948 52.1933C88.842 47.6523 84.5689 47.3665 80.028 49.0193C75.4871 50.672 72.3974 53.6376 74.0502 58.1787Z" stroke="#82BCE3" stroke-width="6"/>
<path d="M130.39 136.22C133.695 145.302 129.013 155.344 119.93 158.65C110.848 161.956 100.806 157.273 97.5004 148.191" stroke="#82BCE3" stroke-width="6" stroke-linecap="round" stroke-linejoin="round"/>
<path d="M149.807 70.1797C145.95 59.5838 134.234 54.1206 123.638 57.9772C113.043 61.8337 107.579 73.5497 111.436 84.1455C115.293 94.7413 127.008 100.205 137.604 96.348C148.2 92.4914 153.663 80.7755 149.807 70.1797Z" fill="#3A95D2" stroke="#3A95D2" stroke-width="20" stroke-linecap="round"/>
<path d="M159.178 179.565L157.904 186.011L163.661 189.178L157.215 187.904L154.048 193.661L155.321 187.215L149.565 184.048L156.011 185.321L159.178 179.565Z" fill="#3A95D2"/>
<path d="M28.8526 23.3391L28.974 23.6003L29.261 23.6251L35.54 24.1819L29.8301 26.8526L29.5689 26.974L29.5441 27.261L28.9873 33.54L26.3166 27.8301L26.1951 27.5689L25.9082 27.5442L19.6282 26.9875L25.339 24.3166L25.6003 24.1952L25.625 23.9082L26.1816 17.6283L28.8526 23.3391Z" stroke="#3A95D2"/>
<circle cx="157" cy="11" r="4" stroke="#2673A6" stroke-width="2"/>
</svg>
