<svg width="110" height="17" viewBox="0 0 110 17" fill="none" xmlns="http://www.w3.org/2000/svg">
<path d="M52.6764 13.144C51.7884 13.144 51.0284 12.944 50.3964 12.544C49.7644 12.144 49.2884 11.608 48.9684 10.936C48.6484 10.256 48.4884 9.504 48.4884 8.68C48.4884 7.856 48.6484 7.108 48.9684 6.436C49.2884 5.756 49.7644 5.216 50.3964 4.816C51.0284 4.416 51.7884 4.216 52.6764 4.216C53.5644 4.216 54.3244 4.416 54.9564 4.816C55.5964 5.216 56.0764 5.756 56.3964 6.436C56.7164 7.108 56.8764 7.856 56.8764 8.68C56.8764 9.504 56.7164 10.256 56.3964 10.936C56.0764 11.608 55.5964 12.144 54.9564 12.544C54.3244 12.944 53.5644 13.144 52.6764 13.144ZM49.8804 8.68C49.8804 9.288 49.9804 9.84 50.1804 10.336C50.3884 10.824 50.7004 11.212 51.1164 11.5C51.5404 11.788 52.0604 11.932 52.6764 11.932C53.3004 11.932 53.8204 11.788 54.2364 11.5C54.6604 11.212 54.9724 10.824 55.1724 10.336C55.3804 9.84 55.4844 9.288 55.4844 8.68C55.4844 8.072 55.3804 7.524 55.1724 7.036C54.9724 6.54 54.6604 6.148 54.2364 5.86C53.8204 5.572 53.3004 5.428 52.6764 5.428C52.0604 5.428 51.5404 5.572 51.1164 5.86C50.7004 6.148 50.3884 6.54 50.1804 7.036C49.9804 7.524 49.8804 8.072 49.8804 8.68ZM57.987 6.76H59.199V7.84C59.599 7.072 60.243 6.688 61.131 6.688H61.611V7.876H61.095C60.519 7.876 60.067 8.024 59.739 8.32C59.411 8.616 59.247 9.116 59.247 9.82V13H57.987V6.76Z" fill="#1A1A1A"/>
<path d="M1 8L44 8" stroke="black" stroke-linecap="round"/>
<path d="M66 8L109 8" stroke="black" stroke-linecap="round"/>
</svg>
