<svg width="120" height="112" viewBox="0 0 120 112" fill="none" xmlns="http://www.w3.org/2000/svg">
<rect x="24.3967" y="18.4768" width="71.9836" height="72.3837" rx="35.9918" fill="#D5E9F6"/>
<path d="M39.3933 62.2085C39.3933 62.2085 43.8923 62.2085 49.8909 72.7645C49.8909 72.7645 66.5641 45.1169 81.3838 39.5886" stroke="#2673A6" stroke-width="4" stroke-linecap="round" stroke-linejoin="round"/>
<path d="M11.0497 87.6664L15.0479 95.9726L24.199 96.6663L15.9387 100.687L15.2489 109.889L11.2507 101.582L2.09956 100.889L10.3599 96.8683L11.0497 87.6664Z" fill="#2673A6"/>
<path d="M98.0017 1.63027L99.0854 10.7938L107.51 14.4524L98.3975 15.5421L94.7592 24.0139L93.6755 14.8504L85.2504 11.1918L94.3633 10.1021L98.0017 1.63027Z" fill="#2673A6"/>
<path d="M24.3967 18.477C24.3967 21.6002 21.8789 24.132 18.773 24.132C15.6671 24.132 13.1493 21.6002 13.1493 18.477C13.1493 15.3538 15.6671 12.822 18.773 12.822C21.8789 12.822 24.3967 15.3538 24.3967 18.477ZM14.274 18.477C14.274 20.9755 16.2883 23.001 18.773 23.001C21.2577 23.001 23.272 20.9755 23.272 18.477C23.272 15.9785 21.2577 13.953 18.773 13.953C16.2883 13.953 14.274 15.9785 14.274 18.477Z" fill="#2673A6"/>
<path d="M120 34.311C120 37.4341 117.482 39.966 114.376 39.966C111.27 39.966 108.753 37.4341 108.753 34.311C108.753 31.1878 111.27 28.656 114.376 28.656C117.482 28.656 120 31.1878 120 34.311ZM109.877 34.311C109.877 36.8095 111.892 38.835 114.376 38.835C116.861 38.835 118.875 36.8095 118.875 34.311C118.875 31.8125 116.861 29.787 114.376 29.787C111.892 29.787 109.877 31.8125 109.877 34.311Z" fill="#2673A6"/>
<path d="M61.5133 18.8409C61.5133 18.0153 60.8436 17.3429 60.0186 17.3753C53.753 17.6217 47.6354 19.4143 42.2094 22.6048C36.7778 25.7987 32.2205 30.2868 28.9337 35.6642C28.5064 36.3634 28.7619 37.2692 29.475 37.6727C30.193 38.0789 31.1018 37.8219 31.5346 37.1196C34.5605 32.2092 38.7382 28.1095 43.7104 25.1859C48.681 22.2631 54.2808 20.6124 60.0187 20.3677C60.8436 20.3326 61.5133 19.6666 61.5133 18.8409Z" fill="#2673A6"/>
<path d="M33.2418 78.4659C32.6378 79.0205 32.5933 79.9611 33.1676 80.5464C39.154 86.6474 46.998 90.563 55.4497 91.6697C56.2689 91.7769 56.9973 91.1673 57.0714 90.3444C57.1455 89.5227 56.5391 88.7996 55.7214 88.6899C48.013 87.6553 40.859 84.0862 35.3765 78.5402C34.7955 77.9525 33.8504 77.907 33.2418 78.4659Z" fill="#2673A6"/>
<path d="M86.2712 29.7656C86.9022 29.2324 87.8491 29.3126 88.3537 29.9667C91.5805 34.149 93.9172 38.9608 95.2114 44.1027C96.6279 49.7304 96.7589 55.6076 95.5945 61.2934C94.4302 66.9793 92.0007 72.3262 88.4884 76.9334C85.2801 81.1415 81.2445 84.6326 76.6389 87.1925C75.9157 87.5945 75.013 87.2937 74.6431 86.5537C74.2755 85.8183 74.5732 84.9269 75.2907 84.5254C79.5007 82.1692 83.1908 78.9677 86.1286 75.1143C89.3678 70.8654 91.6084 65.9341 92.6822 60.6904C93.756 55.4466 93.6352 50.0264 92.3289 44.8363C91.1435 40.1267 89.0098 35.7174 86.0655 31.8789C85.5666 31.2284 85.645 30.2947 86.2712 29.7656Z" fill="#2673A6"/>
<path d="M100.162 104.217C100.666 103.993 100.892 103.401 100.667 102.896L96.9992 94.6587C96.7742 94.1532 96.1835 93.9252 95.6799 94.1494C95.1763 94.3736 94.9505 94.9651 95.1755 95.4706L98.4354 102.793L91.1406 106.04C90.637 106.265 90.4112 106.856 90.6362 107.362C90.8613 107.867 91.452 108.095 91.9556 107.871L100.162 104.217ZM99.398 104.236L99.3981 104.236L100.111 102.368L100.111 102.368L99.398 104.236Z" fill="#2673A6"/>
</svg>
