<svg width="28" height="28" viewBox="0 0 28 28" fill="none" xmlns="http://www.w3.org/2000/svg">
<path d="M15.1666 8.16667C15.1666 10.744 13.0773 12.8333 10.5 12.8333C7.92265 12.8333 5.83331 10.744 5.83331 8.16667C5.83331 5.58934 7.92265 3.5 10.5 3.5C13.0773 3.5 15.1666 5.58934 15.1666 8.16667Z" fill="#3A95D2" stroke="#3A95D2"/>
<path d="M17.5 12.8333C20.0773 12.8333 22.1667 10.744 22.1667 8.16667C22.1667 5.58934 20.0773 3.5 17.5 3.5" fill="#3A95D2"/>
<path d="M17.5 12.8333C20.0773 12.8333 22.1667 10.744 22.1667 8.16667C22.1667 5.58934 20.0773 3.5 17.5 3.5" stroke="#3A95D2" stroke-linecap="round" stroke-linejoin="round"/>
<path d="M12.8333 16.333H8.16665C4.94499 16.333 2.33331 18.9447 2.33331 22.1663C2.33331 23.455 3.37798 24.4997 4.66665 24.4997H16.3333C17.622 24.4997 18.6666 23.455 18.6666 22.1663C18.6666 18.9447 16.0549 16.333 12.8333 16.333Z" fill="#3A95D2" stroke="#3A95D2" stroke-linejoin="round"/>
<path d="M19.8333 16.333C23.0549 16.333 25.6666 18.9447 25.6666 22.1663C25.6666 23.455 24.622 24.4997 23.3333 24.4997H21.5833" fill="#3A95D2"/>
<path d="M19.8333 16.333C23.0549 16.333 25.6666 18.9447 25.6666 22.1663C25.6666 23.455 24.622 24.4997 23.3333 24.4997H21.5833" stroke="#3A95D2" stroke-linecap="round" stroke-linejoin="round"/>
</svg>
