<svg width="18" height="20" viewBox="0 0 18 20" fill="none" xmlns="http://www.w3.org/2000/svg">
<path d="M4.1806 12.9847C2.92275 13.7332 -0.375227 15.2622 1.63378 17.1761C2.61428 18.1104 3.70679 18.7788 5.08021 18.7788H12.9189C14.2932 18.7788 15.3857 18.1104 16.3662 17.1761C18.3752 15.2622 15.0773 13.7332 13.8194 12.9847C12.3596 12.1223 10.6951 11.6674 8.99956 11.6674C7.30402 11.6674 5.64043 12.1223 4.1806 12.9847ZM13.0007 5.00024C13.0007 6.06117 12.5792 7.07865 11.829 7.82884C11.0789 8.57903 10.0614 9.00048 9.00045 9.00048C7.93952 9.00048 6.92204 8.57903 6.17185 7.82884C5.42166 7.07865 5.00021 6.06117 5.00021 5.00024C5.00021 3.93931 5.42166 2.92183 6.17185 2.17164C6.92204 1.42145 7.93952 1 9.00045 1C10.0614 1 11.0789 1.42145 11.829 2.17164C12.5792 2.92183 13.0007 3.93931 13.0007 5.00024Z" stroke="#999999" stroke-width="1.5" stroke-linecap="round" stroke-linejoin="round"/>
</svg>
