<svg width="32" height="32" viewBox="0 0 32 32" fill="none" xmlns="http://www.w3.org/2000/svg">
<path d="M10.637 14.667C11.1851 14.9421 11.6201 15.4157 11.9654 15.9942M11.9654 15.9942C13.2939 18.2203 13.2937 22.0003 13.2937 22.0003C13.2937 26.667 10.9148 28.0003 7.98024 28.0003C6.65187 28.0003 2.66675 27.3337 2.66675 21.3337C2.66675 12.667 7.31605 6.66699 11.3012 6.66699C14.4893 6.66699 13.2957 13.3337 11.9654 15.9942Z" stroke="#1C567D" stroke-width="1.5" stroke-linecap="round" stroke-linejoin="round"/>
<path d="M21.3622 14.667C20.8139 14.9421 20.3789 15.4157 20.0335 15.9942M20.0335 15.9942C18.7049 18.2203 18.705 22.0003 18.705 22.0003C18.705 26.667 21.0843 28.0003 24.0193 28.0003C25.3478 28.0003 29.3334 27.3337 29.3334 21.3337C29.3334 12.667 24.6835 6.66699 20.6979 6.66699C17.5094 6.66699 18.7069 13.3337 20.0335 15.9942Z" stroke="#1C567D" stroke-width="1.5" stroke-linecap="round" stroke-linejoin="round"/>
<path d="M18.6666 9.33333L15.9999 7.55556M15.9999 7.55556L13.3333 9.33333M15.9999 7.55556V4" stroke="#1C567D" stroke-width="1.5" stroke-linecap="round"/>
</svg>
