<svg width="28" height="28" viewBox="0 0 28 28" fill="none" xmlns="http://www.w3.org/2000/svg">
<path d="M16.0155 4.01788L18.0686 8.15803C18.3486 8.73435 19.0952 9.28715 19.7252 9.39301L23.4464 10.0164C25.8262 10.4163 26.3862 12.157 24.6713 13.8743L21.7783 16.7912C21.2883 17.2851 21.0201 18.2378 21.1716 18.9201L22 22.5309C22.6532 25.389 21.1483 26.4947 18.6403 25.0009L15.1523 22.9191C14.5224 22.5427 13.4842 22.5427 12.8426 22.9191L9.35466 25.0009C6.85826 26.4947 5.34177 25.3772 5.99503 22.5309L6.82327 18.9201C6.97491 18.2378 6.70662 17.2851 6.21666 16.7912L3.32366 13.8743C1.62051 12.157 2.16878 10.4163 4.54852 10.0164L8.26977 9.39301C8.88804 9.28715 9.63462 8.73435 9.91459 8.15803L11.9677 4.01788C13.0876 1.77138 14.9073 1.77138 16.0155 4.01788Z" fill="#3A95D2" stroke="#3A95D2" stroke-width="2" stroke-linecap="round" stroke-linejoin="round"/>
</svg>
