<svg width="28" height="28" viewBox="0 0 28 28" fill="none" xmlns="http://www.w3.org/2000/svg">
<path d="M7.11529 22.167C5.59849 22.0178 4.46222 21.5622 3.70018 20.8001C2.33334 19.4334 2.33334 17.2334 2.33334 12.8337V12.2503C2.33334 7.85055 2.33334 5.65067 3.70018 4.28382C5.06702 2.91699 7.2669 2.91699 11.6667 2.91699H16.3333C20.7331 2.91699 22.9331 2.91699 24.2998 4.28382C25.6667 5.65067 25.6667 7.85055 25.6667 12.2503V12.8337C25.6667 17.2334 25.6667 19.4334 24.2998 20.8001C22.9331 22.167 20.7331 22.167 16.3333 22.167C15.6794 22.1816 15.1586 22.2313 14.647 22.3478C13.2489 22.6697 11.9543 23.3851 10.6749 24.009C8.85185 24.8979 7.94034 25.3424 7.36832 24.9263C6.27398 24.1112 7.34364 21.5859 7.58334 20.417" fill="#3A95D2"/>
<path d="M7.11529 22.167C5.59849 22.0178 4.46222 21.5622 3.70018 20.8001C2.33334 19.4334 2.33334 17.2334 2.33334 12.8337V12.2503C2.33334 7.85055 2.33334 5.65067 3.70018 4.28382C5.06702 2.91699 7.2669 2.91699 11.6667 2.91699H16.3333C20.7331 2.91699 22.9331 2.91699 24.2998 4.28382C25.6667 5.65067 25.6667 7.85055 25.6667 12.2503V12.8337C25.6667 17.2334 25.6667 19.4334 24.2998 20.8001C22.9331 22.167 20.7331 22.167 16.3333 22.167C15.6794 22.1816 15.1586 22.2313 14.647 22.3478C13.2489 22.6697 11.9543 23.3851 10.6749 24.009C8.85185 24.8979 7.94034 25.3424 7.36832 24.9263C6.27398 24.1112 7.34364 21.5859 7.58334 20.417" stroke="#3A95D2" stroke-width="2" stroke-linecap="square"/>
<path d="M9.33334 15.7503H18.6667M9.33334 9.91699H14" stroke="#D5E9F6" stroke-width="2" stroke-linecap="round" stroke-linejoin="round"/>
</svg>
