<svg width="33" height="32" viewBox="0 0 33 32" fill="none" xmlns="http://www.w3.org/2000/svg">
<path d="M13.5 0H16.46V0.08L16.94 0.12L18.38 0.44L19.54 0.84L20.54 1.28L21.3 1.68L22.22 2.24L22.78 2.64L23.42 3.12L24.02 3.64L24.86 4.48L25.22 4.92L25.78 5.68L26.3 6.6L26.66 7.4L26.98 8.36L27.18 9.28L27.3 10.36V11.56L27.18 12.56L27.1 12.92L27.14 13.16L27.58 13.72L28.1 14.36L28.54 14.92L29.02 15.52L29.54 16.2L30.1 16.88L30.38 17.28L30.42 17.36V17.72L30.22 18L28.54 18.88L28.1 19.08L28.02 19.88L27.9 20.2L27.7 20.36L27.54 20.44H27.3L26.54 20.04L25.46 19.52L24.3 19.08L23.34 18.8L22.34 18.6L21.94 18.56H21.06L20.02 18.68L19.1 18.88L18.22 19.16L17.22 19.56L16.26 20.04L15.5 20.52L14.94 20.92L14.38 21.4L13.98 21.84L13.58 22.44L13.26 22.96L12.9 23.6L12.54 24.44L12.3 25.12L12.02 26.12L11.86 26.96L11.74 28.28V29.76L11.62 30L11.38 30.2H11.02L6.98004 29.48L6.34004 29.32L6.14004 29.12L6.06004 28.76L5.90004 26.88L5.54004 22.16L5.46004 21.72L5.06004 21.08L4.78004 20.64L4.50004 20.16L4.18004 19.52L3.74004 18.56L3.34004 17.48L2.98004 16.24L2.70004 14.88L2.58004 13.84L2.54004 13.2V12.64L2.62004 11.52L2.78004 10.56L3.10004 9.36L3.46004 8.36L3.94004 7.28L4.34004 6.52L4.66004 6L5.06004 5.4L5.54004 4.76L5.90004 4.32L6.34004 3.84L6.50004 3.64H6.58004L6.66004 3.48H6.74004L6.82004 3.32H6.90004V3.24L7.22004 2.96L7.74004 2.52L8.38004 2.04L9.14004 1.56L9.78004 1.2L10.62 0.8L11.62 0.44L12.54 0.2L13.46 0.04L13.5 0ZM14.34 1.12L13.26 1.24L12.34 1.44L11.58 1.68L10.78 2L10.14 2.32L9.58004 2.64L8.98004 3.04L8.50004 3.4L7.98004 3.84L7.46004 4.32L7.10004 4.68L6.82004 5L6.26004 5.68L5.78004 6.4L5.38004 7.04L4.98004 7.76L4.50004 8.84L4.10004 10.04L3.86004 11L3.74004 11.92L3.70004 12.36V13.4L3.86004 14.84L4.06004 15.8L4.38004 16.96L4.70004 17.84L5.06004 18.68L5.38004 19.32L5.82004 20.16L6.14004 20.64L6.50004 21.24L6.66004 21.72L7.14004 27.96L7.18004 28.32L7.46004 28.4L10.18 28.88L10.58 28.92L10.62 27.68L10.78 26.44L11.02 25.36L11.3 24.44L11.66 23.56L11.98 22.88L12.46 22.04L12.9 21.4L13.3 20.88L13.74 20.32L14.1 19.92L14.38 19.6L15.22 18.76L15.66 18.4L16.14 18L16.58 17.68L16.42 17.64L15.7 17.72L15.14 17.76L13.58 17.8L12.78 17.76L12.02 17.64L11.3 17.4L10.7 17.08L10.22 16.64L9.94004 16.2L9.78004 15.72L9.74004 15.2L9.82004 14.8L9.94004 14.68L10.22 14.64L10.46 14.72L10.54 15.12V15.52L10.74 15.56L11.1 15.36L11.3 15.16L11.46 14.84L11.5 14.36L11.38 13.92L11.1 13.44L10.82 13.16L10.26 12.8L9.86004 12.64L9.58004 12.6L8.94004 12.64L8.54004 12.76L8.22004 12.92L7.86004 13.28L7.70004 13.6L7.62004 13.92V14.68L7.74004 15.32L7.94004 15.96L8.26004 16.64L8.62004 17.12L8.98004 17.52L9.54004 17.92L10.1 18.2L10.7 18.36L11.78 18.48L11.94 18.56L12.02 18.72L11.98 19.04L11.78 19.2H10.94L10.26 19.08L9.66004 18.88L9.10004 18.6L8.66004 18.28L8.26004 17.92L7.90004 17.52L7.54004 16.96L7.22004 16.32L7.02004 15.72L6.86004 15L6.82004 14.68V13.92L6.98004 13.28L7.18004 12.88L7.46004 12.52L7.94004 12.16L8.54004 11.92L8.94004 11.84H9.90004L10.46 12L11.02 12.32L11.54 12.76L11.94 13.28L12.14 13.68L12.26 14.08V14.92L12.1 15.36L11.86 15.76L11.54 16.04L11.14 16.24V16.32L11.06 16.36L11.62 16.68L12.26 16.88L12.82 16.96L13.46 17H14.22L15.62 16.92L16.62 16.8L17.66 16.6L18.66 16.32L19.3 16.08L20.38 15.64L21.38 15.32L22.42 15.08L23.34 14.96H24.3L25.14 15.08L25.82 15.28L26.46 15.56L27.02 15.92L27.46 16.28L27.82 16.64L28.26 17.28L28.42 17.56L28.66 17.52L28.94 17.4L28.9 17.24L28.54 16.8L28.14 16.28L27.62 15.64L27.22 15.12L26.34 14L25.98 13.52L25.86 13.28L26.02 12.56L26.14 11.84L26.18 11.4V10.36L26.1 9.6L25.9 8.68L25.62 7.84L25.26 7.04L24.86 6.36L24.46 5.8L24.1 5.36L23.74 4.96L23.26 4.48L22.94 4.2L22.22 3.64L21.5 3.16L20.5 2.56L19.86 2.24L19.14 1.92L17.94 1.52L16.86 1.28L15.94 1.16L15.42 1.12H14.34ZM23.22 15.76L22.38 15.88L21.54 16.08L20.34 16.48L19.1 17.04L18.22 17.52L17.14 18.24L17.26 18.28L18.26 17.92L19.1 17.68L20.18 17.48L21.02 17.4H21.86L22.66 17.48L23.66 17.68L24.82 18.04L25.86 18.44L26.58 18.76L26.82 18.88L26.94 18.84L27.02 18.44L27.22 18.24L27.7 18L27.66 17.8L27.34 17.32L26.86 16.8L26.38 16.44L25.98 16.2L25.38 15.96L24.66 15.8L24.38 15.76H23.22Z" fill="#133953"/>
<path d="M20.5 20.48H21.94L22.86 20.6L23.98 20.84L24.98 21.16L25.78 21.48L26.62 21.92L27.1 22.28L27.38 22.52L27.54 22.72L27.58 22.84V23.2L27.34 24.68L27.1 25.68L26.9 26.28L26.66 26.6L26.42 26.8L25.9 27L24.98 27.16L24.02 27.24H21.82L21.78 30.8L21.74 31.6L21.62 31.84L21.46 32H20.82L19.86 31.8L15.02 30.92L14.78 30.8L14.58 30.56L14.42 29.72L14.38 29.28V28L14.5 26.92L14.7 25.92L14.94 25.08L15.18 24.48L15.46 23.92L15.94 23.2L16.38 22.68L16.66 22.36L16.98 22.08L17.58 21.6L18.18 21.24L18.82 20.92L19.46 20.68L20.18 20.52L20.5 20.48ZM20.98 21.6L20.26 21.68L19.66 21.84L19.02 22.08L18.46 22.4L17.9 22.8L17.38 23.28L16.94 23.76L16.66 24.16L16.34 24.72L16.06 25.36L15.82 26.2L15.7 26.68L15.54 27.88V29.44L15.58 29.8L15.7 29.88L20.58 30.76H20.62L20.7 26.52L20.86 26.24L21.02 26.12H22.94L24.14 26.08L25.14 26L25.58 25.92L25.78 25.84L25.94 25.6L26.18 24.56L26.38 23.48V23.16L26.18 23L25.62 22.68L24.94 22.36L23.86 22L22.82 21.76L21.98 21.64L21.46 21.6H20.98Z" fill="#133953"/>
</svg>
