<svg width="97" height="90" viewBox="0 0 97 90" fill="none" xmlns="http://www.w3.org/2000/svg">
<rect x="20.0173" y="14.8477" width="57.5869" height="58.1655" rx="28.7934" fill="#DCFCE7"/>
<path d="M32.0146 49.9892C32.0146 49.9892 35.6138 49.9892 40.4127 58.4717C40.4127 58.4717 53.7513 36.2549 65.607 31.8125" stroke="#22C55E" stroke-width="4" stroke-linecap="round" stroke-linejoin="round"/>
<path d="M49.7106 15.1398C49.7106 14.4763 49.1725 13.936 48.5095 13.9623C43.4989 14.1611 38.6068 15.6014 34.2675 18.1644C29.9201 20.7321 26.2729 24.3408 23.6432 28.6647C23.3031 29.2238 23.5071 29.9469 24.0761 30.2702C24.652 30.5975 25.3822 30.3911 25.7286 29.8265C28.1493 25.8813 31.4911 22.5875 35.4683 20.2384C39.4432 17.8907 43.9212 16.5644 48.5096 16.3669C49.1724 16.3384 49.7106 15.8033 49.7106 15.1398Z" fill="#22C55E"/>
<path d="M27.0895 63.0565C26.6079 63.5007 26.5723 64.2519 27.0301 64.7207C31.8183 69.6242 38.0927 72.7717 44.8536 73.6623C45.5122 73.7491 46.0979 73.2588 46.1572 72.5972C46.2164 71.9373 45.7295 71.3567 45.0729 71.2681C38.9094 70.4361 33.1892 67.5698 28.8046 63.1161C28.3385 62.6426 27.578 62.606 27.0895 63.0565Z" fill="#22C55E"/>
<path d="M69.513 23.9222C70.0193 23.4924 70.7811 23.557 71.1856 24.0838C73.7656 27.4438 75.6341 31.3092 76.6691 35.4397C77.8023 39.962 77.9071 44.6847 76.9756 49.2537C76.0442 53.8227 74.1006 58.1193 71.2907 61.8215C68.7256 65.2011 65.4994 68.0051 61.8175 70.0619C61.2362 70.3866 60.5093 70.1444 60.2126 69.5482C59.9193 68.9588 60.1576 68.2454 60.7315 67.9228C64.0999 66.0294 67.0524 63.4566 69.4029 60.3597C71.9943 56.9454 73.7867 52.9828 74.6458 48.7691C75.5048 44.5554 75.4082 40.1999 74.3631 36.0292C73.4143 32.2427 71.706 28.6977 69.3486 25.612C68.951 25.0915 69.0136 24.3461 69.513 23.9222Z" fill="#22C55E"/>
</svg>
