<svg width="32" height="34" viewBox="0 0 32 34" fill="none" xmlns="http://www.w3.org/2000/svg">
<path d="M18.6667 7.6665C18.0001 8.33317 16.6623 8.21621 14.6667 6.56826M14.6667 6.56826C14.9619 6.32453 15.2686 6.0476 15.5854 5.7336C18.6597 2.6873 22.8465 3.28373 24.8081 5.7336C25.6428 6.77601 27.279 8.77485 26.4285 13.6665M14.6667 6.56826C14.3715 6.32453 14.0649 6.0476 13.7481 5.7336C10.6738 2.6873 6.487 3.28373 4.5254 5.7336C3.17054 7.4257 -0.296556 11.6379 8.18962 26.6526C8.54096 27.2742 9.24088 27.6665 9.99476 27.6665C11.1974 27.6665 12.1374 26.7066 12.1765 25.5864C12.2371 23.8485 12.5732 21.9136 13.5113 20.9998" stroke="#1C567D" stroke-width="1.5" stroke-linecap="round" stroke-linejoin="round"/>
<path d="M21.3333 23.6667L22.2453 24.5787C22.4419 24.7753 22.5402 24.8736 22.6593 24.8671C22.7782 24.8604 22.8651 24.7519 23.0389 24.5347L25.3327 21.6667M17.3333 21.6057V22.1204C17.3333 23.7229 17.3333 24.5241 17.5311 25.2575C17.7754 26.1631 18.2387 26.9981 18.8821 27.6929C19.4029 28.2555 20.0903 28.6935 21.465 29.5695C22.0805 29.9616 22.3882 30.1577 22.7153 30.2489C23.1193 30.3615 23.5473 30.3615 23.9513 30.2489C24.2783 30.1577 24.5861 29.9616 25.2015 29.5695C26.5762 28.6935 27.2637 28.2555 27.7845 27.6929C28.4278 26.9981 28.8911 26.1631 29.1354 25.2575C29.3333 24.5241 29.3333 23.7229 29.3333 22.1204V21.6057C29.3333 20.6079 29.3333 20.1089 29.1442 19.6876C29.0275 19.4277 28.8605 19.1924 28.6522 18.9947C28.3145 18.674 27.8359 18.4988 26.8786 18.1484L24.9133 17.4291C24.1319 17.1431 23.7413 17 23.3333 17C22.9253 17 22.5346 17.1431 21.7533 17.4291L19.7879 18.1484C18.8306 18.4988 18.3521 18.674 18.0143 18.9947C17.8061 19.1924 17.639 19.4277 17.5223 19.6876C17.3333 20.1089 17.3333 20.6079 17.3333 21.6057Z" stroke="#1C567D" stroke-width="1.5" stroke-linecap="round" stroke-linejoin="round"/>
</svg>
