<svg width="32" height="32" viewBox="0 0 32 32" fill="none" xmlns="http://www.w3.org/2000/svg">
<path d="M18.6666 2.66669H13.3333C8.96099 2.66669 6.77484 2.66669 5.22517 3.75178C4.65184 4.15322 4.15316 4.6519 3.75172 5.22523C2.66663 6.7749 2.66663 8.96105 2.66663 13.3334C2.66663 17.7056 2.66663 19.8918 3.75172 21.4415C4.15316 22.0148 4.65184 22.5135 5.22517 22.915C6.77484 24 8.96099 24 13.3333 24H18.6666C23.0389 24 25.225 24 26.7748 22.915C27.3481 22.5135 27.8468 22.0148 28.2482 21.4415C29.3333 19.8918 29.3333 17.7056 29.3333 13.3334C29.3333 8.96105 29.3333 6.7749 28.2482 5.22523C27.8468 4.6519 27.3481 4.15322 26.7748 3.75178C25.225 2.66669 23.0389 2.66669 18.6666 2.66669Z" stroke="#133953" stroke-linecap="round"/>
<path d="M19.3333 29.3333L18.9126 28.7748C17.9644 27.5159 17.7292 25.5925 18.329 24M12.6666 29.3333L13.0873 28.7748C14.0356 27.5159 14.2708 25.5925 13.6709 24" stroke="#133953" stroke-linecap="round"/>
<path d="M9.33337 29.3333H22.6667" stroke="#133953" stroke-linecap="round"/>
<path d="M10.6666 18.6667C13.1179 15.2061 18.825 15.0173 21.3333 18.6667M18.6666 10.6667C18.6666 12.1394 17.4728 13.3333 16 13.3333C14.5272 13.3333 13.3333 12.1394 13.3333 10.6667C13.3333 9.19391 14.5272 8 16 8C17.4728 8 18.6666 9.19391 18.6666 10.6667Z" stroke="#133953" stroke-linecap="round"/>
</svg>
