<svg width="100" height="100" viewBox="0 0 100 100" fill="none" xmlns="http://www.w3.org/2000/svg">
<path d="M39.1141 82.712H31.2981V84.864H39.1141V82.712Z" fill="#EBEBEB"/>
<path d="M35.8 86.958C35.7993 86.9454 35.7993 86.9327 35.8 86.92V86.814C35.8 86.716 35.8 86.582 35.8 86.414C35.8 86.056 35.8 85.544 35.786 84.896L35.81 84.92L27.994 84.936L28.034 84.896V86.96L27.994 86.92L33.564 86.938L35.208 86.95H35.652H35.768C35.7819 86.9478 35.7961 86.9478 35.81 86.95H35.662H35.226L33.592 86.96L28 87H27.962V86.962C27.962 86.63 27.962 86.29 27.962 85.944V84.898L28.002 84.858L35.818 84.874H35.842V84.898C35.842 85.552 35.842 86.07 35.828 86.43C35.828 86.602 35.828 86.736 35.828 86.83C35.828 86.87 35.828 86.904 35.828 86.93C35.8197 86.9403 35.8103 86.9496 35.8 86.958Z" fill="#E0E0E0"/>
<path d="M38.5341 61.65C38.5341 61.65 38.5341 61.636 38.5341 61.61V61.498C38.5341 61.396 38.5341 61.252 38.5341 61.068C38.5341 60.69 38.5341 60.146 38.5221 59.468L38.5421 59.494L32.1061 59.51C32.1201 59.492 32.0721 59.552 32.1381 59.468V60.576C32.1381 60.942 32.1381 61.3 32.1381 61.652L32.1061 61.612L36.6941 61.63L38.0481 61.642H38.4161H38.5441C38.5441 61.642 38.5441 61.642 38.5141 61.642H38.4241H38.0641L36.7181 61.654L32.1061 61.672H32.0741V59.466C32.1401 59.382 32.0921 59.442 32.1081 59.424L38.5441 59.44H38.5641V59.466C38.5641 60.158 38.5641 60.706 38.5541 61.088C38.5541 61.268 38.5541 61.41 38.5541 61.512C38.5541 61.556 38.5541 61.592 38.5541 61.62C38.5541 61.648 38.5361 61.652 38.5341 61.65Z" fill="#E0E0E0"/>
<path d="M90.176 88.44C90.1752 88.4266 90.1752 88.4133 90.176 88.4V88.288C90.176 88.184 90.176 88.042 90.176 87.856C90.176 87.48 90.176 86.936 90.162 86.256L90.188 86.28L81.916 86.298L81.958 86.256V87.368C81.958 87.732 81.958 88.092 81.958 88.444L81.918 88.402L87.812 88.422L89.552 88.432H90.024H90.146H90.028H89.566L87.836 88.444L81.912 88.462H81.87V86.252L81.912 86.21L90.184 86.226H90.2V86.252C90.2 86.942 90.188 87.49 90.186 87.872C90.186 88.0533 90.186 88.1953 90.186 88.298V88.404C90.1836 88.4162 90.1802 88.4282 90.176 88.44Z" fill="#E0E0E0"/>
<path d="M91.2981 86.252C91.2967 86.238 91.2967 86.2239 91.2981 86.21C91.2981 86.178 91.2981 86.14 91.2981 86.094C91.2981 85.986 91.2981 85.84 91.2981 85.654C91.2981 85.27 91.2881 84.73 91.2821 84.054L91.3121 84.084L86.3421 84.096L86.3841 84.054V84.62C86.3841 84.81 86.3841 84.994 86.3841 85.178V86.24L86.3441 86.2L89.8981 86.218L90.9341 86.23H91.2141H91.3141H91.2241H90.9521L89.9261 86.24L86.3441 86.26H86.3041V84.6C86.3041 84.506 86.3041 84.412 86.3041 84.318V84.034C86.3041 84.044 86.3841 83.954 86.3481 83.992L91.3181 84.004H91.3481V84.034C91.3481 84.708 91.3361 85.258 91.3321 85.646C91.3321 85.828 91.3321 85.972 91.3321 86.078C91.3248 86.1367 91.3134 86.1948 91.2981 86.252Z" fill="#E0E0E0"/>
<path d="M86.1201 42.864H78.3041V45.016H86.1201V42.864Z" fill="#EBEBEB"/>
<path d="M82.8161 47.11C82.8145 47.0974 82.8145 47.0846 82.8161 47.072V46.966C82.8161 46.87 82.8161 46.734 82.8161 46.566C82.8161 46.208 82.8161 45.696 82.8041 45.048L82.8281 45.072L75.0121 45.088L75.0521 45.048V46.096C75.0521 46.44 75.0521 46.78 75.0521 47.112L75.0141 47.074L80.5841 47.09L82.2281 47.102H82.6721H82.7941H82.6821H82.2461L80.6101 47.114L75.0101 47.13H74.9701V45.046L75.0101 45.006L82.8261 45.022H82.8501V45.046C82.8501 45.7 82.8401 46.218 82.8361 46.578C82.8361 46.75 82.8361 46.8833 82.8361 46.978C82.8361 47.02 82.8361 47.052 82.8361 47.08C82.8304 47.0906 82.8237 47.1007 82.8161 47.11Z" fill="#E0E0E0"/>
<path d="M90.5661 29.988C90.5661 29.988 90.5661 29.974 90.5661 29.948C90.5661 29.922 90.5661 29.882 90.5661 29.836C90.5661 29.732 90.5661 29.59 90.5661 29.404C90.5661 29.028 90.5661 28.484 90.5521 27.804L90.5761 27.828L82.3041 27.846L82.3461 27.804V29.992L82.3041 29.95L88.2001 29.97H89.9401H90.4101H90.5341H90.4201H89.9581L88.2281 29.982L82.3041 30H82.2621V27.8L82.3041 27.756L90.5761 27.774H90.6001V27.8C90.6001 28.49 90.6001 29.038 90.5861 29.42C90.5861 29.6013 90.5861 29.7433 90.5861 29.846C90.5861 29.89 90.5861 29.924 90.5861 29.952C90.5861 29.98 90.5681 29.988 90.5661 29.988Z" fill="#E0E0E0"/>
<path d="M91.6881 27.8C91.6881 27.8 91.6881 27.784 91.6881 27.758C91.6881 27.732 91.6881 27.688 91.6881 27.642C91.6881 27.534 91.6881 27.388 91.6881 27.202C91.6881 26.818 91.6781 26.278 91.6721 25.602L91.7021 25.632L86.7321 25.644L86.7741 25.602V26.726C86.7741 27.092 86.7741 27.448 86.7741 27.788L86.7341 27.748L90.2901 27.766L91.3261 27.778H91.6041H91.7041H91.6141H91.3441H90.3161L86.7341 27.798H86.6941V27.8C86.6941 27.46 86.6941 27.104 86.6941 26.738V25.614L86.7361 25.572L91.7061 25.584H91.7361V25.614C91.7361 26.288 91.7241 26.836 91.7201 27.226C91.7201 27.408 91.7201 27.552 91.7201 27.658C91.7121 27.7059 91.7014 27.7533 91.6881 27.8Z" fill="#E0E0E0"/>
<path d="M88.95 60.512C88.95 60.512 88.95 60.498 88.95 60.472C88.95 60.446 88.95 60.406 88.95 60.36C88.95 60.258 88.95 60.114 88.95 59.93C88.95 59.552 88.95 59.008 88.938 58.33L88.958 58.356L82.522 58.372C82.536 58.354 82.488 58.414 82.554 58.33V59.438C82.554 59.804 82.554 60.162 82.554 60.514L82.522 60.474L87.11 60.492L88.464 60.504H88.83H88.96C88.96 60.504 88.96 60.504 88.93 60.504H88.838H88.48L87.132 60.516L82.522 60.534H82.49V58.328C82.556 58.244 82.508 58.304 82.524 58.286L88.96 58.302H88.98V58.328C88.98 59.02 88.98 59.568 88.97 59.95C88.97 60.13 88.97 60.272 88.97 60.374V60.482C88.952 60.502 88.952 60.514 88.95 60.512Z" fill="#E0E0E0"/>
<path d="M67.416 12.384H48.27V44.076H67.416V12.384Z" fill="#E0E0E0"/>
<path d="M66.7781 12.384H47.6321V44.076H66.7781V12.384Z" fill="#EBEBEB"/>
<path d="M65.964 13.026H48.448V43.432H65.964V13.026Z" fill="white"/>
<path d="M62.552 16.978H51.782V39.482H62.552V16.978Z" fill="#EBEBEB"/>
<path d="M51.7821 31.5181C51.7581 29.4161 53.6481 27.3641 55.7301 27.0701C56.7301 26.9301 57.7761 27.1281 58.7041 26.7461C60.3601 26.0681 60.8861 23.8681 62.5521 23.2161L62.6281 39.4821H51.7821V31.5181Z" fill="#E0E0E0"/>
<path d="M13.518 17.696H6.29004V29.688H13.518V17.696Z" fill="#F5F5F5"/>
<path d="M21.606 17.696H13.796V29.688H21.606V17.696Z" fill="#F5F5F5"/>
<path d="M21.606 30.526H13.796V42.114H21.606V30.526Z" fill="#F5F5F5"/>
<path d="M22.6061 17.488H30.8301V6.85001H31.1061V17.488H37.8001V6.61401H22.6061V17.488Z" fill="#F5F5F5"/>
<path d="M37.8 17.696H31.108V29.688H37.8V17.696Z" fill="#F5F5F5"/>
<path d="M37.8 30.526H31.108V42.114H37.8V30.526Z" fill="#F5F5F5"/>
<path d="M13.518 30.526H6.29004V42.114H13.518V30.526Z" fill="#F5F5F5"/>
<path d="M30.8301 30.526H22.6061V42.114H30.8301V30.526Z" fill="#F5F5F5"/>
<path d="M13.518 42.322H6.29004V52.764H13.518V42.322Z" fill="#F5F5F5"/>
<path d="M37.8 42.322H31.108V52.764H37.8V42.322Z" fill="#F5F5F5"/>
<path d="M13.518 17.488V6.85001H13.796V17.488H21.604V6.61401H6.29004V17.488H13.518Z" fill="#F5F5F5"/>
<path d="M30.8301 42.322H22.6061V52.764H30.8301V42.322Z" fill="#F5F5F5"/>
<path d="M21.606 42.322H13.796V52.764H21.606V42.322Z" fill="#F5F5F5"/>
<path d="M30.8301 17.696H22.6061V29.688H30.8301V17.696Z" fill="#F5F5F5"/>
<path d="M51.304 9.02407C51.304 9.02407 51.304 9.01007 51.304 8.98407V8.87207C51.304 8.76807 51.304 8.62407 51.304 8.44007C51.304 8.06207 51.304 7.52007 51.292 6.84007L51.312 6.86407L44.876 6.88207C44.89 6.86207 44.842 6.92407 44.908 6.84007V7.95007C44.908 8.31407 44.908 8.67407 44.908 9.02607L44.876 8.98407L49.464 9.00407L50.818 9.01407H51.184H51.28H51.314H51.192H50.834L49.486 9.02607L44.886 9.04407H44.854V6.83807L44.888 6.79407L51.324 6.81207H51.344V6.83807C51.344 7.52807 51.344 8.07607 51.334 8.45807C51.334 8.64007 51.334 8.78207 51.334 8.88207C51.334 8.92807 51.334 8.96207 51.334 8.99007C51.334 9.01807 51.306 9.02407 51.304 9.02407Z" fill="#E0E0E0"/>
<path d="M95.344 94.074C95.344 94.102 75.04 94.126 50.002 94.126C24.964 94.126 4.65601 94.102 4.65601 94.074C4.65601 94.046 24.954 94.022 50.002 94.022C75.05 94.022 95.344 94.044 95.344 94.074Z" fill="#263238"/>
<path d="M28.066 85.2961C28.048 85.3201 25.266 83.2541 21.866 80.6841C18.466 78.1141 15.714 76.0121 15.73 76.0001C15.746 75.9881 18.53 78.0401 21.93 80.6121C25.33 83.1841 28.084 85.2741 28.066 85.2961Z" fill="#263238"/>
<path d="M14.468 85.5361C14.45 85.5141 17.222 83.3581 20.668 80.7221C24.114 78.0861 26.906 75.9661 26.924 75.9901C26.942 76.0141 24.17 78.1681 20.724 80.8041C17.278 83.4401 14.484 85.5581 14.468 85.5361Z" fill="#263238"/>
<path d="M16.5121 73.624L16.0221 76.282H16.7501L17.5041 73.624H16.5121Z" fill="#263238"/>
<path d="M15.248 75.5041C14.6 78.7421 12.102 90.8301 11.47 93.8821C11.4513 93.9653 11.4514 94.0517 11.4702 94.135C11.489 94.2182 11.526 94.2962 11.5786 94.3634C11.6313 94.4306 11.6982 94.4852 11.7745 94.5234C11.8508 94.5616 11.9347 94.5823 12.02 94.5841C12.145 94.5831 12.2662 94.5408 12.3646 94.4637C12.463 94.3866 12.5331 94.2792 12.564 94.1581L17.442 75.9761C17.4832 75.8296 17.4903 75.6757 17.463 75.526C17.4357 75.3763 17.3745 75.2349 17.2843 75.1124C17.194 74.9899 17.077 74.8897 16.9421 74.8193C16.8073 74.7488 16.6581 74.7101 16.506 74.7061H16.2C15.9734 74.7078 15.7544 74.7884 15.5807 74.934C15.407 75.0797 15.2894 75.2812 15.248 75.5041Z" fill="#455A64"/>
<path d="M26.1861 73.624L26.6761 76.282H25.9481L25.1941 73.624H26.1861Z" fill="#263238"/>
<path d="M31.3321 70.2C29.9121 67.566 28.2241 59.524 27.4801 56.958C27.4601 56.886 27.4381 56.816 27.4161 56.748C27.1339 55.926 26.6006 55.2134 25.8914 54.7109C25.1823 54.2085 24.3331 53.9416 23.4641 53.948H19.1801C18.3112 53.9414 17.4622 54.2082 16.7533 54.7107C16.0445 55.2132 15.5116 55.9259 15.2301 56.748L15.1641 56.958C14.4221 59.524 12.7321 67.558 11.3141 70.2C11.3141 70.2 9.42206 71.314 9.96206 72.38C10.4841 73.406 15.3421 74.134 21.3221 73.942C27.3041 74.142 32.1621 73.406 32.6821 72.38C33.2221 71.314 31.3321 70.2 31.3321 70.2Z" fill="#E0E0E0"/>
<path d="M31.332 70.2C31.4961 70.2937 31.6525 70.4 31.8 70.518C31.9843 70.657 32.1557 70.8123 32.312 70.982C32.5359 71.2087 32.6966 71.49 32.778 71.798C32.8138 71.9879 32.79 72.1842 32.71 72.36C32.6094 72.5499 32.4521 72.7037 32.26 72.8C32.0611 72.9118 31.8522 73.0049 31.636 73.078C31.412 73.16 31.176 73.23 30.93 73.294C29.8017 73.5625 28.6543 73.743 27.498 73.834C26.21 73.954 24.79 74.016 23.256 74.018C22.872 74.018 22.482 74.018 22.084 74.018C21.686 74.018 21.284 73.99 20.884 74.018C20.064 74.0394 19.2174 74.0394 18.344 74.018C16.5094 73.9999 14.6785 73.8475 12.866 73.562C12.3869 73.4813 11.9123 73.3759 11.444 73.246C11.2025 73.1788 10.9654 73.0966 10.734 73C10.4976 72.9085 10.2775 72.7795 10.082 72.618C9.98268 72.5277 9.90945 72.4124 9.87004 72.284C9.86004 72.254 9.84604 72.222 9.83804 72.19L9.82604 72.092L9.81604 71.994C9.81604 71.96 9.81604 71.928 9.81604 71.894C9.85237 71.6343 9.95654 71.3887 10.118 71.182C10.4407 70.7753 10.8344 70.4304 11.28 70.164L11.26 70.184C11.7467 69.1657 12.1481 68.1087 12.46 67.024C12.798 65.926 13.108 64.802 13.406 63.66C13.718 62.46 14.006 61.28 14.3 60.112C14.4454 59.528 14.5894 58.948 14.732 58.372C14.882 57.798 15.016 57.228 15.202 56.668C15.3981 56.1214 15.7068 55.6221 16.1082 55.2024C16.5096 54.7828 16.9947 54.4522 17.532 54.232C18.0528 54.0195 18.6096 53.9089 19.172 53.906H23.16C23.4171 53.901 23.6742 53.911 23.93 53.936C24.4334 53.9916 24.9229 54.1358 25.376 54.362C25.8143 54.5826 26.2108 54.8777 26.548 55.234C26.8731 55.5787 27.1357 55.9773 27.324 56.412L27.446 56.736C27.48 56.846 27.516 56.954 27.544 57.064C27.604 57.282 27.664 57.496 27.718 57.71C27.942 58.566 28.14 59.392 28.334 60.178C29.098 63.326 29.762 65.862 30.316 67.578C30.586 68.442 30.842 69.096 31.024 69.538C31.114 69.758 31.2 69.916 31.248 70.028L31.326 70.198C31.326 70.198 31.204 69.98 31.004 69.546C30.804 69.112 30.554 68.452 30.278 67.59C29.71 65.868 29.036 63.332 28.262 60.19C28.062 59.404 27.862 58.58 27.64 57.726C27.586 57.512 27.526 57.298 27.466 57.08C27.436 56.97 27.402 56.864 27.368 56.756C27.334 56.648 27.288 56.556 27.246 56.44C27.0616 56.0143 26.8037 55.6244 26.484 55.288C25.8077 54.5738 24.8983 54.1247 23.92 54.022C23.6676 53.9965 23.4137 53.9872 23.16 53.994H20.8C19.736 54.028 18.6 53.86 17.572 54.316C17.0479 54.5312 16.5749 54.8541 16.1835 55.2638C15.7921 55.6734 15.4911 56.1607 15.3 56.694C15.12 57.242 14.982 57.818 14.834 58.39C14.686 58.962 14.548 59.544 14.402 60.128C14.114 61.298 13.822 62.482 13.51 63.68C13.212 64.822 12.91 65.948 12.562 67.048C12.2506 68.1381 11.8492 69.2004 11.362 70.224V70.236H11.35C10.9093 70.4961 10.5196 70.8343 10.2 71.234C10.0486 71.4258 9.95061 71.6542 9.91604 71.896C9.91604 71.926 9.91604 71.956 9.91604 71.984L9.92604 72.072V72.16C9.92604 72.188 9.94604 72.216 9.95604 72.244C9.98919 72.3565 10.0529 72.4576 10.14 72.536C10.3269 72.6904 10.5377 72.8134 10.764 72.9C10.9886 72.9942 11.2191 73.0737 11.454 73.138C11.9187 73.2685 12.3901 73.374 12.866 73.454C14.673 73.7407 16.4986 73.8951 18.328 73.916C19.1987 73.9347 20.044 73.9347 20.864 73.916C21.264 73.894 21.68 73.916 22.076 73.916C22.472 73.916 22.862 73.928 23.246 73.928C24.778 73.928 26.196 73.87 27.482 73.756C28.6352 73.6694 29.78 73.4935 30.906 73.23C31.152 73.168 31.388 73.1 31.61 73.03C31.824 72.9577 32.0308 72.866 32.228 72.756C32.4104 72.6697 32.5624 72.5303 32.664 72.356C32.742 72.1881 32.7658 72.0001 32.732 71.818C32.6537 71.517 32.4987 71.2413 32.282 71.018C32.1282 70.8481 31.9603 70.6916 31.78 70.55C31.634 70.434 31.518 70.35 31.44 70.3L31.332 70.2Z" fill="#263238"/>
<path d="M27.4001 75.5041C28.0441 78.7421 30.5461 90.8301 31.1761 93.8821C31.1948 93.9653 31.1947 94.0517 31.176 94.135C31.1572 94.2182 31.1201 94.2962 31.0675 94.3634C31.0149 94.4306 30.948 94.4852 30.8716 94.5234C30.7953 94.5616 30.7114 94.5823 30.6261 94.5841C30.5011 94.5831 30.38 94.5408 30.2816 94.4637C30.1831 94.3866 30.113 94.2792 30.0821 94.1581L25.2001 75.9761C25.159 75.8297 25.1518 75.676 25.179 75.5265C25.2063 75.377 25.2672 75.2356 25.3572 75.1132C25.4473 74.9907 25.564 74.8904 25.6987 74.8199C25.8333 74.7494 25.9822 74.7104 26.1341 74.7061H26.4421C26.6697 74.7068 26.8899 74.7869 27.0647 74.9326C27.2396 75.0783 27.3582 75.2804 27.4001 75.5041Z" fill="#455A64"/>
<path d="M30.452 71.6541C30.4381 71.6606 30.4232 71.6646 30.408 71.6661L30.272 71.6901L29.754 71.7701C29.304 71.8381 28.652 71.9241 27.842 72.0161C26.224 72.2001 23.98 72.3781 21.496 72.4161C19.012 72.4541 16.76 72.3501 15.138 72.2161C14.326 72.1521 13.67 72.0881 13.218 72.0341L12.698 71.9721L12.562 71.9521C12.5462 71.9516 12.5306 71.9482 12.516 71.9421H12.564H12.7L13.222 71.9861C13.674 72.0281 14.332 72.0801 15.142 72.1361C16.764 72.2461 19.012 72.3361 21.494 72.3001C23.976 72.2641 26.216 72.1001 27.834 71.9241C28.644 71.8421 29.298 71.7681 29.75 71.7121L30.27 71.6501L30.406 71.6381C30.4223 71.6401 30.438 71.6455 30.452 71.6541Z" fill="#263238"/>
<g opacity="0.3">
<path d="M29.184 70.73C29.03 70.346 28.408 70.25 27.898 70.226C23.117 69.9943 18.325 70.179 13.576 70.778C13.4409 70.7846 13.3089 70.8215 13.19 70.886C13.084 70.956 13.036 71.086 13.128 71.176L13.106 71.414C17.826 72.452 22.842 72.236 27.706 71.724C28.0724 71.7083 28.4329 71.6263 28.77 71.482C29.076 71.322 29.298 71.012 29.184 70.73Z" fill="black"/>
</g>
<path d="M85.2001 85.2961C85.1841 85.3201 82.4001 83.2541 79.0001 80.6841C75.6001 78.1141 72.8441 76.0121 72.8601 76.0001C72.8761 75.9881 75.6601 78.0401 79.0601 80.6121C82.4601 83.1841 85.2141 85.2741 85.2001 85.2961Z" fill="#263238"/>
<path d="M71.6001 85.5361C71.5821 85.5141 74.3541 83.3581 77.7901 80.7221C81.2261 78.0861 84.0281 75.9661 84.0461 75.9901C84.0641 76.0141 81.2921 78.1681 77.8461 80.8041C74.4001 83.4401 71.6161 85.5581 71.6001 85.5361Z" fill="#263238"/>
<path d="M73.6421 73.624L73.1521 76.282H73.8801L74.6341 73.624H73.6421Z" fill="#263238"/>
<path d="M72.378 75.5041C71.732 78.7421 69.232 90.8301 68.6 93.8821C68.5813 93.9655 68.5814 94.052 68.6003 94.1354C68.6192 94.2188 68.6564 94.297 68.7093 94.3642C68.7621 94.4314 68.8293 94.486 68.9059 94.524C68.9824 94.5621 69.0665 94.5826 69.152 94.5841C69.2767 94.5826 69.3974 94.5401 69.4954 94.4631C69.5934 94.3861 69.6632 94.2788 69.694 94.1581L74.572 75.9761C74.6132 75.8296 74.6203 75.6757 74.593 75.526C74.5657 75.3763 74.5045 75.2349 74.4143 75.1124C74.324 74.9899 74.207 74.8897 74.0721 74.8193C73.9373 74.7488 73.7881 74.7101 73.636 74.7061H73.328C73.1017 74.7083 72.8832 74.7891 72.7099 74.9347C72.5366 75.0803 72.4193 75.2815 72.378 75.5041Z" fill="#455A64"/>
<path d="M83.316 73.624L83.806 76.282H83.078L82.324 73.624H83.316Z" fill="#263238"/>
<path d="M88.4621 70.2C87.0421 67.566 85.3541 59.524 84.6101 56.958C84.5901 56.886 84.5681 56.816 84.5461 56.748C84.2642 55.9258 83.7309 55.213 83.0217 54.7105C82.3125 54.2081 81.4632 53.9413 80.5941 53.948H76.3101C75.4412 53.9414 74.5922 54.2083 73.8833 54.7107C73.1745 55.2132 72.6416 55.9259 72.3601 56.748C72.3381 56.816 72.3161 56.886 72.2961 56.958C71.5521 59.524 69.8621 67.558 68.4441 70.2C68.4441 70.2 66.5521 71.314 67.0921 72.38C67.6141 73.406 72.4721 74.134 78.4521 73.942C84.4341 74.142 89.2921 73.406 89.8121 72.38C90.3541 71.314 88.4621 70.2 88.4621 70.2Z" fill="#E0E0E0"/>
<path d="M88.462 70.2C88.626 70.2937 88.7825 70.4 88.93 70.518C89.1143 70.657 89.2856 70.8123 89.442 70.982C89.6668 71.208 89.8277 71.4896 89.908 71.798C89.9435 71.9877 89.9205 72.1837 89.842 72.36C89.7426 72.5481 89.5885 72.7015 89.4 72.8C89.2012 72.9122 88.9923 73.0053 88.776 73.078C88.554 73.16 88.316 73.23 88.07 73.294C86.9417 73.5625 85.7942 73.743 84.638 73.834C83.352 73.954 81.93 74.016 80.396 74.018C80.012 74.018 79.622 74.018 79.224 74.018C78.826 74.018 78.424 73.99 78.024 74.018C77.204 74.0394 76.3573 74.0394 75.484 74.018C73.6493 73.9999 71.8184 73.8475 70.006 73.562C69.5269 73.4813 69.0522 73.3759 68.584 73.246C68.3453 73.1798 68.1108 73.099 67.882 73.004C67.6459 72.9119 67.4258 72.783 67.23 72.622C67.1306 72.5322 67.0579 72.4166 67.02 72.288C67.0066 72.2575 66.9952 72.2261 66.986 72.194L66.974 72.096V71.998C66.974 71.964 66.974 71.932 66.974 71.898C67.0103 71.6383 67.1145 71.3927 67.276 71.186C67.5991 70.7798 67.9928 70.4349 68.438 70.168L68.418 70.188C68.9046 69.1697 69.306 68.1127 69.618 67.028C69.956 65.93 70.266 64.806 70.562 63.664C70.874 62.464 71.162 61.284 71.456 60.116C71.6027 59.532 71.7467 58.952 71.888 58.376C72.038 57.802 72.174 57.232 72.358 56.672C72.554 56.1254 72.8627 55.6261 73.2641 55.2064C73.6655 54.7868 74.1506 54.4562 74.688 54.236C75.2088 54.0235 75.7655 53.9129 76.328 53.91H80.318C80.575 53.9051 80.8321 53.9151 81.088 53.94C81.5907 53.9959 82.0795 54.1401 82.532 54.366C82.9702 54.5866 83.3668 54.8817 83.704 55.238C84.0204 55.5794 84.2761 55.9724 84.46 56.4L84.582 56.724C84.616 56.834 84.652 56.942 84.68 57.052C84.74 57.27 84.802 57.484 84.856 57.698C85.078 58.554 85.278 59.38 85.47 60.166C86.234 63.314 86.898 65.85 87.452 67.566C87.722 68.43 87.978 69.084 88.16 69.526C88.25 69.746 88.336 69.904 88.384 70.016L88.462 70.186C88.462 70.186 88.34 69.968 88.14 69.534C87.94 69.1 87.69 68.44 87.414 67.578C86.846 65.856 86.172 63.32 85.398 60.178C85.198 59.392 84.998 58.568 84.778 57.714C84.722 57.5 84.662 57.286 84.602 57.068C84.572 56.958 84.538 56.852 84.504 56.744L84.384 56.428C84.1981 56.0026 83.9396 55.6128 83.62 55.276C82.9448 54.5613 82.0359 54.1122 81.058 54.01C80.8055 53.9846 80.5517 53.9752 80.298 53.982H77.934C76.87 54.016 75.734 53.848 74.706 54.304C74.1819 54.5192 73.7089 54.8421 73.3175 55.2518C72.9261 55.6614 72.6251 56.1487 72.434 56.682C72.254 57.23 72.116 57.806 71.968 58.378C71.82 58.95 71.682 59.532 71.536 60.116C71.248 61.286 70.956 62.47 70.644 63.668C70.346 64.81 70.044 65.936 69.696 67.036C69.3845 68.1261 68.9832 69.1884 68.496 70.212V70.224H68.484C68.0503 70.4835 67.6669 70.8188 67.352 71.214C67.2012 71.4059 67.1039 71.6343 67.07 71.876C67.07 71.906 67.07 71.936 67.07 71.964V72.052L67.08 72.14C67.08 72.168 67.1 72.196 67.11 72.224C67.1431 72.3365 67.2068 72.4376 67.294 72.516C67.4809 72.6705 67.6916 72.7934 67.918 72.88C68.1426 72.9742 68.3731 73.0537 68.608 73.118C69.0727 73.2485 69.544 73.354 70.02 73.434C71.827 73.7207 73.6525 73.8751 75.482 73.896C76.3527 73.9147 77.198 73.9147 78.018 73.896C78.428 73.874 78.834 73.896 79.23 73.896C79.626 73.896 80.016 73.908 80.4 73.908C81.932 73.908 83.352 73.85 84.636 73.736C85.7892 73.6494 86.934 73.4735 88.06 73.21C88.308 73.148 88.542 73.08 88.764 73.01C88.9779 72.9377 89.1848 72.846 89.382 72.736C89.5644 72.6497 89.7163 72.5103 89.818 72.336C89.8955 72.168 89.9199 71.9803 89.888 71.798C89.8091 71.4968 89.6533 71.2211 89.436 70.998C89.2827 70.8276 89.1147 70.671 88.934 70.53C88.788 70.414 88.672 70.33 88.594 70.28L88.462 70.2Z" fill="#263238"/>
<path d="M84.528 75.5041C85.172 78.7421 87.674 90.8301 88.306 93.8821C88.3243 93.9655 88.324 94.0519 88.3049 94.1351C88.2859 94.2184 88.2486 94.2963 88.1959 94.3635C88.1431 94.4306 88.0761 94.4852 87.9997 94.5233C87.9233 94.5615 87.8394 94.5822 87.754 94.5841C87.6292 94.5833 87.5082 94.541 87.41 94.4639C87.3119 94.3868 87.2422 94.2792 87.212 94.1581L82.334 75.9761C82.2929 75.8297 82.2857 75.676 82.3129 75.5265C82.3402 75.377 82.4011 75.2356 82.4912 75.1132C82.5812 74.9907 82.698 74.8904 82.8326 74.8199C82.9672 74.7494 83.1161 74.7104 83.268 74.7061H83.578C83.8042 74.7087 84.0225 74.7896 84.1957 74.9351C84.369 75.0806 84.4864 75.2817 84.528 75.5041Z" fill="#455A64"/>
<path d="M87.582 71.6541C87.5681 71.6606 87.5532 71.6646 87.538 71.6661L87.404 71.6901L86.886 71.7701C86.436 71.8381 85.782 71.9241 84.972 72.0161C83.356 72.2001 81.11 72.3781 78.626 72.4161C76.142 72.4541 73.89 72.3501 72.268 72.2161C71.456 72.1521 70.8 72.0881 70.348 72.0341L69.828 71.9721L69.692 71.9521C69.662 71.9521 69.646 71.9521 69.648 71.9421H69.694H69.83L70.352 71.9861C70.806 72.0281 71.462 72.0801 72.272 72.1361C73.896 72.2461 76.142 72.3361 78.624 72.3001C81.106 72.2641 83.348 72.1001 84.966 71.9241C85.766 71.8421 86.428 71.7681 86.88 71.7121L87.4 71.6501L87.536 71.6381C87.5523 71.6401 87.568 71.6455 87.582 71.6541Z" fill="#263238"/>
<g opacity="0.3">
<path d="M86.314 70.73C86.16 70.346 85.538 70.25 85.028 70.226C80.247 69.9943 75.455 70.179 70.706 70.778C70.5709 70.7846 70.4389 70.8215 70.32 70.886C70.214 70.956 70.166 71.086 70.258 71.176L70.236 71.414C74.958 72.452 79.972 72.236 84.836 71.724C85.2024 71.7083 85.5629 71.6263 85.9 71.482C86.2 71.322 86.428 71.012 86.314 70.73Z" fill="black"/>
</g>
<path d="M82.934 22.268C86.8121 22.268 89.956 19.1241 89.956 15.246C89.956 11.3679 86.8121 8.224 82.934 8.224C79.0558 8.224 75.912 11.3679 75.912 15.246C75.912 19.1241 79.0558 22.268 82.934 22.268Z" fill="#3A95D2"/>
<path d="M82.9561 21.476C86.3968 21.476 89.1861 18.6867 89.1861 15.246C89.1861 11.8053 86.3968 9.01599 82.9561 9.01599C79.5153 9.01599 76.7261 11.8053 76.7261 15.246C76.7261 18.6867 79.5153 21.476 82.9561 21.476Z" fill="white"/>
<path d="M89.186 15.246C89.186 15.246 89.186 15.21 89.176 15.144C89.166 15.078 89.166 14.976 89.156 14.848L89.144 14.63C89.144 14.552 89.118 14.464 89.104 14.37C89.0761 14.1532 89.0326 13.9387 88.974 13.728C88.829 13.1456 88.5963 12.5886 88.284 12.076C87.8316 11.3226 87.225 10.6735 86.5038 10.1713C85.7827 9.66903 84.9635 9.32509 84.1 9.16205C83.8411 9.11308 83.5791 9.08234 83.316 9.07005C83.182 9.07005 83.048 9.05405 82.916 9.05605L82.506 9.07605C82.438 9.07605 82.368 9.07605 82.306 9.09005L82.106 9.12205C81.968 9.14405 81.828 9.16005 81.688 9.19005C81.4083 9.25259 81.133 9.33343 80.864 9.43205C80.5895 9.53163 80.3222 9.6499 80.064 9.78605C79.934 9.85805 79.808 9.94005 79.68 10.016C79.616 10.058 79.548 10.092 79.48 10.138L79.298 10.274C79.0506 10.4579 78.8161 10.6584 78.596 10.874C78.3801 11.0997 78.1797 11.3395 77.996 11.592L77.854 11.792L77.728 11.992L77.604 12.192C77.5602 12.2598 77.5215 12.3307 77.488 12.404C77.42 12.548 77.35 12.694 77.278 12.84C77.206 12.986 77.168 13.146 77.11 13.298C76.9071 13.9292 76.7999 14.5871 76.792 15.25C76.7918 15.9112 76.8916 16.5687 77.088 17.2L77.256 17.66L77.466 18.096C77.4983 18.1694 77.5371 18.2397 77.582 18.306L77.706 18.506L77.83 18.706L77.974 18.906C78.1577 19.1586 78.3581 19.3984 78.574 19.624C78.7941 19.8397 79.0286 20.0402 79.276 20.224L79.458 20.36C79.518 20.406 79.586 20.44 79.648 20.482C79.778 20.558 79.904 20.64 80.034 20.712C80.2922 20.8482 80.5595 20.9665 80.834 21.066C81.103 21.1647 81.3783 21.2455 81.658 21.308C81.798 21.338 81.938 21.354 82.076 21.376L82.276 21.408C82.344 21.408 82.414 21.408 82.476 21.422L82.886 21.442C83.022 21.442 83.156 21.442 83.286 21.428C83.5491 21.4159 83.8111 21.3851 84.07 21.336C85.0155 21.1606 85.9063 20.7646 86.67 20.18C87.3042 19.701 87.8399 19.1041 88.248 18.422C88.5603 17.9095 88.793 17.3525 88.938 16.77C88.9966 16.5594 89.0401 16.3449 89.068 16.128C89.082 16.034 89.1 15.946 89.108 15.868L89.12 15.65C89.13 15.522 89.136 15.424 89.14 15.354C89.1416 15.3206 89.1449 15.2872 89.15 15.254V15.354C89.15 15.424 89.15 15.522 89.138 15.65C89.138 15.716 89.138 15.79 89.138 15.87C89.138 15.95 89.114 16.036 89.102 16.13C89.0764 16.3486 89.0356 16.5651 88.98 16.778C88.8388 17.3655 88.6088 17.928 88.298 18.446C87.8484 19.2061 87.243 19.8624 86.5215 20.3715C85.7999 20.8807 84.9788 21.2312 84.112 21.4C83.8479 21.4503 83.5805 21.4817 83.312 21.494C83.178 21.494 83.042 21.512 82.912 21.51L82.498 21.49C82.428 21.49 82.358 21.49 82.288 21.476L82.078 21.446C81.94 21.422 81.798 21.406 81.656 21.378C81.3726 21.3137 81.0935 21.2322 80.82 21.134C80.5395 21.0335 80.2662 20.9139 80.002 20.776C79.87 20.704 79.742 20.62 79.602 20.542C79.538 20.502 79.47 20.466 79.402 20.42L79.218 20.282C78.9671 20.0987 78.7292 19.8982 78.506 19.682C78.2843 19.4544 78.0784 19.2119 77.89 18.956L77.746 18.756L77.62 18.556L77.494 18.356C77.45 18.2874 77.4106 18.2159 77.376 18.142L77.164 17.698C77.106 17.544 77.05 17.39 76.992 17.234C76.7861 16.5938 76.6769 15.9265 76.668 15.254C76.6783 14.5785 76.7903 13.9083 77 13.266C77.058 13.11 77.114 12.954 77.172 12.8C77.23 12.646 77.314 12.506 77.384 12.358C77.4182 12.284 77.4576 12.2125 77.502 12.144L77.628 11.944L77.754 11.744L77.898 11.544C78.2656 11.0256 78.7163 10.5715 79.232 10.2L79.418 10.062C79.4823 10.0177 79.5491 9.97699 79.618 9.94005C79.748 9.86205 79.876 9.77805 80.008 9.70605C80.2722 9.56823 80.5455 9.44862 80.826 9.34805C81.0995 9.24992 81.3786 9.16844 81.662 9.10405C81.804 9.07605 81.944 9.06005 82.084 9.03805L82.294 9.00605C82.364 9.00605 82.434 9.00605 82.504 8.99205L82.918 8.97205C83.056 8.97205 83.192 8.98405 83.318 8.98805C83.5865 9.00039 83.8539 9.03181 84.118 9.08205C84.9905 9.24811 85.8176 9.59817 86.5442 10.1089C87.2708 10.6196 87.8803 11.2793 88.332 12.044C88.639 12.5653 88.8643 13.1305 89 13.72C89.0556 13.933 89.0964 14.1495 89.122 14.368C89.134 14.462 89.15 14.548 89.158 14.628C89.166 14.708 89.158 14.782 89.158 14.848C89.158 14.976 89.158 15.074 89.17 15.144L89.186 15.246Z" fill="#263238"/>
<path d="M85.86 15.07C85.7781 15.1008 85.6938 15.1249 85.608 15.142L84.914 15.308C84.324 15.444 83.514 15.628 82.594 15.828L82.542 15.84V15.6C82.542 14.622 82.542 13.74 82.554 13.1C82.554 12.792 82.564 12.536 82.568 12.342C82.5667 12.249 82.5721 12.1561 82.584 12.064C82.5974 12.156 82.6034 12.249 82.602 12.342C82.602 12.542 82.602 12.792 82.616 13.1C82.616 13.74 82.628 14.622 82.628 15.6V15.78L82.576 15.738C83.488 15.538 84.308 15.364 84.9 15.242L85.602 15.104C85.6868 15.0846 85.7731 15.0733 85.86 15.07Z" fill="#263238"/>
<path d="M90.126 17.6C90.1327 17.5653 90.142 17.5312 90.154 17.498C90.172 17.432 90.21 17.338 90.244 17.214C90.3512 16.8644 90.4327 16.5074 90.488 16.146C90.6776 14.9512 90.5638 13.7279 90.157 12.5886C89.7502 11.4493 89.0635 10.4305 88.16 9.62598C87.8878 9.38154 87.5984 9.15696 87.294 8.95398C87.188 8.87798 87.094 8.82998 87.044 8.78998C87.0134 8.77285 86.9846 8.75275 86.958 8.72998C86.9907 8.74234 87.0222 8.75774 87.052 8.77598C87.112 8.80998 87.204 8.85398 87.312 8.92598C87.626 9.11837 87.9231 9.33716 88.2 9.57998C89.1257 10.3806 89.8285 11.4072 90.2399 12.5599C90.6514 13.7126 90.7575 14.9521 90.548 16.158C90.4874 16.5216 90.3964 16.8795 90.276 17.228C90.236 17.352 90.194 17.444 90.17 17.508C90.159 17.5403 90.1443 17.5712 90.126 17.6Z" fill="#263238"/>
<path d="M91.32 14.536C91.306 14.536 91.298 14.288 91.248 13.892C91.1208 12.8561 90.7803 11.8578 90.248 10.96C90.048 10.616 89.898 10.416 89.91 10.406C89.9533 10.4457 89.9922 10.4899 90.026 10.538C90.096 10.626 90.19 10.758 90.3 10.938C90.5832 11.382 90.8128 11.858 90.984 12.356C91.1544 12.8544 91.2645 13.3714 91.312 13.896C91.33 14.096 91.336 14.26 91.336 14.372C91.3374 14.4271 91.332 14.4822 91.32 14.536Z" fill="#263238"/>
<path d="M76.272 11.884C76.2628 11.9179 76.2487 11.9503 76.23 11.98C76.2 12.042 76.148 12.128 76.094 12.246C75.9339 12.5747 75.7969 12.9142 75.684 13.262C75.2598 14.5906 75.2236 16.0126 75.5796 17.361C75.9357 18.7094 76.6692 19.9281 77.694 20.874C77.786 20.966 77.866 21.028 77.916 21.074C77.9433 21.096 77.9681 21.1208 77.99 21.148C77.9591 21.1315 77.9302 21.1114 77.904 21.088C77.85 21.046 77.768 20.986 77.672 20.9C77.3928 20.6598 77.1345 20.3962 76.9 20.112C76.1127 19.1747 75.5815 18.0495 75.3583 16.8459C75.135 15.6423 75.2273 14.4014 75.626 13.244C75.744 12.8953 75.8905 12.5568 76.064 12.232C76.124 12.116 76.18 12.032 76.214 11.972C76.2315 11.9415 76.2508 11.9121 76.272 11.884Z" fill="#263238"/>
<path d="M74.6 14.722C74.614 14.722 74.582 14.97 74.57 15.37C74.552 15.8902 74.5869 16.4109 74.674 16.924C74.7638 17.4368 74.9045 17.9392 75.094 18.424C75.24 18.796 75.354 19.024 75.34 19.024C75.3022 18.9791 75.2706 18.9294 75.246 18.876C75.192 18.778 75.118 18.632 75.046 18.448C74.8381 17.9648 74.6884 17.4586 74.6 16.94C74.5122 16.421 74.4854 15.8934 74.52 15.368C74.534 15.168 74.556 15.004 74.574 14.894C74.5749 14.8358 74.5836 14.7779 74.6 14.722Z" fill="#263238"/>
<path d="M87.962 16.274C87.726 16.226 87.536 16.184 87.536 16.182C87.536 16.18 87.736 16.218 87.964 16.266C88.192 16.314 88.388 16.354 88.388 16.356C88.388 16.358 88.2 16.322 87.962 16.274Z" fill="#263238"/>
<path d="M87.962 16.274C87.962 16.26 88.062 16.274 88.218 16.288L88.346 16.306H88.38H88.4C88.4 16.306 88.356 16.306 88.354 16.336C88.3509 16.3461 88.3514 16.357 88.3554 16.3669C88.3594 16.3767 88.3667 16.3849 88.376 16.39L88.302 16.376L87.97 16.31L87.64 16.24L87.568 16.224C87.5788 16.2221 87.5886 16.2164 87.5955 16.208C87.6025 16.1995 87.6062 16.1889 87.606 16.178C87.606 16.156 87.572 16.13 87.576 16.136H87.586H87.62L87.744 16.17C87.896 16.212 87.988 16.244 87.986 16.258C87.8999 16.2705 87.812 16.265 87.728 16.242L87.602 16.22H87.566H87.55C87.55 16.22 87.512 16.2 87.516 16.176C87.52 16.152 87.532 16.132 87.558 16.132H87.588L87.664 16.144C87.768 16.16 87.88 16.182 87.998 16.206C88.116 16.23 88.228 16.256 88.328 16.28L88.402 16.298H88.43C88.4401 16.3034 88.4479 16.3122 88.4523 16.3227C88.4566 16.3333 88.4573 16.345 88.454 16.356C88.454 16.378 88.406 16.392 88.404 16.386H88.388H88.354L88.2 16.36C88.052 16.32 87.958 16.288 87.962 16.274Z" fill="#263238"/>
<path d="M87.358 17.844C87.158 17.722 86.984 17.622 86.986 17.62C86.988 17.618 87.156 17.714 87.362 17.836C87.568 17.958 87.736 18.058 87.734 18.06C87.732 18.062 87.564 17.966 87.358 17.844Z" fill="#263238"/>
<path d="M87.3581 17.844C87.3581 17.832 87.4561 17.87 87.5961 17.94L87.7101 18L87.7401 18.014C87.7401 18.014 87.6961 18.014 87.6881 18.028C87.681 18.036 87.6772 18.0463 87.6772 18.057C87.6772 18.0677 87.681 18.078 87.6881 18.086C87.6881 18.086 87.6881 18.086 87.6781 18.086L87.6141 18.048L87.3221 17.88L87.0321 17.706L86.9681 17.668C86.9789 17.6701 86.9901 17.6682 86.9996 17.6627C87.0092 17.6572 87.0164 17.6484 87.0201 17.638C87.0341 17.618 87.0041 17.582 87.0061 17.59L87.0361 17.608L87.1421 17.68C87.2721 17.77 87.3421 17.83 87.3421 17.842C87.3421 17.854 87.2441 17.816 87.1041 17.744L86.9901 17.682L86.9581 17.664C86.9581 17.664 86.9261 17.632 86.9401 17.612C86.9437 17.6012 86.9513 17.5921 86.9613 17.5866C86.9713 17.5811 86.9829 17.5794 86.9941 17.582L87.0221 17.594L87.0901 17.63C87.1821 17.6807 87.2801 17.7367 87.3841 17.798C87.4881 17.858 87.5841 17.918 87.6741 17.974L87.7381 18.016L87.7601 18.032C87.7667 18.041 87.7703 18.0518 87.7703 18.063C87.7703 18.0742 87.7667 18.085 87.7601 18.094C87.7501 18.114 87.7021 18.112 87.7021 18.106H87.6921L87.6621 18.088L87.5521 18.018C87.4281 17.918 87.3501 17.856 87.3581 17.844Z" fill="#263238"/>
<path d="M86.274 19.132C86.12 18.948 86 18.8 86 18.8C86 18.8 86.13 18.946 86.286 19.128C86.442 19.31 86.566 19.46 86.564 19.46C86.562 19.46 86.43 19.314 86.274 19.132Z" fill="#263238"/>
<path d="M86.274 19.132C86.286 19.132 86.358 19.188 86.474 19.3L86.564 19.392L86.588 19.418C86.588 19.418 86.548 19.398 86.534 19.418C86.5244 19.4238 86.5175 19.4331 86.5145 19.4438C86.5115 19.4546 86.5128 19.4661 86.518 19.476L86.468 19.418L86.248 19.164L86.03 18.906L85.982 18.848C85.9915 18.8531 86.0026 18.8548 86.0132 18.8526C86.0238 18.8504 86.0333 18.8445 86.04 18.836C86.06 18.822 86.04 18.776 86.04 18.784L86.062 18.812L86.138 18.914C86.232 19.04 86.286 19.114 86.274 19.132C86.262 19.15 86.19 19.076 86.074 18.96L85.986 18.866L85.962 18.838C85.962 18.838 85.944 18.8 85.962 18.782C85.9706 18.7747 85.9816 18.7706 85.993 18.7706C86.0043 18.7706 86.0153 18.7747 86.024 18.782C86.0321 18.7877 86.0395 18.7944 86.046 18.802L86.098 18.858C86.17 18.934 86.244 19.02 86.322 19.112C86.4 19.204 86.474 19.292 86.538 19.374L86.586 19.434C86.586 19.434 86.586 19.434 86.602 19.456C86.618 19.478 86.602 19.514 86.586 19.516C86.57 19.518 86.526 19.516 86.528 19.516L86.506 19.488L86.424 19.386C86.318 19.224 86.264 19.14 86.274 19.132Z" fill="#263238"/>
<path d="M84.834 20C84.746 19.778 84.676 19.6 84.678 19.6C84.68 19.6 84.754 19.778 84.842 20C84.93 20.222 85 20.4 84.998 20.4C84.996 20.4 84.922 20.222 84.834 20Z" fill="#263238"/>
<path d="M84.834 20C84.848 20 84.896 20.08 84.964 20.222L85.018 20.338L85.032 20.37C85.032 20.37 85 20.336 84.982 20.348C84.971 20.3504 84.9614 20.3569 84.955 20.3662C84.9487 20.3755 84.9462 20.3869 84.948 20.398L84.918 20.33C84.876 20.226 84.834 20.13 84.792 20.016L84.67 19.702L84.642 19.632C84.6502 19.6386 84.6604 19.6423 84.671 19.6423C84.6816 19.6423 84.6918 19.6386 84.7 19.632C84.724 19.632 84.722 19.576 84.72 19.582V19.6L84.732 19.632L84.772 19.754C84.82 19.904 84.844 19.998 84.83 20.004C84.816 20.01 84.768 19.924 84.702 19.78C84.686 19.74 84.668 19.702 84.65 19.662L84.636 19.63V19.6C84.636 19.6 84.636 19.556 84.654 19.548C84.672 19.54 84.7 19.548 84.714 19.548C84.7201 19.5565 84.7248 19.566 84.728 19.576L84.76 19.646C84.802 19.74 84.846 19.846 84.89 19.958C84.934 20.07 84.976 20.176 85.01 20.274L85.036 20.348C85.036 20.348 85.036 20.348 85.036 20.374C85.036 20.4 85.016 20.428 85.004 20.426C84.992 20.424 84.946 20.404 84.95 20.4L84.938 20.366C84.924 20.326 84.91 20.286 84.894 20.244C84.8587 20.1672 84.8383 20.0844 84.834 20Z" fill="#263238"/>
<path d="M83.2 20.352C83.19 20.112 83.182 19.918 83.184 19.918C83.186 19.918 83.198 20.118 83.208 20.35C83.218 20.582 83.226 20.784 83.224 20.784C83.222 20.784 83.2 20.6 83.2 20.352Z" fill="#263238"/>
<path d="M83.2 20.3521C83.214 20.3521 83.232 20.4481 83.25 20.6041L83.264 20.7321V20.7741C83.264 20.7741 83.246 20.7321 83.224 20.7381C83.202 20.7441 83.176 20.7501 83.176 20.7721V20.6961C83.176 20.5841 83.164 20.4741 83.158 20.3601C83.152 20.2461 83.158 20.1341 83.146 20.0221V19.9401C83.1504 19.9502 83.1581 19.9586 83.168 19.9637C83.1778 19.9688 83.1891 19.9703 83.2 19.9681C83.224 19.9681 83.238 19.9221 83.234 19.9281V19.9721C83.234 20.0141 83.234 20.0561 83.234 20.1001C83.2424 20.1863 83.2336 20.2733 83.208 20.3561C83.1753 20.2754 83.159 20.1891 83.16 20.1021C83.16 20.0581 83.16 20.0161 83.16 19.9741V19.9221C83.16 19.9221 83.16 19.8781 83.194 19.8781C83.228 19.8781 83.24 19.8781 83.248 19.9081C83.2491 19.918 83.2491 19.9281 83.248 19.9381V20.0141C83.248 20.1181 83.264 20.2321 83.268 20.3521C83.272 20.4721 83.278 20.5861 83.278 20.6921V20.7681C83.2791 20.7774 83.2791 20.7868 83.278 20.7961C83.278 20.8181 83.24 20.8401 83.228 20.8341C83.216 20.8281 83.182 20.7941 83.188 20.7921V20.7401C83.188 20.6981 83.188 20.6561 83.188 20.6121C83.1747 20.5254 83.1788 20.4371 83.2 20.3521Z" fill="#263238"/>
<path d="M81.52 20.15C81.586 19.92 81.642 19.734 81.644 19.734C81.646 19.734 81.594 19.922 81.528 20.152C81.462 20.382 81.404 20.568 81.402 20.568C81.4 20.568 81.452 20.38 81.52 20.15Z" fill="#263238"/>
<path d="M81.52 20.15C81.534 20.15 81.52 20.25 81.484 20.404C81.474 20.446 81.466 20.488 81.456 20.53V20.564V20.574C81.456 20.574 81.456 20.528 81.43 20.526C81.42 20.5223 81.4091 20.5221 81.399 20.5254C81.3888 20.5286 81.3801 20.5352 81.374 20.544L81.394 20.472C81.424 20.364 81.454 20.258 81.486 20.148C81.518 20.038 81.55 19.932 81.582 19.824L81.604 19.752C81.6048 19.7627 81.6091 19.7729 81.6164 19.7809C81.6237 19.7889 81.6334 19.7942 81.644 19.796C81.668 19.796 81.696 19.764 81.69 19.768L81.678 19.802L81.634 19.922C81.58 20.07 81.542 20.16 81.528 20.156C81.514 20.152 81.528 20.054 81.564 19.9L81.596 19.776V19.74C81.596 19.74 81.618 19.702 81.642 19.71C81.666 19.718 81.684 19.728 81.684 19.754C81.685 19.7639 81.685 19.774 81.684 19.784L81.666 19.86C81.642 19.96 81.612 20.072 81.578 20.186C81.544 20.3 81.51 20.412 81.478 20.51L81.452 20.582C81.4501 20.5911 81.4467 20.5999 81.442 20.608C81.4365 20.6179 81.4276 20.6254 81.4169 20.6291C81.4062 20.6327 81.3945 20.6324 81.384 20.628C81.362 20.628 81.352 20.578 81.358 20.576V20.562L81.368 20.526L81.41 20.404C81.466 20.236 81.506 20.146 81.52 20.15Z" fill="#263238"/>
<path d="M80 19.4181C80.138 19.2181 80.252 19.0641 80.254 19.0661C80.256 19.0681 80.146 19.2281 80.006 19.4241C79.866 19.6201 79.754 19.7761 79.752 19.7761C79.75 19.7761 79.866 19.6141 80 19.4181Z" fill="#263238"/>
<path d="M80 19.4179C80.012 19.4179 79.966 19.5139 79.884 19.6479C79.86 19.6839 79.838 19.7199 79.816 19.7559L79.798 19.7859C79.798 19.7859 79.81 19.74 79.798 19.732C79.7897 19.7248 79.779 19.7208 79.768 19.7208C79.757 19.7208 79.7464 19.7248 79.738 19.732L79.782 19.6699L79.982 19.3919C80.05 19.2999 80.114 19.2099 80.182 19.1179L80.226 19.0579C80.2232 19.0686 80.2243 19.0799 80.229 19.0898C80.2338 19.0997 80.242 19.1075 80.252 19.1119C80.272 19.1259 80.31 19.1 80.302 19.102L80.28 19.1279L80.2 19.2279C80.1 19.3499 80.034 19.4279 80.022 19.4139C80.01 19.3999 80.056 19.3179 80.14 19.1859C80.164 19.1479 80.186 19.1119 80.21 19.0779L80.23 19.0479C80.23 19.0479 80.264 19.0199 80.284 19.0339C80.2943 19.0391 80.3024 19.0478 80.3068 19.0585C80.3112 19.0691 80.3117 19.081 80.308 19.0919C80.296 19.1159 80.298 19.1079 80.294 19.1179L80.252 19.1839C80.196 19.2699 80.13 19.3639 80.052 19.4619C79.974 19.5599 79.914 19.6619 79.852 19.7359L79.804 19.796L79.786 19.8179C79.7774 19.8253 79.7664 19.8293 79.755 19.8293C79.7437 19.8293 79.7327 19.8253 79.724 19.8179C79.704 19.8079 79.71 19.76 79.724 19.76L79.744 19.7299L79.824 19.6279C79.926 19.4819 80 19.4099 80 19.4179Z" fill="#263238"/>
<path d="M78.8101 18.2341L79.1641 17.9821C79.1641 17.9821 79.0101 18.1001 78.8161 18.2401C78.6221 18.3801 78.4621 18.4921 78.4601 18.4901L78.8101 18.2341Z" fill="#263238"/>
<path d="M78.8101 18.234C78.8101 18.246 78.7481 18.312 78.6261 18.412L78.5261 18.494L78.5001 18.516C78.5001 18.516 78.5241 18.476 78.5001 18.46C78.4946 18.4506 78.486 18.4434 78.4758 18.4397C78.4655 18.436 78.4543 18.4361 78.4441 18.44L78.5041 18.396L78.7761 18.196L79.0521 17.996L79.1141 17.954C79.1073 17.9625 79.1036 17.9731 79.1036 17.984C79.1036 17.9949 79.1073 18.0055 79.1141 18.014C79.1281 18.036 79.1741 18.014 79.1661 18.014L79.1361 18.032L79.0281 18.102C78.8961 18.184 78.8081 18.232 78.8001 18.22C78.7921 18.208 78.8621 18.14 78.9861 18.042L79.0881 17.962L79.1161 17.94C79.1161 17.94 79.1561 17.924 79.1701 17.94C79.1841 17.956 79.1921 17.982 79.1701 18L79.1481 18.022L79.0881 18.07C79.0041 18.134 78.9141 18.202 78.8161 18.27C78.7181 18.338 78.6161 18.406 78.5381 18.47L78.4741 18.512L78.4501 18.526C78.4301 18.538 78.3921 18.526 78.3921 18.506C78.3921 18.486 78.3921 18.446 78.4021 18.45L78.4321 18.428L78.5381 18.358C78.7161 18.268 78.8001 18.222 78.8101 18.234Z" fill="#263238"/>
<path d="M78.064 16.7261C78.294 16.6561 78.48 16.6021 78.48 16.6041C78.48 16.6061 78.296 16.6641 78.066 16.7341C77.836 16.8041 77.65 16.8581 77.65 16.8561C77.65 16.8541 77.834 16.8001 78.064 16.7261Z" fill="#263238"/>
<path d="M78.064 16.726C78.064 16.74 77.978 16.78 77.832 16.836L77.712 16.88L77.678 16.892C77.678 16.892 77.714 16.864 77.704 16.842C77.694 16.82 77.68 16.8 77.658 16.806C77.636 16.812 77.658 16.806 77.668 16.806L77.738 16.782L78.062 16.682L78.384 16.586L78.456 16.566C78.4472 16.5724 78.4409 16.5817 78.4384 16.5924C78.4358 16.603 78.4371 16.6142 78.442 16.624C78.442 16.648 78.496 16.652 78.49 16.648H78.478H78.444L78.32 16.678C78.166 16.714 78.07 16.73 78.066 16.716C78.062 16.702 78.15 16.662 78.298 16.608C78.34 16.594 78.38 16.578 78.422 16.566L78.456 16.554H78.47C78.47 16.554 78.514 16.554 78.522 16.576C78.5269 16.5862 78.528 16.5979 78.525 16.6089C78.5221 16.6199 78.5154 16.6295 78.506 16.636L78.478 16.648L78.406 16.674C78.308 16.708 78.206 16.742 78.084 16.778C77.962 16.814 77.858 16.844 77.758 16.87L77.684 16.89H77.656C77.634 16.89 77.604 16.864 77.608 16.852C77.612 16.84 77.634 16.796 77.636 16.802H77.646L77.68 16.792L77.806 16.76C77.962 16.728 78.06 16.712 78.064 16.726Z" fill="#263238"/>
<path d="M77.8481 15.058C78.0881 15.058 78.2821 15.076 78.2821 15.078C78.2821 15.08 78.0821 15.078 77.8481 15.066L77.4141 15.046C77.4141 15.046 77.6001 15.048 77.8481 15.058Z" fill="#263238"/>
<path d="M77.848 15.058C77.7653 15.0842 77.6783 15.0937 77.592 15.086H77.418C77.418 15.086 77.462 15.072 77.458 15.05C77.4605 15.0391 77.4588 15.0277 77.4532 15.0181C77.4477 15.0084 77.4386 15.0012 77.428 14.998C77.428 14.998 77.428 14.998 77.438 14.998H77.512H77.85L78.188 15.012H78.262C78.2516 15.0156 78.2428 15.0229 78.2373 15.0324C78.2318 15.042 78.2299 15.0532 78.232 15.064C78.232 15.088 78.274 15.106 78.268 15.1H78.222L78.094 15.086C78.0078 15.0868 77.9223 15.0712 77.842 15.04C77.9246 15.014 78.0118 15.0051 78.098 15.014H78.28C78.28 15.014 78.322 15.028 78.32 15.052C78.3214 15.0633 78.3188 15.0747 78.3125 15.0842C78.3063 15.0937 78.2969 15.1007 78.286 15.104C78.2761 15.1057 78.2659 15.1057 78.256 15.104H78.178H77.84C77.72 15.104 77.606 15.104 77.502 15.086H77.426H77.398C77.376 15.086 77.356 15.046 77.364 15.034C77.372 15.022 77.406 14.99 77.408 14.996H77.46H77.588C77.6781 14.998 77.7667 15.0191 77.848 15.058Z" fill="#263238"/>
<path d="M78.186 13.4C78.41 13.486 78.586 13.558 78.586 13.56C78.586 13.562 78.402 13.494 78.186 13.408C77.97 13.322 77.786 13.252 77.786 13.25C77.786 13.248 77.962 13.324 78.186 13.4Z" fill="#263238"/>
<path d="M78.186 13.4001C78.186 13.4141 78.086 13.4001 77.936 13.3461L77.812 13.3061H77.78C77.78 13.3061 77.826 13.3061 77.828 13.2821C77.8335 13.2729 77.8352 13.2621 77.833 13.2517C77.8308 13.2413 77.8247 13.2321 77.816 13.2261C77.816 13.2261 77.816 13.2261 77.826 13.2261L77.896 13.2521L78.212 13.3701L78.526 13.4941L78.596 13.5201C78.5854 13.5204 78.5752 13.5243 78.5672 13.5312C78.5592 13.5381 78.5538 13.5476 78.552 13.5581C78.542 13.5821 78.578 13.6121 78.574 13.6041L78.542 13.5901L78.426 13.5361C78.284 13.4701 78.196 13.4241 78.202 13.4101C78.2882 13.4134 78.3731 13.4331 78.452 13.4681L78.576 13.5101L78.608 13.5221H78.618C78.618 13.5221 78.654 13.5481 78.644 13.5721C78.6416 13.5828 78.6355 13.5924 78.6267 13.599C78.6179 13.6056 78.607 13.6088 78.596 13.6081H78.566L78.492 13.5841L78.174 13.4681L77.86 13.3421L77.79 13.3101L77.766 13.2981C77.7566 13.2916 77.7499 13.282 77.747 13.271C77.7441 13.26 77.7451 13.2483 77.75 13.2381C77.75 13.2161 77.802 13.2101 77.804 13.2161L77.838 13.2301L77.956 13.2801C78.106 13.3481 78.2 13.4001 78.186 13.4001Z" fill="#263238"/>
<path d="M79.0401 11.96C79.2241 12.114 79.3721 12.24 79.3701 12.242C79.3681 12.244 79.2181 12.12 79.0361 11.966C78.8541 11.812 78.7041 11.686 78.7061 11.684C78.7081 11.682 78.8561 11.8 79.0401 11.96Z" fill="#263238"/>
<path d="M79.0401 11.96C79.0401 11.97 78.9481 11.918 78.8221 11.824C78.7861 11.8 78.7521 11.774 78.7181 11.748L78.6901 11.728C78.6901 11.728 78.7341 11.742 78.7441 11.728C78.7511 11.7199 78.755 11.7096 78.755 11.699C78.755 11.6883 78.7511 11.678 78.7441 11.67L78.8021 11.718L79.0621 11.932L79.3201 12.152L79.3761 12.2C79.3659 12.1961 79.3546 12.196 79.3444 12.1997C79.3341 12.2034 79.3255 12.2105 79.3201 12.22C79.3041 12.238 79.3201 12.28 79.3201 12.272L79.2961 12.248L79.2021 12.16C79.0901 12.05 79.0241 11.978 79.0321 11.96C79.0401 11.942 79.1241 12 79.2501 12.096L79.3521 12.174L79.3801 12.198C79.3801 12.198 79.4061 12.234 79.3901 12.254C79.3839 12.2632 79.3748 12.27 79.3643 12.2733C79.3537 12.2766 79.3423 12.2761 79.3321 12.272C79.3224 12.2683 79.3136 12.2629 79.3061 12.256L79.2441 12.21C79.1621 12.146 79.0741 12.074 78.9821 11.996C78.8901 11.918 78.8041 11.844 78.7261 11.774L78.6701 11.722L78.6501 11.702C78.6431 11.6931 78.6393 11.6822 78.6393 11.671C78.6393 11.6597 78.6431 11.6488 78.6501 11.64C78.6621 11.622 78.7101 11.64 78.7081 11.64L78.7341 11.664L78.8301 11.75C78.9841 11.876 79.0501 11.948 79.0401 11.96Z" fill="#263238"/>
<path d="M80.3201 10.8679C80.4441 11.0679 80.5421 11.2399 80.5401 11.2419C80.5381 11.2439 80.4361 11.0779 80.3121 10.8719C80.1881 10.6659 80.0901 10.4999 80.0921 10.4979C80.0941 10.4959 80.2001 10.6619 80.3201 10.8679Z" fill="#263238"/>
<path d="M80.3201 10.8679C80.3061 10.8679 80.2461 10.7979 80.1561 10.6679L80.0821 10.5619L80.0621 10.5339C80.0621 10.5339 80.0981 10.5619 80.1161 10.5479C80.1341 10.5339 80.1521 10.5119 80.1401 10.4939L80.1801 10.5579L80.3561 10.8439C80.4161 10.9439 80.4721 11.0439 80.5281 11.1359L80.5681 11.1999C80.56 11.1929 80.5497 11.189 80.5391 11.189C80.5284 11.189 80.5181 11.1929 80.5101 11.1999C80.4881 11.2119 80.4981 11.2579 80.4981 11.2499L80.4821 11.2199L80.4221 11.1059C80.3501 10.9659 80.3101 10.8759 80.3241 10.8699C80.3381 10.8639 80.3961 10.9379 80.4861 11.0699L80.5561 11.1779L80.5761 11.2099C80.5761 11.2099 80.5881 11.2519 80.5761 11.2639C80.5674 11.2713 80.5564 11.2753 80.5451 11.2753C80.5337 11.2753 80.5227 11.2713 80.5141 11.2639C80.5069 11.2569 80.5009 11.2488 80.4961 11.2399L80.4541 11.1759C80.3954 11.0879 80.3354 10.9919 80.2741 10.8879C80.2121 10.7859 80.1541 10.6879 80.1041 10.5959L80.0661 10.5279C80.0616 10.5202 80.0576 10.5122 80.0541 10.5039C80.0512 10.493 80.052 10.4814 80.0563 10.4709C80.0607 10.4604 80.0683 10.4517 80.0781 10.4459C80.0961 10.4339 80.1381 10.4579 80.1341 10.4639L80.1521 10.4959L80.2141 10.6079C80.2921 10.7699 80.3321 10.8599 80.3201 10.8679Z" fill="#263238"/>
<path d="M81.8821 10.248C81.9321 10.482 81.9721 10.672 81.9701 10.674C81.9681 10.676 81.9241 10.484 81.8741 10.25C81.8241 10.016 81.7841 9.82397 81.7861 9.82397C81.7881 9.82397 81.8321 10.014 81.8821 10.248Z" fill="#263238"/>
<path d="M81.882 10.248C81.868 10.248 81.834 10.158 81.792 10.008L81.756 9.88404V9.85004C81.756 9.85004 81.782 9.88805 81.802 9.88005C81.822 9.87205 81.846 9.85804 81.844 9.83604L81.86 9.90805C81.886 10.018 81.91 10.126 81.934 10.238C81.958 10.35 81.98 10.46 82.004 10.568L82.018 10.642C82.0125 10.6327 82.0038 10.6256 81.9934 10.6223C81.9831 10.619 81.9719 10.6196 81.962 10.624C81.936 10.624 81.932 10.674 81.934 10.668V10.656V10.622L81.914 10.496C81.8922 10.4125 81.8867 10.3256 81.898 10.24C81.912 10.24 81.946 10.328 81.986 10.48C81.998 10.524 82.008 10.564 82.02 10.606V10.642V10.656C82.02 10.656 82.02 10.7 81.994 10.706C81.968 10.712 81.946 10.706 81.936 10.686C81.926 10.666 81.936 10.666 81.936 10.656L81.916 10.582C81.89 10.482 81.864 10.37 81.838 10.252C81.812 10.134 81.792 10.022 81.772 9.92004L81.76 9.84405C81.76 9.84405 81.76 9.84404 81.76 9.81804C81.76 9.79204 81.79 9.76804 81.802 9.77204C81.814 9.77604 81.854 9.80204 81.85 9.80404V9.82004V9.85604L81.874 9.98204C81.8947 10.0692 81.8974 10.1598 81.882 10.248Z" fill="#263238"/>
<path d="M83.562 10.17C83.534 10.408 83.508 10.602 83.506 10.602C83.504 10.602 83.526 10.402 83.554 10.17C83.582 9.93804 83.608 9.73804 83.61 9.73804C83.612 9.73804 83.6 9.93204 83.562 10.17Z" fill="#263238"/>
<path d="M83.562 10.17C83.546 10.0854 83.546 9.99858 83.562 9.914V9.786V9.74C83.562 9.74 83.572 9.784 83.596 9.782C83.6064 9.78473 83.6174 9.78359 83.6269 9.77881C83.6365 9.77402 83.644 9.76591 83.648 9.756V9.83C83.636 9.942 83.622 10.052 83.61 10.166C83.598 10.28 83.582 10.39 83.568 10.5L83.558 10.576C83.5561 10.5654 83.5503 10.5559 83.5419 10.5493C83.5334 10.5426 83.5228 10.5393 83.512 10.54C83.486 10.54 83.466 10.578 83.472 10.574V10.562V10.528C83.472 10.488 83.488 10.446 83.494 10.402C83.524 10.248 83.548 10.152 83.562 10.154C83.5793 10.2391 83.5793 10.3269 83.562 10.412C83.562 10.456 83.562 10.498 83.562 10.54V10.576V10.6C83.562 10.6 83.546 10.64 83.52 10.638C83.494 10.636 83.476 10.626 83.472 10.6C83.4708 10.59 83.4708 10.58 83.472 10.57V10.492C83.472 10.388 83.492 10.274 83.506 10.156C83.52 10.038 83.536 9.922 83.552 9.82L83.566 9.744C83.566 9.744 83.566 9.744 83.566 9.718C83.566 9.692 83.61 9.68 83.62 9.688C83.63 9.696 83.66 9.732 83.656 9.734V9.75V9.786C83.656 9.828 83.644 9.87 83.636 9.914C83.6 10.078 83.576 10.172 83.562 10.17Z" fill="#263238"/>
<path d="M85.1781 10.6419C85.0741 10.8579 84.9881 11.0319 84.9781 11.0319C84.9681 11.0319 85.0581 10.8539 85.1621 10.6319C85.2661 10.4099 85.3521 10.2419 85.3621 10.2419C85.3721 10.2419 85.2821 10.4259 85.1781 10.6419Z" fill="#263238"/>
<path d="M85.1781 10.6419C85.1879 10.5559 85.2137 10.4725 85.2541 10.3959C85.2701 10.3559 85.2881 10.3159 85.3021 10.2779L85.3161 10.2459C85.3161 10.2459 85.3161 10.2899 85.3341 10.2959C85.3419 10.3034 85.3523 10.3076 85.3631 10.3076C85.3739 10.3076 85.3843 10.3034 85.3921 10.2959L85.3601 10.3639C85.3121 10.4639 85.2641 10.5639 85.2161 10.6679L85.0661 10.9719L85.0341 11.0399C85.0345 11.0293 85.0314 11.0188 85.0253 11.0101C85.0191 11.0014 85.0103 10.995 85.0001 10.9919C84.9781 10.9799 84.9441 11.0139 84.9521 11.0099L84.9701 10.9799L85.0321 10.8679C85.1101 10.7319 85.1641 10.6499 85.1761 10.6559C85.1881 10.6619 85.1581 10.7559 85.0981 10.9019L85.0461 11.0199L85.0321 11.0519V11.0619C85.0321 11.0619 85.0041 11.0959 84.9821 11.0839C84.9601 11.0719 84.9421 11.0579 84.9481 11.0339L84.9581 11.0039L84.9881 10.9339C85.0301 10.8379 85.0781 10.7339 85.1301 10.6259C85.1821 10.5179 85.2321 10.4259 85.2821 10.3219L85.3181 10.2559C85.3218 10.2474 85.3265 10.2394 85.3321 10.2319C85.3441 10.2119 85.3861 10.2099 85.3941 10.2319C85.4021 10.2539 85.4161 10.2859 85.4101 10.2859L85.3941 10.3179L85.3341 10.4319C85.2461 10.5659 85.2001 10.6479 85.1781 10.6419Z" fill="#263238"/>
<path d="M86.552 11.614C86.382 11.784 86.244 11.92 86.242 11.918C86.24 11.916 86.376 11.778 86.546 11.608C86.716 11.438 86.852 11.3 86.854 11.302C86.856 11.304 86.72 11.442 86.552 11.614Z" fill="#263238"/>
<path d="M86.552 11.614C86.542 11.602 86.6 11.524 86.704 11.414L86.788 11.318L86.812 11.292C86.812 11.292 86.794 11.332 86.812 11.346C86.8188 11.3545 86.8284 11.3603 86.8391 11.3621C86.8498 11.364 86.8608 11.3618 86.87 11.356L86.818 11.41C86.74 11.49 86.664 11.57 86.582 11.652L86.344 11.89L86.29 11.942C86.2944 11.932 86.2952 11.9207 86.2923 11.9102C86.2893 11.8996 86.2829 11.8904 86.274 11.884C86.258 11.866 86.214 11.884 86.222 11.884L86.248 11.86L86.344 11.776C86.462 11.672 86.544 11.61 86.544 11.622C86.544 11.634 86.494 11.71 86.39 11.822C86.36 11.854 86.332 11.886 86.302 11.916L86.278 11.942C86.278 11.942 86.24 11.964 86.222 11.942C86.213 11.9352 86.2067 11.9255 86.2041 11.9145C86.2016 11.9036 86.203 11.8921 86.208 11.882L86.226 11.858L86.278 11.802C86.348 11.724 86.428 11.642 86.512 11.556C86.596 11.47 86.678 11.392 86.756 11.32L86.812 11.268C86.8178 11.2611 86.8246 11.255 86.832 11.25C86.841 11.2433 86.8519 11.2397 86.863 11.2397C86.8742 11.2397 86.8851 11.2433 86.894 11.25C86.912 11.264 86.894 11.31 86.894 11.308L86.868 11.334L86.774 11.422C86.64 11.564 86.562 11.624 86.552 11.614Z" fill="#263238"/>
<path d="M87.536 12.976C87.32 13.084 87.146 13.176 87.136 13.176C87.126 13.176 87.308 13.086 87.524 12.976C87.74 12.866 87.914 12.776 87.914 12.786C87.914 12.796 87.75 12.87 87.536 12.976Z" fill="#263238"/>
<path d="M87.536 12.976C87.536 12.964 87.61 12.91 87.746 12.83L87.858 12.766L87.888 12.748C87.888 12.748 87.858 12.782 87.872 12.8C87.8757 12.8104 87.8829 12.8191 87.8925 12.8246C87.902 12.8301 87.9132 12.832 87.924 12.83C87.924 12.83 87.924 12.83 87.914 12.83L87.848 12.864L87.546 13.016L87.244 13.164L87.176 13.196C87.1829 13.1875 87.1866 13.1769 87.1866 13.166C87.1866 13.1551 87.1829 13.1445 87.176 13.136C87.176 13.114 87.12 13.12 87.126 13.122H87.138L87.168 13.108L87.288 13.058C87.3636 13.0162 87.4464 12.9891 87.532 12.978C87.532 12.992 87.456 13.046 87.32 13.124L87.206 13.186L87.174 13.202H87.164C87.164 13.202 87.12 13.202 87.11 13.188C87.1023 13.1795 87.098 13.1685 87.098 13.157C87.098 13.1455 87.1023 13.1345 87.11 13.126C87.1183 13.12 87.127 13.1147 87.136 13.11L87.204 13.072C87.296 13.0227 87.396 12.9707 87.504 12.916C87.612 12.864 87.716 12.814 87.81 12.772L87.88 12.74H87.906C87.928 12.74 87.962 12.756 87.96 12.768C87.958 12.78 87.944 12.828 87.94 12.824L87.908 12.84L87.79 12.894C87.634 12.958 87.542 13 87.536 12.976Z" fill="#263238"/>
<path d="M88.024 14.586C87.786 14.616 87.594 14.64 87.594 14.638C87.594 14.636 87.794 14.608 88.024 14.578C88.254 14.548 88.454 14.522 88.454 14.524C88.454 14.526 88.262 14.554 88.024 14.586Z" fill="#263238"/>
<path d="M88.0241 14.586C88.0241 14.57 88.1181 14.546 88.2721 14.514L88.3981 14.49H88.4321C88.4321 14.49 88.3921 14.512 88.4001 14.534C88.4081 14.556 88.4161 14.58 88.4381 14.578H88.3621L88.0281 14.624L87.6941 14.666H87.6181C87.6281 14.6612 87.636 14.6528 87.6401 14.6424C87.6442 14.632 87.6442 14.6204 87.6401 14.61C87.6401 14.586 87.5921 14.576 87.5981 14.58H87.6441H87.7721C87.9281 14.57 88.0261 14.57 88.0281 14.58C88.0301 14.59 87.9361 14.62 87.7801 14.648L87.6541 14.67H87.6181H87.6001C87.6001 14.67 87.5561 14.67 87.5541 14.64C87.5521 14.61 87.5541 14.594 87.5781 14.584H87.6081L87.6841 14.572C87.7861 14.554 87.9001 14.538 88.0181 14.522C88.1361 14.506 88.2521 14.492 88.3561 14.484H88.4321H88.4601C88.4821 14.484 88.5061 14.516 88.5021 14.528C88.4981 14.54 88.4681 14.578 88.4641 14.574H88.4481H88.4121L88.2841 14.586C88.1983 14.6034 88.1099 14.6034 88.0241 14.586Z" fill="#263238"/>
<path d="M91.76 13.8C91.6668 14.0818 91.5462 14.3538 91.4 14.612V14.632L91.366 14.698L91.326 14.636C91.1555 14.4022 91.0081 14.1524 90.886 13.89C91.0803 14.1049 91.2525 14.3387 91.4 14.588H91.324L91.334 14.57C91.4511 14.3004 91.5937 14.0425 91.76 13.8Z" fill="#263238"/>
<path d="M36.1105 38.375C39.01 37.0961 40.3238 33.7089 39.045 30.8094C37.7662 27.9099 34.3789 26.596 31.4794 27.8749C28.5799 29.1537 27.2661 32.541 28.5449 35.4405C29.8238 38.34 33.211 39.6538 36.1105 38.375Z" fill="white"/>
<path d="M39.5419 37.726C39.5419 37.726 39.4779 37.726 39.3739 37.764C39.2261 37.8146 39.0976 37.9096 39.0059 38.036C38.9417 38.1212 38.8973 38.2196 38.8759 38.324C38.8534 38.4437 38.8659 38.5673 38.9119 38.68C38.9587 38.8125 39.0449 38.9275 39.159 39.0095C39.273 39.0915 39.4095 39.1366 39.5499 39.1388C39.6904 39.141 39.8282 39.1001 39.9447 39.0217C40.0613 38.9432 40.151 38.831 40.2019 38.7C40.2516 38.5891 40.2683 38.4662 40.2499 38.346C40.2318 38.2411 40.1908 38.1414 40.1299 38.054C40.0416 37.9254 39.9159 37.827 39.7699 37.772C39.6659 37.734 39.6019 37.732 39.6039 37.726H39.6479C39.6665 37.7245 39.6853 37.7245 39.7039 37.726C39.7284 37.7299 39.7525 37.7359 39.7759 37.744C39.9064 37.7871 40.0231 37.8641 40.1141 37.967C40.2051 38.07 40.2672 38.1953 40.2939 38.33C40.315 38.4592 40.299 38.5916 40.2479 38.712C40.1902 38.8432 40.0983 38.9565 39.9819 39.04C39.8582 39.1354 39.7059 39.1861 39.5498 39.1839C39.3937 39.1817 39.2429 39.1268 39.1219 39.028C39.0077 38.9405 38.9193 38.8237 38.8659 38.69C38.8174 38.5681 38.8056 38.4346 38.8319 38.306C38.8634 38.1726 38.9296 38.0499 39.0237 37.9501C39.1178 37.8504 39.2365 37.7773 39.3679 37.738C39.3917 37.7293 39.4166 37.7239 39.4419 37.722H39.4959L39.5419 37.726Z" fill="#263238"/>
<path d="M39.518 34C39.518 34 39.518 33.968 39.518 33.906C39.518 33.844 39.532 33.752 39.542 33.632C39.542 33.572 39.554 33.506 39.562 33.432C39.57 33.358 39.562 33.276 39.562 33.186V32.902C39.5659 32.8494 39.5659 32.7966 39.562 32.744C39.562 32.69 39.55 32.636 39.544 32.578C39.4929 32.0229 39.358 31.4787 39.144 30.964C38.8665 30.2789 38.459 29.654 37.944 29.124L37.726 28.902C37.648 28.832 37.566 28.766 37.484 28.702L37.36 28.598C37.3192 28.5614 37.2758 28.5279 37.23 28.498L36.958 28.31C36.91 28.28 36.866 28.246 36.818 28.216L36.668 28.134L36.366 27.968C36.264 27.916 36.154 27.874 36.046 27.826L35.882 27.756L35.798 27.722L35.712 27.696C35.4814 27.6134 35.2455 27.5466 35.006 27.496C34.884 27.474 34.762 27.442 34.638 27.426L34.258 27.386C34.194 27.386 34.13 27.372 34.058 27.37H33.858C33.728 27.37 33.596 27.37 33.458 27.37C33.1893 27.3884 32.9221 27.4238 32.658 27.476L32.458 27.516L32.358 27.538L32.26 27.568L31.86 27.688C31.73 27.734 31.604 27.792 31.474 27.844C31.41 27.874 31.342 27.896 31.274 27.928L31.088 28.028C30.8349 28.1616 30.591 28.312 30.358 28.478L30.02 28.75L29.934 28.82L29.856 28.896L29.7 29.05L29.542 29.206L29.398 29.374L29.254 29.546L29.182 29.63L29.118 29.722L28.864 30.094L28.644 30.494C28.0727 31.5975 27.8788 32.8578 28.092 34.082C28.122 34.232 28.15 34.38 28.18 34.528L28.312 34.958L28.346 35.066L28.388 35.168L28.474 35.368L28.558 35.568L28.662 35.768L28.766 35.968L28.818 36.064L28.878 36.156C28.958 36.276 29.04 36.398 29.118 36.518C29.2902 36.7466 29.478 36.9631 29.68 37.166L29.828 37.318C29.876 37.368 29.934 37.41 29.986 37.456C30.094 37.544 30.198 37.638 30.308 37.722L30.648 37.956L30.732 38.014L30.822 38.064L31 38.162C31.2338 38.2907 31.4756 38.4042 31.724 38.502C31.848 38.548 31.974 38.582 32.098 38.622L32.282 38.68C32.344 38.698 32.408 38.708 32.482 38.722L32.854 38.8C32.978 38.82 33.104 38.828 33.228 38.842C33.4709 38.8692 33.7156 38.8785 33.96 38.87H34.05H34.14L34.316 38.852C34.434 38.84 34.552 38.834 34.666 38.814L35.004 38.748L35.17 38.714L35.332 38.666L35.65 38.57C35.7017 38.5543 35.7524 38.5356 35.802 38.514L35.952 38.452C36.05 38.41 36.152 38.372 36.244 38.328L36.52 38.182C37.1701 37.8287 37.7459 37.3534 38.216 36.782L38.4 36.6L38.53 36.41L38.658 36.226C38.678 36.196 38.7 36.168 38.718 36.136L38.768 36.044C38.836 35.922 38.902 35.806 38.968 35.694C39.034 35.582 39.07 35.468 39.116 35.364L39.184 35.21C39.2061 35.162 39.2248 35.1126 39.24 35.062C39.27 34.966 39.298 34.876 39.326 34.792C39.354 34.708 39.38 34.63 39.398 34.558C39.416 34.486 39.428 34.42 39.44 34.358C39.466 34.24 39.486 34.158 39.498 34.09C39.51 34.022 39.52 33.998 39.52 33.998C39.52 33.998 39.52 34.03 39.504 34.09C39.488 34.15 39.474 34.242 39.45 34.36C39.44 34.42 39.426 34.486 39.412 34.56C39.398 34.634 39.366 34.71 39.342 34.794C39.318 34.878 39.286 34.97 39.256 35.068C39.2424 35.1182 39.2243 35.167 39.202 35.214L39.136 35.37C39.09 35.474 39.048 35.59 38.99 35.702L38.79 36.056L38.74 36.148C38.722 36.18 38.7 36.208 38.68 36.238L38.554 36.422C38.51 36.486 38.468 36.55 38.422 36.622C38.376 36.694 38.32 36.746 38.268 36.808C37.7972 37.3802 37.2198 37.8557 36.568 38.208L36.292 38.356C36.196 38.4 36.092 38.438 35.996 38.48L35.846 38.542C35.7963 38.5654 35.7448 38.5848 35.692 38.6L35.374 38.698L35.212 38.746L35.044 38.78L34.702 38.848C34.588 38.868 34.47 38.874 34.35 38.888L34.172 38.906C34.142 38.906 34.112 38.906 34.082 38.906H34C33.7536 38.9142 33.5071 38.9055 33.262 38.88C33.138 38.866 33.01 38.858 32.886 38.838L32.508 38.76C32.446 38.746 32.382 38.736 32.308 38.718L32.122 38.66C31.998 38.62 31.87 38.584 31.746 38.538C31.4945 38.4415 31.2499 38.3279 31.014 38.198L30.834 38.098L30.744 38.048L30.66 37.99L30.316 37.754C30.204 37.67 30.1 37.576 29.992 37.486C29.9356 37.442 29.8816 37.3953 29.83 37.346L29.682 37.194C29.478 36.9891 29.2882 36.7706 29.114 36.54L28.878 36.2L28.818 36.108L28.764 36.012L28.66 35.812L28.556 35.612L28.468 35.412L28.382 35.212L28.34 35.108L28.306 35C28.262 34.856 28.218 34.71 28.172 34.564L28.082 34.116C27.9836 33.5009 27.9782 32.8746 28.066 32.258C28.1673 31.6441 28.3615 31.0493 28.642 30.494L28.862 30.094L29.12 29.72L29.184 29.626L29.258 29.54L29.402 29.368L29.546 29.198L29.706 29.042L29.864 28.886L29.944 28.808L30.03 28.74C30.1433 28.6453 30.2573 28.5533 30.372 28.464C30.6068 28.2962 30.8527 28.1445 31.108 28.01L31.296 27.91C31.36 27.876 31.426 27.854 31.496 27.826C31.626 27.774 31.754 27.716 31.886 27.668L32.286 27.548L32.384 27.516L32.486 27.496L32.686 27.456C32.95 27.4031 33.2172 27.3677 33.486 27.35C33.62 27.35 33.752 27.35 33.886 27.35H34.086C34.152 27.35 34.216 27.362 34.286 27.368L34.668 27.408C34.794 27.426 34.916 27.456 35.04 27.48C35.2817 27.5297 35.5197 27.5965 35.752 27.68L35.838 27.706L35.922 27.742L36.086 27.812C36.194 27.86 36.306 27.902 36.41 27.956L36.714 28.124L36.864 28.206L37.004 28.302L37.278 28.502C37.3246 28.5308 37.3682 28.5643 37.408 28.602L37.534 28.706C37.614 28.778 37.698 28.844 37.776 28.906L37.996 29.13C38.5118 29.6648 38.9193 30.2944 39.196 30.984C39.4081 31.5022 39.5396 32.0499 39.586 32.608C39.586 32.666 39.598 32.722 39.602 32.776C39.6069 32.8285 39.6069 32.8814 39.602 32.934C39.602 33.036 39.602 33.134 39.602 33.218C39.602 33.302 39.602 33.39 39.602 33.464C39.602 33.538 39.586 33.606 39.58 33.664C39.566 33.782 39.556 33.874 39.548 33.938C39.54 34.002 39.518 34 39.518 34Z" fill="#263238"/>
<path d="M32.284 31.856H33.094C33.0934 31.7638 33.1114 31.6724 33.1468 31.5872C33.1823 31.5021 33.2345 31.425 33.3004 31.3604C33.3662 31.2959 33.4444 31.2452 33.5302 31.2115C33.6161 31.1777 33.7078 31.1616 33.8 31.164C33.936 31.1593 34.07 31.197 34.1836 31.2719C34.2972 31.3468 34.3847 31.4552 34.434 31.582C34.4767 31.6882 34.4937 31.8029 34.4836 31.9169C34.4736 32.0309 34.4367 32.1409 34.376 32.238C34.238 32.464 33.938 32.67 33.392 32.574V34.4H34.192V33.332C34.5209 33.2356 34.809 33.0339 35.0121 32.7578C35.2151 32.4818 35.3219 32.1466 35.316 31.804C35.316 30.62 34.254 30.346 33.8 30.346C33.452 30.344 32.268 30.428 32.284 31.856Z" fill="#3A95D2"/>
<path d="M34.2019 34.774H33.3899V35.532H34.2019V34.774Z" fill="#3A95D2"/>
<path d="M56.334 85.2959C56.316 85.3199 53.534 83.2539 50.134 80.6839C46.734 78.1139 43.98 76.0119 44 75.9999C44.02 75.9879 46.8 78.0399 50.2 80.6119C53.6 83.1839 56.35 85.2739 56.334 85.2959Z" fill="#263238"/>
<path d="M42.734 85.5359C42.716 85.5139 45.49 83.3579 48.934 80.7219C52.378 78.0859 55.172 75.9659 55.19 75.9899C55.208 76.0139 52.428 78.1679 49 80.7999C45.572 83.4319 42.752 85.5579 42.734 85.5359Z" fill="#263238"/>
<path d="M44.78 73.6239L44.288 76.2819H45.018L45.77 73.6239H44.78Z" fill="#263238"/>
<path d="M43.514 75.5039C42.87 78.7419 40.368 90.8299 39.738 93.8819C39.7193 93.9652 39.7193 94.0516 39.7381 94.1348C39.7569 94.2181 39.794 94.2961 39.8466 94.3633C39.8992 94.4305 39.9661 94.4851 40.0425 94.5233C40.1188 94.5614 40.2027 94.5822 40.288 94.5839C40.4128 94.5832 40.5338 94.5409 40.632 94.4638C40.7301 94.3867 40.7998 94.279 40.83 94.1579L45.708 75.9759C45.7491 75.8296 45.7563 75.6759 45.7291 75.5263C45.7018 75.3768 45.6409 75.2355 45.5508 75.1131C45.4608 74.9906 45.344 74.8903 45.2094 74.8198C45.0748 74.7492 44.9259 74.7103 44.774 74.7059H44.466C44.2394 74.7081 44.0206 74.7888 43.847 74.9344C43.6734 75.0799 43.5557 75.2812 43.514 75.5039Z" fill="#455A64"/>
<path d="M54.4519 73.6239L54.9439 76.2819H54.2139L53.4619 73.6239H54.4519Z" fill="#263238"/>
<path d="M59.5999 70.2C58.1819 67.566 56.4919 59.524 55.7479 56.958C55.7279 56.886 55.7059 56.816 55.6839 56.748C55.4024 55.9259 54.8695 55.2132 54.1607 54.7107C53.4518 54.2082 52.6028 53.9414 51.7339 53.948H47.4479C46.5788 53.9416 45.7297 54.2085 45.0206 54.7109C44.3114 55.2134 43.7781 55.926 43.4959 56.748C43.4739 56.816 43.4519 56.886 43.4319 56.958C42.6879 59.524 40.9999 67.558 39.5799 70.2C39.5799 70.2 37.6879 71.314 38.2299 72.38C38.7499 73.406 43.6079 74.134 49.5899 73.942C55.5699 74.142 60.4279 73.406 60.9499 72.38C61.4899 71.314 59.5999 70.2 59.5999 70.2Z" fill="#E0E0E0"/>
<path d="M59.6 70.2C59.7649 70.2933 59.922 70.3996 60.07 70.518C60.254 70.6565 60.4247 70.8118 60.58 70.982C60.8051 71.208 60.9666 71.4895 61.048 71.798C61.0827 71.9879 61.059 72.1838 60.98 72.36C60.8772 72.5469 60.7194 72.6978 60.528 72.792C60.3294 72.9045 60.1204 72.9976 59.904 73.07C59.6724 73.1538 59.4368 73.2259 59.198 73.286C58.0703 73.5543 56.9235 73.7348 55.768 73.826C54.48 73.946 53.058 74.008 51.524 74.01C51.142 74.01 50.75 74.01 50.354 74.01C49.958 74.01 49.554 73.982 49.154 74.01C48.334 74.032 47.486 74.036 46.616 74.01C44.7813 73.992 42.9504 73.8396 41.138 73.554C40.6587 73.4737 40.1841 73.3682 39.716 73.238C39.4726 73.1736 39.2335 73.0941 39 73C38.7629 72.9085 38.5421 72.7795 38.346 72.618C38.2472 72.5276 38.1746 72.4122 38.136 72.284C38.126 72.254 38.112 72.222 38.104 72.19L38.092 72.092L38.08 71.994C38.08 71.96 38.08 71.928 38.09 71.894C38.1255 71.6344 38.229 71.3888 38.39 71.182C38.7131 70.7757 39.1067 70.4309 39.552 70.164L39.534 70.184C40.0197 69.1653 40.4211 68.1084 40.734 67.024C41.072 65.926 41.382 64.802 41.68 63.66C41.992 62.46 42.28 61.28 42.574 60.112C42.718 59.528 42.862 58.948 43.006 58.372C43.154 57.798 43.29 57.228 43.476 56.668C43.6697 56.1201 43.9768 55.6192 44.3773 55.1981C44.7777 54.7769 45.2625 54.445 45.8 54.224C46.3208 54.0115 46.8775 53.9008 47.44 53.898H51.428C51.685 53.893 51.9421 53.903 52.198 53.928C52.7013 53.9836 53.1909 54.1278 53.644 54.354C54.0815 54.5746 54.4774 54.8697 54.814 55.226C55.1429 55.5681 55.4089 55.9655 55.6 56.4L55.724 56.724C55.758 56.834 55.792 56.942 55.822 57.052C55.88 57.27 55.942 57.484 55.996 57.698C56.218 58.554 56.418 59.38 56.612 60.166C57.376 63.314 58.038 65.85 58.594 67.566C58.864 68.43 59.12 69.084 59.3 69.526C59.39 69.746 59.476 69.904 59.526 70.016C59.576 70.128 59.602 70.186 59.602 70.186C59.602 70.186 59.482 69.968 59.282 69.534C59.082 69.1 58.832 68.44 58.554 67.578C57.988 65.856 57.312 63.32 56.54 60.178C56.34 59.392 56.14 58.568 55.918 57.714C55.864 57.5 55.802 57.286 55.742 57.068C55.714 56.958 55.678 56.852 55.646 56.744C55.614 56.636 55.564 56.544 55.524 56.428C55.3395 56.0023 55.0816 55.6123 54.762 55.276C54.0843 54.5665 53.1759 54.1219 52.2 54.022C51.9475 53.9965 51.6936 53.9871 51.44 53.994H49.07C48.008 54.028 46.87 53.86 45.844 54.316C45.3197 54.5309 44.8464 54.8536 44.455 55.2633C44.0636 55.673 43.7627 56.1604 43.572 56.694C43.39 57.242 43.254 57.818 43.106 58.39C42.958 58.962 42.818 59.544 42.674 60.128C42.386 61.298 42.092 62.482 41.78 63.68C41.482 64.822 41.18 65.948 40.832 67.048C40.5205 68.138 40.1191 69.2003 39.632 70.224V70.236H39.618C39.1847 70.4959 38.8013 70.8312 38.486 71.226C38.3352 71.4179 38.2379 71.6463 38.204 71.888C38.204 71.918 38.204 71.948 38.204 71.976L38.214 72.064L38.224 72.152C38.224 72.18 38.244 72.208 38.252 72.236C38.2859 72.3481 38.3494 72.449 38.436 72.528C38.6231 72.682 38.8338 72.8049 39.06 72.892C39.2847 72.9859 39.5151 73.0654 39.75 73.13C40.2147 73.2602 40.686 73.3657 41.162 73.446C42.9609 73.7341 44.7783 73.8911 46.6 73.916C47.4706 73.9346 48.316 73.9346 49.136 73.916C49.536 73.894 49.95 73.916 50.348 73.916C50.746 73.916 51.134 73.928 51.516 73.928C53.048 73.928 54.468 73.87 55.754 73.756C56.9071 73.669 58.0519 73.4932 59.178 73.23C59.424 73.168 59.66 73.1 59.88 73.03C60.094 72.9581 60.3009 72.8663 60.498 72.756C60.6806 72.6694 60.8332 72.5301 60.936 72.356C61.0119 72.1875 61.0356 72.0001 61.004 71.818C60.925 71.5167 60.7693 71.2411 60.552 71.018C60.3986 70.8476 60.2307 70.691 60.05 70.55C59.906 70.434 59.79 70.35 59.71 70.3L59.6 70.2Z" fill="#263238"/>
<path d="M55.664 75.5039C56.31 78.7419 58.81 90.8299 59.442 93.8819C59.4607 93.9654 59.4606 94.0519 59.4417 94.1353C59.4228 94.2187 59.3856 94.2968 59.3327 94.3641C59.2799 94.4313 59.2127 94.4859 59.1361 94.5239C59.0596 94.5619 58.9755 94.5824 58.89 94.5839C58.7653 94.5825 58.6446 94.54 58.5466 94.463C58.4486 94.3859 58.3788 94.2787 58.348 94.1579L53.47 75.9759C53.4288 75.8295 53.4217 75.6755 53.449 75.5259C53.4764 75.3762 53.5375 75.2348 53.6277 75.1123C53.718 74.9898 53.835 74.8896 53.9699 74.8191C54.1047 74.7487 54.2539 74.71 54.406 74.7059H54.714C54.9403 74.7082 55.1588 74.789 55.3321 74.9346C55.5054 75.0801 55.6227 75.2814 55.664 75.5039Z" fill="#455A64"/>
<path d="M58.7199 71.6539L58.6739 71.6659L58.5399 71.6899L58.0219 71.7699C57.5719 71.8379 56.9179 71.9239 56.1099 72.0159C54.4919 72.1999 52.2479 72.3779 49.7619 72.4159C47.2759 72.4539 45.0259 72.3499 43.4039 72.2159C42.5919 72.1519 41.9359 72.0879 41.4839 72.0339L40.9639 71.9719L40.8299 71.9519C40.8141 71.9514 40.7985 71.948 40.7839 71.9419H40.8299H40.9659L41.4879 71.9859C41.9419 72.0279 42.5979 72.0799 43.4099 72.1359C45.0319 72.2459 47.2779 72.3359 49.7599 72.2999C52.2419 72.2639 54.4839 72.0999 56.1019 71.9239C56.9019 71.8419 57.5659 71.7679 58.0159 71.7119L58.5379 71.6499L58.6719 71.6379C58.6889 71.6399 58.7052 71.6454 58.7199 71.6539Z" fill="#263238"/>
<g opacity="0.3">
<path d="M57.452 70.7299C57.296 70.3459 56.674 70.2499 56.164 70.2259C51.3836 69.9942 46.5922 70.1789 41.844 70.7779C41.7081 70.7842 41.5755 70.8211 41.456 70.8859C41.35 70.9559 41.304 71.0859 41.396 71.1759L41.374 71.4139C46.094 72.4519 51.108 72.2359 55.974 71.7239C56.3403 71.708 56.7008 71.626 57.038 71.4819C57.342 71.3219 57.564 71.0119 57.452 70.7299Z" fill="black"/>
</g>
<path d="M43.3039 60.236C43.3039 60.236 40.7179 62.558 40.1799 65.172C39.3799 69.016 41.4499 72.016 41.4499 72.016C45.4339 72.228 48.9579 72.45 55.7579 72.016L55.8739 62.036L43.3039 60.236Z" fill="#263238"/>
<path d="M49.67 55.09C49.638 54.98 48.718 51.756 48.718 51.756L52.518 49.636L53.6 53.864L49.67 55.09Z" fill="#3A95D2"/>
<path d="M59.6779 47.23C59.2899 46.36 58.6559 45.81 57.6579 45.462L54.6279 44.6H47.5759C47.5759 44.6 44.3279 44.722 43.1619 46.378L43.7999 56.052C43.7999 56.052 43.9759 57.758 42.1279 61.49C42.1279 61.49 43.5279 63.29 45.7939 63.29C48.0599 63.29 55.7939 62.308 55.7939 62.308L56.5659 58.076L58.8599 52.97C59.3422 51.8799 59.7017 50.7395 59.9319 49.57C60.0803 48.782 59.9919 47.9678 59.6779 47.23Z" fill="#3A95D2"/>
<path d="M50.464 57.876C50.4481 57.8396 50.4347 57.8022 50.424 57.764C50.398 57.682 50.366 57.564 50.322 57.432C50.234 57.136 50.108 56.712 49.952 56.182C49.638 55.098 49.196 53.572 48.672 51.768L48.662 51.732L48.694 51.714L52.494 49.59L52.554 49.558L52.57 49.622C52.6 49.738 52.632 49.862 52.662 49.986C53.008 51.354 53.338 52.66 53.638 53.852H53.548C54.416 51.966 55.148 50.352 55.686 49.204L56.306 47.874L56.476 47.522C56.4933 47.4803 56.514 47.4402 56.538 47.402C56.5252 47.4451 56.5091 47.4872 56.49 47.528L56.336 47.886L55.736 49.228L53.632 53.892L53.574 54.02L53.54 53.884C53.238 52.694 52.906 51.386 52.558 50.02C52.526 49.896 52.494 49.772 52.466 49.656L52.542 49.69L48.74 51.8L48.764 51.746C49.272 53.546 49.7 55.084 50.006 56.17C50.152 56.704 50.268 57.13 50.352 57.428C50.388 57.57 50.418 57.68 50.438 57.764C50.4498 57.8005 50.4585 57.838 50.464 57.876Z" fill="#263238"/>
<path d="M43.53 45.958C43.0856 46.3356 42.7298 46.8064 42.4878 47.337C42.2458 47.8675 42.1237 48.4449 42.13 49.028C42.176 50.988 44.356 60.99 45.856 61.828C47.426 62.71 48.192 62.476 49.086 62.476C49.98 62.476 56.562 61.908 56.562 61.908L56.538 57.676L49.248 57.91L46.668 48.682L43.53 45.958Z" fill="#3A95D2"/>
<path d="M42.6539 52.3999C42.6539 52.3999 42.6659 52.4359 42.6839 52.5039C42.7019 52.5719 42.7299 52.6799 42.7639 52.8099C42.8319 53.0839 42.9319 53.4819 43.0599 53.9899C43.3219 55.0119 43.6939 56.4959 44.2139 58.3119C44.3459 58.7659 44.4899 59.2379 44.6559 59.7259C44.8167 60.2336 45.0527 60.7142 45.3559 61.1519C45.6873 61.6151 46.1448 61.9733 46.6739 62.1839C47.2417 62.3916 47.847 62.4761 48.4499 62.4319C49.6959 62.3839 51.0059 62.2879 52.3619 62.1899L56.5619 61.8679L56.5139 61.9199V61.7999C56.5139 60.3859 56.4979 58.9999 56.4919 57.6759L56.5439 57.7279L49.2519 57.9539H49.2179V57.9199C48.4479 55.1399 47.8179 52.8319 47.3619 51.2139C47.1419 50.4139 46.9619 49.7779 46.8519 49.3419C46.7946 49.1299 46.7506 48.9659 46.7199 48.8499C46.6919 48.7379 46.6799 48.6799 46.6799 48.6799C46.6799 48.6799 46.6999 48.7359 46.7339 48.8459C46.7679 48.9559 46.8139 49.1239 46.8759 49.3359C47.0019 49.7699 47.1819 50.3999 47.4099 51.2019C47.8659 52.8159 48.5179 55.1199 49.3019 57.8959L49.2579 57.8639L56.5499 57.6239H56.5999V57.6759C56.5999 59.0059 56.6159 60.3859 56.6239 61.7979V61.9559H56.5759L52.3759 62.2759C51.0179 62.3719 49.7099 62.4659 48.4579 62.5119C47.8424 62.556 47.2246 62.4681 46.6459 62.2539C46.1017 62.0349 45.6317 61.6642 45.2919 61.1859C44.9845 60.7411 44.7465 60.2522 44.5859 59.7359C44.4219 59.2459 44.2779 58.7699 44.1499 58.3159C43.6379 56.4959 43.2779 55.0099 43.0279 53.9839C42.9079 53.4719 42.8139 53.0739 42.7479 52.7999C42.7199 52.6679 42.6959 52.5639 42.6799 52.4899C42.6639 52.4159 42.6539 52.3999 42.6539 52.3999Z" fill="#263238"/>
<g opacity="0.3">
<path d="M46.442 62.1719C46.0061 61.9774 45.6388 61.6561 45.388 61.25C44.576 60.05 44.128 58.288 43.846 57.028L43.746 56.8979C43.8448 58.1358 44.0871 59.358 44.468 60.54C44.686 61.158 44.962 61.79 45.468 62.202C45.9514 62.5618 46.5415 62.7491 47.144 62.734C47.7413 62.7178 48.3349 62.6353 48.914 62.488C48.416 62.48 47.22 62.5179 46.442 62.1719Z" fill="black"/>
</g>
<g opacity="0.3">
<path d="M47.0659 50.094L49.7419 57.376L56.0479 57.696L49.2519 57.914L47.0659 50.094Z" fill="black"/>
</g>
<path d="M62.6339 79.98L63.3039 84.844C63.3039 84.844 68.4719 85.796 68.6839 86.684L59.2999 88.322L57.9459 80.786L62.6339 79.98Z" fill="#3A95D2"/>
<path d="M60.332 84.9439C60.246 84.9871 60.1785 85.0598 60.1418 85.1487C60.105 85.2375 60.1016 85.3367 60.132 85.4279C60.1719 85.5151 60.2438 85.5835 60.3329 85.6189C60.4219 85.6543 60.5212 85.6539 60.61 85.6179C60.7024 85.5743 60.7747 85.4969 60.8119 85.4017C60.8491 85.3065 60.8484 85.2007 60.81 85.1059C60.7589 85.0192 60.6761 84.9556 60.5791 84.9287C60.4821 84.9019 60.3784 84.9138 60.29 84.9619" fill="#E0E0E0"/>
<path d="M59.328 88.52L59.2 87.8L68.234 86.282C68.234 86.282 68.684 86.392 68.688 86.694L59.328 88.52Z" fill="#E0E0E0"/>
<path d="M63.4479 84.77C63.4479 84.816 63.2279 84.876 63.0299 85.064C62.8319 85.252 62.7419 85.464 62.6979 85.452C62.6539 85.44 62.6739 85.166 62.9199 84.944C63.1659 84.722 63.4499 84.726 63.4479 84.77Z" fill="#263238"/>
<path d="M64.504 84.9999C64.522 85.0419 64.336 85.1539 64.214 85.3759C64.092 85.5979 64.084 85.8099 64.038 85.8159C63.992 85.8219 63.918 85.5659 64.074 85.2959C64.23 85.0259 64.494 84.9619 64.504 84.9999Z" fill="#263238"/>
<path d="M65.2679 86.086C65.2279 86.102 65.1239 85.886 65.1979 85.614C65.2719 85.342 65.4679 85.204 65.4939 85.24C65.5199 85.276 65.4119 85.44 65.3539 85.656C65.2959 85.872 65.3119 86.074 65.2679 86.086Z" fill="#263238"/>
<path d="M63.172 83.6779C63.16 83.7239 62.938 83.6979 62.684 83.7599C62.43 83.8219 62.24 83.9399 62.208 83.9039C62.176 83.8679 62.344 83.6719 62.646 83.6019C62.948 83.5319 63.188 83.6379 63.172 83.6779Z" fill="#263238"/>
<path d="M56.4839 84.7999L57.1839 89.8819L61.3099 94.1999C61.3723 94.2669 61.4203 94.3461 61.4508 94.4324C61.4813 94.5187 61.4938 94.6104 61.4874 94.7017C61.4811 94.793 61.456 94.8821 61.4137 94.9633C61.3715 95.0446 61.313 95.1162 61.2419 95.1739C61.1594 95.2416 61.0617 95.2882 60.9572 95.3098C60.8527 95.3314 60.7445 95.3273 60.6419 95.2979C59.3139 94.9259 53.1839 92.6599 53.1839 92.6599C52.9459 91.6299 52.1079 86.8119 52.1079 86.8119L56.4839 84.7999Z" fill="#3A95D2"/>
<path d="M53.0339 92.0359L61.2339 95.1799C61.0639 95.3239 60.8339 95.4899 60.6199 95.4299L53.3219 92.7999C53.2878 92.788 53.2572 92.7676 53.2331 92.7407C53.209 92.7137 53.1921 92.6811 53.1839 92.6459L53.0339 92.0359Z" fill="#E0E0E0"/>
<path d="M54.4659 90.8739C54.5649 90.8873 54.6552 90.9372 54.7193 91.0138C54.7833 91.0904 54.8163 91.1882 54.8119 91.2879C54.8018 91.3857 54.7548 91.4759 54.6805 91.5402C54.6062 91.6045 54.5101 91.638 54.4119 91.6339C54.3072 91.6206 54.2111 91.5688 54.1423 91.4886C54.0736 91.4084 54.0371 91.3055 54.0399 91.1999C54.0608 91.0972 54.121 91.0068 54.2078 90.9481C54.2946 90.8894 54.4009 90.8671 54.5039 90.8859" fill="white"/>
<path d="M57.73 92.5159C57.77 92.5159 57.824 92.1559 58.15 91.8799C58.476 91.6039 58.84 91.5879 58.838 91.5459C58.836 91.5039 58.746 91.5019 58.594 91.5199C58.3949 91.5514 58.2087 91.6385 58.0569 91.7712C57.9051 91.9039 57.7938 92.0768 57.736 92.2699C57.698 92.4199 57.712 92.5159 57.73 92.5159Z" fill="#263238"/>
<path d="M58.784 93.35C58.824 93.362 58.9079 93.076 59.1599 92.832C59.4119 92.588 59.6919 92.5 59.6819 92.46C59.6719 92.42 59.3419 92.446 59.0599 92.73C58.7779 93.014 58.744 93.352 58.784 93.35Z" fill="#263238"/>
<path d="M56.488 91.724C56.524 91.746 56.764 91.356 57.218 91.05C57.672 90.744 58.118 90.65 58.11 90.616C58.102 90.582 57.62 90.6 57.136 90.932C56.652 91.264 56.452 91.712 56.488 91.724Z" fill="#263238"/>
<path d="M56.108 42.298C55.99 41.73 56.108 41.142 56.208 40.57C56.308 39.998 56.358 39.384 56.116 38.856C55.812 38.192 55.116 37.808 54.672 37.224C54.228 36.64 54.088 35.888 53.914 35.176C53.74 34.464 53.494 33.718 52.928 33.25C52.214 32.65 50.608 32.788 49.944 33.438C50.486 37.562 50.178 41.874 51.696 45.744C53.7243 45.5052 55.6467 44.7091 57.25 43.444C56.67 43.418 56.226 42.866 56.108 42.298Z" fill="#263238"/>
<path d="M48.266 46.04L45.61 36.416C45.564 36.198 45.6016 35.9707 45.7153 35.7792C45.829 35.5877 46.0106 35.4459 46.224 35.382L50.642 33.332C52.098 32.894 53.442 34.532 53.808 36.01C54.226 37.646 54.67 39.662 54.708 40.9339C54.784 43.4939 52.938 44.172 52.938 44.172L53.294 46.876L52.52 49.584L50.15 50.884L48.266 46.04Z" fill="#FFBE9D"/>
<path d="M53.188 38.0119C53.2047 38.0948 53.1883 38.181 53.1423 38.252C53.0964 38.323 53.0245 38.3732 52.942 38.3919C52.9022 38.4027 52.8606 38.4055 52.8197 38.4C52.7789 38.3946 52.7395 38.381 52.7039 38.3602C52.6683 38.3393 52.6373 38.3116 52.6126 38.2786C52.5879 38.2455 52.57 38.2079 52.56 38.1679C52.5433 38.085 52.5596 37.9988 52.6056 37.9278C52.6516 37.8568 52.7235 37.8066 52.806 37.7879C52.8458 37.7768 52.8874 37.7739 52.9284 37.7792C52.9694 37.7845 53.0088 37.798 53.0445 37.8189C53.0801 37.8398 53.1112 37.8677 53.1358 37.9008C53.1605 37.934 53.1782 37.9718 53.188 38.0119Z" fill="#263238"/>
<path d="M53.504 37.028C53.472 37.078 53.198 36.944 52.854 37.01C52.51 37.076 52.292 37.294 52.254 37.26C52.216 37.226 52.254 37.162 52.352 37.06C52.4811 36.9292 52.6473 36.8412 52.828 36.808C53.0066 36.7736 53.1914 36.7967 53.356 36.874C53.47 36.938 53.52 37 53.504 37.028Z" fill="#263238"/>
<path d="M50.0599 38.638C50.0761 38.7208 50.0595 38.8067 50.0136 38.8776C49.9677 38.9485 49.8962 38.9988 49.8139 39.018C49.774 39.0287 49.7323 39.0314 49.6913 39.0258C49.6503 39.0203 49.6109 39.0065 49.5753 38.9855C49.5397 38.9644 49.5087 38.9364 49.484 38.9032C49.4594 38.87 49.4417 38.8321 49.4319 38.792C49.4152 38.709 49.4316 38.6229 49.4776 38.5519C49.5235 38.4809 49.5954 38.4307 49.6779 38.412C49.7179 38.4012 49.7595 38.3985 49.8005 38.4041C49.8415 38.4097 49.881 38.4234 49.9166 38.4444C49.9522 38.4655 49.9832 38.4935 50.0078 38.5267C50.0324 38.5599 50.0501 38.5978 50.0599 38.638Z" fill="#263238"/>
<path d="M50.376 37.8539C50.344 37.9039 50.07 37.7699 49.726 37.8359C49.382 37.9019 49.164 38.1219 49.126 38.0859C49.088 38.0499 49.126 37.9879 49.224 37.8859C49.353 37.7551 49.5192 37.6671 49.7 37.6339C49.8785 37.6005 50.0631 37.6236 50.228 37.6999C50.342 37.7639 50.4 37.8319 50.376 37.8539Z" fill="#263238"/>
<path d="M51.94 40.1619C52.1103 40.0731 52.291 40.0059 52.478 39.9619C52.564 39.9359 52.644 39.9019 52.646 39.8399C52.6368 39.7483 52.5998 39.6618 52.54 39.5919L52.154 38.9739C51.614 38.0919 51.206 37.3599 51.242 37.3379C51.278 37.3159 51.744 38.0139 52.284 38.8959L52.658 39.5199C52.7329 39.6155 52.7718 39.7345 52.768 39.8559C52.7614 39.8889 52.7473 39.9199 52.7269 39.9466C52.7064 39.9733 52.6801 39.995 52.65 40.0099C52.6033 40.0319 52.5543 40.0486 52.504 40.0599C52.3212 40.1184 52.1316 40.1526 51.94 40.1619Z" fill="#263238"/>
<path d="M52.944 44.178C51.7771 44.417 50.5667 44.327 49.448 43.918C49.448 43.918 50.618 45.532 53.062 44.83L52.944 44.178Z" fill="#EB996E"/>
<path d="M50.0979 36.4139C50.0819 36.5139 49.7319 36.5339 49.3379 36.6579C48.9439 36.7819 48.6399 36.9539 48.5699 36.8799C48.5399 36.8459 48.5799 36.7459 48.6939 36.6319C48.8459 36.4856 49.0313 36.3785 49.2339 36.3199C49.4355 36.2559 49.6494 36.2408 49.8579 36.2759C50.0159 36.3079 50.1039 36.3659 50.0979 36.4139Z" fill="#E0E0E0"/>
<path d="M53.2299 36C53.1839 36.088 52.9319 36.052 52.6479 36.102C52.3639 36.152 52.1319 36.254 52.0619 36.182C52.0299 36.148 52.0619 36.062 52.1439 35.968C52.2678 35.8521 52.4241 35.7767 52.5919 35.752C52.7598 35.7234 52.9325 35.7479 53.0859 35.822C53.1999 35.878 53.2479 35.952 53.2299 36Z" fill="#263238"/>
<path d="M51.2 33.184C50.6 32.162 49.654 32.216 48.642 32.262C47.63 32.308 46.222 32.98 45.492 33.682C44.922 34.23 44.292 34.91 43.932 35.614C43.572 36.318 43.5 37.014 43.332 37.752C43.08 38.906 43.298 40.102 43.424 41.276C43.5823 42.7512 43.5937 44.2385 43.458 45.716C43.41 46.246 43.374 46.876 44.098 47.06C44.2329 47.0916 44.3715 47.1044 44.51 47.098C45.584 47.066 46.658 47.266 47.84 47.158L48.562 47.04C49.478 46.894 49.844 46.194 49.686 45.406C49.21 43.024 47.486 39.264 47.238 38.528C47.236 38.528 46.01 33.284 51.2 33.184Z" fill="#263238"/>
<path d="M50.862 33.262C50.7294 33.4135 50.6292 33.5904 50.5673 33.7819C50.5054 33.9734 50.4832 34.1756 50.502 34.376C50.502 34.776 50.5979 35.176 50.5859 35.576C50.5725 35.9803 50.4617 36.3755 50.2629 36.7279C50.064 37.0802 49.7831 37.3794 49.444 37.6C49.228 37.738 48.914 37.83 48.738 37.644C48.7895 37.9191 48.7574 38.2033 48.6458 38.46C48.5342 38.7167 48.3483 38.934 48.112 39.084C47.766 39.284 47.348 39.334 46.972 39.484C46.596 39.634 46.232 39.966 46.274 40.368L45.674 37.622L46.062 35.046L48.2299 33.246L50.862 33.262Z" fill="#263238"/>
<path d="M47.3459 38.5099C47.4193 38.4422 47.4862 38.3679 47.5459 38.2879C47.6939 38.0601 47.7851 37.8002 47.8119 37.5299C47.8453 37.1302 47.8379 36.7282 47.7899 36.3299C47.731 35.8363 47.7096 35.3388 47.7259 34.8419C47.7456 34.3395 47.8989 33.8514 48.1699 33.4279C48.2927 33.2454 48.4504 33.0891 48.6339 32.9679C48.794 32.8637 48.9715 32.7892 49.1579 32.7479C49.4274 32.681 49.7113 32.7021 49.9679 32.8079C50.0078 32.8248 50.0465 32.8442 50.0839 32.8659C50.1113 32.8811 50.1374 32.8985 50.1619 32.9179C50.1835 32.9326 50.2036 32.9493 50.2219 32.9679C50.1392 32.9125 50.0515 32.865 49.9599 32.8259C49.7047 32.727 49.4248 32.7109 49.1599 32.7799C48.7669 32.8754 48.4246 33.1162 48.2019 33.4539C47.9362 33.874 47.7871 34.3572 47.7699 34.8539C47.7536 35.3481 47.7736 35.8427 47.8299 36.3339C47.8776 36.7377 47.8816 37.1453 47.8419 37.5499C47.8112 37.8249 47.7129 38.088 47.5559 38.3159C47.4968 38.3914 47.4259 38.4569 47.3459 38.5099Z" fill="#455A64"/>
<path d="M45.21 38.508C45.3337 38.4754 45.4522 38.4256 45.562 38.36C45.8498 38.1579 46.0773 37.8814 46.22 37.56C46.3258 37.3434 46.4102 37.117 46.472 36.884C46.5347 36.6154 46.5583 36.3393 46.542 36.064C46.53 35.772 46.494 35.464 46.478 35.146C46.4689 34.9828 46.4689 34.8192 46.478 34.656C46.4903 34.4871 46.5185 34.3197 46.562 34.156C46.7382 33.5308 47.142 32.9943 47.694 32.652C48.1455 32.3772 48.6738 32.2558 49.2 32.306C49.5507 32.3357 49.8914 32.4386 50.2 32.608C50.3139 32.6685 50.4212 32.7409 50.52 32.824L50.498 32.812L50.436 32.77C50.4031 32.7469 50.369 32.7256 50.334 32.706C50.292 32.682 50.246 32.652 50.19 32.624C49.8791 32.463 49.539 32.3664 49.19 32.34C48.6719 32.2958 48.1534 32.4185 47.71 32.69C47.1681 33.0274 46.7722 33.5553 46.6 34.17C46.5572 34.3297 46.5297 34.4931 46.518 34.658C46.508 34.822 46.518 34.984 46.518 35.142C46.534 35.46 46.57 35.768 46.58 36.062C46.5964 36.3415 46.5708 36.622 46.504 36.894C46.4408 37.1296 46.3537 37.3581 46.244 37.576C46.0967 37.9004 45.8619 38.1775 45.566 38.376C45.4834 38.425 45.3946 38.4627 45.302 38.488L45.23 38.504C45.218 38.508 45.21 38.51 45.21 38.508Z" fill="#455A64"/>
<path d="M48.7379 37.6379C48.7383 37.6459 48.7383 37.6539 48.7379 37.6619C48.7379 37.6799 48.7379 37.7039 48.7379 37.7319C48.7379 37.7599 48.7379 37.8019 48.7379 37.8459C48.7379 37.8899 48.7379 37.9439 48.7379 38.0039C48.7254 38.1477 48.6931 38.289 48.6419 38.4239C48.5747 38.6063 48.4689 38.7721 48.3319 38.9099C47.9519 39.2565 47.4652 39.4632 46.9519 39.4959C46.6481 39.528 46.3417 39.528 46.0379 39.4959C45.7074 39.4672 45.3823 39.3932 45.0719 39.2759L45.0099 39.2499L45.0739 39.2299C45.4309 39.1202 45.7684 38.9548 46.0739 38.7399L46.0899 38.7299L46.1119 38.7719C45.388 39.0107 44.6043 38.9959 43.8899 38.7299L43.8419 38.7119L43.8879 38.6899C44.3275 38.4763 44.7262 38.1873 45.0659 37.8359C45.3294 37.557 45.5113 37.2111 45.5919 36.8359C45.6354 36.5905 45.6354 36.3393 45.5919 36.0939L45.5459 35.8939C45.5459 35.8739 45.5459 35.8559 45.5339 35.8439C45.5219 35.8319 45.5339 35.8259 45.5339 35.8259V35.8419L45.5479 35.8919C45.5619 35.9379 45.5779 36.0019 45.6019 36.0919C45.6724 36.405 45.6628 36.7307 45.574 37.039C45.4852 37.3474 45.3201 37.6283 45.0939 37.8559C44.7547 38.2141 44.3536 38.5081 43.9099 38.7239V38.6839C44.6177 38.9458 45.3935 38.9592 46.1099 38.7219L46.2659 38.6699L46.1319 38.7639L46.1159 38.7759C45.8104 38.9922 45.473 39.1596 45.1159 39.2719V39.2279C45.4224 39.344 45.7434 39.4173 46.0699 39.4459C46.3697 39.479 46.6722 39.479 46.9719 39.4459C47.4775 39.4167 47.9582 39.2172 48.3359 38.8799C48.471 38.7459 48.5766 38.5852 48.6459 38.4079C48.6972 38.2748 48.7314 38.1357 48.7479 37.9939C48.7479 37.9359 48.7479 37.8839 48.7579 37.8379C48.7599 37.8 48.7599 37.7619 48.7579 37.7239V37.6539C48.7516 37.6482 48.7449 37.6429 48.7379 37.6379Z" fill="#455A64"/>
<path d="M44.8239 46.04C44.8099 46.04 44.7359 44.598 44.6559 42.818C44.5759 41.038 44.5239 39.594 44.5379 39.594C44.5519 39.594 44.6259 41.036 44.7039 42.816C44.7819 44.596 44.8379 46.038 44.8239 46.04Z" fill="#455A64"/>
<path d="M46.2939 46.158C46.2857 46.1394 46.2797 46.1199 46.2759 46.1C46.2639 46.056 46.2499 46 46.2339 45.93C46.1959 45.784 46.1479 45.57 46.0919 45.306C45.9759 44.776 45.8339 44.04 45.7059 43.224C45.5779 42.408 45.4879 41.664 45.4359 41.126C45.4079 40.856 45.3899 40.638 45.3779 40.488C45.3779 40.416 45.3779 40.358 45.3779 40.314C45.3761 40.2933 45.3761 40.2726 45.3779 40.252C45.3809 40.2718 45.3809 40.2921 45.3779 40.312C45.3779 40.356 45.3899 40.414 45.3999 40.486C45.4159 40.642 45.4419 40.858 45.4719 41.122C45.5319 41.66 45.6279 42.402 45.7559 43.218C45.8839 44.034 46.0199 44.768 46.1259 45.298C46.1799 45.56 46.2219 45.772 46.2539 45.926C46.2679 45.996 46.2779 46.054 46.2859 46.098C46.2909 46.1176 46.2936 46.1377 46.2939 46.158Z" fill="#455A64"/>
<path d="M52.3259 40.7219C52.2706 40.6778 52.2065 40.6457 52.1379 40.6279H52.1499C52.062 40.5814 51.962 40.563 51.8633 40.5752C51.7645 40.5873 51.6719 40.6295 51.5979 40.6959C51.513 40.7779 51.4593 40.8867 51.4459 41.0039C51.4225 41.1257 51.4431 41.2519 51.5039 41.3599C51.5722 41.4568 51.6742 41.5246 51.7899 41.5499C51.9054 41.5739 52.0245 41.5739 52.1399 41.5499C52.2514 41.5361 52.3554 41.4862 52.4359 41.4079C52.4931 41.3378 52.5248 41.2504 52.5259 41.1599C52.5286 41.0765 52.5119 40.9935 52.4772 40.9175C52.4426 40.8415 52.3908 40.7746 52.3259 40.7219Z" fill="#EB996E"/>
<path d="M52.574 41.2479C52.574 41.2479 52.574 41.2219 52.574 41.1859C52.5696 41.1613 52.56 41.1379 52.5458 41.1172C52.5317 41.0965 52.5134 41.079 52.492 41.0659C52.4158 41.0387 52.3348 41.0271 52.254 41.0319C52.1502 41.0313 52.047 41.0468 51.948 41.0779C51.761 41.1282 51.5805 41.2 51.41 41.2919C51.27 41.3539 51.176 41.3739 51.172 41.3619C51.168 41.3499 51.25 41.3039 51.372 41.2259C51.5391 41.1133 51.7236 41.0288 51.918 40.9759C51.976 40.9619 52.026 40.9499 52.088 40.9399C52.1426 40.936 52.1974 40.936 52.252 40.9399C52.3492 40.9388 52.445 40.963 52.53 41.0099C52.5581 41.0307 52.5802 41.0584 52.5942 41.0903C52.6083 41.1222 52.6137 41.1573 52.61 41.1919C52.6 41.2379 52.578 41.2519 52.574 41.2479Z" fill="#263238"/>
<path d="M56.5439 58.2879C56.5439 58.2879 58.9939 57.9279 59.5979 58.1639C60.2019 58.3999 63.2539 59.8739 63.5979 60.5119C63.9419 61.1499 64.7379 62.2899 64.8399 62.8599C64.9419 63.4299 65.0399 65.1399 65.0399 65.1399C64.8378 65.133 64.6457 65.0497 64.5024 64.9068C64.3592 64.764 64.2754 64.5721 64.2679 64.3699L64.0339 65.1399C64.0339 65.1399 63.3959 65.3079 63.2959 64.8719C63.2959 64.8719 62.9259 65.3419 62.7599 64.2719C62.6749 63.8092 62.6188 63.3416 62.5919 62.8719L62.0879 62.1339L62.3559 63.1199L62.2219 64.6159C62.2219 64.6159 61.6859 64.6159 61.6519 64.1459C61.6133 63.7961 61.5348 63.4519 61.4179 63.1199L60.7459 62.0659C60.7459 62.0659 59.0499 61.1819 58.6699 60.7579C58.4966 60.5922 58.3538 60.3972 58.2479 60.1819L56.5739 60.7399L56.5439 58.2879Z" fill="#FFBE9D"/>
<path d="M63.7619 65.1779C63.6518 65.1828 63.5425 65.1572 63.4459 65.1039C63.4056 65.0802 63.3706 65.0484 63.3431 65.0105C63.3156 64.9727 63.2961 64.9296 63.2859 64.8839C63.2596 64.9165 63.2253 64.9418 63.1865 64.9575C63.1477 64.9733 63.1055 64.9789 63.0639 64.9739C62.9199 64.9359 62.8139 64.6999 62.7459 64.2699C62.6622 63.807 62.6061 63.3395 62.5779 62.8699L62.0919 62.1579L62.3539 63.1139L62.2179 64.6159C62.2179 64.6159 61.6759 64.6159 61.6419 64.1419C61.604 63.792 61.5255 63.4477 61.4079 63.1159L60.7379 62.0639C60.6859 62.0359 59.0339 61.1719 58.6639 60.7559C58.493 60.5891 58.3498 60.396 58.2399 60.1839L56.5659 60.7419L56.5439 58.2979C56.5679 58.2979 59.0019 57.9419 59.5999 58.1739C59.9059 58.2939 60.8279 58.7259 61.6959 59.1979C62.4619 59.6139 63.4139 60.1819 63.5939 60.5259C63.6999 60.7259 63.8519 60.9759 64.0139 61.2419C64.3659 61.8239 64.7659 62.4819 64.8359 62.8759C64.9359 63.4399 65.0359 65.1399 65.0359 65.1559C64.9137 65.1494 64.7944 65.1167 64.6859 65.0599C64.5663 64.9932 64.4649 64.8982 64.3906 64.7831C64.3163 64.668 64.2714 64.5364 64.2599 64.3999L64.0299 65.1539C63.9418 65.172 63.8519 65.18 63.7619 65.1779ZM63.2899 64.8619V64.8719C63.3001 64.9181 63.3195 64.9618 63.347 65.0003C63.3745 65.0388 63.4095 65.0714 63.4499 65.0959C63.63 65.1731 63.8309 65.1872 64.0199 65.1359L64.2599 64.3459V64.3679C64.2677 64.5681 64.3504 64.7581 64.4914 64.9003C64.6325 65.0425 64.8218 65.1266 65.0219 65.1359C65.0219 65.0299 64.9159 63.4079 64.8219 62.8599C64.7539 62.4699 64.3539 61.8119 63.9999 61.2299C63.8399 60.9659 63.6859 60.7139 63.5819 60.5139C63.4779 60.3139 63.0739 59.9419 61.6879 59.1899C60.8199 58.7199 59.8979 58.2859 59.5919 58.1679C59.0079 57.9399 56.6619 58.2759 56.5459 58.2919L56.5679 60.7219L58.2379 60.1639C58.3462 60.3765 58.4888 60.5697 58.6599 60.7359C59.0339 61.1559 60.7179 62.0359 60.7339 62.0439L61.4059 63.0959C61.5227 63.4294 61.6019 63.7749 61.6419 64.1259C61.6719 64.5619 62.1499 64.5899 62.2019 64.5919L62.3359 63.0999L62.0599 62.0859L62.5799 62.8499C62.6073 63.3196 62.6634 63.7871 62.7479 64.2499C62.8299 64.7799 62.9639 64.9219 63.0599 64.9479H63.0959C63.1667 64.9395 63.2314 64.9036 63.2759 64.8479L63.2899 64.8619Z" fill="#EB996E"/>
<path d="M58.2219 58.084H57.5239V60.474H58.2219V58.084Z" fill="#263238"/>
<path d="M58.6939 57.614H57.0499V58.084H58.6939V57.614Z" fill="#455A64"/>
<path d="M50.5619 44.3859C50.5619 44.3859 49.7619 44.7719 49.7619 45.4039C49.7619 46.0359 49.6279 51.1619 49.6279 51.1619L52.5179 49.5379L52.0479 46.1379L55.1739 44.2219C55.1739 44.2219 55.7739 43.1559 55.7159 42.8219C55.6579 42.4879 55.0399 41.8379 54.7359 41.8719C54.6411 41.8874 54.5504 41.9222 54.4696 41.9741C54.3887 42.0261 54.3194 42.0941 54.2659 42.1739L53.3239 42.3739C53.3239 42.3739 53.3919 42.9739 53.7959 42.9459L54.0639 42.9119L54.0299 43.1459L53.5599 43.4839L50.5619 44.3859Z" fill="#FFBE9D"/>
<path d="M50.562 44.386L50.612 44.366L50.762 44.316L51.346 44.13L53.546 43.448H53.536L54.006 43.11L53.992 43.134C54.002 43.062 54.012 42.98 54.024 42.898L54.064 42.94L53.804 42.974C53.7542 42.9795 53.7038 42.9751 53.6557 42.9611C53.6077 42.947 53.5629 42.9235 53.524 42.892C53.3843 42.7517 53.2981 42.5671 53.28 42.37V42.334H53.318L54.26 42.134L54.232 42.154C54.3117 42.0331 54.424 41.9374 54.556 41.878C54.6249 41.8461 54.7 41.8298 54.776 41.83C54.8524 41.8361 54.9264 41.8601 54.992 41.9C55.2457 42.0536 55.4611 42.2628 55.622 42.512C55.6652 42.5748 55.702 42.6418 55.732 42.712C55.7655 42.7879 55.7766 42.8719 55.764 42.954C55.738 43.108 55.6936 43.2584 55.632 43.402C55.5118 43.693 55.3736 43.9762 55.218 44.25V44.26L52.092 46.178L52.116 46.126C52.132 46.234 52.148 46.35 52.164 46.466C52.31 47.522 52.452 48.548 52.586 49.528V49.562L52.556 49.58L49.646 51.2L49.574 51.24V51.16C49.632 49.036 49.68 47.26 49.712 46.006C49.712 45.85 49.722 45.702 49.726 45.562C49.7217 45.4273 49.7358 45.2928 49.768 45.162C49.8418 44.9654 49.9659 44.7916 50.128 44.658C50.2559 44.5419 50.4018 44.4474 50.56 44.378C50.56 44.378 50.56 44.378 50.532 44.398L50.45 44.448C50.3416 44.5156 50.2398 44.5933 50.146 44.68C49.9922 44.8131 49.8757 44.9841 49.808 45.176C49.7796 45.3005 49.7682 45.4283 49.774 45.556C49.774 45.696 49.774 45.844 49.774 46C49.75 47.254 49.716 49.032 49.674 51.156L49.606 51.114L52.494 49.484L52.468 49.536C52.332 48.556 52.19 47.536 52.042 46.474C52.026 46.358 52.01 46.242 51.996 46.134V46.1L52.024 46.082L55.152 44.168L55.134 44.186C55.2878 43.9167 55.4247 43.6382 55.544 43.352C55.6033 43.217 55.6456 43.0753 55.67 42.93C55.6782 42.7909 55.6339 42.6539 55.546 42.546C55.3912 42.3097 55.1863 42.1103 54.946 41.962C54.8927 41.9291 54.8324 41.9092 54.77 41.904C54.7079 41.903 54.6464 41.916 54.59 41.942C54.4744 41.995 54.375 42.0779 54.302 42.182L54.292 42.198H54.276L53.334 42.398L53.366 42.354C53.3798 42.5311 53.4547 42.698 53.578 42.826C53.6088 42.851 53.6443 42.8695 53.6825 42.8805C53.7206 42.8915 53.7606 42.8947 53.8 42.89L54.06 42.86H54.108V42.906C54.096 42.99 54.084 43.07 54.074 43.142V43.158H54.062L53.59 43.492L51.39 44.146L50.79 44.316L50.638 44.358L50.562 44.386Z" fill="#EB996E"/>
<path d="M54.444 43.784C54.434 43.772 54.53 43.686 54.67 43.536C54.7502 43.4501 54.8176 43.3531 54.87 43.248C54.9277 43.1195 54.9485 42.9776 54.93 42.838C54.9181 42.6943 54.8913 42.5522 54.85 42.414C54.8323 42.3642 54.799 42.3215 54.755 42.2923C54.711 42.2631 54.6587 42.2489 54.606 42.252C54.522 42.2524 54.4381 42.2437 54.356 42.226C54.296 42.206 54.274 42.178 54.276 42.174C54.278 42.17 54.31 42.174 54.364 42.186C54.4453 42.1902 54.5267 42.1902 54.608 42.186C54.6712 42.1826 54.7342 42.1943 54.792 42.22C54.8593 42.2563 54.9117 42.315 54.94 42.386C54.9906 42.532 55.0222 42.6839 55.034 42.838C55.054 42.9963 55.0268 43.157 54.956 43.3C54.8952 43.4117 54.8154 43.5119 54.72 43.596C54.642 43.6771 54.548 43.7411 54.444 43.784Z" fill="#EB996E"/>
<path d="M54.504 66.9999C53.29 65.3999 50.716 65.2599 49.396 66.7819C48.9405 67.3002 48.6951 67.97 48.708 68.6599C48.708 71.8199 50.412 80.3579 50.786 82.8599C51.186 85.5399 52.298 90.1259 52.298 90.1259L57.756 89.3519C57.756 89.3519 55.708 73.3079 55.454 71.4279C55.2 69.5479 54.81 67.9339 54.81 67.9339L54.504 66.9999Z" fill="#263238"/>
<path d="M45.452 64.116C45.62 64.004 53.252 61.164 54.588 60.886C55.924 60.608 57.166 60.456 58.662 61.844C60.49 63.536 63.822 83.802 63.822 83.802C63.822 83.802 58.2 84.756 58.2 84.644C58.2 84.532 54.348 68.044 54.348 68.044L47.574 72.38L43.804 66.78L45.452 64.116Z" fill="#263238"/>
<path d="M55.9679 74.52C55.9611 74.504 55.9564 74.4872 55.9539 74.47C55.9539 74.43 55.9379 74.38 55.9259 74.318C55.9039 74.176 55.8719 73.982 55.8319 73.734C55.7539 73.218 55.6459 72.486 55.5099 71.584C55.3739 70.682 55.1999 69.6 54.8999 68.422C54.7608 67.8078 54.5245 67.2197 54.1999 66.68C53.8442 66.1058 53.3176 65.6575 52.6939 65.398C52.0597 65.1629 51.3622 65.1629 50.7279 65.398C50.1327 65.6031 49.6088 65.9744 49.2179 66.468C48.8938 66.9401 48.7126 67.4956 48.6959 68.068C48.6619 68.602 48.6839 69.108 48.6959 69.564C48.7519 70.476 48.8819 71.212 48.9199 71.724C48.9419 71.98 48.9519 72.18 48.9559 72.314V72.468C48.9582 72.4859 48.9582 72.5041 48.9559 72.522C48.9537 72.5041 48.9537 72.4859 48.9559 72.468C48.9559 72.426 48.9559 72.376 48.9439 72.314C48.9339 72.18 48.9179 71.98 48.8899 71.726C48.8399 71.216 48.6899 70.486 48.6319 69.566C48.6018 69.0645 48.5972 68.5619 48.6179 68.06C48.6335 67.4728 48.8182 66.9027 49.1499 66.418C49.5495 65.9066 50.0885 65.5218 50.7019 65.31C51.3594 65.0659 52.0825 65.0659 52.7399 65.31C53.3837 65.5788 53.9271 66.0425 54.2939 66.636C54.622 67.1825 54.8604 67.778 54.9999 68.4C55.2899 69.582 55.4579 70.664 55.5899 71.572C55.7219 72.48 55.8079 73.21 55.8779 73.728C55.9099 73.976 55.9359 74.172 55.9539 74.314C55.9539 74.376 55.9659 74.428 55.9699 74.468C55.9715 74.4853 55.9709 74.5028 55.9679 74.52Z" fill="#455A64"/>
<path d="M51.254 61.9819C51.2266 62.0003 51.197 62.0151 51.166 62.0259L50.902 62.1339C50.674 62.2279 50.34 62.3559 49.926 62.5139C49.102 62.8279 47.954 63.2479 46.69 63.7139C45.426 64.1799 44.29 64.6079 43.462 64.9359L42.492 65.3259L42.228 65.4319C42.1975 65.4462 42.1652 65.4563 42.132 65.4619C42.132 65.4619 42.16 65.4419 42.218 65.4119L42.476 65.2899C42.7 65.1839 43.026 65.0379 43.434 64.8679C44.248 64.5219 45.386 64.0799 46.654 63.6159C47.922 63.1519 49.07 62.7439 49.902 62.4459L50.888 62.0979L51.158 62.0079C51.1883 61.994 51.2207 61.9852 51.254 61.9819Z" fill="#455A64"/>
</svg>
