<svg width="40" height="40" viewBox="0 0 40 40" fill="none" xmlns="http://www.w3.org/2000/svg">
<mask id="path-1-inside-1_2107_4410" fill="white">
<path d="M20.4 4.87988H21.84L22.6133 4.95988L23.2533 5.06655L24.0533 5.27988L24.6933 5.51988L25.2267 5.75988L25.8133 6.10655L26.2667 6.42655L26.56 6.66655L26.8267 6.90655L27.3067 7.38655L27.5467 7.67988L27.84 8.07988L28.1333 8.53322L28.5333 9.30655L28.8 9.94655L29.0667 10.7732L29.2533 11.5732L29.3867 12.3732L29.4933 13.4399L29.52 13.8932V15.0399L29.4667 15.9465L29.36 17.0132L29.2267 17.9465L29.04 18.9599L28.9067 19.5465L28.9333 19.6799L29.2267 19.9732L29.4133 20.1865L29.68 20.5332L30.0267 21.0932L30.24 21.4932L30.48 22.1065L30.64 22.6399L30.7467 23.2265L30.8 23.6799V24.5065L30.72 25.1199L30.56 25.7865L30.3733 26.3465L30.08 26.9865L29.7867 27.4665L29.5467 27.7865L29.2267 28.1599L28.96 28.4532L28.7467 28.6399L28.3733 28.9332L27.9733 29.1999L27.4933 29.4665L26.8267 29.7332L26.2667 29.8932L25.7067 29.9999L25.2 30.0532H24.6933L24.16 29.9999L23.4933 29.8665L22.96 29.7065L22.4 29.4665L22 29.2532L21.6 28.9865L21.28 28.7465L21.0133 28.5065L20.9067 28.4265V28.3732L20.8 28.3199L20.5067 27.9999L20.1867 27.5732L19.92 27.1732L19.6267 26.6132L19.4933 26.2665H19.2L18.6933 26.2132L18.1867 26.1065L17.76 25.9732L17.36 25.8132L16.8533 25.5199L16.72 25.4132L16.64 25.3865L16.5867 26.0532L16.48 27.1465L16.3733 27.5732L16.24 27.8932L16.0533 28.2132L15.84 28.4799L15.68 28.6665L15.36 28.9065L14.9867 29.1199L14.56 29.2799L14.1067 29.3599L13.28 29.3865H12.64L11.6 29.4932L10.8267 29.6532L10.1867 29.8399L9.68001 30.0265L9.01334 30.3465L8.56001 30.6399L8.24001 30.8799L7.76001 31.3599L7.49334 31.7599L7.36001 32.0799L7.28001 32.4265L7.25334 34.7465L7.20001 34.9599L7.09334 35.1199L6.85334 35.2799L6.74668 35.3065H6.53334L6.26668 35.1732L6.10668 34.9599L6.05334 34.7732V33.9465L6.08001 32.3465L6.16001 31.8932L6.34668 31.3865L6.58668 30.9599L6.80001 30.6665L7.12001 30.2932L7.46668 29.9732L7.92001 29.6265L8.40001 29.3332L9.01334 29.0132L9.73334 28.7199L10.56 28.4799L11.52 28.2932L11.9467 28.2399L12.88 28.1865L14.08 28.1599L14.48 28.0265L14.8 27.8399L14.9867 27.6532L15.12 27.4665L15.2533 27.0932L15.3067 26.8265L15.4667 25.0932L15.52 24.3999L15.44 24.2665L15.12 23.8932L14.8 23.4665L14.48 22.9865L14.24 22.5865L13.8667 21.8932L13.4933 21.0932L13.12 20.1065L12.8533 19.2265L12.6667 18.4532L12.5333 17.7865L12.4533 18.0265L12.2667 18.8532L12.1333 19.6532L12.0533 20.3465L12 21.1465L11.92 21.3865L11.7867 21.5465L11.5733 21.6532L11.3333 21.6799L11.0933 21.5999L10.9333 21.4665L10.8267 21.2799L10.8 21.1465L10.8267 20.5865L10.9867 19.2265L11.1467 18.3199L11.3333 17.5465L11.52 16.9599L11.68 16.5332L11.8667 16.1065L12.16 15.5999L12.3467 15.3332L12.6933 14.9065L12.88 14.7199L13.3333 14.3732L13.8933 14.0799L14.5333 13.8665L15.7333 13.5465L17.3867 13.0665L18.5067 12.7199L18.96 12.5599L19.3867 12.3465L19.7067 12.1599L20.0533 11.8932L20.32 11.6265L20.5067 11.3599L20.72 10.9332L20.8 10.5865L20.8267 10.2399L20.9333 9.97322L21.1467 9.81322L21.3067 9.75988H21.52L21.7867 9.86655L21.92 10.0265L22 10.2399V10.7199L21.92 11.1465L21.76 11.5999L21.4667 12.1065L21.1733 12.4532L20.8 12.8265L20.4267 13.1199L19.92 13.4399L19.4133 13.6799L18.4533 13.9999L17.2 14.3732L15.7067 14.7999L14.8 15.0399L14.3733 15.1999L14.0267 15.3865L13.6533 15.6799L13.5467 15.7865L13.52 15.9199L13.5467 15.9999L13.6 16.5599L13.76 17.5465L13.9467 18.3999L14.2133 19.3332L14.48 20.0799L14.6933 20.6132L14.9867 21.2532L15.3867 22.0265L15.76 22.6132L16.1333 23.1199L16.4267 23.4665L16.6133 23.6799L17.0133 24.0799L17.4667 24.4265L17.8667 24.6665L18.2667 24.8532L18.6933 24.9865L19.1733 25.0665L19.12 24.7465L19.0933 24.4265V23.6799L19.1467 23.1465L19.1733 23.0399L19.0133 22.9865L18.8267 22.8799L18.72 22.6665V22.4532L18.8 22.2932L18.96 22.1599L19.0667 22.1332H19.28L19.3867 22.1599L19.6 21.6265L19.8133 21.1999L20.0267 20.8265L20.32 20.3999L20.6133 20.0532L20.9067 19.7332L21.2533 19.4132L21.68 19.0932L22.2133 18.7732L22.7733 18.5065L23.4133 18.2932L23.8933 18.1865L24.4533 18.1065L25.3067 18.0799L25.3867 17.7599L25.52 16.9332L25.6 16.1332V14.6399L25.5467 14.0532L25.3867 13.1999L25.2 12.5599L25.04 12.1332L24.8 11.5999L24.56 11.1999L24.24 10.7465L24 10.4799L23.8133 10.2665L23.4667 9.94655L22.96 9.57322L22.3467 9.22655L22.1867 9.11988L22.0533 8.95988L22 8.85322L21.9733 8.63988L22.0267 8.42655L22.1333 8.26655L22.32 8.13322L22.6133 8.07988L22.88 8.15988L23.3867 8.42655L23.9467 8.79988L24.3733 9.14655L24.5333 9.27988L24.8533 9.59988L25.04 9.81322L25.36 10.2132L25.68 10.7199L26 11.3065L26.2133 11.8132L26.4533 12.5332L26.6133 13.1999L26.7467 14.0265L26.8 14.5599L26.8267 15.0665V15.6265L26.7733 16.5332L26.6667 17.3865L26.5333 18.1599L26.5067 18.3199L26.7467 18.3732L27.4133 18.6399L27.8133 18.8532H27.8667L28.1067 17.8665L28.2933 16.8532L28.4 15.9999L28.4533 15.3065V13.7599L28.3733 12.9065L28.24 12.1065L28.08 11.4132L27.76 10.4532L27.4933 9.83988L27.1733 9.25322L26.88 8.79988L26.5333 8.34655L26.2133 7.99988L25.8933 7.67988L25.52 7.38655L25.2533 7.19988L24.6933 6.87988L24.16 6.63988L23.52 6.42655L22.8267 6.26655L22.0267 6.15988L21.68 6.13322H20.3467L19.1733 6.23988L18.3733 6.37322L17.5733 6.55988L16.8 6.79988L15.92 7.14655L15.3867 7.38655L14.8 7.67988L14.16 8.05322L13.6533 8.37322L13.1467 8.74655L12.72 9.14655L12.5067 9.38655L12.24 9.78655L12.0533 10.1865L11.76 11.0665L11.52 11.8399L11.28 12.5332L10.9867 13.2799L10.56 14.1599L10.1067 14.9065L9.65334 15.5732L9.38668 15.9199L9.20001 16.1599L8.85334 16.5599L8.69334 16.7465L8.40001 16.9865L8.05334 17.2799L7.78668 17.5465L7.60001 17.8132L7.38668 18.1865L7.22668 18.5332L7.06668 19.0932L6.96001 19.7865V20.5865L7.06668 21.3332L7.25334 21.9999L7.49334 22.5865L7.70668 23.0132L7.97334 23.4932L8.24001 23.8932L8.58668 24.3732L8.93334 24.7999L9.17334 25.0932L9.46668 25.4132L9.65334 25.6265L9.97334 25.9732L10.1867 26.1865V26.2399H10.24L10.4267 26.4532L10.7733 26.7999L10.9333 27.0399L10.96 27.1199V27.4132L10.8267 27.6265L10.6933 27.7599L10.5067 27.8399H10.24L10.0533 27.7599L9.78668 27.5199L9.36001 27.0932L9.17334 26.8799L8.80001 26.4799L8.53334 26.1865L8.34668 25.9732L8.10668 25.7065L7.81334 25.3332L7.44001 24.8532L7.01334 24.2132L6.77334 23.8132L6.50668 23.3332L6.21334 22.6665L5.97334 21.9465L5.84001 21.3065L5.76001 20.6132V19.8399L5.84001 19.1465L6.00001 18.4532L6.21334 17.8665L6.53334 17.2532L6.85334 16.7999L7.14668 16.4799L7.49334 16.1599L7.84001 15.8932L8.05334 15.6799L8.34668 15.3065L8.69334 14.8532L9.06668 14.2932L9.41334 13.7332L9.78668 13.0132L10.1333 12.1599L10.3733 11.4665L10.5867 10.8265L10.8267 10.0532L11.0667 9.46655L11.2533 9.09322L11.5733 8.63988L11.8133 8.37322L12 8.15988L12.32 7.86655L12.6933 7.57322L13.0933 7.27988L13.6267 6.93322L14.1067 6.66655L14.72 6.34655L15.3867 6.05322L16.08 5.78655L17.0667 5.46655L17.8933 5.25322L18.8267 5.06655L19.5467 4.95988L20.4 4.87988Z"/>
</mask>
<path d="M20.4 4.87988H21.84L22.6133 4.95988L23.2533 5.06655L24.0533 5.27988L24.6933 5.51988L25.2267 5.75988L25.8133 6.10655L26.2667 6.42655L26.56 6.66655L26.8267 6.90655L27.3067 7.38655L27.5467 7.67988L27.84 8.07988L28.1333 8.53322L28.5333 9.30655L28.8 9.94655L29.0667 10.7732L29.2533 11.5732L29.3867 12.3732L29.4933 13.4399L29.52 13.8932V15.0399L29.4667 15.9465L29.36 17.0132L29.2267 17.9465L29.04 18.9599L28.9067 19.5465L28.9333 19.6799L29.2267 19.9732L29.4133 20.1865L29.68 20.5332L30.0267 21.0932L30.24 21.4932L30.48 22.1065L30.64 22.6399L30.7467 23.2265L30.8 23.6799V24.5065L30.72 25.1199L30.56 25.7865L30.3733 26.3465L30.08 26.9865L29.7867 27.4665L29.5467 27.7865L29.2267 28.1599L28.96 28.4532L28.7467 28.6399L28.3733 28.9332L27.9733 29.1999L27.4933 29.4665L26.8267 29.7332L26.2667 29.8932L25.7067 29.9999L25.2 30.0532H24.6933L24.16 29.9999L23.4933 29.8665L22.96 29.7065L22.4 29.4665L22 29.2532L21.6 28.9865L21.28 28.7465L21.0133 28.5065L20.9067 28.4265V28.3732L20.8 28.3199L20.5067 27.9999L20.1867 27.5732L19.92 27.1732L19.6267 26.6132L19.4933 26.2665H19.2L18.6933 26.2132L18.1867 26.1065L17.76 25.9732L17.36 25.8132L16.8533 25.5199L16.72 25.4132L16.64 25.3865L16.5867 26.0532L16.48 27.1465L16.3733 27.5732L16.24 27.8932L16.0533 28.2132L15.84 28.4799L15.68 28.6665L15.36 28.9065L14.9867 29.1199L14.56 29.2799L14.1067 29.3599L13.28 29.3865H12.64L11.6 29.4932L10.8267 29.6532L10.1867 29.8399L9.68001 30.0265L9.01334 30.3465L8.56001 30.6399L8.24001 30.8799L7.76001 31.3599L7.49334 31.7599L7.36001 32.0799L7.28001 32.4265L7.25334 34.7465L7.20001 34.9599L7.09334 35.1199L6.85334 35.2799L6.74668 35.3065H6.53334L6.26668 35.1732L6.10668 34.9599L6.05334 34.7732V33.9465L6.08001 32.3465L6.16001 31.8932L6.34668 31.3865L6.58668 30.9599L6.80001 30.6665L7.12001 30.2932L7.46668 29.9732L7.92001 29.6265L8.40001 29.3332L9.01334 29.0132L9.73334 28.7199L10.56 28.4799L11.52 28.2932L11.9467 28.2399L12.88 28.1865L14.08 28.1599L14.48 28.0265L14.8 27.8399L14.9867 27.6532L15.12 27.4665L15.2533 27.0932L15.3067 26.8265L15.4667 25.0932L15.52 24.3999L15.44 24.2665L15.12 23.8932L14.8 23.4665L14.48 22.9865L14.24 22.5865L13.8667 21.8932L13.4933 21.0932L13.12 20.1065L12.8533 19.2265L12.6667 18.4532L12.5333 17.7865L12.4533 18.0265L12.2667 18.8532L12.1333 19.6532L12.0533 20.3465L12 21.1465L11.92 21.3865L11.7867 21.5465L11.5733 21.6532L11.3333 21.6799L11.0933 21.5999L10.9333 21.4665L10.8267 21.2799L10.8 21.1465L10.8267 20.5865L10.9867 19.2265L11.1467 18.3199L11.3333 17.5465L11.52 16.9599L11.68 16.5332L11.8667 16.1065L12.16 15.5999L12.3467 15.3332L12.6933 14.9065L12.88 14.7199L13.3333 14.3732L13.8933 14.0799L14.5333 13.8665L15.7333 13.5465L17.3867 13.0665L18.5067 12.7199L18.96 12.5599L19.3867 12.3465L19.7067 12.1599L20.0533 11.8932L20.32 11.6265L20.5067 11.3599L20.72 10.9332L20.8 10.5865L20.8267 10.2399L20.9333 9.97322L21.1467 9.81322L21.3067 9.75988H21.52L21.7867 9.86655L21.92 10.0265L22 10.2399V10.7199L21.92 11.1465L21.76 11.5999L21.4667 12.1065L21.1733 12.4532L20.8 12.8265L20.4267 13.1199L19.92 13.4399L19.4133 13.6799L18.4533 13.9999L17.2 14.3732L15.7067 14.7999L14.8 15.0399L14.3733 15.1999L14.0267 15.3865L13.6533 15.6799L13.5467 15.7865L13.52 15.9199L13.5467 15.9999L13.6 16.5599L13.76 17.5465L13.9467 18.3999L14.2133 19.3332L14.48 20.0799L14.6933 20.6132L14.9867 21.2532L15.3867 22.0265L15.76 22.6132L16.1333 23.1199L16.4267 23.4665L16.6133 23.6799L17.0133 24.0799L17.4667 24.4265L17.8667 24.6665L18.2667 24.8532L18.6933 24.9865L19.1733 25.0665L19.12 24.7465L19.0933 24.4265V23.6799L19.1467 23.1465L19.1733 23.0399L19.0133 22.9865L18.8267 22.8799L18.72 22.6665V22.4532L18.8 22.2932L18.96 22.1599L19.0667 22.1332H19.28L19.3867 22.1599L19.6 21.6265L19.8133 21.1999L20.0267 20.8265L20.32 20.3999L20.6133 20.0532L20.9067 19.7332L21.2533 19.4132L21.68 19.0932L22.2133 18.7732L22.7733 18.5065L23.4133 18.2932L23.8933 18.1865L24.4533 18.1065L25.3067 18.0799L25.3867 17.7599L25.52 16.9332L25.6 16.1332V14.6399L25.5467 14.0532L25.3867 13.1999L25.2 12.5599L25.04 12.1332L24.8 11.5999L24.56 11.1999L24.24 10.7465L24 10.4799L23.8133 10.2665L23.4667 9.94655L22.96 9.57322L22.3467 9.22655L22.1867 9.11988L22.0533 8.95988L22 8.85322L21.9733 8.63988L22.0267 8.42655L22.1333 8.26655L22.32 8.13322L22.6133 8.07988L22.88 8.15988L23.3867 8.42655L23.9467 8.79988L24.3733 9.14655L24.5333 9.27988L24.8533 9.59988L25.04 9.81322L25.36 10.2132L25.68 10.7199L26 11.3065L26.2133 11.8132L26.4533 12.5332L26.6133 13.1999L26.7467 14.0265L26.8 14.5599L26.8267 15.0665V15.6265L26.7733 16.5332L26.6667 17.3865L26.5333 18.1599L26.5067 18.3199L26.7467 18.3732L27.4133 18.6399L27.8133 18.8532H27.8667L28.1067 17.8665L28.2933 16.8532L28.4 15.9999L28.4533 15.3065V13.7599L28.3733 12.9065L28.24 12.1065L28.08 11.4132L27.76 10.4532L27.4933 9.83988L27.1733 9.25322L26.88 8.79988L26.5333 8.34655L26.2133 7.99988L25.8933 7.67988L25.52 7.38655L25.2533 7.19988L24.6933 6.87988L24.16 6.63988L23.52 6.42655L22.8267 6.26655L22.0267 6.15988L21.68 6.13322H20.3467L19.1733 6.23988L18.3733 6.37322L17.5733 6.55988L16.8 6.79988L15.92 7.14655L15.3867 7.38655L14.8 7.67988L14.16 8.05322L13.6533 8.37322L13.1467 8.74655L12.72 9.14655L12.5067 9.38655L12.24 9.78655L12.0533 10.1865L11.76 11.0665L11.52 11.8399L11.28 12.5332L10.9867 13.2799L10.56 14.1599L10.1067 14.9065L9.65334 15.5732L9.38668 15.9199L9.20001 16.1599L8.85334 16.5599L8.69334 16.7465L8.40001 16.9865L8.05334 17.2799L7.78668 17.5465L7.60001 17.8132L7.38668 18.1865L7.22668 18.5332L7.06668 19.0932L6.96001 19.7865V20.5865L7.06668 21.3332L7.25334 21.9999L7.49334 22.5865L7.70668 23.0132L7.97334 23.4932L8.24001 23.8932L8.58668 24.3732L8.93334 24.7999L9.17334 25.0932L9.46668 25.4132L9.65334 25.6265L9.97334 25.9732L10.1867 26.1865V26.2399H10.24L10.4267 26.4532L10.7733 26.7999L10.9333 27.0399L10.96 27.1199V27.4132L10.8267 27.6265L10.6933 27.7599L10.5067 27.8399H10.24L10.0533 27.7599L9.78668 27.5199L9.36001 27.0932L9.17334 26.8799L8.80001 26.4799L8.53334 26.1865L8.34668 25.9732L8.10668 25.7065L7.81334 25.3332L7.44001 24.8532L7.01334 24.2132L6.77334 23.8132L6.50668 23.3332L6.21334 22.6665L5.97334 21.9465L5.84001 21.3065L5.76001 20.6132V19.8399L5.84001 19.1465L6.00001 18.4532L6.21334 17.8665L6.53334 17.2532L6.85334 16.7999L7.14668 16.4799L7.49334 16.1599L7.84001 15.8932L8.05334 15.6799L8.34668 15.3065L8.69334 14.8532L9.06668 14.2932L9.41334 13.7332L9.78668 13.0132L10.1333 12.1599L10.3733 11.4665L10.5867 10.8265L10.8267 10.0532L11.0667 9.46655L11.2533 9.09322L11.5733 8.63988L11.8133 8.37322L12 8.15988L12.32 7.86655L12.6933 7.57322L13.0933 7.27988L13.6267 6.93322L14.1067 6.66655L14.72 6.34655L15.3867 6.05322L16.08 5.78655L17.0667 5.46655L17.8933 5.25322L18.8267 5.06655L19.5467 4.95988L20.4 4.87988Z" stroke="#1C567D" stroke-width="3" mask="url(#path-1-inside-1_2107_4410)"/>
<path d="M30.5066 27.0933L30.6132 27.1466L31.0399 27.4666L31.7332 27.9999L32.2132 28.3733L32.6399 28.6933L33.0132 28.9866L33.3599 29.2533L33.7866 29.5733L34.0266 29.8133L34.2666 30.1866L34.3732 30.4533L34.4266 30.7199V31.1199L34.3199 31.5733L34.1066 31.9733L33.7066 32.3733L33.4132 32.5333L33.1466 32.6399L32.9332 32.6933H32.3732L31.9466 32.5599L31.6266 32.3733L31.3066 32.0799L31.1199 31.8933L30.9332 31.6799L30.6132 31.3333L30.4266 31.1199L30.2932 30.9866V30.9333H30.2399L30.0532 30.7199L29.8399 30.5066L29.6532 30.2933L29.3332 29.9466L29.1466 29.7333L28.9066 29.4933L28.7199 29.2799L28.6399 29.1733V29.1199L28.8799 28.9333L29.0932 28.7199L29.3066 28.5333L29.4932 28.3733L29.6266 28.4799L29.8132 28.6933L30.0532 28.9333L30.2399 29.1466L30.6399 29.5733L30.8266 29.7866L31.1466 30.1333L31.5732 30.5866L31.8132 30.8533L32.1066 31.1733L32.3466 31.4133L32.5332 31.4933H32.7732L32.9599 31.4133L33.0932 31.2799L33.1999 31.1199V30.7733L33.0932 30.5866L32.8532 30.3733L32.4266 30.0533L31.6799 29.4666L30.6666 28.6933L29.9732 28.1599L29.8132 28.0266L29.8932 27.8933L30.2399 27.4666L30.5066 27.0933Z" fill="#1C567D"/>
<path d="M24.9867 20.1602H25.2L25.4133 20.2402L25.5733 20.3735L25.68 20.6135V20.8268L25.52 21.2535L25.2533 21.8135L24.9067 22.4268L24.5867 22.9602L24.32 23.3335L24.0533 23.6802L23.8133 23.9735L23.5733 24.2402L23.1733 24.6668L22.88 24.9068L22.5333 25.2002L22.1333 25.4668L21.8933 25.5735H21.6533L21.3867 25.4402L21.2533 25.2802L21.1733 25.0402L21.2267 24.7202L21.36 24.5335L21.76 24.2668L22.0267 24.0535L22.4 23.7335L22.7733 23.3602L23.0133 23.0668L23.3333 22.6668L23.6 22.2668L23.8133 21.9202L24.08 21.4402L24.32 20.9868L24.56 20.4535L24.7467 20.2402L24.9867 20.1602Z" fill="#1C567D"/>
<path d="M16.8801 22H17.0668L17.2534 22.08L17.3868 22.24L17.4134 22.3467V22.5333L17.3334 22.72L17.2001 22.8267L17.0401 22.88L16.8001 22.8533L16.6401 22.7467L16.5334 22.5067V22.3467L16.6668 22.1333L16.8001 22.0267L16.8801 22Z" fill="#1C567D"/>
<path d="M18.2134 20.48L18.4534 20.5066L18.6134 20.6133L18.7201 20.8266V21.0133L18.6134 21.2266L18.5068 21.3066L18.3468 21.36L18.1068 21.3333L17.9468 21.2266L17.8401 21.0133V20.8266L17.9468 20.6133L18.1334 20.5066L18.2134 20.48Z" fill="#1C567D"/>
<path d="M13.0666 31.0669H13.3332L13.4932 31.1736L13.5999 31.3069L13.6266 31.3869V31.6269L13.5199 31.7869L13.3866 31.8936L13.2799 31.9469L13.0399 31.9202L12.8799 31.8136L12.7732 31.6536L12.7466 31.4402L12.8532 31.2002L13.0666 31.0669Z" fill="#1C567D"/>
<path d="M17.1734 18.3999L17.4134 18.4266L17.6267 18.6132L17.68 18.7466V18.9599L17.5467 19.1732L17.3334 19.2799H17.1467L16.9334 19.1732L16.8267 19.0132L16.8 18.9332V18.7466L16.9067 18.5332L17.0934 18.4266L17.1734 18.3999Z" fill="#1C567D"/>
<path d="M9.38676 32.7202L9.62676 32.7469L9.78676 32.8535L9.89343 33.0669V33.2802L9.78676 33.4402L9.65343 33.5469L9.52009 33.6002L9.28009 33.5735L9.09343 33.4402L9.01343 33.2802V33.0669L9.12009 32.8535L9.38676 32.7202Z" fill="#1C567D"/>
<path d="M12.0801 32.7202L12.3201 32.7469L12.4801 32.8535L12.5867 33.0135V33.2802L12.4801 33.4669L12.3467 33.5735L12.2401 33.6002H12.0534L11.8934 33.5202L11.7601 33.3602L11.7334 33.2802V33.0402L11.8134 32.8802L11.9467 32.7735L12.0801 32.7202Z" fill="#1C567D"/>
<path d="M10.7734 31.0669H11.0134L11.1734 31.1469L11.3067 31.3336L11.3334 31.5469L11.2534 31.7602L11.0934 31.8936L10.8534 31.9469L10.5867 31.8402L10.48 31.6802L10.4534 31.6002V31.3869L10.56 31.2002L10.7734 31.0669Z" fill="#1C567D"/>
<path d="M15.9467 20.1865H16.24L16.4 20.2932L16.5067 20.5065V20.7465L16.4 20.9065L16.2667 21.0132L16.1867 21.0399H15.9467L15.8134 20.9599L15.68 20.7999L15.6267 20.6665L15.6534 20.4799L15.7334 20.3199L15.8667 20.2132L15.9467 20.1865Z" fill="#1C567D"/>
<path d="M10.72 34.4268L10.9333 34.4534L11.0667 34.5334L11.1733 34.6668L11.2 34.7468V34.9868L11.0933 35.1734L10.9333 35.2801L10.6667 35.3068L10.4533 35.1734L10.3467 34.9601V34.7468L10.4267 34.5868L10.56 34.4801L10.72 34.4268Z" fill="#1C567D"/>
<path d="M14.2401 32.7202L14.4801 32.7735L14.6134 32.8802L14.6934 33.0135L14.7201 33.2002L14.6401 33.3869L14.5334 33.5202L14.3201 33.6002L14.1068 33.5735L13.9468 33.4669L13.8401 33.2535V33.0402L13.9201 32.8802L14.0534 32.7735L14.2401 32.7202Z" fill="#1C567D"/>
</svg>
